%TF.GenerationSoftware,KiCad,Pcbnew,7.0.6*%
%TF.CreationDate,2023-07-29T11:39:48+05:30*%
%TF.ProjectId,Copy of Trainer Kit Prototype,436f7079-206f-4662-9054-7261696e6572,rev?*%
%TF.SameCoordinates,Original*%
%TF.FileFunction,Legend,Bot*%
%TF.FilePolarity,Positive*%
%FSLAX46Y46*%
G04 Gerber Fmt 4.6, Leading zero omitted, Abs format (unit mm)*
G04 Created by KiCad (PCBNEW 7.0.6) date 2023-07-29 11:39:48*
%MOMM*%
%LPD*%
G01*
G04 APERTURE LIST*
%ADD10C,0.100000*%
%ADD11C,0.150000*%
%ADD12C,0.120000*%
G04 APERTURE END LIST*
D10*
X93626580Y-51528905D02*
X92817057Y-51528905D01*
X92817057Y-51528905D02*
X92721819Y-51481286D01*
X92721819Y-51481286D02*
X92674200Y-51433667D01*
X92674200Y-51433667D02*
X92626580Y-51338429D01*
X92626580Y-51338429D02*
X92626580Y-51147953D01*
X92626580Y-51147953D02*
X92674200Y-51052715D01*
X92674200Y-51052715D02*
X92721819Y-51005096D01*
X92721819Y-51005096D02*
X92817057Y-50957477D01*
X92817057Y-50957477D02*
X93626580Y-50957477D01*
X93626580Y-50576524D02*
X93626580Y-49957477D01*
X93626580Y-49957477D02*
X93245628Y-50290810D01*
X93245628Y-50290810D02*
X93245628Y-50147953D01*
X93245628Y-50147953D02*
X93198009Y-50052715D01*
X93198009Y-50052715D02*
X93150390Y-50005096D01*
X93150390Y-50005096D02*
X93055152Y-49957477D01*
X93055152Y-49957477D02*
X92817057Y-49957477D01*
X92817057Y-49957477D02*
X92721819Y-50005096D01*
X92721819Y-50005096D02*
X92674200Y-50052715D01*
X92674200Y-50052715D02*
X92626580Y-50147953D01*
X92626580Y-50147953D02*
X92626580Y-50433667D01*
X92626580Y-50433667D02*
X92674200Y-50528905D01*
X92674200Y-50528905D02*
X92721819Y-50576524D01*
D11*
X78734867Y-62275000D02*
X78761804Y-62194187D01*
X78761804Y-62194187D02*
X78842617Y-62113375D01*
X78842617Y-62113375D02*
X78950366Y-62059500D01*
X78950366Y-62059500D02*
X79058116Y-62059500D01*
X79058116Y-62059500D02*
X79138928Y-62086438D01*
X79138928Y-62086438D02*
X79273615Y-62167250D01*
X79273615Y-62167250D02*
X79354427Y-62248062D01*
X79354427Y-62248062D02*
X79435240Y-62382749D01*
X79435240Y-62382749D02*
X79462177Y-62463562D01*
X79462177Y-62463562D02*
X79462177Y-62571311D01*
X79462177Y-62571311D02*
X79408302Y-62679061D01*
X79408302Y-62679061D02*
X79354427Y-62732936D01*
X79354427Y-62732936D02*
X79246678Y-62786810D01*
X79246678Y-62786810D02*
X79192803Y-62786810D01*
X79192803Y-62786810D02*
X79004241Y-62598249D01*
X79004241Y-62598249D02*
X79111991Y-62490499D01*
X79004241Y-63083122D02*
X78438556Y-62517436D01*
X78438556Y-62517436D02*
X78223056Y-62732936D01*
X78223056Y-62732936D02*
X78196119Y-62813748D01*
X78196119Y-62813748D02*
X78196119Y-62867623D01*
X78196119Y-62867623D02*
X78223056Y-62948435D01*
X78223056Y-62948435D02*
X78303869Y-63029247D01*
X78303869Y-63029247D02*
X78384681Y-63056184D01*
X78384681Y-63056184D02*
X78438556Y-63056184D01*
X78438556Y-63056184D02*
X78519368Y-63029247D01*
X78519368Y-63029247D02*
X78734867Y-62813748D01*
X78142244Y-63945119D02*
X78465493Y-63621870D01*
X78303869Y-63783494D02*
X77738183Y-63217809D01*
X77738183Y-63217809D02*
X77872870Y-63244746D01*
X77872870Y-63244746D02*
X77980620Y-63244746D01*
X77980620Y-63244746D02*
X78061432Y-63217809D01*
X77872870Y-64214493D02*
X77765120Y-64322242D01*
X77765120Y-64322242D02*
X77684308Y-64349180D01*
X77684308Y-64349180D02*
X77630433Y-64349180D01*
X77630433Y-64349180D02*
X77495746Y-64322242D01*
X77495746Y-64322242D02*
X77361059Y-64241430D01*
X77361059Y-64241430D02*
X77145560Y-64025931D01*
X77145560Y-64025931D02*
X77118623Y-63945119D01*
X77118623Y-63945119D02*
X77118623Y-63891244D01*
X77118623Y-63891244D02*
X77145560Y-63810432D01*
X77145560Y-63810432D02*
X77253310Y-63702682D01*
X77253310Y-63702682D02*
X77334122Y-63675745D01*
X77334122Y-63675745D02*
X77387997Y-63675745D01*
X77387997Y-63675745D02*
X77468809Y-63702682D01*
X77468809Y-63702682D02*
X77603496Y-63837369D01*
X77603496Y-63837369D02*
X77630433Y-63918181D01*
X77630433Y-63918181D02*
X77630433Y-63972056D01*
X77630433Y-63972056D02*
X77603496Y-64052868D01*
X77603496Y-64052868D02*
X77495746Y-64160618D01*
X77495746Y-64160618D02*
X77414934Y-64187555D01*
X77414934Y-64187555D02*
X77361059Y-64187555D01*
X77361059Y-64187555D02*
X77280247Y-64160618D01*
X101325493Y-36690374D02*
X101352430Y-36609562D01*
X101352430Y-36609562D02*
X101433242Y-36528750D01*
X101433242Y-36528750D02*
X101540992Y-36474875D01*
X101540992Y-36474875D02*
X101648741Y-36474875D01*
X101648741Y-36474875D02*
X101729554Y-36501812D01*
X101729554Y-36501812D02*
X101864241Y-36582625D01*
X101864241Y-36582625D02*
X101945053Y-36663437D01*
X101945053Y-36663437D02*
X102025865Y-36798124D01*
X102025865Y-36798124D02*
X102052802Y-36878936D01*
X102052802Y-36878936D02*
X102052802Y-36986686D01*
X102052802Y-36986686D02*
X101998928Y-37094435D01*
X101998928Y-37094435D02*
X101945053Y-37148310D01*
X101945053Y-37148310D02*
X101837303Y-37202185D01*
X101837303Y-37202185D02*
X101783428Y-37202185D01*
X101783428Y-37202185D02*
X101594867Y-37013623D01*
X101594867Y-37013623D02*
X101702616Y-36905873D01*
X101594867Y-37498496D02*
X101029181Y-36932811D01*
X101029181Y-36932811D02*
X100813682Y-37148310D01*
X100813682Y-37148310D02*
X100786745Y-37229122D01*
X100786745Y-37229122D02*
X100786745Y-37282997D01*
X100786745Y-37282997D02*
X100813682Y-37363809D01*
X100813682Y-37363809D02*
X100894494Y-37444621D01*
X100894494Y-37444621D02*
X100975306Y-37471559D01*
X100975306Y-37471559D02*
X101029181Y-37471559D01*
X101029181Y-37471559D02*
X101109993Y-37444621D01*
X101109993Y-37444621D02*
X101325493Y-37229122D01*
X100194122Y-37767870D02*
X100463496Y-37498496D01*
X100463496Y-37498496D02*
X100759807Y-37740933D01*
X100759807Y-37740933D02*
X100705932Y-37740933D01*
X100705932Y-37740933D02*
X100625120Y-37767870D01*
X100625120Y-37767870D02*
X100490433Y-37902557D01*
X100490433Y-37902557D02*
X100463496Y-37983369D01*
X100463496Y-37983369D02*
X100463496Y-38037244D01*
X100463496Y-38037244D02*
X100490433Y-38118056D01*
X100490433Y-38118056D02*
X100625120Y-38252743D01*
X100625120Y-38252743D02*
X100705932Y-38279681D01*
X100705932Y-38279681D02*
X100759807Y-38279681D01*
X100759807Y-38279681D02*
X100840619Y-38252743D01*
X100840619Y-38252743D02*
X100975306Y-38118056D01*
X100975306Y-38118056D02*
X101002244Y-38037244D01*
X101002244Y-38037244D02*
X101002244Y-37983369D01*
X78734866Y-36020999D02*
X78761803Y-35940186D01*
X78761803Y-35940186D02*
X78842616Y-35859374D01*
X78842616Y-35859374D02*
X78950365Y-35805499D01*
X78950365Y-35805499D02*
X79058115Y-35805499D01*
X79058115Y-35805499D02*
X79138927Y-35832437D01*
X79138927Y-35832437D02*
X79273614Y-35913249D01*
X79273614Y-35913249D02*
X79354426Y-35994061D01*
X79354426Y-35994061D02*
X79435239Y-36128748D01*
X79435239Y-36128748D02*
X79462176Y-36209561D01*
X79462176Y-36209561D02*
X79462176Y-36317310D01*
X79462176Y-36317310D02*
X79408301Y-36425060D01*
X79408301Y-36425060D02*
X79354426Y-36478935D01*
X79354426Y-36478935D02*
X79246677Y-36532809D01*
X79246677Y-36532809D02*
X79192802Y-36532809D01*
X79192802Y-36532809D02*
X79004240Y-36344248D01*
X79004240Y-36344248D02*
X79111990Y-36236498D01*
X79004240Y-36829121D02*
X78438555Y-36263435D01*
X78438555Y-36263435D02*
X78223055Y-36478935D01*
X78223055Y-36478935D02*
X78196118Y-36559747D01*
X78196118Y-36559747D02*
X78196118Y-36613622D01*
X78196118Y-36613622D02*
X78223055Y-36694434D01*
X78223055Y-36694434D02*
X78303868Y-36775246D01*
X78303868Y-36775246D02*
X78384680Y-36802183D01*
X78384680Y-36802183D02*
X78438555Y-36802183D01*
X78438555Y-36802183D02*
X78519367Y-36775246D01*
X78519367Y-36775246D02*
X78734866Y-36559747D01*
X78142243Y-37691118D02*
X78465492Y-37367869D01*
X78303868Y-37529493D02*
X77738182Y-36963808D01*
X77738182Y-36963808D02*
X77872869Y-36990745D01*
X77872869Y-36990745D02*
X77980619Y-36990745D01*
X77980619Y-36990745D02*
X78061431Y-36963808D01*
X77414933Y-37394806D02*
X77361058Y-37394806D01*
X77361058Y-37394806D02*
X77280246Y-37421744D01*
X77280246Y-37421744D02*
X77145559Y-37556431D01*
X77145559Y-37556431D02*
X77118622Y-37637243D01*
X77118622Y-37637243D02*
X77118622Y-37691118D01*
X77118622Y-37691118D02*
X77145559Y-37771930D01*
X77145559Y-37771930D02*
X77199434Y-37825805D01*
X77199434Y-37825805D02*
X77307184Y-37879680D01*
X77307184Y-37879680D02*
X77953681Y-37879680D01*
X77953681Y-37879680D02*
X77603495Y-38229866D01*
X76194868Y-62274999D02*
X76221805Y-62194186D01*
X76221805Y-62194186D02*
X76302618Y-62113374D01*
X76302618Y-62113374D02*
X76410367Y-62059499D01*
X76410367Y-62059499D02*
X76518117Y-62059499D01*
X76518117Y-62059499D02*
X76598929Y-62086437D01*
X76598929Y-62086437D02*
X76733616Y-62167249D01*
X76733616Y-62167249D02*
X76814428Y-62248061D01*
X76814428Y-62248061D02*
X76895241Y-62382748D01*
X76895241Y-62382748D02*
X76922178Y-62463561D01*
X76922178Y-62463561D02*
X76922178Y-62571310D01*
X76922178Y-62571310D02*
X76868303Y-62679060D01*
X76868303Y-62679060D02*
X76814428Y-62732935D01*
X76814428Y-62732935D02*
X76706679Y-62786809D01*
X76706679Y-62786809D02*
X76652804Y-62786809D01*
X76652804Y-62786809D02*
X76464242Y-62598248D01*
X76464242Y-62598248D02*
X76571992Y-62490498D01*
X76464242Y-63083121D02*
X75898557Y-62517435D01*
X75898557Y-62517435D02*
X75683057Y-62732935D01*
X75683057Y-62732935D02*
X75656120Y-62813747D01*
X75656120Y-62813747D02*
X75656120Y-62867622D01*
X75656120Y-62867622D02*
X75683057Y-62948434D01*
X75683057Y-62948434D02*
X75763870Y-63029246D01*
X75763870Y-63029246D02*
X75844682Y-63056183D01*
X75844682Y-63056183D02*
X75898557Y-63056183D01*
X75898557Y-63056183D02*
X75979369Y-63029246D01*
X75979369Y-63029246D02*
X76194868Y-62813747D01*
X75602245Y-63945118D02*
X75925494Y-63621869D01*
X75763870Y-63783493D02*
X75198184Y-63217808D01*
X75198184Y-63217808D02*
X75332871Y-63244745D01*
X75332871Y-63244745D02*
X75440621Y-63244745D01*
X75440621Y-63244745D02*
X75521433Y-63217808D01*
X74955747Y-63945118D02*
X74982685Y-63864306D01*
X74982685Y-63864306D02*
X74982685Y-63810431D01*
X74982685Y-63810431D02*
X74955747Y-63729619D01*
X74955747Y-63729619D02*
X74928810Y-63702681D01*
X74928810Y-63702681D02*
X74847998Y-63675744D01*
X74847998Y-63675744D02*
X74794123Y-63675744D01*
X74794123Y-63675744D02*
X74713311Y-63702681D01*
X74713311Y-63702681D02*
X74605561Y-63810431D01*
X74605561Y-63810431D02*
X74578624Y-63891243D01*
X74578624Y-63891243D02*
X74578624Y-63945118D01*
X74578624Y-63945118D02*
X74605561Y-64025930D01*
X74605561Y-64025930D02*
X74632499Y-64052867D01*
X74632499Y-64052867D02*
X74713311Y-64079805D01*
X74713311Y-64079805D02*
X74767186Y-64079805D01*
X74767186Y-64079805D02*
X74847998Y-64052867D01*
X74847998Y-64052867D02*
X74955747Y-63945118D01*
X74955747Y-63945118D02*
X75036560Y-63918180D01*
X75036560Y-63918180D02*
X75090434Y-63918180D01*
X75090434Y-63918180D02*
X75171247Y-63945118D01*
X75171247Y-63945118D02*
X75278996Y-64052867D01*
X75278996Y-64052867D02*
X75305934Y-64133680D01*
X75305934Y-64133680D02*
X75305934Y-64187554D01*
X75305934Y-64187554D02*
X75278996Y-64268367D01*
X75278996Y-64268367D02*
X75171247Y-64376116D01*
X75171247Y-64376116D02*
X75090434Y-64403054D01*
X75090434Y-64403054D02*
X75036560Y-64403054D01*
X75036560Y-64403054D02*
X74955747Y-64376116D01*
X74955747Y-64376116D02*
X74847998Y-64268367D01*
X74847998Y-64268367D02*
X74821060Y-64187554D01*
X74821060Y-64187554D02*
X74821060Y-64133680D01*
X74821060Y-64133680D02*
X74847998Y-64052867D01*
X108945493Y-36590374D02*
X108972430Y-36509562D01*
X108972430Y-36509562D02*
X109053242Y-36428750D01*
X109053242Y-36428750D02*
X109160992Y-36374875D01*
X109160992Y-36374875D02*
X109268741Y-36374875D01*
X109268741Y-36374875D02*
X109349554Y-36401812D01*
X109349554Y-36401812D02*
X109484241Y-36482625D01*
X109484241Y-36482625D02*
X109565053Y-36563437D01*
X109565053Y-36563437D02*
X109645865Y-36698124D01*
X109645865Y-36698124D02*
X109672802Y-36778936D01*
X109672802Y-36778936D02*
X109672802Y-36886686D01*
X109672802Y-36886686D02*
X109618928Y-36994435D01*
X109618928Y-36994435D02*
X109565053Y-37048310D01*
X109565053Y-37048310D02*
X109457303Y-37102185D01*
X109457303Y-37102185D02*
X109403428Y-37102185D01*
X109403428Y-37102185D02*
X109214867Y-36913623D01*
X109214867Y-36913623D02*
X109322616Y-36805873D01*
X109214867Y-37398496D02*
X108649181Y-36832811D01*
X108649181Y-36832811D02*
X108433682Y-37048310D01*
X108433682Y-37048310D02*
X108406745Y-37129122D01*
X108406745Y-37129122D02*
X108406745Y-37182997D01*
X108406745Y-37182997D02*
X108433682Y-37263809D01*
X108433682Y-37263809D02*
X108514494Y-37344621D01*
X108514494Y-37344621D02*
X108595306Y-37371559D01*
X108595306Y-37371559D02*
X108649181Y-37371559D01*
X108649181Y-37371559D02*
X108729993Y-37344621D01*
X108729993Y-37344621D02*
X108945493Y-37129122D01*
X108164308Y-37425434D02*
X108110433Y-37425434D01*
X108110433Y-37425434D02*
X108029621Y-37452371D01*
X108029621Y-37452371D02*
X107894934Y-37587058D01*
X107894934Y-37587058D02*
X107867997Y-37667870D01*
X107867997Y-37667870D02*
X107867997Y-37721745D01*
X107867997Y-37721745D02*
X107894934Y-37802557D01*
X107894934Y-37802557D02*
X107948809Y-37856432D01*
X107948809Y-37856432D02*
X108056558Y-37910307D01*
X108056558Y-37910307D02*
X108703056Y-37910307D01*
X108703056Y-37910307D02*
X108352870Y-38260493D01*
X96245494Y-36690372D02*
X96272431Y-36609560D01*
X96272431Y-36609560D02*
X96353243Y-36528748D01*
X96353243Y-36528748D02*
X96460993Y-36474873D01*
X96460993Y-36474873D02*
X96568742Y-36474873D01*
X96568742Y-36474873D02*
X96649555Y-36501810D01*
X96649555Y-36501810D02*
X96784242Y-36582623D01*
X96784242Y-36582623D02*
X96865054Y-36663435D01*
X96865054Y-36663435D02*
X96945866Y-36798122D01*
X96945866Y-36798122D02*
X96972803Y-36878934D01*
X96972803Y-36878934D02*
X96972803Y-36986684D01*
X96972803Y-36986684D02*
X96918929Y-37094433D01*
X96918929Y-37094433D02*
X96865054Y-37148308D01*
X96865054Y-37148308D02*
X96757304Y-37202183D01*
X96757304Y-37202183D02*
X96703429Y-37202183D01*
X96703429Y-37202183D02*
X96514868Y-37013621D01*
X96514868Y-37013621D02*
X96622617Y-36905871D01*
X96514868Y-37498494D02*
X95949182Y-36932809D01*
X95949182Y-36932809D02*
X95733683Y-37148308D01*
X95733683Y-37148308D02*
X95706746Y-37229120D01*
X95706746Y-37229120D02*
X95706746Y-37282995D01*
X95706746Y-37282995D02*
X95733683Y-37363807D01*
X95733683Y-37363807D02*
X95814495Y-37444619D01*
X95814495Y-37444619D02*
X95895307Y-37471557D01*
X95895307Y-37471557D02*
X95949182Y-37471557D01*
X95949182Y-37471557D02*
X96029994Y-37444619D01*
X96029994Y-37444619D02*
X96245494Y-37229120D01*
X95141060Y-37740931D02*
X95248810Y-37633181D01*
X95248810Y-37633181D02*
X95329622Y-37606244D01*
X95329622Y-37606244D02*
X95383497Y-37606244D01*
X95383497Y-37606244D02*
X95518184Y-37633181D01*
X95518184Y-37633181D02*
X95652871Y-37713993D01*
X95652871Y-37713993D02*
X95868370Y-37929493D01*
X95868370Y-37929493D02*
X95895307Y-38010305D01*
X95895307Y-38010305D02*
X95895307Y-38064180D01*
X95895307Y-38064180D02*
X95868370Y-38144992D01*
X95868370Y-38144992D02*
X95760620Y-38252741D01*
X95760620Y-38252741D02*
X95679808Y-38279679D01*
X95679808Y-38279679D02*
X95625933Y-38279679D01*
X95625933Y-38279679D02*
X95545121Y-38252741D01*
X95545121Y-38252741D02*
X95410434Y-38118054D01*
X95410434Y-38118054D02*
X95383497Y-38037242D01*
X95383497Y-38037242D02*
X95383497Y-37983367D01*
X95383497Y-37983367D02*
X95410434Y-37902555D01*
X95410434Y-37902555D02*
X95518184Y-37794806D01*
X95518184Y-37794806D02*
X95598996Y-37767868D01*
X95598996Y-37767868D02*
X95652871Y-37767868D01*
X95652871Y-37767868D02*
X95733683Y-37794806D01*
X71114867Y-36121000D02*
X71141804Y-36040187D01*
X71141804Y-36040187D02*
X71222617Y-35959375D01*
X71222617Y-35959375D02*
X71330366Y-35905500D01*
X71330366Y-35905500D02*
X71438116Y-35905500D01*
X71438116Y-35905500D02*
X71518928Y-35932438D01*
X71518928Y-35932438D02*
X71653615Y-36013250D01*
X71653615Y-36013250D02*
X71734427Y-36094062D01*
X71734427Y-36094062D02*
X71815240Y-36228749D01*
X71815240Y-36228749D02*
X71842177Y-36309562D01*
X71842177Y-36309562D02*
X71842177Y-36417311D01*
X71842177Y-36417311D02*
X71788302Y-36525061D01*
X71788302Y-36525061D02*
X71734427Y-36578936D01*
X71734427Y-36578936D02*
X71626678Y-36632810D01*
X71626678Y-36632810D02*
X71572803Y-36632810D01*
X71572803Y-36632810D02*
X71384241Y-36444249D01*
X71384241Y-36444249D02*
X71491991Y-36336499D01*
X71384241Y-36929122D02*
X70818556Y-36363436D01*
X70818556Y-36363436D02*
X70603056Y-36578936D01*
X70603056Y-36578936D02*
X70576119Y-36659748D01*
X70576119Y-36659748D02*
X70576119Y-36713623D01*
X70576119Y-36713623D02*
X70603056Y-36794435D01*
X70603056Y-36794435D02*
X70683869Y-36875247D01*
X70683869Y-36875247D02*
X70764681Y-36902184D01*
X70764681Y-36902184D02*
X70818556Y-36902184D01*
X70818556Y-36902184D02*
X70899368Y-36875247D01*
X70899368Y-36875247D02*
X71114867Y-36659748D01*
X70522244Y-37791119D02*
X70845493Y-37467870D01*
X70683869Y-37629494D02*
X70118183Y-37063809D01*
X70118183Y-37063809D02*
X70252870Y-37090746D01*
X70252870Y-37090746D02*
X70360620Y-37090746D01*
X70360620Y-37090746D02*
X70441432Y-37063809D01*
X69660247Y-37898868D02*
X70037371Y-38275992D01*
X69579435Y-37548682D02*
X70118183Y-37818056D01*
X70118183Y-37818056D02*
X69767997Y-38168242D01*
X98812431Y-36663436D02*
X98839368Y-36582624D01*
X98839368Y-36582624D02*
X98920180Y-36501812D01*
X98920180Y-36501812D02*
X99027930Y-36447937D01*
X99027930Y-36447937D02*
X99135680Y-36447937D01*
X99135680Y-36447937D02*
X99216492Y-36474874D01*
X99216492Y-36474874D02*
X99351179Y-36555686D01*
X99351179Y-36555686D02*
X99431991Y-36636499D01*
X99431991Y-36636499D02*
X99512803Y-36771186D01*
X99512803Y-36771186D02*
X99539741Y-36851998D01*
X99539741Y-36851998D02*
X99539741Y-36959747D01*
X99539741Y-36959747D02*
X99485866Y-37067497D01*
X99485866Y-37067497D02*
X99431991Y-37121372D01*
X99431991Y-37121372D02*
X99324241Y-37175247D01*
X99324241Y-37175247D02*
X99270367Y-37175247D01*
X99270367Y-37175247D02*
X99081805Y-36986685D01*
X99081805Y-36986685D02*
X99189554Y-36878935D01*
X99081805Y-37471558D02*
X98516119Y-36905873D01*
X98516119Y-36905873D02*
X98758556Y-37794807D01*
X98758556Y-37794807D02*
X98192871Y-37229121D01*
X98489182Y-38064181D02*
X97923497Y-37498495D01*
X97923497Y-37498495D02*
X97788810Y-37633182D01*
X97788810Y-37633182D02*
X97734935Y-37740932D01*
X97734935Y-37740932D02*
X97734935Y-37848681D01*
X97734935Y-37848681D02*
X97761872Y-37929494D01*
X97761872Y-37929494D02*
X97842685Y-38064181D01*
X97842685Y-38064181D02*
X97923497Y-38144993D01*
X97923497Y-38144993D02*
X98058184Y-38225805D01*
X98058184Y-38225805D02*
X98138996Y-38252742D01*
X98138996Y-38252742D02*
X98246746Y-38252742D01*
X98246746Y-38252742D02*
X98354495Y-38198868D01*
X98354495Y-38198868D02*
X98489182Y-38064181D01*
X114035493Y-36590374D02*
X114062430Y-36509562D01*
X114062430Y-36509562D02*
X114143242Y-36428750D01*
X114143242Y-36428750D02*
X114250992Y-36374875D01*
X114250992Y-36374875D02*
X114358741Y-36374875D01*
X114358741Y-36374875D02*
X114439554Y-36401812D01*
X114439554Y-36401812D02*
X114574241Y-36482625D01*
X114574241Y-36482625D02*
X114655053Y-36563437D01*
X114655053Y-36563437D02*
X114735865Y-36698124D01*
X114735865Y-36698124D02*
X114762802Y-36778936D01*
X114762802Y-36778936D02*
X114762802Y-36886686D01*
X114762802Y-36886686D02*
X114708928Y-36994435D01*
X114708928Y-36994435D02*
X114655053Y-37048310D01*
X114655053Y-37048310D02*
X114547303Y-37102185D01*
X114547303Y-37102185D02*
X114493428Y-37102185D01*
X114493428Y-37102185D02*
X114304867Y-36913623D01*
X114304867Y-36913623D02*
X114412616Y-36805873D01*
X114304867Y-37398496D02*
X113739181Y-36832811D01*
X113739181Y-36832811D02*
X113523682Y-37048310D01*
X113523682Y-37048310D02*
X113496745Y-37129122D01*
X113496745Y-37129122D02*
X113496745Y-37182997D01*
X113496745Y-37182997D02*
X113523682Y-37263809D01*
X113523682Y-37263809D02*
X113604494Y-37344621D01*
X113604494Y-37344621D02*
X113685306Y-37371559D01*
X113685306Y-37371559D02*
X113739181Y-37371559D01*
X113739181Y-37371559D02*
X113819993Y-37344621D01*
X113819993Y-37344621D02*
X114035493Y-37129122D01*
X113442870Y-38260493D02*
X113766119Y-37937244D01*
X113604494Y-38098869D02*
X113038809Y-37533183D01*
X113038809Y-37533183D02*
X113173496Y-37560121D01*
X113173496Y-37560121D02*
X113281245Y-37560121D01*
X113281245Y-37560121D02*
X113362058Y-37533183D01*
X83804868Y-62274999D02*
X83831805Y-62194186D01*
X83831805Y-62194186D02*
X83912618Y-62113374D01*
X83912618Y-62113374D02*
X84020367Y-62059499D01*
X84020367Y-62059499D02*
X84128117Y-62059499D01*
X84128117Y-62059499D02*
X84208929Y-62086437D01*
X84208929Y-62086437D02*
X84343616Y-62167249D01*
X84343616Y-62167249D02*
X84424428Y-62248061D01*
X84424428Y-62248061D02*
X84505241Y-62382748D01*
X84505241Y-62382748D02*
X84532178Y-62463561D01*
X84532178Y-62463561D02*
X84532178Y-62571310D01*
X84532178Y-62571310D02*
X84478303Y-62679060D01*
X84478303Y-62679060D02*
X84424428Y-62732935D01*
X84424428Y-62732935D02*
X84316679Y-62786809D01*
X84316679Y-62786809D02*
X84262804Y-62786809D01*
X84262804Y-62786809D02*
X84074242Y-62598248D01*
X84074242Y-62598248D02*
X84181992Y-62490498D01*
X84074242Y-63083121D02*
X83508557Y-62517435D01*
X83508557Y-62517435D02*
X83293057Y-62732935D01*
X83293057Y-62732935D02*
X83266120Y-62813747D01*
X83266120Y-62813747D02*
X83266120Y-62867622D01*
X83266120Y-62867622D02*
X83293057Y-62948434D01*
X83293057Y-62948434D02*
X83373870Y-63029246D01*
X83373870Y-63029246D02*
X83454682Y-63056183D01*
X83454682Y-63056183D02*
X83508557Y-63056183D01*
X83508557Y-63056183D02*
X83589369Y-63029246D01*
X83589369Y-63029246D02*
X83804868Y-62813747D01*
X83023683Y-63110058D02*
X82969809Y-63110058D01*
X82969809Y-63110058D02*
X82888996Y-63136996D01*
X82888996Y-63136996D02*
X82754309Y-63271683D01*
X82754309Y-63271683D02*
X82727372Y-63352495D01*
X82727372Y-63352495D02*
X82727372Y-63406370D01*
X82727372Y-63406370D02*
X82754309Y-63487182D01*
X82754309Y-63487182D02*
X82808184Y-63541057D01*
X82808184Y-63541057D02*
X82915934Y-63594931D01*
X82915934Y-63594931D02*
X83562431Y-63594931D01*
X83562431Y-63594931D02*
X83212245Y-63945118D01*
X82673497Y-64483866D02*
X82996746Y-64160617D01*
X82835121Y-64322241D02*
X82269436Y-63756556D01*
X82269436Y-63756556D02*
X82404123Y-63783493D01*
X82404123Y-63783493D02*
X82511873Y-63783493D01*
X82511873Y-63783493D02*
X82592685Y-63756556D01*
X68574867Y-62275000D02*
X68601804Y-62194187D01*
X68601804Y-62194187D02*
X68682617Y-62113375D01*
X68682617Y-62113375D02*
X68790366Y-62059500D01*
X68790366Y-62059500D02*
X68898116Y-62059500D01*
X68898116Y-62059500D02*
X68978928Y-62086438D01*
X68978928Y-62086438D02*
X69113615Y-62167250D01*
X69113615Y-62167250D02*
X69194427Y-62248062D01*
X69194427Y-62248062D02*
X69275240Y-62382749D01*
X69275240Y-62382749D02*
X69302177Y-62463562D01*
X69302177Y-62463562D02*
X69302177Y-62571311D01*
X69302177Y-62571311D02*
X69248302Y-62679061D01*
X69248302Y-62679061D02*
X69194427Y-62732936D01*
X69194427Y-62732936D02*
X69086678Y-62786810D01*
X69086678Y-62786810D02*
X69032803Y-62786810D01*
X69032803Y-62786810D02*
X68844241Y-62598249D01*
X68844241Y-62598249D02*
X68951991Y-62490499D01*
X68844241Y-63083122D02*
X68278556Y-62517436D01*
X68278556Y-62517436D02*
X68063056Y-62732936D01*
X68063056Y-62732936D02*
X68036119Y-62813748D01*
X68036119Y-62813748D02*
X68036119Y-62867623D01*
X68036119Y-62867623D02*
X68063056Y-62948435D01*
X68063056Y-62948435D02*
X68143869Y-63029247D01*
X68143869Y-63029247D02*
X68224681Y-63056184D01*
X68224681Y-63056184D02*
X68278556Y-63056184D01*
X68278556Y-63056184D02*
X68359368Y-63029247D01*
X68359368Y-63029247D02*
X68574867Y-62813748D01*
X67982244Y-63945119D02*
X68305493Y-63621870D01*
X68143869Y-63783494D02*
X67578183Y-63217809D01*
X67578183Y-63217809D02*
X67712870Y-63244746D01*
X67712870Y-63244746D02*
X67820620Y-63244746D01*
X67820620Y-63244746D02*
X67901432Y-63217809D01*
X66931685Y-63864307D02*
X67039435Y-63756557D01*
X67039435Y-63756557D02*
X67120247Y-63729620D01*
X67120247Y-63729620D02*
X67174122Y-63729620D01*
X67174122Y-63729620D02*
X67308809Y-63756557D01*
X67308809Y-63756557D02*
X67443496Y-63837369D01*
X67443496Y-63837369D02*
X67658995Y-64052868D01*
X67658995Y-64052868D02*
X67685933Y-64133681D01*
X67685933Y-64133681D02*
X67685933Y-64187555D01*
X67685933Y-64187555D02*
X67658995Y-64268368D01*
X67658995Y-64268368D02*
X67551246Y-64376117D01*
X67551246Y-64376117D02*
X67470433Y-64403055D01*
X67470433Y-64403055D02*
X67416559Y-64403055D01*
X67416559Y-64403055D02*
X67335746Y-64376117D01*
X67335746Y-64376117D02*
X67201059Y-64241430D01*
X67201059Y-64241430D02*
X67174122Y-64160618D01*
X67174122Y-64160618D02*
X67174122Y-64106743D01*
X67174122Y-64106743D02*
X67201059Y-64025931D01*
X67201059Y-64025931D02*
X67308809Y-63918181D01*
X67308809Y-63918181D02*
X67389621Y-63891244D01*
X67389621Y-63891244D02*
X67443496Y-63891244D01*
X67443496Y-63891244D02*
X67524308Y-63918181D01*
X66438200Y-42667476D02*
X66476295Y-42781762D01*
X66476295Y-42781762D02*
X66476295Y-42972238D01*
X66476295Y-42972238D02*
X66438200Y-43048429D01*
X66438200Y-43048429D02*
X66400104Y-43086524D01*
X66400104Y-43086524D02*
X66323914Y-43124619D01*
X66323914Y-43124619D02*
X66247723Y-43124619D01*
X66247723Y-43124619D02*
X66171533Y-43086524D01*
X66171533Y-43086524D02*
X66133438Y-43048429D01*
X66133438Y-43048429D02*
X66095342Y-42972238D01*
X66095342Y-42972238D02*
X66057247Y-42819857D01*
X66057247Y-42819857D02*
X66019152Y-42743667D01*
X66019152Y-42743667D02*
X65981057Y-42705572D01*
X65981057Y-42705572D02*
X65904866Y-42667476D01*
X65904866Y-42667476D02*
X65828676Y-42667476D01*
X65828676Y-42667476D02*
X65752485Y-42705572D01*
X65752485Y-42705572D02*
X65714390Y-42743667D01*
X65714390Y-42743667D02*
X65676295Y-42819857D01*
X65676295Y-42819857D02*
X65676295Y-43010334D01*
X65676295Y-43010334D02*
X65714390Y-43124619D01*
X65676295Y-43391286D02*
X66476295Y-43581762D01*
X66476295Y-43581762D02*
X65904866Y-43734143D01*
X65904866Y-43734143D02*
X66476295Y-43886524D01*
X66476295Y-43886524D02*
X65676295Y-44077001D01*
X66400104Y-44838906D02*
X66438200Y-44800810D01*
X66438200Y-44800810D02*
X66476295Y-44686525D01*
X66476295Y-44686525D02*
X66476295Y-44610334D01*
X66476295Y-44610334D02*
X66438200Y-44496048D01*
X66438200Y-44496048D02*
X66362009Y-44419858D01*
X66362009Y-44419858D02*
X66285819Y-44381763D01*
X66285819Y-44381763D02*
X66133438Y-44343667D01*
X66133438Y-44343667D02*
X66019152Y-44343667D01*
X66019152Y-44343667D02*
X65866771Y-44381763D01*
X65866771Y-44381763D02*
X65790580Y-44419858D01*
X65790580Y-44419858D02*
X65714390Y-44496048D01*
X65714390Y-44496048D02*
X65676295Y-44610334D01*
X65676295Y-44610334D02*
X65676295Y-44686525D01*
X65676295Y-44686525D02*
X65714390Y-44800810D01*
X65714390Y-44800810D02*
X65752485Y-44838906D01*
X66476295Y-45562715D02*
X66476295Y-45181763D01*
X66476295Y-45181763D02*
X65676295Y-45181763D01*
X66476295Y-45829382D02*
X65676295Y-45829382D01*
X66476295Y-46286525D02*
X66019152Y-45943667D01*
X65676295Y-46286525D02*
X66133438Y-45829382D01*
X88894868Y-62274999D02*
X88921805Y-62194186D01*
X88921805Y-62194186D02*
X89002618Y-62113374D01*
X89002618Y-62113374D02*
X89110367Y-62059499D01*
X89110367Y-62059499D02*
X89218117Y-62059499D01*
X89218117Y-62059499D02*
X89298929Y-62086437D01*
X89298929Y-62086437D02*
X89433616Y-62167249D01*
X89433616Y-62167249D02*
X89514428Y-62248061D01*
X89514428Y-62248061D02*
X89595241Y-62382748D01*
X89595241Y-62382748D02*
X89622178Y-62463561D01*
X89622178Y-62463561D02*
X89622178Y-62571310D01*
X89622178Y-62571310D02*
X89568303Y-62679060D01*
X89568303Y-62679060D02*
X89514428Y-62732935D01*
X89514428Y-62732935D02*
X89406679Y-62786809D01*
X89406679Y-62786809D02*
X89352804Y-62786809D01*
X89352804Y-62786809D02*
X89164242Y-62598248D01*
X89164242Y-62598248D02*
X89271992Y-62490498D01*
X89164242Y-63083121D02*
X88598557Y-62517435D01*
X88598557Y-62517435D02*
X88383057Y-62732935D01*
X88383057Y-62732935D02*
X88356120Y-62813747D01*
X88356120Y-62813747D02*
X88356120Y-62867622D01*
X88356120Y-62867622D02*
X88383057Y-62948434D01*
X88383057Y-62948434D02*
X88463870Y-63029246D01*
X88463870Y-63029246D02*
X88544682Y-63056183D01*
X88544682Y-63056183D02*
X88598557Y-63056183D01*
X88598557Y-63056183D02*
X88679369Y-63029246D01*
X88679369Y-63029246D02*
X88894868Y-62813747D01*
X88113683Y-63110058D02*
X88059809Y-63110058D01*
X88059809Y-63110058D02*
X87978996Y-63136996D01*
X87978996Y-63136996D02*
X87844309Y-63271683D01*
X87844309Y-63271683D02*
X87817372Y-63352495D01*
X87817372Y-63352495D02*
X87817372Y-63406370D01*
X87817372Y-63406370D02*
X87844309Y-63487182D01*
X87844309Y-63487182D02*
X87898184Y-63541057D01*
X87898184Y-63541057D02*
X88005934Y-63594931D01*
X88005934Y-63594931D02*
X88652431Y-63594931D01*
X88652431Y-63594931D02*
X88302245Y-63945118D01*
X87574935Y-63648806D02*
X87521060Y-63648806D01*
X87521060Y-63648806D02*
X87440248Y-63675744D01*
X87440248Y-63675744D02*
X87305561Y-63810431D01*
X87305561Y-63810431D02*
X87278624Y-63891243D01*
X87278624Y-63891243D02*
X87278624Y-63945118D01*
X87278624Y-63945118D02*
X87305561Y-64025930D01*
X87305561Y-64025930D02*
X87359436Y-64079805D01*
X87359436Y-64079805D02*
X87467186Y-64133680D01*
X87467186Y-64133680D02*
X88113683Y-64133680D01*
X88113683Y-64133680D02*
X87763497Y-64483866D01*
X117241584Y-62130408D02*
X117618708Y-62884655D01*
X117618708Y-62884655D02*
X116864461Y-62507531D01*
X116756711Y-63154029D02*
X116702837Y-63261778D01*
X116702837Y-63261778D02*
X116702837Y-63315653D01*
X116702837Y-63315653D02*
X116729774Y-63396465D01*
X116729774Y-63396465D02*
X116810586Y-63477278D01*
X116810586Y-63477278D02*
X116891398Y-63504215D01*
X116891398Y-63504215D02*
X116945273Y-63504215D01*
X116945273Y-63504215D02*
X117026085Y-63477278D01*
X117026085Y-63477278D02*
X117241585Y-63261778D01*
X117241585Y-63261778D02*
X116675899Y-62696093D01*
X116675899Y-62696093D02*
X116487337Y-62884655D01*
X116487337Y-62884655D02*
X116460400Y-62965467D01*
X116460400Y-62965467D02*
X116460400Y-63019342D01*
X116460400Y-63019342D02*
X116487337Y-63100154D01*
X116487337Y-63100154D02*
X116541212Y-63154029D01*
X116541212Y-63154029D02*
X116622024Y-63180966D01*
X116622024Y-63180966D02*
X116675899Y-63180966D01*
X116675899Y-63180966D02*
X116756711Y-63154029D01*
X116756711Y-63154029D02*
X116945273Y-62965467D01*
X116110214Y-63261778D02*
X116568150Y-63719714D01*
X116568150Y-63719714D02*
X116595087Y-63800526D01*
X116595087Y-63800526D02*
X116595087Y-63854401D01*
X116595087Y-63854401D02*
X116568150Y-63935213D01*
X116568150Y-63935213D02*
X116460400Y-64042963D01*
X116460400Y-64042963D02*
X116379588Y-64069900D01*
X116379588Y-64069900D02*
X116325713Y-64069900D01*
X116325713Y-64069900D02*
X116244901Y-64042963D01*
X116244901Y-64042963D02*
X115786965Y-63585027D01*
X116083276Y-64366212D02*
X116029402Y-64473961D01*
X116029402Y-64473961D02*
X115894715Y-64608648D01*
X115894715Y-64608648D02*
X115813902Y-64635586D01*
X115813902Y-64635586D02*
X115760028Y-64635586D01*
X115760028Y-64635586D02*
X115679215Y-64608648D01*
X115679215Y-64608648D02*
X115625341Y-64554773D01*
X115625341Y-64554773D02*
X115598403Y-64473961D01*
X115598403Y-64473961D02*
X115598403Y-64420086D01*
X115598403Y-64420086D02*
X115625341Y-64339274D01*
X115625341Y-64339274D02*
X115706153Y-64204587D01*
X115706153Y-64204587D02*
X115733090Y-64123775D01*
X115733090Y-64123775D02*
X115733090Y-64069900D01*
X115733090Y-64069900D02*
X115706153Y-63989088D01*
X115706153Y-63989088D02*
X115652278Y-63935213D01*
X115652278Y-63935213D02*
X115571466Y-63908276D01*
X115571466Y-63908276D02*
X115517591Y-63908276D01*
X115517591Y-63908276D02*
X115436779Y-63935213D01*
X115436779Y-63935213D02*
X115302092Y-64069900D01*
X115302092Y-64069900D02*
X115248217Y-64177650D01*
X114564241Y-62097751D02*
X114941365Y-62851998D01*
X114941365Y-62851998D02*
X114187117Y-62474875D01*
X114564241Y-63175247D02*
X114510366Y-63282997D01*
X114510366Y-63282997D02*
X114375679Y-63417684D01*
X114375679Y-63417684D02*
X114294867Y-63444621D01*
X114294867Y-63444621D02*
X114240992Y-63444621D01*
X114240992Y-63444621D02*
X114160180Y-63417684D01*
X114160180Y-63417684D02*
X114106305Y-63363809D01*
X114106305Y-63363809D02*
X114079368Y-63282997D01*
X114079368Y-63282997D02*
X114079368Y-63229122D01*
X114079368Y-63229122D02*
X114106305Y-63148310D01*
X114106305Y-63148310D02*
X114187117Y-63013623D01*
X114187117Y-63013623D02*
X114214055Y-62932810D01*
X114214055Y-62932810D02*
X114214055Y-62878936D01*
X114214055Y-62878936D02*
X114187117Y-62798123D01*
X114187117Y-62798123D02*
X114133243Y-62744249D01*
X114133243Y-62744249D02*
X114052430Y-62717311D01*
X114052430Y-62717311D02*
X113998556Y-62717311D01*
X113998556Y-62717311D02*
X113917743Y-62744249D01*
X113917743Y-62744249D02*
X113783056Y-62878936D01*
X113783056Y-62878936D02*
X113729182Y-62986685D01*
X113648369Y-63606246D02*
X113917743Y-63875620D01*
X113540620Y-63121372D02*
X113648369Y-63606246D01*
X113648369Y-63606246D02*
X113163496Y-63498496D01*
X113540620Y-64198868D02*
X113486745Y-64306618D01*
X113486745Y-64306618D02*
X113352058Y-64441305D01*
X113352058Y-64441305D02*
X113271246Y-64468242D01*
X113271246Y-64468242D02*
X113217371Y-64468242D01*
X113217371Y-64468242D02*
X113136559Y-64441305D01*
X113136559Y-64441305D02*
X113082684Y-64387430D01*
X113082684Y-64387430D02*
X113055747Y-64306618D01*
X113055747Y-64306618D02*
X113055747Y-64252743D01*
X113055747Y-64252743D02*
X113082684Y-64171931D01*
X113082684Y-64171931D02*
X113163496Y-64037244D01*
X113163496Y-64037244D02*
X113190434Y-63956432D01*
X113190434Y-63956432D02*
X113190434Y-63902557D01*
X113190434Y-63902557D02*
X113163496Y-63821745D01*
X113163496Y-63821745D02*
X113109621Y-63767870D01*
X113109621Y-63767870D02*
X113028809Y-63740932D01*
X113028809Y-63740932D02*
X112974934Y-63740932D01*
X112974934Y-63740932D02*
X112894122Y-63767870D01*
X112894122Y-63767870D02*
X112759435Y-63902557D01*
X112759435Y-63902557D02*
X112705560Y-64010306D01*
X111512430Y-36663437D02*
X111539367Y-36582625D01*
X111539367Y-36582625D02*
X111620179Y-36501813D01*
X111620179Y-36501813D02*
X111727929Y-36447938D01*
X111727929Y-36447938D02*
X111835679Y-36447938D01*
X111835679Y-36447938D02*
X111916491Y-36474875D01*
X111916491Y-36474875D02*
X112051178Y-36555687D01*
X112051178Y-36555687D02*
X112131990Y-36636500D01*
X112131990Y-36636500D02*
X112212802Y-36771187D01*
X112212802Y-36771187D02*
X112239740Y-36851999D01*
X112239740Y-36851999D02*
X112239740Y-36959748D01*
X112239740Y-36959748D02*
X112185865Y-37067498D01*
X112185865Y-37067498D02*
X112131990Y-37121373D01*
X112131990Y-37121373D02*
X112024240Y-37175248D01*
X112024240Y-37175248D02*
X111970366Y-37175248D01*
X111970366Y-37175248D02*
X111781804Y-36986686D01*
X111781804Y-36986686D02*
X111889553Y-36878936D01*
X111781804Y-37471559D02*
X111216118Y-36905874D01*
X111216118Y-36905874D02*
X111458555Y-37794808D01*
X111458555Y-37794808D02*
X110892870Y-37229122D01*
X111189181Y-38064182D02*
X110623496Y-37498496D01*
X110623496Y-37498496D02*
X110488809Y-37633183D01*
X110488809Y-37633183D02*
X110434934Y-37740933D01*
X110434934Y-37740933D02*
X110434934Y-37848682D01*
X110434934Y-37848682D02*
X110461871Y-37929495D01*
X110461871Y-37929495D02*
X110542684Y-38064182D01*
X110542684Y-38064182D02*
X110623496Y-38144994D01*
X110623496Y-38144994D02*
X110758183Y-38225806D01*
X110758183Y-38225806D02*
X110838995Y-38252743D01*
X110838995Y-38252743D02*
X110946745Y-38252743D01*
X110946745Y-38252743D02*
X111054494Y-38198869D01*
X111054494Y-38198869D02*
X111189181Y-38064182D01*
X93735494Y-36790373D02*
X93762431Y-36709561D01*
X93762431Y-36709561D02*
X93843243Y-36628749D01*
X93843243Y-36628749D02*
X93950993Y-36574874D01*
X93950993Y-36574874D02*
X94058742Y-36574874D01*
X94058742Y-36574874D02*
X94139555Y-36601811D01*
X94139555Y-36601811D02*
X94274242Y-36682624D01*
X94274242Y-36682624D02*
X94355054Y-36763436D01*
X94355054Y-36763436D02*
X94435866Y-36898123D01*
X94435866Y-36898123D02*
X94462803Y-36978935D01*
X94462803Y-36978935D02*
X94462803Y-37086685D01*
X94462803Y-37086685D02*
X94408929Y-37194434D01*
X94408929Y-37194434D02*
X94355054Y-37248309D01*
X94355054Y-37248309D02*
X94247304Y-37302184D01*
X94247304Y-37302184D02*
X94193429Y-37302184D01*
X94193429Y-37302184D02*
X94004868Y-37113622D01*
X94004868Y-37113622D02*
X94112617Y-37005872D01*
X94004868Y-37598495D02*
X93439182Y-37032810D01*
X93439182Y-37032810D02*
X93223683Y-37248309D01*
X93223683Y-37248309D02*
X93196746Y-37329121D01*
X93196746Y-37329121D02*
X93196746Y-37382996D01*
X93196746Y-37382996D02*
X93223683Y-37463808D01*
X93223683Y-37463808D02*
X93304495Y-37544620D01*
X93304495Y-37544620D02*
X93385307Y-37571558D01*
X93385307Y-37571558D02*
X93439182Y-37571558D01*
X93439182Y-37571558D02*
X93519994Y-37544620D01*
X93519994Y-37544620D02*
X93735494Y-37329121D01*
X92927372Y-37544620D02*
X92550248Y-37921744D01*
X92550248Y-37921744D02*
X93358370Y-38244993D01*
X106405494Y-36690372D02*
X106432431Y-36609560D01*
X106432431Y-36609560D02*
X106513243Y-36528748D01*
X106513243Y-36528748D02*
X106620993Y-36474873D01*
X106620993Y-36474873D02*
X106728742Y-36474873D01*
X106728742Y-36474873D02*
X106809555Y-36501810D01*
X106809555Y-36501810D02*
X106944242Y-36582623D01*
X106944242Y-36582623D02*
X107025054Y-36663435D01*
X107025054Y-36663435D02*
X107105866Y-36798122D01*
X107105866Y-36798122D02*
X107132803Y-36878934D01*
X107132803Y-36878934D02*
X107132803Y-36986684D01*
X107132803Y-36986684D02*
X107078929Y-37094433D01*
X107078929Y-37094433D02*
X107025054Y-37148308D01*
X107025054Y-37148308D02*
X106917304Y-37202183D01*
X106917304Y-37202183D02*
X106863429Y-37202183D01*
X106863429Y-37202183D02*
X106674868Y-37013621D01*
X106674868Y-37013621D02*
X106782617Y-36905871D01*
X106674868Y-37498494D02*
X106109182Y-36932809D01*
X106109182Y-36932809D02*
X105893683Y-37148308D01*
X105893683Y-37148308D02*
X105866746Y-37229120D01*
X105866746Y-37229120D02*
X105866746Y-37282995D01*
X105866746Y-37282995D02*
X105893683Y-37363807D01*
X105893683Y-37363807D02*
X105974495Y-37444619D01*
X105974495Y-37444619D02*
X106055307Y-37471557D01*
X106055307Y-37471557D02*
X106109182Y-37471557D01*
X106109182Y-37471557D02*
X106189994Y-37444619D01*
X106189994Y-37444619D02*
X106405494Y-37229120D01*
X105597372Y-37444619D02*
X105247185Y-37794806D01*
X105247185Y-37794806D02*
X105651246Y-37821743D01*
X105651246Y-37821743D02*
X105570434Y-37902555D01*
X105570434Y-37902555D02*
X105543497Y-37983367D01*
X105543497Y-37983367D02*
X105543497Y-38037242D01*
X105543497Y-38037242D02*
X105570434Y-38118054D01*
X105570434Y-38118054D02*
X105705121Y-38252741D01*
X105705121Y-38252741D02*
X105785933Y-38279679D01*
X105785933Y-38279679D02*
X105839808Y-38279679D01*
X105839808Y-38279679D02*
X105920620Y-38252741D01*
X105920620Y-38252741D02*
X106082245Y-38091117D01*
X106082245Y-38091117D02*
X106109182Y-38010305D01*
X106109182Y-38010305D02*
X106109182Y-37956430D01*
X83814866Y-36167000D02*
X83841803Y-36086187D01*
X83841803Y-36086187D02*
X83922616Y-36005375D01*
X83922616Y-36005375D02*
X84030365Y-35951500D01*
X84030365Y-35951500D02*
X84138115Y-35951500D01*
X84138115Y-35951500D02*
X84218927Y-35978438D01*
X84218927Y-35978438D02*
X84353614Y-36059250D01*
X84353614Y-36059250D02*
X84434426Y-36140062D01*
X84434426Y-36140062D02*
X84515239Y-36274749D01*
X84515239Y-36274749D02*
X84542176Y-36355562D01*
X84542176Y-36355562D02*
X84542176Y-36463311D01*
X84542176Y-36463311D02*
X84488301Y-36571061D01*
X84488301Y-36571061D02*
X84434426Y-36624936D01*
X84434426Y-36624936D02*
X84326677Y-36678810D01*
X84326677Y-36678810D02*
X84272802Y-36678810D01*
X84272802Y-36678810D02*
X84084240Y-36490249D01*
X84084240Y-36490249D02*
X84191990Y-36382499D01*
X84084240Y-36975122D02*
X83518555Y-36409436D01*
X83518555Y-36409436D02*
X83303055Y-36624936D01*
X83303055Y-36624936D02*
X83276118Y-36705748D01*
X83276118Y-36705748D02*
X83276118Y-36759623D01*
X83276118Y-36759623D02*
X83303055Y-36840435D01*
X83303055Y-36840435D02*
X83383868Y-36921247D01*
X83383868Y-36921247D02*
X83464680Y-36948184D01*
X83464680Y-36948184D02*
X83518555Y-36948184D01*
X83518555Y-36948184D02*
X83599367Y-36921247D01*
X83599367Y-36921247D02*
X83814866Y-36705748D01*
X83222243Y-37837119D02*
X83545492Y-37513870D01*
X83383868Y-37675494D02*
X82818182Y-37109809D01*
X82818182Y-37109809D02*
X82952869Y-37136746D01*
X82952869Y-37136746D02*
X83060619Y-37136746D01*
X83060619Y-37136746D02*
X83141431Y-37109809D01*
X82306371Y-37621620D02*
X82252497Y-37675494D01*
X82252497Y-37675494D02*
X82225559Y-37756307D01*
X82225559Y-37756307D02*
X82225559Y-37810181D01*
X82225559Y-37810181D02*
X82252497Y-37890994D01*
X82252497Y-37890994D02*
X82333309Y-38025681D01*
X82333309Y-38025681D02*
X82467996Y-38160368D01*
X82467996Y-38160368D02*
X82602683Y-38241180D01*
X82602683Y-38241180D02*
X82683495Y-38268117D01*
X82683495Y-38268117D02*
X82737370Y-38268117D01*
X82737370Y-38268117D02*
X82818182Y-38241180D01*
X82818182Y-38241180D02*
X82872057Y-38187305D01*
X82872057Y-38187305D02*
X82898994Y-38106493D01*
X82898994Y-38106493D02*
X82898994Y-38052618D01*
X82898994Y-38052618D02*
X82872057Y-37971806D01*
X82872057Y-37971806D02*
X82791245Y-37837119D01*
X82791245Y-37837119D02*
X82656558Y-37702432D01*
X82656558Y-37702432D02*
X82521871Y-37621620D01*
X82521871Y-37621620D02*
X82441058Y-37594682D01*
X82441058Y-37594682D02*
X82387184Y-37594682D01*
X82387184Y-37594682D02*
X82306371Y-37621620D01*
X66438199Y-54081763D02*
X66476294Y-54196049D01*
X66476294Y-54196049D02*
X66476294Y-54386525D01*
X66476294Y-54386525D02*
X66438199Y-54462716D01*
X66438199Y-54462716D02*
X66400103Y-54500811D01*
X66400103Y-54500811D02*
X66323913Y-54538906D01*
X66323913Y-54538906D02*
X66247722Y-54538906D01*
X66247722Y-54538906D02*
X66171532Y-54500811D01*
X66171532Y-54500811D02*
X66133437Y-54462716D01*
X66133437Y-54462716D02*
X66095341Y-54386525D01*
X66095341Y-54386525D02*
X66057246Y-54234144D01*
X66057246Y-54234144D02*
X66019151Y-54157954D01*
X66019151Y-54157954D02*
X65981056Y-54119859D01*
X65981056Y-54119859D02*
X65904865Y-54081763D01*
X65904865Y-54081763D02*
X65828675Y-54081763D01*
X65828675Y-54081763D02*
X65752484Y-54119859D01*
X65752484Y-54119859D02*
X65714389Y-54157954D01*
X65714389Y-54157954D02*
X65676294Y-54234144D01*
X65676294Y-54234144D02*
X65676294Y-54424621D01*
X65676294Y-54424621D02*
X65714389Y-54538906D01*
X65676294Y-54805573D02*
X66476294Y-54996049D01*
X66476294Y-54996049D02*
X65904865Y-55148430D01*
X65904865Y-55148430D02*
X66476294Y-55300811D01*
X66476294Y-55300811D02*
X65676294Y-55491288D01*
X66476294Y-55796050D02*
X65676294Y-55796050D01*
X65676294Y-55796050D02*
X65676294Y-55986526D01*
X65676294Y-55986526D02*
X65714389Y-56100812D01*
X65714389Y-56100812D02*
X65790579Y-56177002D01*
X65790579Y-56177002D02*
X65866770Y-56215097D01*
X65866770Y-56215097D02*
X66019151Y-56253193D01*
X66019151Y-56253193D02*
X66133437Y-56253193D01*
X66133437Y-56253193D02*
X66285818Y-56215097D01*
X66285818Y-56215097D02*
X66362008Y-56177002D01*
X66362008Y-56177002D02*
X66438199Y-56100812D01*
X66438199Y-56100812D02*
X66476294Y-55986526D01*
X66476294Y-55986526D02*
X66476294Y-55796050D01*
X66476294Y-56596050D02*
X65676294Y-56596050D01*
X65676294Y-57129383D02*
X65676294Y-57281764D01*
X65676294Y-57281764D02*
X65714389Y-57357954D01*
X65714389Y-57357954D02*
X65790579Y-57434145D01*
X65790579Y-57434145D02*
X65942960Y-57472240D01*
X65942960Y-57472240D02*
X66209627Y-57472240D01*
X66209627Y-57472240D02*
X66362008Y-57434145D01*
X66362008Y-57434145D02*
X66438199Y-57357954D01*
X66438199Y-57357954D02*
X66476294Y-57281764D01*
X66476294Y-57281764D02*
X66476294Y-57129383D01*
X66476294Y-57129383D02*
X66438199Y-57053192D01*
X66438199Y-57053192D02*
X66362008Y-56977002D01*
X66362008Y-56977002D02*
X66209627Y-56938906D01*
X66209627Y-56938906D02*
X65942960Y-56938906D01*
X65942960Y-56938906D02*
X65790579Y-56977002D01*
X65790579Y-56977002D02*
X65714389Y-57053192D01*
X65714389Y-57053192D02*
X65676294Y-57129383D01*
X68574868Y-36166999D02*
X68601805Y-36086186D01*
X68601805Y-36086186D02*
X68682618Y-36005374D01*
X68682618Y-36005374D02*
X68790367Y-35951499D01*
X68790367Y-35951499D02*
X68898117Y-35951499D01*
X68898117Y-35951499D02*
X68978929Y-35978437D01*
X68978929Y-35978437D02*
X69113616Y-36059249D01*
X69113616Y-36059249D02*
X69194428Y-36140061D01*
X69194428Y-36140061D02*
X69275241Y-36274748D01*
X69275241Y-36274748D02*
X69302178Y-36355561D01*
X69302178Y-36355561D02*
X69302178Y-36463310D01*
X69302178Y-36463310D02*
X69248303Y-36571060D01*
X69248303Y-36571060D02*
X69194428Y-36624935D01*
X69194428Y-36624935D02*
X69086679Y-36678809D01*
X69086679Y-36678809D02*
X69032804Y-36678809D01*
X69032804Y-36678809D02*
X68844242Y-36490248D01*
X68844242Y-36490248D02*
X68951992Y-36382498D01*
X68844242Y-36975121D02*
X68278557Y-36409435D01*
X68278557Y-36409435D02*
X68063057Y-36624935D01*
X68063057Y-36624935D02*
X68036120Y-36705747D01*
X68036120Y-36705747D02*
X68036120Y-36759622D01*
X68036120Y-36759622D02*
X68063057Y-36840434D01*
X68063057Y-36840434D02*
X68143870Y-36921246D01*
X68143870Y-36921246D02*
X68224682Y-36948183D01*
X68224682Y-36948183D02*
X68278557Y-36948183D01*
X68278557Y-36948183D02*
X68359369Y-36921246D01*
X68359369Y-36921246D02*
X68574868Y-36705747D01*
X67982245Y-37837118D02*
X68305494Y-37513869D01*
X68143870Y-37675493D02*
X67578184Y-37109808D01*
X67578184Y-37109808D02*
X67712871Y-37136745D01*
X67712871Y-37136745D02*
X67820621Y-37136745D01*
X67820621Y-37136745D02*
X67901433Y-37109808D01*
X66904749Y-37783243D02*
X67174123Y-37513869D01*
X67174123Y-37513869D02*
X67470434Y-37756306D01*
X67470434Y-37756306D02*
X67416560Y-37756306D01*
X67416560Y-37756306D02*
X67335747Y-37783243D01*
X67335747Y-37783243D02*
X67201060Y-37917930D01*
X67201060Y-37917930D02*
X67174123Y-37998742D01*
X67174123Y-37998742D02*
X67174123Y-38052617D01*
X67174123Y-38052617D02*
X67201060Y-38133429D01*
X67201060Y-38133429D02*
X67335747Y-38268116D01*
X67335747Y-38268116D02*
X67416560Y-38295054D01*
X67416560Y-38295054D02*
X67470434Y-38295054D01*
X67470434Y-38295054D02*
X67551247Y-38268116D01*
X67551247Y-38268116D02*
X67685934Y-38133429D01*
X67685934Y-38133429D02*
X67712871Y-38052617D01*
X67712871Y-38052617D02*
X67712871Y-37998742D01*
X99755240Y-62328874D02*
X99485866Y-62598248D01*
X99970739Y-62436624D02*
X99216492Y-62059500D01*
X99216492Y-62059500D02*
X99593615Y-62813747D01*
X98569994Y-62759872D02*
X98596932Y-62679060D01*
X98596932Y-62679060D02*
X98677744Y-62598248D01*
X98677744Y-62598248D02*
X98785494Y-62544373D01*
X98785494Y-62544373D02*
X98893243Y-62544373D01*
X98893243Y-62544373D02*
X98974055Y-62571311D01*
X98974055Y-62571311D02*
X99108742Y-62652123D01*
X99108742Y-62652123D02*
X99189555Y-62732935D01*
X99189555Y-62732935D02*
X99270367Y-62867622D01*
X99270367Y-62867622D02*
X99297304Y-62948434D01*
X99297304Y-62948434D02*
X99297304Y-63056184D01*
X99297304Y-63056184D02*
X99243429Y-63163933D01*
X99243429Y-63163933D02*
X99189555Y-63217808D01*
X99189555Y-63217808D02*
X99081805Y-63271683D01*
X99081805Y-63271683D02*
X99027930Y-63271683D01*
X99027930Y-63271683D02*
X98839368Y-63083121D01*
X98839368Y-63083121D02*
X98947118Y-62975372D01*
X98839368Y-63567994D02*
X98273683Y-63002309D01*
X98273683Y-63002309D02*
X98516120Y-63891243D01*
X98516120Y-63891243D02*
X97950434Y-63325558D01*
X98246746Y-64160617D02*
X97681060Y-63594932D01*
X97681060Y-63594932D02*
X97546373Y-63729619D01*
X97546373Y-63729619D02*
X97492498Y-63837368D01*
X97492498Y-63837368D02*
X97492498Y-63945118D01*
X97492498Y-63945118D02*
X97519436Y-64025930D01*
X97519436Y-64025930D02*
X97600248Y-64160617D01*
X97600248Y-64160617D02*
X97681060Y-64241429D01*
X97681060Y-64241429D02*
X97815747Y-64322242D01*
X97815747Y-64322242D02*
X97896560Y-64349179D01*
X97896560Y-64349179D02*
X98004309Y-64349179D01*
X98004309Y-64349179D02*
X98112059Y-64295304D01*
X98112059Y-64295304D02*
X98246746Y-64160617D01*
X93974868Y-62274999D02*
X94001805Y-62194186D01*
X94001805Y-62194186D02*
X94082618Y-62113374D01*
X94082618Y-62113374D02*
X94190367Y-62059499D01*
X94190367Y-62059499D02*
X94298117Y-62059499D01*
X94298117Y-62059499D02*
X94378929Y-62086437D01*
X94378929Y-62086437D02*
X94513616Y-62167249D01*
X94513616Y-62167249D02*
X94594428Y-62248061D01*
X94594428Y-62248061D02*
X94675241Y-62382748D01*
X94675241Y-62382748D02*
X94702178Y-62463561D01*
X94702178Y-62463561D02*
X94702178Y-62571310D01*
X94702178Y-62571310D02*
X94648303Y-62679060D01*
X94648303Y-62679060D02*
X94594428Y-62732935D01*
X94594428Y-62732935D02*
X94486679Y-62786809D01*
X94486679Y-62786809D02*
X94432804Y-62786809D01*
X94432804Y-62786809D02*
X94244242Y-62598248D01*
X94244242Y-62598248D02*
X94351992Y-62490498D01*
X94244242Y-63083121D02*
X93678557Y-62517435D01*
X93678557Y-62517435D02*
X93463057Y-62732935D01*
X93463057Y-62732935D02*
X93436120Y-62813747D01*
X93436120Y-62813747D02*
X93436120Y-62867622D01*
X93436120Y-62867622D02*
X93463057Y-62948434D01*
X93463057Y-62948434D02*
X93543870Y-63029246D01*
X93543870Y-63029246D02*
X93624682Y-63056183D01*
X93624682Y-63056183D02*
X93678557Y-63056183D01*
X93678557Y-63056183D02*
X93759369Y-63029246D01*
X93759369Y-63029246D02*
X93974868Y-62813747D01*
X93193683Y-63110058D02*
X93139809Y-63110058D01*
X93139809Y-63110058D02*
X93058996Y-63136996D01*
X93058996Y-63136996D02*
X92924309Y-63271683D01*
X92924309Y-63271683D02*
X92897372Y-63352495D01*
X92897372Y-63352495D02*
X92897372Y-63406370D01*
X92897372Y-63406370D02*
X92924309Y-63487182D01*
X92924309Y-63487182D02*
X92978184Y-63541057D01*
X92978184Y-63541057D02*
X93085934Y-63594931D01*
X93085934Y-63594931D02*
X93732431Y-63594931D01*
X93732431Y-63594931D02*
X93382245Y-63945118D01*
X92331686Y-63864306D02*
X92439436Y-63756556D01*
X92439436Y-63756556D02*
X92520248Y-63729619D01*
X92520248Y-63729619D02*
X92574123Y-63729619D01*
X92574123Y-63729619D02*
X92708810Y-63756556D01*
X92708810Y-63756556D02*
X92843497Y-63837368D01*
X92843497Y-63837368D02*
X93058996Y-64052867D01*
X93058996Y-64052867D02*
X93085934Y-64133680D01*
X93085934Y-64133680D02*
X93085934Y-64187554D01*
X93085934Y-64187554D02*
X93058996Y-64268367D01*
X93058996Y-64268367D02*
X92951247Y-64376116D01*
X92951247Y-64376116D02*
X92870434Y-64403054D01*
X92870434Y-64403054D02*
X92816560Y-64403054D01*
X92816560Y-64403054D02*
X92735747Y-64376116D01*
X92735747Y-64376116D02*
X92601060Y-64241429D01*
X92601060Y-64241429D02*
X92574123Y-64160617D01*
X92574123Y-64160617D02*
X92574123Y-64106742D01*
X92574123Y-64106742D02*
X92601060Y-64025930D01*
X92601060Y-64025930D02*
X92708810Y-63918180D01*
X92708810Y-63918180D02*
X92789622Y-63891243D01*
X92789622Y-63891243D02*
X92843497Y-63891243D01*
X92843497Y-63891243D02*
X92924309Y-63918180D01*
X110672584Y-62099408D02*
X110322398Y-62449594D01*
X110322398Y-62449594D02*
X110726459Y-62476532D01*
X110726459Y-62476532D02*
X110645646Y-62557344D01*
X110645646Y-62557344D02*
X110618709Y-62638156D01*
X110618709Y-62638156D02*
X110618709Y-62692031D01*
X110618709Y-62692031D02*
X110645646Y-62772843D01*
X110645646Y-62772843D02*
X110780333Y-62907530D01*
X110780333Y-62907530D02*
X110861146Y-62934468D01*
X110861146Y-62934468D02*
X110915020Y-62934468D01*
X110915020Y-62934468D02*
X110995833Y-62907530D01*
X110995833Y-62907530D02*
X111157457Y-62745906D01*
X111157457Y-62745906D02*
X111184394Y-62665094D01*
X111184394Y-62665094D02*
X111184394Y-62611219D01*
X110160773Y-62611219D02*
X110537897Y-63365466D01*
X110537897Y-63365466D02*
X109783649Y-62988343D01*
X109648963Y-63123029D02*
X109298776Y-63473216D01*
X109298776Y-63473216D02*
X109702837Y-63500153D01*
X109702837Y-63500153D02*
X109622025Y-63580965D01*
X109622025Y-63580965D02*
X109595088Y-63661777D01*
X109595088Y-63661777D02*
X109595088Y-63715652D01*
X109595088Y-63715652D02*
X109622025Y-63796465D01*
X109622025Y-63796465D02*
X109756712Y-63931152D01*
X109756712Y-63931152D02*
X109837524Y-63958089D01*
X109837524Y-63958089D02*
X109891399Y-63958089D01*
X109891399Y-63958089D02*
X109972211Y-63931152D01*
X109972211Y-63931152D02*
X110133836Y-63769527D01*
X110133836Y-63769527D02*
X110160773Y-63688715D01*
X110160773Y-63688715D02*
X110160773Y-63634840D01*
X109810587Y-64200526D02*
X109379588Y-64631524D01*
X108894715Y-64416025D02*
X108706153Y-64604587D01*
X108921652Y-64981710D02*
X109191026Y-64712336D01*
X109191026Y-64712336D02*
X108625341Y-64146651D01*
X108625341Y-64146651D02*
X108355967Y-64416025D01*
X108679215Y-65224147D02*
X108113530Y-64658462D01*
X108113530Y-64658462D02*
X108355967Y-65547396D01*
X108355967Y-65547396D02*
X107790281Y-64981711D01*
X96504868Y-62274997D02*
X96531805Y-62194184D01*
X96531805Y-62194184D02*
X96612618Y-62113372D01*
X96612618Y-62113372D02*
X96720367Y-62059497D01*
X96720367Y-62059497D02*
X96828117Y-62059497D01*
X96828117Y-62059497D02*
X96908929Y-62086435D01*
X96908929Y-62086435D02*
X97043616Y-62167247D01*
X97043616Y-62167247D02*
X97124428Y-62248059D01*
X97124428Y-62248059D02*
X97205241Y-62382746D01*
X97205241Y-62382746D02*
X97232178Y-62463559D01*
X97232178Y-62463559D02*
X97232178Y-62571308D01*
X97232178Y-62571308D02*
X97178303Y-62679058D01*
X97178303Y-62679058D02*
X97124428Y-62732933D01*
X97124428Y-62732933D02*
X97016679Y-62786807D01*
X97016679Y-62786807D02*
X96962804Y-62786807D01*
X96962804Y-62786807D02*
X96774242Y-62598246D01*
X96774242Y-62598246D02*
X96881992Y-62490496D01*
X96774242Y-63083119D02*
X96208557Y-62517433D01*
X96208557Y-62517433D02*
X95993057Y-62732933D01*
X95993057Y-62732933D02*
X95966120Y-62813745D01*
X95966120Y-62813745D02*
X95966120Y-62867620D01*
X95966120Y-62867620D02*
X95993057Y-62948432D01*
X95993057Y-62948432D02*
X96073870Y-63029244D01*
X96073870Y-63029244D02*
X96154682Y-63056181D01*
X96154682Y-63056181D02*
X96208557Y-63056181D01*
X96208557Y-63056181D02*
X96289369Y-63029244D01*
X96289369Y-63029244D02*
X96504868Y-62813745D01*
X95723683Y-63110056D02*
X95669809Y-63110056D01*
X95669809Y-63110056D02*
X95588996Y-63136994D01*
X95588996Y-63136994D02*
X95454309Y-63271681D01*
X95454309Y-63271681D02*
X95427372Y-63352493D01*
X95427372Y-63352493D02*
X95427372Y-63406368D01*
X95427372Y-63406368D02*
X95454309Y-63487180D01*
X95454309Y-63487180D02*
X95508184Y-63541055D01*
X95508184Y-63541055D02*
X95615934Y-63594929D01*
X95615934Y-63594929D02*
X96262431Y-63594929D01*
X96262431Y-63594929D02*
X95912245Y-63945116D01*
X95157998Y-63567992D02*
X94780874Y-63945116D01*
X94780874Y-63945116D02*
X95588996Y-64268365D01*
X91165494Y-36690373D02*
X91192431Y-36609561D01*
X91192431Y-36609561D02*
X91273243Y-36528749D01*
X91273243Y-36528749D02*
X91380993Y-36474874D01*
X91380993Y-36474874D02*
X91488742Y-36474874D01*
X91488742Y-36474874D02*
X91569555Y-36501811D01*
X91569555Y-36501811D02*
X91704242Y-36582624D01*
X91704242Y-36582624D02*
X91785054Y-36663436D01*
X91785054Y-36663436D02*
X91865866Y-36798123D01*
X91865866Y-36798123D02*
X91892803Y-36878935D01*
X91892803Y-36878935D02*
X91892803Y-36986685D01*
X91892803Y-36986685D02*
X91838929Y-37094434D01*
X91838929Y-37094434D02*
X91785054Y-37148309D01*
X91785054Y-37148309D02*
X91677304Y-37202184D01*
X91677304Y-37202184D02*
X91623429Y-37202184D01*
X91623429Y-37202184D02*
X91434868Y-37013622D01*
X91434868Y-37013622D02*
X91542617Y-36905872D01*
X91434868Y-37498495D02*
X90869182Y-36932810D01*
X90869182Y-36932810D02*
X90653683Y-37148309D01*
X90653683Y-37148309D02*
X90626746Y-37229121D01*
X90626746Y-37229121D02*
X90626746Y-37282996D01*
X90626746Y-37282996D02*
X90653683Y-37363808D01*
X90653683Y-37363808D02*
X90734495Y-37444620D01*
X90734495Y-37444620D02*
X90815307Y-37471558D01*
X90815307Y-37471558D02*
X90869182Y-37471558D01*
X90869182Y-37471558D02*
X90949994Y-37444620D01*
X90949994Y-37444620D02*
X91165494Y-37229121D01*
X90465121Y-37821744D02*
X90492059Y-37740932D01*
X90492059Y-37740932D02*
X90492059Y-37687057D01*
X90492059Y-37687057D02*
X90465121Y-37606245D01*
X90465121Y-37606245D02*
X90438184Y-37579307D01*
X90438184Y-37579307D02*
X90357372Y-37552370D01*
X90357372Y-37552370D02*
X90303497Y-37552370D01*
X90303497Y-37552370D02*
X90222685Y-37579307D01*
X90222685Y-37579307D02*
X90114935Y-37687057D01*
X90114935Y-37687057D02*
X90087998Y-37767869D01*
X90087998Y-37767869D02*
X90087998Y-37821744D01*
X90087998Y-37821744D02*
X90114935Y-37902556D01*
X90114935Y-37902556D02*
X90141872Y-37929494D01*
X90141872Y-37929494D02*
X90222685Y-37956431D01*
X90222685Y-37956431D02*
X90276559Y-37956431D01*
X90276559Y-37956431D02*
X90357372Y-37929494D01*
X90357372Y-37929494D02*
X90465121Y-37821744D01*
X90465121Y-37821744D02*
X90545933Y-37794807D01*
X90545933Y-37794807D02*
X90599808Y-37794807D01*
X90599808Y-37794807D02*
X90680620Y-37821744D01*
X90680620Y-37821744D02*
X90788370Y-37929494D01*
X90788370Y-37929494D02*
X90815307Y-38010306D01*
X90815307Y-38010306D02*
X90815307Y-38064181D01*
X90815307Y-38064181D02*
X90788370Y-38144993D01*
X90788370Y-38144993D02*
X90680620Y-38252742D01*
X90680620Y-38252742D02*
X90599808Y-38279680D01*
X90599808Y-38279680D02*
X90545933Y-38279680D01*
X90545933Y-38279680D02*
X90465121Y-38252742D01*
X90465121Y-38252742D02*
X90357372Y-38144993D01*
X90357372Y-38144993D02*
X90330434Y-38064181D01*
X90330434Y-38064181D02*
X90330434Y-38010306D01*
X90330434Y-38010306D02*
X90357372Y-37929494D01*
X91717710Y-63015652D02*
X91636898Y-62557717D01*
X92040959Y-62692404D02*
X91475274Y-62126718D01*
X91475274Y-62126718D02*
X91259775Y-62342217D01*
X91259775Y-62342217D02*
X91232837Y-62423030D01*
X91232837Y-62423030D02*
X91232837Y-62476904D01*
X91232837Y-62476904D02*
X91259775Y-62557717D01*
X91259775Y-62557717D02*
X91340587Y-62638529D01*
X91340587Y-62638529D02*
X91421399Y-62665466D01*
X91421399Y-62665466D02*
X91475274Y-62665466D01*
X91475274Y-62665466D02*
X91556086Y-62638529D01*
X91556086Y-62638529D02*
X91771585Y-62423030D01*
X90909588Y-62692404D02*
X91367524Y-63150339D01*
X91367524Y-63150339D02*
X91394462Y-63231152D01*
X91394462Y-63231152D02*
X91394462Y-63285026D01*
X91394462Y-63285026D02*
X91367524Y-63365839D01*
X91367524Y-63365839D02*
X91259775Y-63473588D01*
X91259775Y-63473588D02*
X91178962Y-63500526D01*
X91178962Y-63500526D02*
X91125088Y-63500526D01*
X91125088Y-63500526D02*
X91044275Y-63473588D01*
X91044275Y-63473588D02*
X90586340Y-63015652D01*
X90882651Y-63850712D02*
X90316966Y-63285026D01*
X90316966Y-63285026D02*
X90559402Y-64173960D01*
X90559402Y-64173960D02*
X89993717Y-63608275D01*
X106848049Y-62332063D02*
X106578675Y-62601437D01*
X107063549Y-62439812D02*
X106309301Y-62062689D01*
X106309301Y-62062689D02*
X106686425Y-62816936D01*
X106497863Y-63005498D02*
X105932178Y-62439812D01*
X105932178Y-62439812D02*
X105797491Y-62574499D01*
X105797491Y-62574499D02*
X105743616Y-62682249D01*
X105743616Y-62682249D02*
X105743616Y-62789998D01*
X105743616Y-62789998D02*
X105770553Y-62870811D01*
X105770553Y-62870811D02*
X105851366Y-63005498D01*
X105851366Y-63005498D02*
X105932178Y-63086310D01*
X105932178Y-63086310D02*
X106066865Y-63167122D01*
X106066865Y-63167122D02*
X106147677Y-63194059D01*
X106147677Y-63194059D02*
X106255427Y-63194059D01*
X106255427Y-63194059D02*
X106363176Y-63140185D01*
X106363176Y-63140185D02*
X106497863Y-63005498D01*
X105555054Y-63840557D02*
X105608929Y-63840557D01*
X105608929Y-63840557D02*
X105716679Y-63786682D01*
X105716679Y-63786682D02*
X105770553Y-63732807D01*
X105770553Y-63732807D02*
X105824428Y-63625058D01*
X105824428Y-63625058D02*
X105824428Y-63517308D01*
X105824428Y-63517308D02*
X105797491Y-63436496D01*
X105797491Y-63436496D02*
X105716679Y-63301809D01*
X105716679Y-63301809D02*
X105635866Y-63220997D01*
X105635866Y-63220997D02*
X105501179Y-63140185D01*
X105501179Y-63140185D02*
X105420367Y-63113247D01*
X105420367Y-63113247D02*
X105312618Y-63113247D01*
X105312618Y-63113247D02*
X105204868Y-63167122D01*
X105204868Y-63167122D02*
X105150993Y-63220997D01*
X105150993Y-63220997D02*
X105097118Y-63328746D01*
X105097118Y-63328746D02*
X105097118Y-63382621D01*
X105555054Y-64056056D02*
X105124056Y-64487055D01*
X104450621Y-63921369D02*
X104827744Y-64675617D01*
X104827744Y-64675617D02*
X104073497Y-64298493D01*
X104127372Y-65375989D02*
X104046560Y-64918053D01*
X104450621Y-65052740D02*
X103884935Y-64487055D01*
X103884935Y-64487055D02*
X103669436Y-64702554D01*
X103669436Y-64702554D02*
X103642499Y-64783366D01*
X103642499Y-64783366D02*
X103642499Y-64837241D01*
X103642499Y-64837241D02*
X103669436Y-64918053D01*
X103669436Y-64918053D02*
X103750248Y-64998865D01*
X103750248Y-64998865D02*
X103831061Y-65025803D01*
X103831061Y-65025803D02*
X103884935Y-65025803D01*
X103884935Y-65025803D02*
X103965748Y-64998865D01*
X103965748Y-64998865D02*
X104181247Y-64783366D01*
X103588624Y-65322114D02*
X103400062Y-65510676D01*
X103615561Y-65887799D02*
X103884935Y-65618425D01*
X103884935Y-65618425D02*
X103319250Y-65052740D01*
X103319250Y-65052740D02*
X103049876Y-65322114D01*
X102888251Y-66022487D02*
X103076813Y-65833925D01*
X103373125Y-66130236D02*
X102807439Y-65564551D01*
X102807439Y-65564551D02*
X102538065Y-65833925D01*
X88625493Y-36690374D02*
X88652430Y-36609562D01*
X88652430Y-36609562D02*
X88733242Y-36528750D01*
X88733242Y-36528750D02*
X88840992Y-36474875D01*
X88840992Y-36474875D02*
X88948741Y-36474875D01*
X88948741Y-36474875D02*
X89029554Y-36501812D01*
X89029554Y-36501812D02*
X89164241Y-36582625D01*
X89164241Y-36582625D02*
X89245053Y-36663437D01*
X89245053Y-36663437D02*
X89325865Y-36798124D01*
X89325865Y-36798124D02*
X89352802Y-36878936D01*
X89352802Y-36878936D02*
X89352802Y-36986686D01*
X89352802Y-36986686D02*
X89298928Y-37094435D01*
X89298928Y-37094435D02*
X89245053Y-37148310D01*
X89245053Y-37148310D02*
X89137303Y-37202185D01*
X89137303Y-37202185D02*
X89083428Y-37202185D01*
X89083428Y-37202185D02*
X88894867Y-37013623D01*
X88894867Y-37013623D02*
X89002616Y-36905873D01*
X88894867Y-37498496D02*
X88329181Y-36932811D01*
X88329181Y-36932811D02*
X88113682Y-37148310D01*
X88113682Y-37148310D02*
X88086745Y-37229122D01*
X88086745Y-37229122D02*
X88086745Y-37282997D01*
X88086745Y-37282997D02*
X88113682Y-37363809D01*
X88113682Y-37363809D02*
X88194494Y-37444621D01*
X88194494Y-37444621D02*
X88275306Y-37471559D01*
X88275306Y-37471559D02*
X88329181Y-37471559D01*
X88329181Y-37471559D02*
X88409993Y-37444621D01*
X88409993Y-37444621D02*
X88625493Y-37229122D01*
X88302244Y-38091119D02*
X88194494Y-38198869D01*
X88194494Y-38198869D02*
X88113682Y-38225806D01*
X88113682Y-38225806D02*
X88059807Y-38225806D01*
X88059807Y-38225806D02*
X87925120Y-38198869D01*
X87925120Y-38198869D02*
X87790433Y-38118056D01*
X87790433Y-38118056D02*
X87574934Y-37902557D01*
X87574934Y-37902557D02*
X87547997Y-37821745D01*
X87547997Y-37821745D02*
X87547997Y-37767870D01*
X87547997Y-37767870D02*
X87574934Y-37687058D01*
X87574934Y-37687058D02*
X87682684Y-37579308D01*
X87682684Y-37579308D02*
X87763496Y-37552371D01*
X87763496Y-37552371D02*
X87817371Y-37552371D01*
X87817371Y-37552371D02*
X87898183Y-37579308D01*
X87898183Y-37579308D02*
X88032870Y-37713995D01*
X88032870Y-37713995D02*
X88059807Y-37794808D01*
X88059807Y-37794808D02*
X88059807Y-37848682D01*
X88059807Y-37848682D02*
X88032870Y-37929495D01*
X88032870Y-37929495D02*
X87925120Y-38037244D01*
X87925120Y-38037244D02*
X87844308Y-38064182D01*
X87844308Y-38064182D02*
X87790433Y-38064182D01*
X87790433Y-38064182D02*
X87709621Y-38037244D01*
X103865493Y-36690372D02*
X103892430Y-36609560D01*
X103892430Y-36609560D02*
X103973242Y-36528748D01*
X103973242Y-36528748D02*
X104080992Y-36474873D01*
X104080992Y-36474873D02*
X104188741Y-36474873D01*
X104188741Y-36474873D02*
X104269554Y-36501810D01*
X104269554Y-36501810D02*
X104404241Y-36582623D01*
X104404241Y-36582623D02*
X104485053Y-36663435D01*
X104485053Y-36663435D02*
X104565865Y-36798122D01*
X104565865Y-36798122D02*
X104592802Y-36878934D01*
X104592802Y-36878934D02*
X104592802Y-36986684D01*
X104592802Y-36986684D02*
X104538928Y-37094433D01*
X104538928Y-37094433D02*
X104485053Y-37148308D01*
X104485053Y-37148308D02*
X104377303Y-37202183D01*
X104377303Y-37202183D02*
X104323428Y-37202183D01*
X104323428Y-37202183D02*
X104134867Y-37013621D01*
X104134867Y-37013621D02*
X104242616Y-36905871D01*
X104134867Y-37498494D02*
X103569181Y-36932809D01*
X103569181Y-36932809D02*
X103353682Y-37148308D01*
X103353682Y-37148308D02*
X103326745Y-37229120D01*
X103326745Y-37229120D02*
X103326745Y-37282995D01*
X103326745Y-37282995D02*
X103353682Y-37363807D01*
X103353682Y-37363807D02*
X103434494Y-37444619D01*
X103434494Y-37444619D02*
X103515306Y-37471557D01*
X103515306Y-37471557D02*
X103569181Y-37471557D01*
X103569181Y-37471557D02*
X103649993Y-37444619D01*
X103649993Y-37444619D02*
X103865493Y-37229120D01*
X102949621Y-37929493D02*
X103326745Y-38306616D01*
X102868809Y-37579306D02*
X103407557Y-37848680D01*
X103407557Y-37848680D02*
X103057371Y-38198867D01*
X101848867Y-62275000D02*
X101875804Y-62194187D01*
X101875804Y-62194187D02*
X101956617Y-62113375D01*
X101956617Y-62113375D02*
X102064366Y-62059500D01*
X102064366Y-62059500D02*
X102172116Y-62059500D01*
X102172116Y-62059500D02*
X102252928Y-62086438D01*
X102252928Y-62086438D02*
X102387615Y-62167250D01*
X102387615Y-62167250D02*
X102468427Y-62248062D01*
X102468427Y-62248062D02*
X102549240Y-62382749D01*
X102549240Y-62382749D02*
X102576177Y-62463562D01*
X102576177Y-62463562D02*
X102576177Y-62571311D01*
X102576177Y-62571311D02*
X102522302Y-62679061D01*
X102522302Y-62679061D02*
X102468427Y-62732936D01*
X102468427Y-62732936D02*
X102360678Y-62786810D01*
X102360678Y-62786810D02*
X102306803Y-62786810D01*
X102306803Y-62786810D02*
X102118241Y-62598249D01*
X102118241Y-62598249D02*
X102225991Y-62490499D01*
X102118241Y-63083122D02*
X101552556Y-62517436D01*
X101552556Y-62517436D02*
X101337056Y-62732936D01*
X101337056Y-62732936D02*
X101310119Y-62813748D01*
X101310119Y-62813748D02*
X101310119Y-62867623D01*
X101310119Y-62867623D02*
X101337056Y-62948435D01*
X101337056Y-62948435D02*
X101417869Y-63029247D01*
X101417869Y-63029247D02*
X101498681Y-63056184D01*
X101498681Y-63056184D02*
X101552556Y-63056184D01*
X101552556Y-63056184D02*
X101633368Y-63029247D01*
X101633368Y-63029247D02*
X101848867Y-62813748D01*
X101067682Y-63110059D02*
X101013808Y-63110059D01*
X101013808Y-63110059D02*
X100932995Y-63136997D01*
X100932995Y-63136997D02*
X100798308Y-63271684D01*
X100798308Y-63271684D02*
X100771371Y-63352496D01*
X100771371Y-63352496D02*
X100771371Y-63406371D01*
X100771371Y-63406371D02*
X100798308Y-63487183D01*
X100798308Y-63487183D02*
X100852183Y-63541058D01*
X100852183Y-63541058D02*
X100959933Y-63594932D01*
X100959933Y-63594932D02*
X101606430Y-63594932D01*
X101606430Y-63594932D02*
X101256244Y-63945119D01*
X100609746Y-63945119D02*
X100636684Y-63864307D01*
X100636684Y-63864307D02*
X100636684Y-63810432D01*
X100636684Y-63810432D02*
X100609746Y-63729620D01*
X100609746Y-63729620D02*
X100582809Y-63702682D01*
X100582809Y-63702682D02*
X100501997Y-63675745D01*
X100501997Y-63675745D02*
X100448122Y-63675745D01*
X100448122Y-63675745D02*
X100367310Y-63702682D01*
X100367310Y-63702682D02*
X100259560Y-63810432D01*
X100259560Y-63810432D02*
X100232623Y-63891244D01*
X100232623Y-63891244D02*
X100232623Y-63945119D01*
X100232623Y-63945119D02*
X100259560Y-64025931D01*
X100259560Y-64025931D02*
X100286498Y-64052868D01*
X100286498Y-64052868D02*
X100367310Y-64079806D01*
X100367310Y-64079806D02*
X100421185Y-64079806D01*
X100421185Y-64079806D02*
X100501997Y-64052868D01*
X100501997Y-64052868D02*
X100609746Y-63945119D01*
X100609746Y-63945119D02*
X100690559Y-63918181D01*
X100690559Y-63918181D02*
X100744433Y-63918181D01*
X100744433Y-63918181D02*
X100825246Y-63945119D01*
X100825246Y-63945119D02*
X100932995Y-64052868D01*
X100932995Y-64052868D02*
X100959933Y-64133681D01*
X100959933Y-64133681D02*
X100959933Y-64187555D01*
X100959933Y-64187555D02*
X100932995Y-64268368D01*
X100932995Y-64268368D02*
X100825246Y-64376117D01*
X100825246Y-64376117D02*
X100744433Y-64403055D01*
X100744433Y-64403055D02*
X100690559Y-64403055D01*
X100690559Y-64403055D02*
X100609746Y-64376117D01*
X100609746Y-64376117D02*
X100501997Y-64268368D01*
X100501997Y-64268368D02*
X100475059Y-64187555D01*
X100475059Y-64187555D02*
X100475059Y-64133681D01*
X100475059Y-64133681D02*
X100501997Y-64052868D01*
X81274866Y-62274999D02*
X81301803Y-62194186D01*
X81301803Y-62194186D02*
X81382616Y-62113374D01*
X81382616Y-62113374D02*
X81490365Y-62059499D01*
X81490365Y-62059499D02*
X81598115Y-62059499D01*
X81598115Y-62059499D02*
X81678927Y-62086437D01*
X81678927Y-62086437D02*
X81813614Y-62167249D01*
X81813614Y-62167249D02*
X81894426Y-62248061D01*
X81894426Y-62248061D02*
X81975239Y-62382748D01*
X81975239Y-62382748D02*
X82002176Y-62463561D01*
X82002176Y-62463561D02*
X82002176Y-62571310D01*
X82002176Y-62571310D02*
X81948301Y-62679060D01*
X81948301Y-62679060D02*
X81894426Y-62732935D01*
X81894426Y-62732935D02*
X81786677Y-62786809D01*
X81786677Y-62786809D02*
X81732802Y-62786809D01*
X81732802Y-62786809D02*
X81544240Y-62598248D01*
X81544240Y-62598248D02*
X81651990Y-62490498D01*
X81544240Y-63083121D02*
X80978555Y-62517435D01*
X80978555Y-62517435D02*
X80763055Y-62732935D01*
X80763055Y-62732935D02*
X80736118Y-62813747D01*
X80736118Y-62813747D02*
X80736118Y-62867622D01*
X80736118Y-62867622D02*
X80763055Y-62948434D01*
X80763055Y-62948434D02*
X80843868Y-63029246D01*
X80843868Y-63029246D02*
X80924680Y-63056183D01*
X80924680Y-63056183D02*
X80978555Y-63056183D01*
X80978555Y-63056183D02*
X81059367Y-63029246D01*
X81059367Y-63029246D02*
X81274866Y-62813747D01*
X80493681Y-63110058D02*
X80439807Y-63110058D01*
X80439807Y-63110058D02*
X80358994Y-63136996D01*
X80358994Y-63136996D02*
X80224307Y-63271683D01*
X80224307Y-63271683D02*
X80197370Y-63352495D01*
X80197370Y-63352495D02*
X80197370Y-63406370D01*
X80197370Y-63406370D02*
X80224307Y-63487182D01*
X80224307Y-63487182D02*
X80278182Y-63541057D01*
X80278182Y-63541057D02*
X80385932Y-63594931D01*
X80385932Y-63594931D02*
X81032429Y-63594931D01*
X81032429Y-63594931D02*
X80682243Y-63945118D01*
X79766371Y-63729619D02*
X79712497Y-63783493D01*
X79712497Y-63783493D02*
X79685559Y-63864306D01*
X79685559Y-63864306D02*
X79685559Y-63918180D01*
X79685559Y-63918180D02*
X79712497Y-63998993D01*
X79712497Y-63998993D02*
X79793309Y-64133680D01*
X79793309Y-64133680D02*
X79927996Y-64268367D01*
X79927996Y-64268367D02*
X80062683Y-64349179D01*
X80062683Y-64349179D02*
X80143495Y-64376116D01*
X80143495Y-64376116D02*
X80197370Y-64376116D01*
X80197370Y-64376116D02*
X80278182Y-64349179D01*
X80278182Y-64349179D02*
X80332057Y-64295304D01*
X80332057Y-64295304D02*
X80358994Y-64214492D01*
X80358994Y-64214492D02*
X80358994Y-64160617D01*
X80358994Y-64160617D02*
X80332057Y-64079805D01*
X80332057Y-64079805D02*
X80251245Y-63945118D01*
X80251245Y-63945118D02*
X80116558Y-63810431D01*
X80116558Y-63810431D02*
X79981871Y-63729619D01*
X79981871Y-63729619D02*
X79901058Y-63702681D01*
X79901058Y-63702681D02*
X79847184Y-63702681D01*
X79847184Y-63702681D02*
X79766371Y-63729619D01*
X73412431Y-62263436D02*
X73439368Y-62182624D01*
X73439368Y-62182624D02*
X73520180Y-62101812D01*
X73520180Y-62101812D02*
X73627930Y-62047937D01*
X73627930Y-62047937D02*
X73735680Y-62047937D01*
X73735680Y-62047937D02*
X73816492Y-62074874D01*
X73816492Y-62074874D02*
X73951179Y-62155686D01*
X73951179Y-62155686D02*
X74031991Y-62236499D01*
X74031991Y-62236499D02*
X74112803Y-62371186D01*
X74112803Y-62371186D02*
X74139741Y-62451998D01*
X74139741Y-62451998D02*
X74139741Y-62559747D01*
X74139741Y-62559747D02*
X74085866Y-62667497D01*
X74085866Y-62667497D02*
X74031991Y-62721372D01*
X74031991Y-62721372D02*
X73924241Y-62775247D01*
X73924241Y-62775247D02*
X73870367Y-62775247D01*
X73870367Y-62775247D02*
X73681805Y-62586685D01*
X73681805Y-62586685D02*
X73789554Y-62478935D01*
X73681805Y-63071558D02*
X73116119Y-62505873D01*
X73116119Y-62505873D02*
X73358556Y-63394807D01*
X73358556Y-63394807D02*
X72792871Y-62829121D01*
X73089182Y-63664181D02*
X72523497Y-63098495D01*
X72523497Y-63098495D02*
X72388810Y-63233182D01*
X72388810Y-63233182D02*
X72334935Y-63340932D01*
X72334935Y-63340932D02*
X72334935Y-63448681D01*
X72334935Y-63448681D02*
X72361872Y-63529494D01*
X72361872Y-63529494D02*
X72442685Y-63664181D01*
X72442685Y-63664181D02*
X72523497Y-63744993D01*
X72523497Y-63744993D02*
X72658184Y-63825805D01*
X72658184Y-63825805D02*
X72738996Y-63852742D01*
X72738996Y-63852742D02*
X72846746Y-63852742D01*
X72846746Y-63852742D02*
X72954495Y-63798868D01*
X72954495Y-63798868D02*
X73089182Y-63664181D01*
X71114868Y-62274999D02*
X71141805Y-62194186D01*
X71141805Y-62194186D02*
X71222618Y-62113374D01*
X71222618Y-62113374D02*
X71330367Y-62059499D01*
X71330367Y-62059499D02*
X71438117Y-62059499D01*
X71438117Y-62059499D02*
X71518929Y-62086437D01*
X71518929Y-62086437D02*
X71653616Y-62167249D01*
X71653616Y-62167249D02*
X71734428Y-62248061D01*
X71734428Y-62248061D02*
X71815241Y-62382748D01*
X71815241Y-62382748D02*
X71842178Y-62463561D01*
X71842178Y-62463561D02*
X71842178Y-62571310D01*
X71842178Y-62571310D02*
X71788303Y-62679060D01*
X71788303Y-62679060D02*
X71734428Y-62732935D01*
X71734428Y-62732935D02*
X71626679Y-62786809D01*
X71626679Y-62786809D02*
X71572804Y-62786809D01*
X71572804Y-62786809D02*
X71384242Y-62598248D01*
X71384242Y-62598248D02*
X71491992Y-62490498D01*
X71384242Y-63083121D02*
X70818557Y-62517435D01*
X70818557Y-62517435D02*
X70603057Y-62732935D01*
X70603057Y-62732935D02*
X70576120Y-62813747D01*
X70576120Y-62813747D02*
X70576120Y-62867622D01*
X70576120Y-62867622D02*
X70603057Y-62948434D01*
X70603057Y-62948434D02*
X70683870Y-63029246D01*
X70683870Y-63029246D02*
X70764682Y-63056183D01*
X70764682Y-63056183D02*
X70818557Y-63056183D01*
X70818557Y-63056183D02*
X70899369Y-63029246D01*
X70899369Y-63029246D02*
X71114868Y-62813747D01*
X70522245Y-63945118D02*
X70845494Y-63621869D01*
X70683870Y-63783493D02*
X70118184Y-63217808D01*
X70118184Y-63217808D02*
X70252871Y-63244745D01*
X70252871Y-63244745D02*
X70360621Y-63244745D01*
X70360621Y-63244745D02*
X70441433Y-63217808D01*
X69767998Y-63567994D02*
X69390874Y-63945118D01*
X69390874Y-63945118D02*
X70198996Y-64268367D01*
X86112430Y-36663435D02*
X86139367Y-36582623D01*
X86139367Y-36582623D02*
X86220179Y-36501811D01*
X86220179Y-36501811D02*
X86327929Y-36447936D01*
X86327929Y-36447936D02*
X86435679Y-36447936D01*
X86435679Y-36447936D02*
X86516491Y-36474873D01*
X86516491Y-36474873D02*
X86651178Y-36555685D01*
X86651178Y-36555685D02*
X86731990Y-36636498D01*
X86731990Y-36636498D02*
X86812802Y-36771185D01*
X86812802Y-36771185D02*
X86839740Y-36851997D01*
X86839740Y-36851997D02*
X86839740Y-36959746D01*
X86839740Y-36959746D02*
X86785865Y-37067496D01*
X86785865Y-37067496D02*
X86731990Y-37121371D01*
X86731990Y-37121371D02*
X86624240Y-37175246D01*
X86624240Y-37175246D02*
X86570366Y-37175246D01*
X86570366Y-37175246D02*
X86381804Y-36986684D01*
X86381804Y-36986684D02*
X86489553Y-36878934D01*
X86381804Y-37471557D02*
X85816118Y-36905872D01*
X85816118Y-36905872D02*
X86058555Y-37794806D01*
X86058555Y-37794806D02*
X85492870Y-37229120D01*
X85789181Y-38064180D02*
X85223496Y-37498494D01*
X85223496Y-37498494D02*
X85088809Y-37633181D01*
X85088809Y-37633181D02*
X85034934Y-37740931D01*
X85034934Y-37740931D02*
X85034934Y-37848680D01*
X85034934Y-37848680D02*
X85061871Y-37929493D01*
X85061871Y-37929493D02*
X85142684Y-38064180D01*
X85142684Y-38064180D02*
X85223496Y-38144992D01*
X85223496Y-38144992D02*
X85358183Y-38225804D01*
X85358183Y-38225804D02*
X85438995Y-38252741D01*
X85438995Y-38252741D02*
X85546745Y-38252741D01*
X85546745Y-38252741D02*
X85654494Y-38198867D01*
X85654494Y-38198867D02*
X85789181Y-38064180D01*
X106604866Y-62067124D02*
X106254680Y-62417310D01*
X106254680Y-62417310D02*
X106658741Y-62444248D01*
X106658741Y-62444248D02*
X106577929Y-62525060D01*
X106577929Y-62525060D02*
X106550991Y-62605872D01*
X106550991Y-62605872D02*
X106550991Y-62659747D01*
X106550991Y-62659747D02*
X106577929Y-62740559D01*
X106577929Y-62740559D02*
X106712616Y-62875246D01*
X106712616Y-62875246D02*
X106793428Y-62902183D01*
X106793428Y-62902183D02*
X106847303Y-62902183D01*
X106847303Y-62902183D02*
X106928115Y-62875246D01*
X106928115Y-62875246D02*
X107089739Y-62713622D01*
X107089739Y-62713622D02*
X107116677Y-62632809D01*
X107116677Y-62632809D02*
X107116677Y-62578935D01*
X106093055Y-62578935D02*
X106470179Y-63333182D01*
X106470179Y-63333182D02*
X105715932Y-62956058D01*
X105581245Y-63090745D02*
X105231059Y-63440931D01*
X105231059Y-63440931D02*
X105635120Y-63467869D01*
X105635120Y-63467869D02*
X105554307Y-63548681D01*
X105554307Y-63548681D02*
X105527370Y-63629493D01*
X105527370Y-63629493D02*
X105527370Y-63683368D01*
X105527370Y-63683368D02*
X105554307Y-63764180D01*
X105554307Y-63764180D02*
X105688994Y-63898867D01*
X105688994Y-63898867D02*
X105769807Y-63925805D01*
X105769807Y-63925805D02*
X105823681Y-63925805D01*
X105823681Y-63925805D02*
X105904494Y-63898867D01*
X105904494Y-63898867D02*
X106066118Y-63737243D01*
X106066118Y-63737243D02*
X106093055Y-63656431D01*
X106093055Y-63656431D02*
X106093055Y-63602556D01*
X111512431Y-62263437D02*
X111539368Y-62182625D01*
X111539368Y-62182625D02*
X111620180Y-62101813D01*
X111620180Y-62101813D02*
X111727930Y-62047938D01*
X111727930Y-62047938D02*
X111835680Y-62047938D01*
X111835680Y-62047938D02*
X111916492Y-62074875D01*
X111916492Y-62074875D02*
X112051179Y-62155687D01*
X112051179Y-62155687D02*
X112131991Y-62236500D01*
X112131991Y-62236500D02*
X112212803Y-62371187D01*
X112212803Y-62371187D02*
X112239741Y-62451999D01*
X112239741Y-62451999D02*
X112239741Y-62559748D01*
X112239741Y-62559748D02*
X112185866Y-62667498D01*
X112185866Y-62667498D02*
X112131991Y-62721373D01*
X112131991Y-62721373D02*
X112024241Y-62775248D01*
X112024241Y-62775248D02*
X111970367Y-62775248D01*
X111970367Y-62775248D02*
X111781805Y-62586686D01*
X111781805Y-62586686D02*
X111889554Y-62478936D01*
X111781805Y-63071559D02*
X111216119Y-62505874D01*
X111216119Y-62505874D02*
X111458556Y-63394808D01*
X111458556Y-63394808D02*
X110892871Y-62829122D01*
X111189182Y-63664182D02*
X110623497Y-63098496D01*
X110623497Y-63098496D02*
X110488810Y-63233183D01*
X110488810Y-63233183D02*
X110434935Y-63340933D01*
X110434935Y-63340933D02*
X110434935Y-63448682D01*
X110434935Y-63448682D02*
X110461872Y-63529495D01*
X110461872Y-63529495D02*
X110542685Y-63664182D01*
X110542685Y-63664182D02*
X110623497Y-63744994D01*
X110623497Y-63744994D02*
X110758184Y-63825806D01*
X110758184Y-63825806D02*
X110838996Y-63852743D01*
X110838996Y-63852743D02*
X110946746Y-63852743D01*
X110946746Y-63852743D02*
X111054495Y-63798869D01*
X111054495Y-63798869D02*
X111189182Y-63664182D01*
X76194867Y-36167000D02*
X76221804Y-36086187D01*
X76221804Y-36086187D02*
X76302617Y-36005375D01*
X76302617Y-36005375D02*
X76410366Y-35951500D01*
X76410366Y-35951500D02*
X76518116Y-35951500D01*
X76518116Y-35951500D02*
X76598928Y-35978438D01*
X76598928Y-35978438D02*
X76733615Y-36059250D01*
X76733615Y-36059250D02*
X76814427Y-36140062D01*
X76814427Y-36140062D02*
X76895240Y-36274749D01*
X76895240Y-36274749D02*
X76922177Y-36355562D01*
X76922177Y-36355562D02*
X76922177Y-36463311D01*
X76922177Y-36463311D02*
X76868302Y-36571061D01*
X76868302Y-36571061D02*
X76814427Y-36624936D01*
X76814427Y-36624936D02*
X76706678Y-36678810D01*
X76706678Y-36678810D02*
X76652803Y-36678810D01*
X76652803Y-36678810D02*
X76464241Y-36490249D01*
X76464241Y-36490249D02*
X76571991Y-36382499D01*
X76464241Y-36975122D02*
X75898556Y-36409436D01*
X75898556Y-36409436D02*
X75683056Y-36624936D01*
X75683056Y-36624936D02*
X75656119Y-36705748D01*
X75656119Y-36705748D02*
X75656119Y-36759623D01*
X75656119Y-36759623D02*
X75683056Y-36840435D01*
X75683056Y-36840435D02*
X75763869Y-36921247D01*
X75763869Y-36921247D02*
X75844681Y-36948184D01*
X75844681Y-36948184D02*
X75898556Y-36948184D01*
X75898556Y-36948184D02*
X75979368Y-36921247D01*
X75979368Y-36921247D02*
X76194867Y-36705748D01*
X75602244Y-37837119D02*
X75925493Y-37513870D01*
X75763869Y-37675494D02*
X75198183Y-37109809D01*
X75198183Y-37109809D02*
X75332870Y-37136746D01*
X75332870Y-37136746D02*
X75440620Y-37136746D01*
X75440620Y-37136746D02*
X75521432Y-37109809D01*
X74847997Y-37459995D02*
X74497811Y-37810181D01*
X74497811Y-37810181D02*
X74901872Y-37837119D01*
X74901872Y-37837119D02*
X74821059Y-37917931D01*
X74821059Y-37917931D02*
X74794122Y-37998743D01*
X74794122Y-37998743D02*
X74794122Y-38052618D01*
X74794122Y-38052618D02*
X74821059Y-38133430D01*
X74821059Y-38133430D02*
X74955746Y-38268117D01*
X74955746Y-38268117D02*
X75036559Y-38295055D01*
X75036559Y-38295055D02*
X75090433Y-38295055D01*
X75090433Y-38295055D02*
X75171246Y-38268117D01*
X75171246Y-38268117D02*
X75332870Y-38106493D01*
X75332870Y-38106493D02*
X75359807Y-38025681D01*
X75359807Y-38025681D02*
X75359807Y-37971806D01*
X73412431Y-36663435D02*
X73439368Y-36582623D01*
X73439368Y-36582623D02*
X73520180Y-36501811D01*
X73520180Y-36501811D02*
X73627930Y-36447936D01*
X73627930Y-36447936D02*
X73735680Y-36447936D01*
X73735680Y-36447936D02*
X73816492Y-36474873D01*
X73816492Y-36474873D02*
X73951179Y-36555685D01*
X73951179Y-36555685D02*
X74031991Y-36636498D01*
X74031991Y-36636498D02*
X74112803Y-36771185D01*
X74112803Y-36771185D02*
X74139741Y-36851997D01*
X74139741Y-36851997D02*
X74139741Y-36959746D01*
X74139741Y-36959746D02*
X74085866Y-37067496D01*
X74085866Y-37067496D02*
X74031991Y-37121371D01*
X74031991Y-37121371D02*
X73924241Y-37175246D01*
X73924241Y-37175246D02*
X73870367Y-37175246D01*
X73870367Y-37175246D02*
X73681805Y-36986684D01*
X73681805Y-36986684D02*
X73789554Y-36878934D01*
X73681805Y-37471557D02*
X73116119Y-36905872D01*
X73116119Y-36905872D02*
X73358556Y-37794806D01*
X73358556Y-37794806D02*
X72792871Y-37229120D01*
X73089182Y-38064180D02*
X72523497Y-37498494D01*
X72523497Y-37498494D02*
X72388810Y-37633181D01*
X72388810Y-37633181D02*
X72334935Y-37740931D01*
X72334935Y-37740931D02*
X72334935Y-37848680D01*
X72334935Y-37848680D02*
X72361872Y-37929493D01*
X72361872Y-37929493D02*
X72442685Y-38064180D01*
X72442685Y-38064180D02*
X72523497Y-38144992D01*
X72523497Y-38144992D02*
X72658184Y-38225804D01*
X72658184Y-38225804D02*
X72738996Y-38252741D01*
X72738996Y-38252741D02*
X72846746Y-38252741D01*
X72846746Y-38252741D02*
X72954495Y-38198867D01*
X72954495Y-38198867D02*
X73089182Y-38064180D01*
X116565492Y-36690372D02*
X116592429Y-36609560D01*
X116592429Y-36609560D02*
X116673241Y-36528748D01*
X116673241Y-36528748D02*
X116780991Y-36474873D01*
X116780991Y-36474873D02*
X116888740Y-36474873D01*
X116888740Y-36474873D02*
X116969553Y-36501810D01*
X116969553Y-36501810D02*
X117104240Y-36582623D01*
X117104240Y-36582623D02*
X117185052Y-36663435D01*
X117185052Y-36663435D02*
X117265864Y-36798122D01*
X117265864Y-36798122D02*
X117292801Y-36878934D01*
X117292801Y-36878934D02*
X117292801Y-36986684D01*
X117292801Y-36986684D02*
X117238927Y-37094433D01*
X117238927Y-37094433D02*
X117185052Y-37148308D01*
X117185052Y-37148308D02*
X117077302Y-37202183D01*
X117077302Y-37202183D02*
X117023427Y-37202183D01*
X117023427Y-37202183D02*
X116834866Y-37013621D01*
X116834866Y-37013621D02*
X116942615Y-36905871D01*
X116834866Y-37498494D02*
X116269180Y-36932809D01*
X116269180Y-36932809D02*
X116053681Y-37148308D01*
X116053681Y-37148308D02*
X116026744Y-37229120D01*
X116026744Y-37229120D02*
X116026744Y-37282995D01*
X116026744Y-37282995D02*
X116053681Y-37363807D01*
X116053681Y-37363807D02*
X116134493Y-37444619D01*
X116134493Y-37444619D02*
X116215305Y-37471557D01*
X116215305Y-37471557D02*
X116269180Y-37471557D01*
X116269180Y-37471557D02*
X116349992Y-37444619D01*
X116349992Y-37444619D02*
X116565492Y-37229120D01*
X115595745Y-37606244D02*
X115541870Y-37660119D01*
X115541870Y-37660119D02*
X115514933Y-37740931D01*
X115514933Y-37740931D02*
X115514933Y-37794806D01*
X115514933Y-37794806D02*
X115541870Y-37875618D01*
X115541870Y-37875618D02*
X115622683Y-38010305D01*
X115622683Y-38010305D02*
X115757370Y-38144992D01*
X115757370Y-38144992D02*
X115892057Y-38225804D01*
X115892057Y-38225804D02*
X115972869Y-38252741D01*
X115972869Y-38252741D02*
X116026744Y-38252741D01*
X116026744Y-38252741D02*
X116107556Y-38225804D01*
X116107556Y-38225804D02*
X116161431Y-38171929D01*
X116161431Y-38171929D02*
X116188368Y-38091117D01*
X116188368Y-38091117D02*
X116188368Y-38037242D01*
X116188368Y-38037242D02*
X116161431Y-37956430D01*
X116161431Y-37956430D02*
X116080618Y-37821743D01*
X116080618Y-37821743D02*
X115945931Y-37687056D01*
X115945931Y-37687056D02*
X115811244Y-37606244D01*
X115811244Y-37606244D02*
X115730432Y-37579306D01*
X115730432Y-37579306D02*
X115676557Y-37579306D01*
X115676557Y-37579306D02*
X115595745Y-37606244D01*
X86112430Y-62263435D02*
X86139367Y-62182623D01*
X86139367Y-62182623D02*
X86220179Y-62101811D01*
X86220179Y-62101811D02*
X86327929Y-62047936D01*
X86327929Y-62047936D02*
X86435679Y-62047936D01*
X86435679Y-62047936D02*
X86516491Y-62074873D01*
X86516491Y-62074873D02*
X86651178Y-62155685D01*
X86651178Y-62155685D02*
X86731990Y-62236498D01*
X86731990Y-62236498D02*
X86812802Y-62371185D01*
X86812802Y-62371185D02*
X86839740Y-62451997D01*
X86839740Y-62451997D02*
X86839740Y-62559746D01*
X86839740Y-62559746D02*
X86785865Y-62667496D01*
X86785865Y-62667496D02*
X86731990Y-62721371D01*
X86731990Y-62721371D02*
X86624240Y-62775246D01*
X86624240Y-62775246D02*
X86570366Y-62775246D01*
X86570366Y-62775246D02*
X86381804Y-62586684D01*
X86381804Y-62586684D02*
X86489553Y-62478934D01*
X86381804Y-63071557D02*
X85816118Y-62505872D01*
X85816118Y-62505872D02*
X86058555Y-63394806D01*
X86058555Y-63394806D02*
X85492870Y-62829120D01*
X85789181Y-63664180D02*
X85223496Y-63098494D01*
X85223496Y-63098494D02*
X85088809Y-63233181D01*
X85088809Y-63233181D02*
X85034934Y-63340931D01*
X85034934Y-63340931D02*
X85034934Y-63448680D01*
X85034934Y-63448680D02*
X85061871Y-63529493D01*
X85061871Y-63529493D02*
X85142684Y-63664180D01*
X85142684Y-63664180D02*
X85223496Y-63744992D01*
X85223496Y-63744992D02*
X85358183Y-63825804D01*
X85358183Y-63825804D02*
X85438995Y-63852741D01*
X85438995Y-63852741D02*
X85546745Y-63852741D01*
X85546745Y-63852741D02*
X85654494Y-63798867D01*
X85654494Y-63798867D02*
X85789181Y-63664180D01*
X81274868Y-36020999D02*
X81301805Y-35940186D01*
X81301805Y-35940186D02*
X81382618Y-35859374D01*
X81382618Y-35859374D02*
X81490367Y-35805499D01*
X81490367Y-35805499D02*
X81598117Y-35805499D01*
X81598117Y-35805499D02*
X81678929Y-35832437D01*
X81678929Y-35832437D02*
X81813616Y-35913249D01*
X81813616Y-35913249D02*
X81894428Y-35994061D01*
X81894428Y-35994061D02*
X81975241Y-36128748D01*
X81975241Y-36128748D02*
X82002178Y-36209561D01*
X82002178Y-36209561D02*
X82002178Y-36317310D01*
X82002178Y-36317310D02*
X81948303Y-36425060D01*
X81948303Y-36425060D02*
X81894428Y-36478935D01*
X81894428Y-36478935D02*
X81786679Y-36532809D01*
X81786679Y-36532809D02*
X81732804Y-36532809D01*
X81732804Y-36532809D02*
X81544242Y-36344248D01*
X81544242Y-36344248D02*
X81651992Y-36236498D01*
X81544242Y-36829121D02*
X80978557Y-36263435D01*
X80978557Y-36263435D02*
X80763057Y-36478935D01*
X80763057Y-36478935D02*
X80736120Y-36559747D01*
X80736120Y-36559747D02*
X80736120Y-36613622D01*
X80736120Y-36613622D02*
X80763057Y-36694434D01*
X80763057Y-36694434D02*
X80843870Y-36775246D01*
X80843870Y-36775246D02*
X80924682Y-36802183D01*
X80924682Y-36802183D02*
X80978557Y-36802183D01*
X80978557Y-36802183D02*
X81059369Y-36775246D01*
X81059369Y-36775246D02*
X81274868Y-36559747D01*
X80682245Y-37691118D02*
X81005494Y-37367869D01*
X80843870Y-37529493D02*
X80278184Y-36963808D01*
X80278184Y-36963808D02*
X80412871Y-36990745D01*
X80412871Y-36990745D02*
X80520621Y-36990745D01*
X80520621Y-36990745D02*
X80601433Y-36963808D01*
X80143497Y-38229866D02*
X80466746Y-37906617D01*
X80305121Y-38068241D02*
X79739436Y-37502556D01*
X79739436Y-37502556D02*
X79874123Y-37529493D01*
X79874123Y-37529493D02*
X79981873Y-37529493D01*
X79981873Y-37529493D02*
X80062685Y-37502556D01*
D10*
%TO.C,SW4*%
X39604000Y-121908000D02*
X47704000Y-121908000D01*
X47704000Y-121908000D02*
X47704000Y-107028000D01*
X47704000Y-107028000D02*
X39604000Y-107028000D01*
X39604000Y-107028000D02*
X39604000Y-121908000D01*
%TO.C,SW5*%
X52604000Y-121908000D02*
X60704000Y-121908000D01*
X60704000Y-121908000D02*
X60704000Y-107028000D01*
X60704000Y-107028000D02*
X52604000Y-107028000D01*
X52604000Y-107028000D02*
X52604000Y-121908000D01*
%TO.C,SW10*%
X117604000Y-121908000D02*
X125704000Y-121908000D01*
X125704000Y-121908000D02*
X125704000Y-107028000D01*
X125704000Y-107028000D02*
X117604000Y-107028000D01*
X117604000Y-107028000D02*
X117604000Y-121908000D01*
%TO.C,SW8*%
X91604000Y-121908000D02*
X99704000Y-121908000D01*
X99704000Y-121908000D02*
X99704000Y-107028000D01*
X99704000Y-107028000D02*
X91604000Y-107028000D01*
X91604000Y-107028000D02*
X91604000Y-121908000D01*
%TO.C,SW6*%
X65604000Y-121908000D02*
X73704000Y-121908000D01*
X73704000Y-121908000D02*
X73704000Y-107028000D01*
X73704000Y-107028000D02*
X65604000Y-107028000D01*
X65604000Y-107028000D02*
X65604000Y-121908000D01*
%TO.C,SW1*%
X604000Y-121908000D02*
X8704000Y-121908000D01*
X8704000Y-121908000D02*
X8704000Y-107028000D01*
X8704000Y-107028000D02*
X604000Y-107028000D01*
X604000Y-107028000D02*
X604000Y-121908000D01*
%TO.C,SW9*%
X104604000Y-121908000D02*
X112704000Y-121908000D01*
X112704000Y-121908000D02*
X112704000Y-107028000D01*
X112704000Y-107028000D02*
X104604000Y-107028000D01*
X104604000Y-107028000D02*
X104604000Y-121908000D01*
%TO.C,SW3*%
X26604000Y-121908000D02*
X34704000Y-121908000D01*
X34704000Y-121908000D02*
X34704000Y-107028000D01*
X34704000Y-107028000D02*
X26604000Y-107028000D01*
X26604000Y-107028000D02*
X26604000Y-121908000D01*
%TO.C,SW*%
X13604000Y-121908000D02*
X21704000Y-121908000D01*
X21704000Y-121908000D02*
X21704000Y-107028000D01*
X21704000Y-107028000D02*
X13604000Y-107028000D01*
X13604000Y-107028000D02*
X13604000Y-121908000D01*
%TO.C,SW7*%
X78604000Y-121908000D02*
X86704000Y-121908000D01*
X86704000Y-121908000D02*
X86704000Y-107028000D01*
X86704000Y-107028000D02*
X78604000Y-107028000D01*
X78604000Y-107028000D02*
X78604000Y-121908000D01*
D12*
%TO.C,U3*%
X72214000Y-60677002D02*
X71814000Y-60677001D01*
X74714000Y-60677002D02*
X74313999Y-60677000D01*
X79813999Y-60677002D02*
X79413999Y-60677000D01*
X82313999Y-60677002D02*
X81913999Y-60677000D01*
X107713999Y-60677002D02*
X107314000Y-60677002D01*
X115414000Y-60677002D02*
X115013999Y-60677000D01*
X66814000Y-60677001D02*
X66814000Y-53877001D01*
X69614000Y-60677001D02*
X69214000Y-60677001D01*
X90013999Y-60677001D02*
X89614000Y-60677002D01*
X92514000Y-60677001D02*
X92114000Y-60677002D01*
X95014000Y-60677001D02*
X94613999Y-60677000D01*
X110314000Y-60677001D02*
X109914000Y-60677001D01*
X112814000Y-60677001D02*
X112414000Y-60677001D01*
X77213999Y-60677000D02*
X76814000Y-60677000D01*
X84914000Y-60677000D02*
X84513999Y-60677002D01*
X87414000Y-60677000D02*
X87014000Y-60677001D01*
X97613999Y-60677000D02*
X97213999Y-60677002D01*
X100114000Y-60677000D02*
X99713999Y-60677002D01*
X102713999Y-60677000D02*
X102314000Y-60677000D01*
X105213999Y-60677000D02*
X104814000Y-60677000D01*
X117813999Y-60677000D02*
X117514000Y-60677000D01*
X66813999Y-51277002D02*
X66813999Y-51677002D01*
X66814000Y-48677002D02*
X66813999Y-49077002D01*
X66814000Y-46477002D02*
X66814000Y-39677002D01*
X115147000Y-42684002D02*
X117813999Y-42684001D01*
X69614000Y-39677002D02*
X69214000Y-39677000D01*
X79814000Y-39677002D02*
X79414000Y-39677000D01*
X82314000Y-39677002D02*
X81914000Y-39677000D01*
X95013998Y-39677002D02*
X94613998Y-39677000D01*
X107713998Y-39677002D02*
X107314000Y-39677001D01*
X110314000Y-39677002D02*
X109914000Y-39677000D01*
X115147000Y-39677002D02*
X115147000Y-42684002D01*
X72214000Y-39677001D02*
X71813999Y-39677000D01*
X74714000Y-39677001D02*
X74313999Y-39677000D01*
X84914000Y-39677001D02*
X84514000Y-39677002D01*
X87414000Y-39677001D02*
X87014000Y-39677002D01*
X90014000Y-39677001D02*
X89614000Y-39677001D01*
X100114000Y-39677001D02*
X99714000Y-39677002D01*
X115414000Y-39677001D02*
X115013999Y-39677000D01*
X117813999Y-39677001D02*
X117813999Y-60677000D01*
X117813999Y-39677001D02*
X117514000Y-39677001D01*
X77213998Y-39677000D02*
X76814000Y-39677001D01*
X92514000Y-39677000D02*
X92114000Y-39677001D01*
X97613999Y-39677000D02*
X97214000Y-39677002D01*
X102714000Y-39677000D02*
X102314000Y-39677001D01*
X105214000Y-39677000D02*
X104814000Y-39677001D01*
X112813999Y-39677000D02*
X112413998Y-39677002D01*
%TD*%
M02*
