M48
; DRILL file {KiCad 7.0.6} date Sat 29 Jul 2023 11:39:50 AM IST
; FORMAT={-:-/ absolute / inch / decimal}
; #@! TF.CreationDate,2023-07-29T11:39:50+05:30
; #@! TF.GenerationSoftware,Kicad,Pcbnew,7.0.6
; #@! TF.FileFunction,Plated,1,2,PTH
FMAT,2
INCH
; #@! TA.AperFunction,Plated,PTH,ComponentDrill
T1C0.0300
; #@! TA.AperFunction,Plated,PTH,ComponentDrill
T2C0.0315
; #@! TA.AperFunction,Plated,PTH,ComponentDrill
T3C0.0354
; #@! TA.AperFunction,Plated,PTH,ComponentDrill
T4C0.0394
; #@! TA.AperFunction,Plated,PTH,ComponentDrill
T5C0.0402
; #@! TA.AperFunction,Plated,PTH,ComponentDrill
T6C0.0472
; #@! TA.AperFunction,Plated,PTH,ComponentDrill
T7C0.0591
; #@! TA.AperFunction,Plated,PTH,ComponentDrill
T8C0.0984
; #@! TA.AperFunction,Plated,PTH,ComponentDrill
T9C0.2165
%
G90
G05
T1
X0.4194Y-4.32
X0.4194Y-4.5121
X0.4194Y-4.6696
X0.9313Y-4.32
X0.9313Y-4.5121
X0.9313Y-4.6696
X1.4431Y-4.32
X1.4431Y-4.5121
X1.4431Y-4.6696
X1.9549Y-4.32
X1.9549Y-4.5121
X1.9549Y-4.6696
X2.4667Y-4.32
X2.4667Y-4.5121
X2.4667Y-4.6696
X2.9785Y-4.32
X2.9785Y-4.5121
X2.9785Y-4.6696
X3.4903Y-4.32
X3.4903Y-4.5121
X3.4903Y-4.6696
X4.0021Y-4.32
X4.0021Y-4.5121
X4.0021Y-4.6696
X4.5139Y-4.32
X4.5139Y-4.5121
X4.5139Y-4.6696
X5.0257Y-4.32
X5.0257Y-4.5121
X5.0257Y-4.6696
T2
X0.4175Y-4.7798
X0.4175Y-5.0798
X0.44Y-0.06
X0.44Y-0.36
X0.72Y-1.9152
X0.72Y-2.5152
X0.8Y-0.88
X0.8Y-0.98
X0.8Y-1.08
X0.8Y-1.18
X0.8Y-1.28
X0.8Y-1.38
X0.8Y-1.48
X0.8Y-1.58
X0.82Y-1.9152
X0.82Y-2.5152
X0.92Y-1.9152
X0.92Y-2.5152
X0.9301Y-4.7798
X0.9301Y-5.0798
X0.9374Y-0.07
X0.9374Y-0.37
X1.02Y-1.9152
X1.02Y-2.5152
X1.1Y-0.88
X1.1Y-0.98
X1.1Y-1.08
X1.1Y-1.18
X1.1Y-1.28
X1.1Y-1.38
X1.1Y-1.48
X1.1Y-1.58
X1.12Y-1.9152
X1.12Y-2.5152
X1.3969Y-0.07
X1.3969Y-0.37
X1.4411Y-4.7798
X1.4411Y-5.0798
X1.4644Y-1.3584
X1.4644Y-1.6584
X1.4644Y-1.76
X1.4644Y-2.06
X1.8769Y-0.07
X1.8769Y-0.37
X1.94Y-4.77
X1.94Y-5.07
X2.3174Y-0.06
X2.3174Y-0.36
X2.44Y-4.77
X2.44Y-5.07
X2.8169Y-0.05
X2.8169Y-0.35
X2.94Y-4.75
X2.94Y-5.05
X3.2969Y-0.05
X3.2969Y-0.35
X3.34Y-1.8009
X3.34Y-2.1009
X3.44Y-1.8009
X3.44Y-2.1009
X3.46Y-4.76
X3.46Y-5.06
X3.54Y-1.8009
X3.54Y-2.1009
X3.64Y-1.8009
X3.64Y-2.1009
X3.74Y-1.8009
X3.74Y-2.1009
X3.7569Y-0.05
X3.7569Y-0.35
X3.84Y-1.8009
X3.84Y-2.1009
X3.94Y-1.8009
X3.94Y-2.1009
X3.98Y-4.77
X3.98Y-5.07
X4.04Y-1.8009
X4.04Y-2.1009
X4.5Y-4.75
X4.5Y-5.05
X4.98Y-4.75
X4.98Y-5.05
T3
X0.0631Y-4.957
X0.1631Y-4.957
X0.1698Y-0.14
X0.2698Y-0.14
X0.5757Y-4.957
X0.6422Y-0.14
X0.6757Y-4.957
X0.7422Y-0.14
X1.0868Y-4.957
X1.1147Y-0.14
X1.1868Y-4.957
X1.2147Y-0.14
X1.5871Y-0.14
X1.5986Y-4.957
X1.6871Y-0.14
X1.6986Y-4.957
X2.0596Y-0.14
X2.1104Y-4.957
X2.1596Y-0.14
X2.2104Y-4.957
X2.532Y-0.14
X2.6222Y-4.957
X2.632Y-0.14
X2.7222Y-4.957
X3.0044Y-0.14
X3.1044Y-0.14
X3.134Y-4.957
X3.234Y-4.957
X3.4769Y-0.14
X3.5769Y-0.14
X3.6458Y-4.957
X3.7458Y-4.957
X4.1576Y-4.957
X4.2576Y-4.957
X4.6694Y-4.957
X4.7694Y-4.957
T4
X0.7969Y-3.0904
X0.7969Y-3.3896
X1.6691Y-1.56
X1.6691Y-1.6584
X1.6691Y-1.7569
X2.24Y-1.56
X2.24Y-1.7569
X3.92Y-3.78
X4.0184Y-3.5831
X4.1169Y-3.78
T5
X2.6844Y-1.6255
X2.6844Y-2.3255
X2.6935Y-1.8755
X2.6935Y-1.9755
X2.6935Y-2.0755
X2.7844Y-1.6255
X2.7844Y-2.3255
X2.8844Y-1.6255
X2.8844Y-2.3255
X2.9844Y-1.6255
X2.9844Y-2.3255
X3.0844Y-1.6255
X3.0844Y-2.3255
X3.1844Y-2.3255
X3.1844Y-1.6255
X3.2844Y-1.6255
X3.2844Y-2.3255
X3.3844Y-1.6255
X3.3844Y-2.3255
X3.4844Y-1.6255
X3.4844Y-2.3255
X3.5844Y-1.6255
X3.5844Y-2.3255
X3.6844Y-1.6255
X3.6844Y-2.3255
X3.7844Y-1.6255
X3.7844Y-2.3255
X3.8844Y-1.6255
X3.8844Y-2.3255
X3.9844Y-1.6255
X3.9844Y-2.3255
X4.0844Y-2.3255
X4.0844Y-1.6255
X4.1844Y-1.6255
X4.1844Y-2.3255
X4.2844Y-1.6255
X4.2844Y-2.3255
X4.3844Y-1.6255
X4.3844Y-2.3255
X4.4844Y-1.6255
X4.4844Y-2.3255
X4.5844Y-1.6255
X4.5844Y-2.3255
T6
X1.48Y-2.96
X1.48Y-3.0624
X1.48Y-3.1726
X1.4839Y-3.275
T8
X1.2728Y-2.8198
X1.2728Y-4.0403
X4.2255Y-4.0403
X4.2255Y-2.8198
T9
X0.2092Y-0.5337
X0.2169Y-3.0525
X0.2169Y-3.46
X0.2206Y-5.272
X0.2369Y-2.34
X0.2389Y-1.1187
X0.2389Y-1.5261
X0.2389Y-1.9336
X0.6816Y-0.5337
X0.7332Y-5.272
X1.1541Y-0.5337
X1.2443Y-5.272
X1.6265Y-0.5337
X1.7561Y-5.272
X2.0989Y-0.5337
X2.2679Y-5.272
X2.5714Y-0.5337
X2.7797Y-5.272
X2.9444Y-1.0255
X3.0438Y-0.5337
X3.2915Y-5.272
X3.5094Y-1.0247
X3.5163Y-0.5337
X3.8033Y-5.272
X4.0844Y-1.0255
X4.1319Y-0.4445
X4.3151Y-5.272
X4.6919Y-0.4445
X4.7969Y-3.46
X4.8269Y-5.272
T7
G00X1.9388Y-1.438
M15
G01X1.99Y-1.438
M16
G05
G00X1.9388Y-1.8789
M15
G01X1.99Y-1.8789
M16
G05
T0
M30
