%TF.GenerationSoftware,KiCad,Pcbnew,7.0.6*%
%TF.CreationDate,2023-07-29T11:39:51+05:30*%
%TF.ProjectId,Copy of Trainer Kit Prototype,436f7079-206f-4662-9054-7261696e6572,rev?*%
%TF.SameCoordinates,Original*%
%TF.FileFunction,Drillmap*%
%TF.FilePolarity,Positive*%
%FSLAX45Y45*%
G04 Gerber Fmt 4.5, Leading zero omitted, Abs format (unit mm)*
G04 Created by KiCad (PCBNEW 7.0.6) date 2023-07-29 11:39:51*
%MOMM*%
%LPD*%
G01*
G04 APERTURE LIST*
%ADD10C,0.200000*%
%ADD11C,0.076200*%
%ADD12C,0.080000*%
%ADD13C,0.090000*%
%ADD14C,0.100000*%
%ADD15C,0.102000*%
%ADD16C,0.120000*%
%ADD17C,0.150000*%
%ADD18C,0.250000*%
%ADD19C,0.550000*%
G04 APERTURE END LIST*
D10*
X0Y0D02*
X13106400Y0D01*
X13106400Y-14000000D01*
X0Y-14000000D01*
X0Y0D01*
D11*
X1027300Y-10934700D02*
X1103500Y-11010900D01*
X1103500Y-10934700D02*
X1027300Y-11010900D01*
X1027300Y-11422700D02*
X1103500Y-11498900D01*
X1103500Y-11422700D02*
X1027300Y-11498900D01*
X1027300Y-11822700D02*
X1103500Y-11898900D01*
X1103500Y-11822700D02*
X1027300Y-11898900D01*
X2327300Y-10934700D02*
X2403500Y-11010900D01*
X2403500Y-10934700D02*
X2327300Y-11010900D01*
X2327300Y-11422700D02*
X2403500Y-11498900D01*
X2403500Y-11422700D02*
X2327300Y-11498900D01*
X2327300Y-11822700D02*
X2403500Y-11898900D01*
X2403500Y-11822700D02*
X2327300Y-11898900D01*
X3627300Y-10934700D02*
X3703500Y-11010900D01*
X3703500Y-10934700D02*
X3627300Y-11010900D01*
X3627300Y-11422700D02*
X3703500Y-11498900D01*
X3703500Y-11422700D02*
X3627300Y-11498900D01*
X3627300Y-11822700D02*
X3703500Y-11898900D01*
X3703500Y-11822700D02*
X3627300Y-11898900D01*
X4927300Y-10934700D02*
X5003500Y-11010900D01*
X5003500Y-10934700D02*
X4927300Y-11010900D01*
X4927300Y-11422700D02*
X5003500Y-11498900D01*
X5003500Y-11422700D02*
X4927300Y-11498900D01*
X4927300Y-11822700D02*
X5003500Y-11898900D01*
X5003500Y-11822700D02*
X4927300Y-11898900D01*
X6227300Y-10934700D02*
X6303500Y-11010900D01*
X6303500Y-10934700D02*
X6227300Y-11010900D01*
X6227300Y-11422700D02*
X6303500Y-11498900D01*
X6303500Y-11422700D02*
X6227300Y-11498900D01*
X6227300Y-11822700D02*
X6303500Y-11898900D01*
X6303500Y-11822700D02*
X6227300Y-11898900D01*
X7527300Y-10934700D02*
X7603500Y-11010900D01*
X7603500Y-10934700D02*
X7527300Y-11010900D01*
X7527300Y-11422700D02*
X7603500Y-11498900D01*
X7603500Y-11422700D02*
X7527300Y-11498900D01*
X7527300Y-11822700D02*
X7603500Y-11898900D01*
X7603500Y-11822700D02*
X7527300Y-11898900D01*
X8827300Y-10934700D02*
X8903500Y-11010900D01*
X8903500Y-10934700D02*
X8827300Y-11010900D01*
X8827300Y-11422700D02*
X8903500Y-11498900D01*
X8903500Y-11422700D02*
X8827300Y-11498900D01*
X8827300Y-11822700D02*
X8903500Y-11898900D01*
X8903500Y-11822700D02*
X8827300Y-11898900D01*
X10127300Y-10934700D02*
X10203500Y-11010900D01*
X10203500Y-10934700D02*
X10127300Y-11010900D01*
X10127300Y-11422700D02*
X10203500Y-11498900D01*
X10203500Y-11422700D02*
X10127300Y-11498900D01*
X10127300Y-11822700D02*
X10203500Y-11898900D01*
X10203500Y-11822700D02*
X10127300Y-11898900D01*
X11427300Y-10934700D02*
X11503500Y-11010900D01*
X11503500Y-10934700D02*
X11427300Y-11010900D01*
X11427300Y-11422700D02*
X11503500Y-11498900D01*
X11503500Y-11422700D02*
X11427300Y-11498900D01*
X11427300Y-11822700D02*
X11503500Y-11898900D01*
X11503500Y-11822700D02*
X11427300Y-11898900D01*
X12727300Y-10934700D02*
X12803500Y-11010900D01*
X12803500Y-10934700D02*
X12727300Y-11010900D01*
X12727300Y-11422700D02*
X12803500Y-11498900D01*
X12803500Y-11422700D02*
X12727300Y-11498900D01*
X12727300Y-11822700D02*
X12803500Y-11898900D01*
X12803500Y-11822700D02*
X12727300Y-11898900D01*
D12*
X1100400Y-12140800D02*
G75*
G03*
X1100400Y-12140800I-40000J0D01*
G01*
X1100400Y-12902800D02*
G75*
G03*
X1100400Y-12902800I-40000J0D01*
G01*
X1157600Y-152400D02*
G75*
G03*
X1157600Y-152400I-40000J0D01*
G01*
X1157600Y-914400D02*
G75*
G03*
X1157600Y-914400I-40000J0D01*
G01*
X1868800Y-4864550D02*
G75*
G03*
X1868800Y-4864550I-40000J0D01*
G01*
X1868800Y-6388550D02*
G75*
G03*
X1868800Y-6388550I-40000J0D01*
G01*
X2072000Y-2235200D02*
G75*
G03*
X2072000Y-2235200I-40000J0D01*
G01*
X2072000Y-2489200D02*
G75*
G03*
X2072000Y-2489200I-40000J0D01*
G01*
X2072000Y-2743200D02*
G75*
G03*
X2072000Y-2743200I-40000J0D01*
G01*
X2072000Y-2997200D02*
G75*
G03*
X2072000Y-2997200I-40000J0D01*
G01*
X2072000Y-3251200D02*
G75*
G03*
X2072000Y-3251200I-40000J0D01*
G01*
X2072000Y-3505200D02*
G75*
G03*
X2072000Y-3505200I-40000J0D01*
G01*
X2072000Y-3759200D02*
G75*
G03*
X2072000Y-3759200I-40000J0D01*
G01*
X2072000Y-4013200D02*
G75*
G03*
X2072000Y-4013200I-40000J0D01*
G01*
X2122800Y-4864550D02*
G75*
G03*
X2122800Y-4864550I-40000J0D01*
G01*
X2122800Y-6388550D02*
G75*
G03*
X2122800Y-6388550I-40000J0D01*
G01*
X2376800Y-4864550D02*
G75*
G03*
X2376800Y-4864550I-40000J0D01*
G01*
X2376800Y-6388550D02*
G75*
G03*
X2376800Y-6388550I-40000J0D01*
G01*
X2402400Y-12140800D02*
G75*
G03*
X2402400Y-12140800I-40000J0D01*
G01*
X2402400Y-12902800D02*
G75*
G03*
X2402400Y-12902800I-40000J0D01*
G01*
X2421100Y-177800D02*
G75*
G03*
X2421100Y-177800I-40000J0D01*
G01*
X2421100Y-939800D02*
G75*
G03*
X2421100Y-939800I-40000J0D01*
G01*
X2630800Y-4864550D02*
G75*
G03*
X2630800Y-4864550I-40000J0D01*
G01*
X2630800Y-6388550D02*
G75*
G03*
X2630800Y-6388550I-40000J0D01*
G01*
X2834000Y-2235200D02*
G75*
G03*
X2834000Y-2235200I-40000J0D01*
G01*
X2834000Y-2489200D02*
G75*
G03*
X2834000Y-2489200I-40000J0D01*
G01*
X2834000Y-2743200D02*
G75*
G03*
X2834000Y-2743200I-40000J0D01*
G01*
X2834000Y-2997200D02*
G75*
G03*
X2834000Y-2997200I-40000J0D01*
G01*
X2834000Y-3251200D02*
G75*
G03*
X2834000Y-3251200I-40000J0D01*
G01*
X2834000Y-3505200D02*
G75*
G03*
X2834000Y-3505200I-40000J0D01*
G01*
X2834000Y-3759200D02*
G75*
G03*
X2834000Y-3759200I-40000J0D01*
G01*
X2834000Y-4013200D02*
G75*
G03*
X2834000Y-4013200I-40000J0D01*
G01*
X2884800Y-4864550D02*
G75*
G03*
X2884800Y-4864550I-40000J0D01*
G01*
X2884800Y-6388550D02*
G75*
G03*
X2884800Y-6388550I-40000J0D01*
G01*
X3588100Y-177800D02*
G75*
G03*
X3588100Y-177800I-40000J0D01*
G01*
X3588100Y-939800D02*
G75*
G03*
X3588100Y-939800I-40000J0D01*
G01*
X3700400Y-12140800D02*
G75*
G03*
X3700400Y-12140800I-40000J0D01*
G01*
X3700400Y-12902800D02*
G75*
G03*
X3700400Y-12902800I-40000J0D01*
G01*
X3759600Y-3450400D02*
G75*
G03*
X3759600Y-3450400I-40000J0D01*
G01*
X3759600Y-4212400D02*
G75*
G03*
X3759600Y-4212400I-40000J0D01*
G01*
X3759600Y-4470400D02*
G75*
G03*
X3759600Y-4470400I-40000J0D01*
G01*
X3759600Y-5232400D02*
G75*
G03*
X3759600Y-5232400I-40000J0D01*
G01*
X4807300Y-177800D02*
G75*
G03*
X4807300Y-177800I-40000J0D01*
G01*
X4807300Y-939800D02*
G75*
G03*
X4807300Y-939800I-40000J0D01*
G01*
X4967600Y-12115800D02*
G75*
G03*
X4967600Y-12115800I-40000J0D01*
G01*
X4967600Y-12877800D02*
G75*
G03*
X4967600Y-12877800I-40000J0D01*
G01*
X5926300Y-152400D02*
G75*
G03*
X5926300Y-152400I-40000J0D01*
G01*
X5926300Y-914400D02*
G75*
G03*
X5926300Y-914400I-40000J0D01*
G01*
X6237600Y-12115800D02*
G75*
G03*
X6237600Y-12115800I-40000J0D01*
G01*
X6237600Y-12877800D02*
G75*
G03*
X6237600Y-12877800I-40000J0D01*
G01*
X7194900Y-127000D02*
G75*
G03*
X7194900Y-127000I-40000J0D01*
G01*
X7194900Y-889000D02*
G75*
G03*
X7194900Y-889000I-40000J0D01*
G01*
X7507600Y-12065000D02*
G75*
G03*
X7507600Y-12065000I-40000J0D01*
G01*
X7507600Y-12827000D02*
G75*
G03*
X7507600Y-12827000I-40000J0D01*
G01*
X8414100Y-127000D02*
G75*
G03*
X8414100Y-127000I-40000J0D01*
G01*
X8414100Y-889000D02*
G75*
G03*
X8414100Y-889000I-40000J0D01*
G01*
X8523600Y-4574400D02*
G75*
G03*
X8523600Y-4574400I-40000J0D01*
G01*
X8523600Y-5336400D02*
G75*
G03*
X8523600Y-5336400I-40000J0D01*
G01*
X8777600Y-4574400D02*
G75*
G03*
X8777600Y-4574400I-40000J0D01*
G01*
X8777600Y-5336400D02*
G75*
G03*
X8777600Y-5336400I-40000J0D01*
G01*
X8828400Y-12090400D02*
G75*
G03*
X8828400Y-12090400I-40000J0D01*
G01*
X8828400Y-12852400D02*
G75*
G03*
X8828400Y-12852400I-40000J0D01*
G01*
X9031600Y-4574400D02*
G75*
G03*
X9031600Y-4574400I-40000J0D01*
G01*
X9031600Y-5336400D02*
G75*
G03*
X9031600Y-5336400I-40000J0D01*
G01*
X9285600Y-4574400D02*
G75*
G03*
X9285600Y-4574400I-40000J0D01*
G01*
X9285600Y-5336400D02*
G75*
G03*
X9285600Y-5336400I-40000J0D01*
G01*
X9539600Y-4574400D02*
G75*
G03*
X9539600Y-4574400I-40000J0D01*
G01*
X9539600Y-5336400D02*
G75*
G03*
X9539600Y-5336400I-40000J0D01*
G01*
X9582500Y-127000D02*
G75*
G03*
X9582500Y-127000I-40000J0D01*
G01*
X9582500Y-889000D02*
G75*
G03*
X9582500Y-889000I-40000J0D01*
G01*
X9793600Y-4574400D02*
G75*
G03*
X9793600Y-4574400I-40000J0D01*
G01*
X9793600Y-5336400D02*
G75*
G03*
X9793600Y-5336400I-40000J0D01*
G01*
X10047600Y-4574400D02*
G75*
G03*
X10047600Y-4574400I-40000J0D01*
G01*
X10047600Y-5336400D02*
G75*
G03*
X10047600Y-5336400I-40000J0D01*
G01*
X10149200Y-12115800D02*
G75*
G03*
X10149200Y-12115800I-40000J0D01*
G01*
X10149200Y-12877800D02*
G75*
G03*
X10149200Y-12877800I-40000J0D01*
G01*
X10301600Y-4574400D02*
G75*
G03*
X10301600Y-4574400I-40000J0D01*
G01*
X10301600Y-5336400D02*
G75*
G03*
X10301600Y-5336400I-40000J0D01*
G01*
X11470000Y-12065000D02*
G75*
G03*
X11470000Y-12065000I-40000J0D01*
G01*
X11470000Y-12827000D02*
G75*
G03*
X11470000Y-12827000I-40000J0D01*
G01*
X12689200Y-12065000D02*
G75*
G03*
X12689200Y-12065000I-40000J0D01*
G01*
X12689200Y-12827000D02*
G75*
G03*
X12689200Y-12827000I-40000J0D01*
G01*
D13*
X160400Y-12545800D02*
X160400Y-12635800D01*
X115400Y-12590800D02*
X205400Y-12590800D01*
X414400Y-12545800D02*
X414400Y-12635800D01*
X369400Y-12590800D02*
X459400Y-12590800D01*
X431300Y-310600D02*
X431300Y-400600D01*
X386300Y-355600D02*
X476300Y-355600D01*
X685300Y-310600D02*
X685300Y-400600D01*
X640300Y-355600D02*
X730300Y-355600D01*
X1462400Y-12545800D02*
X1462400Y-12635800D01*
X1417400Y-12590800D02*
X1507400Y-12590800D01*
X1631300Y-310600D02*
X1631300Y-400600D01*
X1586300Y-355600D02*
X1676300Y-355600D01*
X1716400Y-12545800D02*
X1716400Y-12635800D01*
X1671400Y-12590800D02*
X1761400Y-12590800D01*
X1885300Y-310600D02*
X1885300Y-400600D01*
X1840300Y-355600D02*
X1930300Y-355600D01*
X2760400Y-12545800D02*
X2760400Y-12635800D01*
X2715400Y-12590800D02*
X2805400Y-12590800D01*
X2831300Y-310600D02*
X2831300Y-400600D01*
X2786300Y-355600D02*
X2876300Y-355600D01*
X3014400Y-12545800D02*
X3014400Y-12635800D01*
X2969400Y-12590800D02*
X3059400Y-12590800D01*
X3085300Y-310600D02*
X3085300Y-400600D01*
X3040300Y-355600D02*
X3130300Y-355600D01*
X4031300Y-310600D02*
X4031300Y-400600D01*
X3986300Y-355600D02*
X4076300Y-355600D01*
X4060400Y-12545800D02*
X4060400Y-12635800D01*
X4015400Y-12590800D02*
X4105400Y-12590800D01*
X4285300Y-310600D02*
X4285300Y-400600D01*
X4240300Y-355600D02*
X4330300Y-355600D01*
X4314400Y-12545800D02*
X4314400Y-12635800D01*
X4269400Y-12590800D02*
X4359400Y-12590800D01*
X5231300Y-310600D02*
X5231300Y-400600D01*
X5186300Y-355600D02*
X5276300Y-355600D01*
X5360400Y-12545800D02*
X5360400Y-12635800D01*
X5315400Y-12590800D02*
X5405400Y-12590800D01*
X5485300Y-310600D02*
X5485300Y-400600D01*
X5440300Y-355600D02*
X5530300Y-355600D01*
X5614400Y-12545800D02*
X5614400Y-12635800D01*
X5569400Y-12590800D02*
X5659400Y-12590800D01*
X6431300Y-310600D02*
X6431300Y-400600D01*
X6386300Y-355600D02*
X6476300Y-355600D01*
X6660400Y-12545800D02*
X6660400Y-12635800D01*
X6615400Y-12590800D02*
X6705400Y-12590800D01*
X6685300Y-310600D02*
X6685300Y-400600D01*
X6640300Y-355600D02*
X6730300Y-355600D01*
X6914400Y-12545800D02*
X6914400Y-12635800D01*
X6869400Y-12590800D02*
X6959400Y-12590800D01*
X7631300Y-310600D02*
X7631300Y-400600D01*
X7586300Y-355600D02*
X7676300Y-355600D01*
X7885300Y-310600D02*
X7885300Y-400600D01*
X7840300Y-355600D02*
X7930300Y-355600D01*
X7960400Y-12545800D02*
X7960400Y-12635800D01*
X7915400Y-12590800D02*
X8005400Y-12590800D01*
X8214400Y-12545800D02*
X8214400Y-12635800D01*
X8169400Y-12590800D02*
X8259400Y-12590800D01*
X8831300Y-310600D02*
X8831300Y-400600D01*
X8786300Y-355600D02*
X8876300Y-355600D01*
X9085300Y-310600D02*
X9085300Y-400600D01*
X9040300Y-355600D02*
X9130300Y-355600D01*
X9260400Y-12545800D02*
X9260400Y-12635800D01*
X9215400Y-12590800D02*
X9305400Y-12590800D01*
X9514400Y-12545800D02*
X9514400Y-12635800D01*
X9469400Y-12590800D02*
X9559400Y-12590800D01*
X10560400Y-12545800D02*
X10560400Y-12635800D01*
X10515400Y-12590800D02*
X10605400Y-12590800D01*
X10814400Y-12545800D02*
X10814400Y-12635800D01*
X10769400Y-12590800D02*
X10859400Y-12590800D01*
X11860400Y-12545800D02*
X11860400Y-12635800D01*
X11815400Y-12590800D02*
X11905400Y-12590800D01*
X12114400Y-12545800D02*
X12114400Y-12635800D01*
X12069400Y-12590800D02*
X12159400Y-12590800D01*
D14*
X2059456Y-7884956D02*
X2059456Y-7814244D01*
X1988744Y-7814244D01*
X1988744Y-7884956D01*
X2059456Y-7884956D01*
X2059456Y-8644956D02*
X2059456Y-8574244D01*
X1988744Y-8574244D01*
X1988744Y-8644956D01*
X2059456Y-8644956D01*
X4274956Y-3997756D02*
X4274956Y-3927044D01*
X4204244Y-3927044D01*
X4204244Y-3997756D01*
X4274956Y-3997756D01*
X4274956Y-4247756D02*
X4274956Y-4177044D01*
X4204244Y-4177044D01*
X4204244Y-4247756D01*
X4274956Y-4247756D01*
X4274956Y-4497756D02*
X4274956Y-4427044D01*
X4204244Y-4427044D01*
X4204244Y-4497756D01*
X4274956Y-4497756D01*
X5724956Y-3997756D02*
X5724956Y-3927044D01*
X5654244Y-3927044D01*
X5654244Y-3997756D01*
X5724956Y-3997756D01*
X5724956Y-4497756D02*
X5724956Y-4427044D01*
X5654244Y-4427044D01*
X5654244Y-4497756D01*
X5724956Y-4497756D01*
X9992156Y-9636556D02*
X9992156Y-9565844D01*
X9921444Y-9565844D01*
X9921444Y-9636556D01*
X9992156Y-9636556D01*
X10242156Y-9136556D02*
X10242156Y-9065844D01*
X10171444Y-9065844D01*
X10171444Y-9136556D01*
X10242156Y-9136556D01*
X10492156Y-9636556D02*
X10492156Y-9565844D01*
X10421444Y-9565844D01*
X10421444Y-9636556D01*
X10492156Y-9636556D01*
D15*
X6818400Y-4179700D02*
X6869400Y-4128700D01*
X6818400Y-4077700D01*
X6767400Y-4128700D01*
X6818400Y-4179700D01*
X6818400Y-5957700D02*
X6869400Y-5906700D01*
X6818400Y-5855700D01*
X6767400Y-5906700D01*
X6818400Y-5957700D01*
X6841400Y-4814700D02*
X6892400Y-4763700D01*
X6841400Y-4712700D01*
X6790400Y-4763700D01*
X6841400Y-4814700D01*
X6841400Y-5068700D02*
X6892400Y-5017700D01*
X6841400Y-4966700D01*
X6790400Y-5017700D01*
X6841400Y-5068700D01*
X6841400Y-5322700D02*
X6892400Y-5271700D01*
X6841400Y-5220700D01*
X6790400Y-5271700D01*
X6841400Y-5322700D01*
X7072400Y-4179700D02*
X7123400Y-4128700D01*
X7072400Y-4077700D01*
X7021400Y-4128700D01*
X7072400Y-4179700D01*
X7072400Y-5957700D02*
X7123400Y-5906700D01*
X7072400Y-5855700D01*
X7021400Y-5906700D01*
X7072400Y-5957700D01*
X7326400Y-4179700D02*
X7377400Y-4128700D01*
X7326400Y-4077700D01*
X7275400Y-4128700D01*
X7326400Y-4179700D01*
X7326400Y-5957700D02*
X7377400Y-5906700D01*
X7326400Y-5855700D01*
X7275400Y-5906700D01*
X7326400Y-5957700D01*
X7580400Y-4179700D02*
X7631400Y-4128700D01*
X7580400Y-4077700D01*
X7529400Y-4128700D01*
X7580400Y-4179700D01*
X7580400Y-5957700D02*
X7631400Y-5906700D01*
X7580400Y-5855700D01*
X7529400Y-5906700D01*
X7580400Y-5957700D01*
X7834400Y-4179700D02*
X7885400Y-4128700D01*
X7834400Y-4077700D01*
X7783400Y-4128700D01*
X7834400Y-4179700D01*
X7834400Y-5957700D02*
X7885400Y-5906700D01*
X7834400Y-5855700D01*
X7783400Y-5906700D01*
X7834400Y-5957700D01*
X8088400Y-5957700D02*
X8139400Y-5906700D01*
X8088400Y-5855700D01*
X8037400Y-5906700D01*
X8088400Y-5957700D01*
X8088400Y-4179700D02*
X8139400Y-4128700D01*
X8088400Y-4077700D01*
X8037400Y-4128700D01*
X8088400Y-4179700D01*
X8342400Y-4179700D02*
X8393400Y-4128700D01*
X8342400Y-4077700D01*
X8291400Y-4128700D01*
X8342400Y-4179700D01*
X8342400Y-5957700D02*
X8393400Y-5906700D01*
X8342400Y-5855700D01*
X8291400Y-5906700D01*
X8342400Y-5957700D01*
X8596400Y-4179700D02*
X8647400Y-4128700D01*
X8596400Y-4077700D01*
X8545400Y-4128700D01*
X8596400Y-4179700D01*
X8596400Y-5957700D02*
X8647400Y-5906700D01*
X8596400Y-5855700D01*
X8545400Y-5906700D01*
X8596400Y-5957700D01*
X8850400Y-4179700D02*
X8901400Y-4128700D01*
X8850400Y-4077700D01*
X8799400Y-4128700D01*
X8850400Y-4179700D01*
X8850400Y-5957700D02*
X8901400Y-5906700D01*
X8850400Y-5855700D01*
X8799400Y-5906700D01*
X8850400Y-5957700D01*
X9104400Y-4179700D02*
X9155400Y-4128700D01*
X9104400Y-4077700D01*
X9053400Y-4128700D01*
X9104400Y-4179700D01*
X9104400Y-5957700D02*
X9155400Y-5906700D01*
X9104400Y-5855700D01*
X9053400Y-5906700D01*
X9104400Y-5957700D01*
X9358400Y-4179700D02*
X9409400Y-4128700D01*
X9358400Y-4077700D01*
X9307400Y-4128700D01*
X9358400Y-4179700D01*
X9358400Y-5957700D02*
X9409400Y-5906700D01*
X9358400Y-5855700D01*
X9307400Y-5906700D01*
X9358400Y-5957700D01*
X9612400Y-4179700D02*
X9663400Y-4128700D01*
X9612400Y-4077700D01*
X9561400Y-4128700D01*
X9612400Y-4179700D01*
X9612400Y-5957700D02*
X9663400Y-5906700D01*
X9612400Y-5855700D01*
X9561400Y-5906700D01*
X9612400Y-5957700D01*
X9866400Y-4179700D02*
X9917400Y-4128700D01*
X9866400Y-4077700D01*
X9815400Y-4128700D01*
X9866400Y-4179700D01*
X9866400Y-5957700D02*
X9917400Y-5906700D01*
X9866400Y-5855700D01*
X9815400Y-5906700D01*
X9866400Y-5957700D01*
X10120400Y-4179700D02*
X10171400Y-4128700D01*
X10120400Y-4077700D01*
X10069400Y-4128700D01*
X10120400Y-4179700D01*
X10120400Y-5957700D02*
X10171400Y-5906700D01*
X10120400Y-5855700D01*
X10069400Y-5906700D01*
X10120400Y-5957700D01*
X10374400Y-5957700D02*
X10425400Y-5906700D01*
X10374400Y-5855700D01*
X10323400Y-5906700D01*
X10374400Y-5957700D01*
X10374400Y-4179700D02*
X10425400Y-4128700D01*
X10374400Y-4077700D01*
X10323400Y-4128700D01*
X10374400Y-4179700D01*
X10628400Y-4179700D02*
X10679400Y-4128700D01*
X10628400Y-4077700D01*
X10577400Y-4128700D01*
X10628400Y-4179700D01*
X10628400Y-5957700D02*
X10679400Y-5906700D01*
X10628400Y-5855700D01*
X10577400Y-5906700D01*
X10628400Y-5957700D01*
X10882400Y-4179700D02*
X10933400Y-4128700D01*
X10882400Y-4077700D01*
X10831400Y-4128700D01*
X10882400Y-4179700D01*
X10882400Y-5957700D02*
X10933400Y-5906700D01*
X10882400Y-5855700D01*
X10831400Y-5906700D01*
X10882400Y-5957700D01*
X11136400Y-4179700D02*
X11187400Y-4128700D01*
X11136400Y-4077700D01*
X11085400Y-4128700D01*
X11136400Y-4179700D01*
X11136400Y-5957700D02*
X11187400Y-5906700D01*
X11136400Y-5855700D01*
X11085400Y-5906700D01*
X11136400Y-5957700D01*
X11390400Y-4179700D02*
X11441400Y-4128700D01*
X11390400Y-4077700D01*
X11339400Y-4128700D01*
X11390400Y-4179700D01*
X11390400Y-5957700D02*
X11441400Y-5906700D01*
X11390400Y-5855700D01*
X11339400Y-5906700D01*
X11390400Y-5957700D01*
X11644400Y-4179700D02*
X11695400Y-4128700D01*
X11644400Y-4077700D01*
X11593400Y-4128700D01*
X11644400Y-4179700D01*
X11644400Y-5957700D02*
X11695400Y-5906700D01*
X11644400Y-5855700D01*
X11593400Y-5906700D01*
X11644400Y-5957700D01*
D16*
X3699200Y-7458400D02*
X3819200Y-7578400D01*
X3819200Y-7458400D02*
X3699200Y-7578400D01*
X3819200Y-7518400D02*
G75*
G03*
X3819200Y-7518400I-60000J0D01*
G01*
X3699200Y-7718400D02*
X3819200Y-7838400D01*
X3819200Y-7718400D02*
X3699200Y-7838400D01*
X3819200Y-7778400D02*
G75*
G03*
X3819200Y-7778400I-60000J0D01*
G01*
X3699200Y-7998400D02*
X3819200Y-8118400D01*
X3819200Y-7998400D02*
X3699200Y-8118400D01*
X3819200Y-8058400D02*
G75*
G03*
X3819200Y-8058400I-60000J0D01*
G01*
X3709200Y-8258400D02*
X3829200Y-8378400D01*
X3829200Y-8258400D02*
X3709200Y-8378400D01*
X3829200Y-8318400D02*
G75*
G03*
X3829200Y-8318400I-60000J0D01*
G01*
D17*
X4914600Y-3577400D02*
X5064600Y-3727400D01*
X5064600Y-3577400D02*
X4914600Y-3727400D01*
X4989600Y-3577400D02*
X4989600Y-3727400D01*
X4914600Y-3652400D02*
X5064600Y-3652400D01*
D10*
X4924600Y-3727400D02*
X5054600Y-3727400D01*
X5054600Y-3727400D02*
G75*
G03*
X5054600Y-3577400I0J75000D01*
G01*
X5054600Y-3577400D02*
X4924600Y-3577400D01*
X4924600Y-3577400D02*
G75*
G03*
X4924600Y-3727400I0J-75000D01*
G01*
D17*
X4914600Y-4697400D02*
X5064600Y-4847400D01*
X5064600Y-4697400D02*
X4914600Y-4847400D01*
X4989600Y-4697400D02*
X4989600Y-4847400D01*
X4914600Y-4772400D02*
X5064600Y-4772400D01*
D10*
X4924600Y-4847400D02*
X5054600Y-4847400D01*
X5054600Y-4847400D02*
G75*
G03*
X5054600Y-4697400I0J75000D01*
G01*
X5054600Y-4697400D02*
X4924600Y-4697400D01*
X4924600Y-4697400D02*
G75*
G03*
X4924600Y-4847400I0J-75000D01*
G01*
D18*
X3107790Y-7037400D02*
X3357790Y-7287400D01*
X3357790Y-7037400D02*
X3107790Y-7287400D01*
X3321179Y-7250789D02*
X3321179Y-7074011D01*
X3144401Y-7074011D01*
X3144401Y-7250789D01*
X3321179Y-7250789D01*
X3107790Y-10137470D02*
X3357790Y-10387470D01*
X3357790Y-10137470D02*
X3107790Y-10387470D01*
X3321179Y-10350859D02*
X3321179Y-10174081D01*
X3144401Y-10174081D01*
X3144401Y-10350859D01*
X3321179Y-10350859D01*
X10607648Y-10137470D02*
X10857648Y-10387470D01*
X10857648Y-10137470D02*
X10607648Y-10387470D01*
X10821037Y-10350859D02*
X10821037Y-10174081D01*
X10644259Y-10174081D01*
X10644259Y-10350859D01*
X10821037Y-10350859D01*
X10607700Y-7037400D02*
X10857700Y-7287400D01*
X10857700Y-7037400D02*
X10607700Y-7287400D01*
X10821089Y-7250789D02*
X10821089Y-7074011D01*
X10644311Y-7074011D01*
X10644311Y-7250789D01*
X10821089Y-7250789D01*
D19*
X256300Y-1080600D02*
X806300Y-1630600D01*
X806300Y-1080600D02*
X256300Y-1630600D01*
X531300Y-1630600D02*
X806300Y-1355600D01*
X531300Y-1080600D01*
X256300Y-1355600D01*
X531300Y-1630600D01*
X275900Y-7478400D02*
X825900Y-8028400D01*
X825900Y-7478400D02*
X275900Y-8028400D01*
X550900Y-8028400D02*
X825900Y-7753400D01*
X550900Y-7478400D01*
X275900Y-7753400D01*
X550900Y-8028400D01*
X275900Y-8513400D02*
X825900Y-9063400D01*
X825900Y-8513400D02*
X275900Y-9063400D01*
X550900Y-9063400D02*
X825900Y-8788400D01*
X550900Y-8513400D01*
X275900Y-8788400D01*
X550900Y-9063400D01*
X285400Y-13115800D02*
X835400Y-13665800D01*
X835400Y-13115800D02*
X285400Y-13665800D01*
X560400Y-13665800D02*
X835400Y-13390800D01*
X560400Y-13115800D01*
X285400Y-13390800D01*
X560400Y-13665800D01*
X326700Y-5668600D02*
X876700Y-6218600D01*
X876700Y-5668600D02*
X326700Y-6218600D01*
X601700Y-6218600D02*
X876700Y-5943600D01*
X601700Y-5668600D01*
X326700Y-5943600D01*
X601700Y-6218600D01*
X331900Y-2566400D02*
X881900Y-3116400D01*
X881900Y-2566400D02*
X331900Y-3116400D01*
X606900Y-3116400D02*
X881900Y-2841400D01*
X606900Y-2566400D01*
X331900Y-2841400D01*
X606900Y-3116400D01*
X331900Y-3601400D02*
X881900Y-4151400D01*
X881900Y-3601400D02*
X331900Y-4151400D01*
X606900Y-4151400D02*
X881900Y-3876400D01*
X606900Y-3601400D01*
X331900Y-3876400D01*
X606900Y-4151400D01*
X331900Y-4636400D02*
X881900Y-5186400D01*
X881900Y-4636400D02*
X331900Y-5186400D01*
X606900Y-5186400D02*
X881900Y-4911400D01*
X606900Y-4636400D01*
X331900Y-4911400D01*
X606900Y-5186400D01*
X1456300Y-1080600D02*
X2006300Y-1630600D01*
X2006300Y-1080600D02*
X1456300Y-1630600D01*
X1731300Y-1630600D02*
X2006300Y-1355600D01*
X1731300Y-1080600D01*
X1456300Y-1355600D01*
X1731300Y-1630600D01*
X1587400Y-13115800D02*
X2137400Y-13665800D01*
X2137400Y-13115800D02*
X1587400Y-13665800D01*
X1862400Y-13665800D02*
X2137400Y-13390800D01*
X1862400Y-13115800D01*
X1587400Y-13390800D01*
X1862400Y-13665800D01*
X2656300Y-1080600D02*
X3206300Y-1630600D01*
X3206300Y-1080600D02*
X2656300Y-1630600D01*
X2931300Y-1630600D02*
X3206300Y-1355600D01*
X2931300Y-1080600D01*
X2656300Y-1355600D01*
X2931300Y-1630600D01*
X2885400Y-13115800D02*
X3435400Y-13665800D01*
X3435400Y-13115800D02*
X2885400Y-13665800D01*
X3160400Y-13665800D02*
X3435400Y-13390800D01*
X3160400Y-13115800D01*
X2885400Y-13390800D01*
X3160400Y-13665800D01*
X3856300Y-1080600D02*
X4406300Y-1630600D01*
X4406300Y-1080600D02*
X3856300Y-1630600D01*
X4131300Y-1630600D02*
X4406300Y-1355600D01*
X4131300Y-1080600D01*
X3856300Y-1355600D01*
X4131300Y-1630600D01*
X4185400Y-13115800D02*
X4735400Y-13665800D01*
X4735400Y-13115800D02*
X4185400Y-13665800D01*
X4460400Y-13665800D02*
X4735400Y-13390800D01*
X4460400Y-13115800D01*
X4185400Y-13390800D01*
X4460400Y-13665800D01*
X5056300Y-1080600D02*
X5606300Y-1630600D01*
X5606300Y-1080600D02*
X5056300Y-1630600D01*
X5331300Y-1630600D02*
X5606300Y-1355600D01*
X5331300Y-1080600D01*
X5056300Y-1355600D01*
X5331300Y-1630600D01*
X5485400Y-13115800D02*
X6035400Y-13665800D01*
X6035400Y-13115800D02*
X5485400Y-13665800D01*
X5760400Y-13665800D02*
X6035400Y-13390800D01*
X5760400Y-13115800D01*
X5485400Y-13390800D01*
X5760400Y-13665800D01*
X6256300Y-1080600D02*
X6806300Y-1630600D01*
X6806300Y-1080600D02*
X6256300Y-1630600D01*
X6531300Y-1630600D02*
X6806300Y-1355600D01*
X6531300Y-1080600D01*
X6256300Y-1355600D01*
X6531300Y-1630600D01*
X6785400Y-13115800D02*
X7335400Y-13665800D01*
X7335400Y-13115800D02*
X6785400Y-13665800D01*
X7060400Y-13665800D02*
X7335400Y-13390800D01*
X7060400Y-13115800D01*
X6785400Y-13390800D01*
X7060400Y-13665800D01*
X7203800Y-2329700D02*
X7753800Y-2879700D01*
X7753800Y-2329700D02*
X7203800Y-2879700D01*
X7478800Y-2879700D02*
X7753800Y-2604700D01*
X7478800Y-2329700D01*
X7203800Y-2604700D01*
X7478800Y-2879700D01*
X7456300Y-1080600D02*
X8006300Y-1630600D01*
X8006300Y-1080600D02*
X7456300Y-1630600D01*
X7731300Y-1630600D02*
X8006300Y-1355600D01*
X7731300Y-1080600D01*
X7456300Y-1355600D01*
X7731300Y-1630600D01*
X8085400Y-13115800D02*
X8635400Y-13665800D01*
X8635400Y-13115800D02*
X8085400Y-13665800D01*
X8360400Y-13665800D02*
X8635400Y-13390800D01*
X8360400Y-13115800D01*
X8085400Y-13390800D01*
X8360400Y-13665800D01*
X8639000Y-2327700D02*
X9189000Y-2877700D01*
X9189000Y-2327700D02*
X8639000Y-2877700D01*
X8914000Y-2877700D02*
X9189000Y-2602700D01*
X8914000Y-2327700D01*
X8639000Y-2602700D01*
X8914000Y-2877700D01*
X8656300Y-1080600D02*
X9206300Y-1630600D01*
X9206300Y-1080600D02*
X8656300Y-1630600D01*
X8931300Y-1630600D02*
X9206300Y-1355600D01*
X8931300Y-1080600D01*
X8656300Y-1355600D01*
X8931300Y-1630600D01*
X9385400Y-13115800D02*
X9935400Y-13665800D01*
X9935400Y-13115800D02*
X9385400Y-13665800D01*
X9660400Y-13665800D02*
X9935400Y-13390800D01*
X9660400Y-13115800D01*
X9385400Y-13390800D01*
X9660400Y-13665800D01*
X10099400Y-2329700D02*
X10649400Y-2879700D01*
X10649400Y-2329700D02*
X10099400Y-2879700D01*
X10374400Y-2879700D02*
X10649400Y-2604700D01*
X10374400Y-2329700D01*
X10099400Y-2604700D01*
X10374400Y-2879700D01*
X10219900Y-854100D02*
X10769900Y-1404100D01*
X10769900Y-854100D02*
X10219900Y-1404100D01*
X10494900Y-1404100D02*
X10769900Y-1129100D01*
X10494900Y-854100D01*
X10219900Y-1129100D01*
X10494900Y-1404100D01*
X10685400Y-13115800D02*
X11235400Y-13665800D01*
X11235400Y-13115800D02*
X10685400Y-13665800D01*
X10960400Y-13665800D02*
X11235400Y-13390800D01*
X10960400Y-13115800D01*
X10685400Y-13390800D01*
X10960400Y-13665800D01*
X11642300Y-854100D02*
X12192300Y-1404100D01*
X12192300Y-854100D02*
X11642300Y-1404100D01*
X11917300Y-1404100D02*
X12192300Y-1129100D01*
X11917300Y-854100D01*
X11642300Y-1129100D01*
X11917300Y-1404100D01*
X11909100Y-8513400D02*
X12459100Y-9063400D01*
X12459100Y-8513400D02*
X11909100Y-9063400D01*
X12184100Y-9063400D02*
X12459100Y-8788400D01*
X12184100Y-8513400D01*
X11909100Y-8788400D01*
X12184100Y-9063400D01*
X11985400Y-13115800D02*
X12535400Y-13665800D01*
X12535400Y-13115800D02*
X11985400Y-13665800D01*
X12260400Y-13665800D02*
X12535400Y-13390800D01*
X12260400Y-13115800D01*
X11985400Y-13390800D01*
X12260400Y-13665800D01*
D10*
X250777Y-14321484D02*
X250777Y-14121484D01*
X250777Y-14121484D02*
X298396Y-14121484D01*
X298396Y-14121484D02*
X326967Y-14131008D01*
X326967Y-14131008D02*
X346015Y-14150055D01*
X346015Y-14150055D02*
X355539Y-14169103D01*
X355539Y-14169103D02*
X365062Y-14207198D01*
X365062Y-14207198D02*
X365062Y-14235769D01*
X365062Y-14235769D02*
X355539Y-14273865D01*
X355539Y-14273865D02*
X346015Y-14292912D01*
X346015Y-14292912D02*
X326967Y-14311960D01*
X326967Y-14311960D02*
X298396Y-14321484D01*
X298396Y-14321484D02*
X250777Y-14321484D01*
X450777Y-14321484D02*
X450777Y-14188150D01*
X450777Y-14226246D02*
X460301Y-14207198D01*
X460301Y-14207198D02*
X469824Y-14197674D01*
X469824Y-14197674D02*
X488872Y-14188150D01*
X488872Y-14188150D02*
X507920Y-14188150D01*
X574586Y-14321484D02*
X574586Y-14188150D01*
X574586Y-14121484D02*
X565063Y-14131008D01*
X565063Y-14131008D02*
X574586Y-14140531D01*
X574586Y-14140531D02*
X584110Y-14131008D01*
X584110Y-14131008D02*
X574586Y-14121484D01*
X574586Y-14121484D02*
X574586Y-14140531D01*
X698396Y-14321484D02*
X679348Y-14311960D01*
X679348Y-14311960D02*
X669824Y-14292912D01*
X669824Y-14292912D02*
X669824Y-14121484D01*
X803158Y-14321484D02*
X784110Y-14311960D01*
X784110Y-14311960D02*
X774586Y-14292912D01*
X774586Y-14292912D02*
X774586Y-14121484D01*
X1031729Y-14321484D02*
X1031729Y-14121484D01*
X1031729Y-14121484D02*
X1098396Y-14264341D01*
X1098396Y-14264341D02*
X1165063Y-14121484D01*
X1165063Y-14121484D02*
X1165063Y-14321484D01*
X1346015Y-14321484D02*
X1346015Y-14216722D01*
X1346015Y-14216722D02*
X1336491Y-14197674D01*
X1336491Y-14197674D02*
X1317444Y-14188150D01*
X1317444Y-14188150D02*
X1279348Y-14188150D01*
X1279348Y-14188150D02*
X1260301Y-14197674D01*
X1346015Y-14311960D02*
X1326967Y-14321484D01*
X1326967Y-14321484D02*
X1279348Y-14321484D01*
X1279348Y-14321484D02*
X1260301Y-14311960D01*
X1260301Y-14311960D02*
X1250777Y-14292912D01*
X1250777Y-14292912D02*
X1250777Y-14273865D01*
X1250777Y-14273865D02*
X1260301Y-14254817D01*
X1260301Y-14254817D02*
X1279348Y-14245293D01*
X1279348Y-14245293D02*
X1326967Y-14245293D01*
X1326967Y-14245293D02*
X1346015Y-14235769D01*
X1441253Y-14188150D02*
X1441253Y-14388150D01*
X1441253Y-14197674D02*
X1460301Y-14188150D01*
X1460301Y-14188150D02*
X1498396Y-14188150D01*
X1498396Y-14188150D02*
X1517443Y-14197674D01*
X1517443Y-14197674D02*
X1526967Y-14207198D01*
X1526967Y-14207198D02*
X1536491Y-14226246D01*
X1536491Y-14226246D02*
X1536491Y-14283388D01*
X1536491Y-14283388D02*
X1526967Y-14302436D01*
X1526967Y-14302436D02*
X1517443Y-14311960D01*
X1517443Y-14311960D02*
X1498396Y-14321484D01*
X1498396Y-14321484D02*
X1460301Y-14321484D01*
X1460301Y-14321484D02*
X1441253Y-14311960D01*
X1622205Y-14302436D02*
X1631729Y-14311960D01*
X1631729Y-14311960D02*
X1622205Y-14321484D01*
X1622205Y-14321484D02*
X1612682Y-14311960D01*
X1612682Y-14311960D02*
X1622205Y-14302436D01*
X1622205Y-14302436D02*
X1622205Y-14321484D01*
X1622205Y-14197674D02*
X1631729Y-14207198D01*
X1631729Y-14207198D02*
X1622205Y-14216722D01*
X1622205Y-14216722D02*
X1612682Y-14207198D01*
X1612682Y-14207198D02*
X1622205Y-14197674D01*
X1622205Y-14197674D02*
X1622205Y-14216722D01*
D11*
X-86200Y-14611900D02*
X-10000Y-14688100D01*
X-10000Y-14611900D02*
X-86200Y-14688100D01*
D10*
X288872Y-14541484D02*
X307920Y-14541484D01*
X307920Y-14541484D02*
X326967Y-14551008D01*
X326967Y-14551008D02*
X336491Y-14560531D01*
X336491Y-14560531D02*
X346015Y-14579579D01*
X346015Y-14579579D02*
X355539Y-14617674D01*
X355539Y-14617674D02*
X355539Y-14665293D01*
X355539Y-14665293D02*
X346015Y-14703388D01*
X346015Y-14703388D02*
X336491Y-14722436D01*
X336491Y-14722436D02*
X326967Y-14731960D01*
X326967Y-14731960D02*
X307920Y-14741484D01*
X307920Y-14741484D02*
X288872Y-14741484D01*
X288872Y-14741484D02*
X269824Y-14731960D01*
X269824Y-14731960D02*
X260301Y-14722436D01*
X260301Y-14722436D02*
X250777Y-14703388D01*
X250777Y-14703388D02*
X241253Y-14665293D01*
X241253Y-14665293D02*
X241253Y-14617674D01*
X241253Y-14617674D02*
X250777Y-14579579D01*
X250777Y-14579579D02*
X260301Y-14560531D01*
X260301Y-14560531D02*
X269824Y-14551008D01*
X269824Y-14551008D02*
X288872Y-14541484D01*
X441253Y-14722436D02*
X450777Y-14731960D01*
X450777Y-14731960D02*
X441253Y-14741484D01*
X441253Y-14741484D02*
X431729Y-14731960D01*
X431729Y-14731960D02*
X441253Y-14722436D01*
X441253Y-14722436D02*
X441253Y-14741484D01*
X517443Y-14541484D02*
X650777Y-14541484D01*
X650777Y-14541484D02*
X565063Y-14741484D01*
X812682Y-14541484D02*
X774586Y-14541484D01*
X774586Y-14541484D02*
X755539Y-14551008D01*
X755539Y-14551008D02*
X746015Y-14560531D01*
X746015Y-14560531D02*
X726967Y-14589103D01*
X726967Y-14589103D02*
X717443Y-14627198D01*
X717443Y-14627198D02*
X717443Y-14703388D01*
X717443Y-14703388D02*
X726967Y-14722436D01*
X726967Y-14722436D02*
X736491Y-14731960D01*
X736491Y-14731960D02*
X755539Y-14741484D01*
X755539Y-14741484D02*
X793634Y-14741484D01*
X793634Y-14741484D02*
X812682Y-14731960D01*
X812682Y-14731960D02*
X822205Y-14722436D01*
X822205Y-14722436D02*
X831729Y-14703388D01*
X831729Y-14703388D02*
X831729Y-14655769D01*
X831729Y-14655769D02*
X822205Y-14636722D01*
X822205Y-14636722D02*
X812682Y-14627198D01*
X812682Y-14627198D02*
X793634Y-14617674D01*
X793634Y-14617674D02*
X755539Y-14617674D01*
X755539Y-14617674D02*
X736491Y-14627198D01*
X736491Y-14627198D02*
X726967Y-14636722D01*
X726967Y-14636722D02*
X717443Y-14655769D01*
X907920Y-14560531D02*
X917443Y-14551008D01*
X917443Y-14551008D02*
X936491Y-14541484D01*
X936491Y-14541484D02*
X984110Y-14541484D01*
X984110Y-14541484D02*
X1003158Y-14551008D01*
X1003158Y-14551008D02*
X1012682Y-14560531D01*
X1012682Y-14560531D02*
X1022205Y-14579579D01*
X1022205Y-14579579D02*
X1022205Y-14598627D01*
X1022205Y-14598627D02*
X1012682Y-14627198D01*
X1012682Y-14627198D02*
X898396Y-14741484D01*
X898396Y-14741484D02*
X1022205Y-14741484D01*
X1107920Y-14741484D02*
X1107920Y-14608150D01*
X1107920Y-14627198D02*
X1117444Y-14617674D01*
X1117444Y-14617674D02*
X1136491Y-14608150D01*
X1136491Y-14608150D02*
X1165063Y-14608150D01*
X1165063Y-14608150D02*
X1184110Y-14617674D01*
X1184110Y-14617674D02*
X1193634Y-14636722D01*
X1193634Y-14636722D02*
X1193634Y-14741484D01*
X1193634Y-14636722D02*
X1203158Y-14617674D01*
X1203158Y-14617674D02*
X1222205Y-14608150D01*
X1222205Y-14608150D02*
X1250777Y-14608150D01*
X1250777Y-14608150D02*
X1269825Y-14617674D01*
X1269825Y-14617674D02*
X1279348Y-14636722D01*
X1279348Y-14636722D02*
X1279348Y-14741484D01*
X1374586Y-14741484D02*
X1374586Y-14608150D01*
X1374586Y-14627198D02*
X1384110Y-14617674D01*
X1384110Y-14617674D02*
X1403158Y-14608150D01*
X1403158Y-14608150D02*
X1431729Y-14608150D01*
X1431729Y-14608150D02*
X1450777Y-14617674D01*
X1450777Y-14617674D02*
X1460301Y-14636722D01*
X1460301Y-14636722D02*
X1460301Y-14741484D01*
X1460301Y-14636722D02*
X1469824Y-14617674D01*
X1469824Y-14617674D02*
X1488872Y-14608150D01*
X1488872Y-14608150D02*
X1517443Y-14608150D01*
X1517443Y-14608150D02*
X1536491Y-14617674D01*
X1536491Y-14617674D02*
X1546015Y-14636722D01*
X1546015Y-14636722D02*
X1546015Y-14741484D01*
X1936491Y-14531960D02*
X1765063Y-14789103D01*
X2193634Y-14541484D02*
X2212682Y-14541484D01*
X2212682Y-14541484D02*
X2231729Y-14551008D01*
X2231729Y-14551008D02*
X2241253Y-14560531D01*
X2241253Y-14560531D02*
X2250777Y-14579579D01*
X2250777Y-14579579D02*
X2260301Y-14617674D01*
X2260301Y-14617674D02*
X2260301Y-14665293D01*
X2260301Y-14665293D02*
X2250777Y-14703388D01*
X2250777Y-14703388D02*
X2241253Y-14722436D01*
X2241253Y-14722436D02*
X2231729Y-14731960D01*
X2231729Y-14731960D02*
X2212682Y-14741484D01*
X2212682Y-14741484D02*
X2193634Y-14741484D01*
X2193634Y-14741484D02*
X2174587Y-14731960D01*
X2174587Y-14731960D02*
X2165063Y-14722436D01*
X2165063Y-14722436D02*
X2155539Y-14703388D01*
X2155539Y-14703388D02*
X2146015Y-14665293D01*
X2146015Y-14665293D02*
X2146015Y-14617674D01*
X2146015Y-14617674D02*
X2155539Y-14579579D01*
X2155539Y-14579579D02*
X2165063Y-14560531D01*
X2165063Y-14560531D02*
X2174587Y-14551008D01*
X2174587Y-14551008D02*
X2193634Y-14541484D01*
X2346015Y-14722436D02*
X2355539Y-14731960D01*
X2355539Y-14731960D02*
X2346015Y-14741484D01*
X2346015Y-14741484D02*
X2336491Y-14731960D01*
X2336491Y-14731960D02*
X2346015Y-14722436D01*
X2346015Y-14722436D02*
X2346015Y-14741484D01*
X2479348Y-14541484D02*
X2498396Y-14541484D01*
X2498396Y-14541484D02*
X2517444Y-14551008D01*
X2517444Y-14551008D02*
X2526968Y-14560531D01*
X2526968Y-14560531D02*
X2536491Y-14579579D01*
X2536491Y-14579579D02*
X2546015Y-14617674D01*
X2546015Y-14617674D02*
X2546015Y-14665293D01*
X2546015Y-14665293D02*
X2536491Y-14703388D01*
X2536491Y-14703388D02*
X2526968Y-14722436D01*
X2526968Y-14722436D02*
X2517444Y-14731960D01*
X2517444Y-14731960D02*
X2498396Y-14741484D01*
X2498396Y-14741484D02*
X2479348Y-14741484D01*
X2479348Y-14741484D02*
X2460301Y-14731960D01*
X2460301Y-14731960D02*
X2450777Y-14722436D01*
X2450777Y-14722436D02*
X2441253Y-14703388D01*
X2441253Y-14703388D02*
X2431729Y-14665293D01*
X2431729Y-14665293D02*
X2431729Y-14617674D01*
X2431729Y-14617674D02*
X2441253Y-14579579D01*
X2441253Y-14579579D02*
X2450777Y-14560531D01*
X2450777Y-14560531D02*
X2460301Y-14551008D01*
X2460301Y-14551008D02*
X2479348Y-14541484D01*
X2612682Y-14541484D02*
X2736491Y-14541484D01*
X2736491Y-14541484D02*
X2669825Y-14617674D01*
X2669825Y-14617674D02*
X2698396Y-14617674D01*
X2698396Y-14617674D02*
X2717444Y-14627198D01*
X2717444Y-14627198D02*
X2726968Y-14636722D01*
X2726968Y-14636722D02*
X2736491Y-14655769D01*
X2736491Y-14655769D02*
X2736491Y-14703388D01*
X2736491Y-14703388D02*
X2726968Y-14722436D01*
X2726968Y-14722436D02*
X2717444Y-14731960D01*
X2717444Y-14731960D02*
X2698396Y-14741484D01*
X2698396Y-14741484D02*
X2641253Y-14741484D01*
X2641253Y-14741484D02*
X2622206Y-14731960D01*
X2622206Y-14731960D02*
X2612682Y-14722436D01*
X2860301Y-14541484D02*
X2879348Y-14541484D01*
X2879348Y-14541484D02*
X2898396Y-14551008D01*
X2898396Y-14551008D02*
X2907920Y-14560531D01*
X2907920Y-14560531D02*
X2917444Y-14579579D01*
X2917444Y-14579579D02*
X2926967Y-14617674D01*
X2926967Y-14617674D02*
X2926967Y-14665293D01*
X2926967Y-14665293D02*
X2917444Y-14703388D01*
X2917444Y-14703388D02*
X2907920Y-14722436D01*
X2907920Y-14722436D02*
X2898396Y-14731960D01*
X2898396Y-14731960D02*
X2879348Y-14741484D01*
X2879348Y-14741484D02*
X2860301Y-14741484D01*
X2860301Y-14741484D02*
X2841253Y-14731960D01*
X2841253Y-14731960D02*
X2831729Y-14722436D01*
X2831729Y-14722436D02*
X2822206Y-14703388D01*
X2822206Y-14703388D02*
X2812682Y-14665293D01*
X2812682Y-14665293D02*
X2812682Y-14617674D01*
X2812682Y-14617674D02*
X2822206Y-14579579D01*
X2822206Y-14579579D02*
X2831729Y-14560531D01*
X2831729Y-14560531D02*
X2841253Y-14551008D01*
X2841253Y-14551008D02*
X2860301Y-14541484D01*
X3050777Y-14541484D02*
X3069825Y-14541484D01*
X3069825Y-14541484D02*
X3088872Y-14551008D01*
X3088872Y-14551008D02*
X3098396Y-14560531D01*
X3098396Y-14560531D02*
X3107920Y-14579579D01*
X3107920Y-14579579D02*
X3117444Y-14617674D01*
X3117444Y-14617674D02*
X3117444Y-14665293D01*
X3117444Y-14665293D02*
X3107920Y-14703388D01*
X3107920Y-14703388D02*
X3098396Y-14722436D01*
X3098396Y-14722436D02*
X3088872Y-14731960D01*
X3088872Y-14731960D02*
X3069825Y-14741484D01*
X3069825Y-14741484D02*
X3050777Y-14741484D01*
X3050777Y-14741484D02*
X3031729Y-14731960D01*
X3031729Y-14731960D02*
X3022206Y-14722436D01*
X3022206Y-14722436D02*
X3012682Y-14703388D01*
X3012682Y-14703388D02*
X3003158Y-14665293D01*
X3003158Y-14665293D02*
X3003158Y-14617674D01*
X3003158Y-14617674D02*
X3012682Y-14579579D01*
X3012682Y-14579579D02*
X3022206Y-14560531D01*
X3022206Y-14560531D02*
X3031729Y-14551008D01*
X3031729Y-14551008D02*
X3050777Y-14541484D01*
X3193634Y-14541484D02*
X3193634Y-14579579D01*
X3269825Y-14541484D02*
X3269825Y-14579579D01*
X3565063Y-14817674D02*
X3555539Y-14808150D01*
X3555539Y-14808150D02*
X3536491Y-14779579D01*
X3536491Y-14779579D02*
X3526968Y-14760531D01*
X3526968Y-14760531D02*
X3517444Y-14731960D01*
X3517444Y-14731960D02*
X3507920Y-14684341D01*
X3507920Y-14684341D02*
X3507920Y-14646246D01*
X3507920Y-14646246D02*
X3517444Y-14598627D01*
X3517444Y-14598627D02*
X3526968Y-14570055D01*
X3526968Y-14570055D02*
X3536491Y-14551008D01*
X3536491Y-14551008D02*
X3555539Y-14522436D01*
X3555539Y-14522436D02*
X3565063Y-14512912D01*
X3622206Y-14541484D02*
X3746015Y-14541484D01*
X3746015Y-14541484D02*
X3679348Y-14617674D01*
X3679348Y-14617674D02*
X3707920Y-14617674D01*
X3707920Y-14617674D02*
X3726968Y-14627198D01*
X3726968Y-14627198D02*
X3736491Y-14636722D01*
X3736491Y-14636722D02*
X3746015Y-14655769D01*
X3746015Y-14655769D02*
X3746015Y-14703388D01*
X3746015Y-14703388D02*
X3736491Y-14722436D01*
X3736491Y-14722436D02*
X3726968Y-14731960D01*
X3726968Y-14731960D02*
X3707920Y-14741484D01*
X3707920Y-14741484D02*
X3650777Y-14741484D01*
X3650777Y-14741484D02*
X3631729Y-14731960D01*
X3631729Y-14731960D02*
X3622206Y-14722436D01*
X3869825Y-14541484D02*
X3888872Y-14541484D01*
X3888872Y-14541484D02*
X3907920Y-14551008D01*
X3907920Y-14551008D02*
X3917444Y-14560531D01*
X3917444Y-14560531D02*
X3926968Y-14579579D01*
X3926968Y-14579579D02*
X3936491Y-14617674D01*
X3936491Y-14617674D02*
X3936491Y-14665293D01*
X3936491Y-14665293D02*
X3926968Y-14703388D01*
X3926968Y-14703388D02*
X3917444Y-14722436D01*
X3917444Y-14722436D02*
X3907920Y-14731960D01*
X3907920Y-14731960D02*
X3888872Y-14741484D01*
X3888872Y-14741484D02*
X3869825Y-14741484D01*
X3869825Y-14741484D02*
X3850777Y-14731960D01*
X3850777Y-14731960D02*
X3841253Y-14722436D01*
X3841253Y-14722436D02*
X3831729Y-14703388D01*
X3831729Y-14703388D02*
X3822206Y-14665293D01*
X3822206Y-14665293D02*
X3822206Y-14617674D01*
X3822206Y-14617674D02*
X3831729Y-14579579D01*
X3831729Y-14579579D02*
X3841253Y-14560531D01*
X3841253Y-14560531D02*
X3850777Y-14551008D01*
X3850777Y-14551008D02*
X3869825Y-14541484D01*
X4174587Y-14741484D02*
X4174587Y-14541484D01*
X4260301Y-14741484D02*
X4260301Y-14636722D01*
X4260301Y-14636722D02*
X4250777Y-14617674D01*
X4250777Y-14617674D02*
X4231730Y-14608150D01*
X4231730Y-14608150D02*
X4203158Y-14608150D01*
X4203158Y-14608150D02*
X4184110Y-14617674D01*
X4184110Y-14617674D02*
X4174587Y-14627198D01*
X4384111Y-14741484D02*
X4365063Y-14731960D01*
X4365063Y-14731960D02*
X4355539Y-14722436D01*
X4355539Y-14722436D02*
X4346015Y-14703388D01*
X4346015Y-14703388D02*
X4346015Y-14646246D01*
X4346015Y-14646246D02*
X4355539Y-14627198D01*
X4355539Y-14627198D02*
X4365063Y-14617674D01*
X4365063Y-14617674D02*
X4384111Y-14608150D01*
X4384111Y-14608150D02*
X4412682Y-14608150D01*
X4412682Y-14608150D02*
X4431730Y-14617674D01*
X4431730Y-14617674D02*
X4441253Y-14627198D01*
X4441253Y-14627198D02*
X4450777Y-14646246D01*
X4450777Y-14646246D02*
X4450777Y-14703388D01*
X4450777Y-14703388D02*
X4441253Y-14722436D01*
X4441253Y-14722436D02*
X4431730Y-14731960D01*
X4431730Y-14731960D02*
X4412682Y-14741484D01*
X4412682Y-14741484D02*
X4384111Y-14741484D01*
X4565063Y-14741484D02*
X4546015Y-14731960D01*
X4546015Y-14731960D02*
X4536492Y-14712912D01*
X4536492Y-14712912D02*
X4536492Y-14541484D01*
X4717444Y-14731960D02*
X4698396Y-14741484D01*
X4698396Y-14741484D02*
X4660301Y-14741484D01*
X4660301Y-14741484D02*
X4641253Y-14731960D01*
X4641253Y-14731960D02*
X4631730Y-14712912D01*
X4631730Y-14712912D02*
X4631730Y-14636722D01*
X4631730Y-14636722D02*
X4641253Y-14617674D01*
X4641253Y-14617674D02*
X4660301Y-14608150D01*
X4660301Y-14608150D02*
X4698396Y-14608150D01*
X4698396Y-14608150D02*
X4717444Y-14617674D01*
X4717444Y-14617674D02*
X4726968Y-14636722D01*
X4726968Y-14636722D02*
X4726968Y-14655769D01*
X4726968Y-14655769D02*
X4631730Y-14674817D01*
X4803158Y-14731960D02*
X4822206Y-14741484D01*
X4822206Y-14741484D02*
X4860301Y-14741484D01*
X4860301Y-14741484D02*
X4879349Y-14731960D01*
X4879349Y-14731960D02*
X4888873Y-14712912D01*
X4888873Y-14712912D02*
X4888873Y-14703388D01*
X4888873Y-14703388D02*
X4879349Y-14684341D01*
X4879349Y-14684341D02*
X4860301Y-14674817D01*
X4860301Y-14674817D02*
X4831730Y-14674817D01*
X4831730Y-14674817D02*
X4812682Y-14665293D01*
X4812682Y-14665293D02*
X4803158Y-14646246D01*
X4803158Y-14646246D02*
X4803158Y-14636722D01*
X4803158Y-14636722D02*
X4812682Y-14617674D01*
X4812682Y-14617674D02*
X4831730Y-14608150D01*
X4831730Y-14608150D02*
X4860301Y-14608150D01*
X4860301Y-14608150D02*
X4879349Y-14617674D01*
X4955539Y-14817674D02*
X4965063Y-14808150D01*
X4965063Y-14808150D02*
X4984111Y-14779579D01*
X4984111Y-14779579D02*
X4993634Y-14760531D01*
X4993634Y-14760531D02*
X5003158Y-14731960D01*
X5003158Y-14731960D02*
X5012682Y-14684341D01*
X5012682Y-14684341D02*
X5012682Y-14646246D01*
X5012682Y-14646246D02*
X5003158Y-14598627D01*
X5003158Y-14598627D02*
X4993634Y-14570055D01*
X4993634Y-14570055D02*
X4984111Y-14551008D01*
X4984111Y-14551008D02*
X4965063Y-14522436D01*
X4965063Y-14522436D02*
X4955539Y-14512912D01*
D12*
X-10000Y-14914000D02*
G75*
G03*
X-10000Y-14914000I-40000J0D01*
G01*
D10*
X288872Y-14805484D02*
X307920Y-14805484D01*
X307920Y-14805484D02*
X326967Y-14815008D01*
X326967Y-14815008D02*
X336491Y-14824531D01*
X336491Y-14824531D02*
X346015Y-14843579D01*
X346015Y-14843579D02*
X355539Y-14881674D01*
X355539Y-14881674D02*
X355539Y-14929293D01*
X355539Y-14929293D02*
X346015Y-14967388D01*
X346015Y-14967388D02*
X336491Y-14986436D01*
X336491Y-14986436D02*
X326967Y-14995960D01*
X326967Y-14995960D02*
X307920Y-15005484D01*
X307920Y-15005484D02*
X288872Y-15005484D01*
X288872Y-15005484D02*
X269824Y-14995960D01*
X269824Y-14995960D02*
X260301Y-14986436D01*
X260301Y-14986436D02*
X250777Y-14967388D01*
X250777Y-14967388D02*
X241253Y-14929293D01*
X241253Y-14929293D02*
X241253Y-14881674D01*
X241253Y-14881674D02*
X250777Y-14843579D01*
X250777Y-14843579D02*
X260301Y-14824531D01*
X260301Y-14824531D02*
X269824Y-14815008D01*
X269824Y-14815008D02*
X288872Y-14805484D01*
X441253Y-14986436D02*
X450777Y-14995960D01*
X450777Y-14995960D02*
X441253Y-15005484D01*
X441253Y-15005484D02*
X431729Y-14995960D01*
X431729Y-14995960D02*
X441253Y-14986436D01*
X441253Y-14986436D02*
X441253Y-15005484D01*
X565063Y-14891198D02*
X546015Y-14881674D01*
X546015Y-14881674D02*
X536491Y-14872150D01*
X536491Y-14872150D02*
X526967Y-14853103D01*
X526967Y-14853103D02*
X526967Y-14843579D01*
X526967Y-14843579D02*
X536491Y-14824531D01*
X536491Y-14824531D02*
X546015Y-14815008D01*
X546015Y-14815008D02*
X565063Y-14805484D01*
X565063Y-14805484D02*
X603158Y-14805484D01*
X603158Y-14805484D02*
X622205Y-14815008D01*
X622205Y-14815008D02*
X631729Y-14824531D01*
X631729Y-14824531D02*
X641253Y-14843579D01*
X641253Y-14843579D02*
X641253Y-14853103D01*
X641253Y-14853103D02*
X631729Y-14872150D01*
X631729Y-14872150D02*
X622205Y-14881674D01*
X622205Y-14881674D02*
X603158Y-14891198D01*
X603158Y-14891198D02*
X565063Y-14891198D01*
X565063Y-14891198D02*
X546015Y-14900722D01*
X546015Y-14900722D02*
X536491Y-14910246D01*
X536491Y-14910246D02*
X526967Y-14929293D01*
X526967Y-14929293D02*
X526967Y-14967388D01*
X526967Y-14967388D02*
X536491Y-14986436D01*
X536491Y-14986436D02*
X546015Y-14995960D01*
X546015Y-14995960D02*
X565063Y-15005484D01*
X565063Y-15005484D02*
X603158Y-15005484D01*
X603158Y-15005484D02*
X622205Y-14995960D01*
X622205Y-14995960D02*
X631729Y-14986436D01*
X631729Y-14986436D02*
X641253Y-14967388D01*
X641253Y-14967388D02*
X641253Y-14929293D01*
X641253Y-14929293D02*
X631729Y-14910246D01*
X631729Y-14910246D02*
X622205Y-14900722D01*
X622205Y-14900722D02*
X603158Y-14891198D01*
X765062Y-14805484D02*
X784110Y-14805484D01*
X784110Y-14805484D02*
X803158Y-14815008D01*
X803158Y-14815008D02*
X812682Y-14824531D01*
X812682Y-14824531D02*
X822205Y-14843579D01*
X822205Y-14843579D02*
X831729Y-14881674D01*
X831729Y-14881674D02*
X831729Y-14929293D01*
X831729Y-14929293D02*
X822205Y-14967388D01*
X822205Y-14967388D02*
X812682Y-14986436D01*
X812682Y-14986436D02*
X803158Y-14995960D01*
X803158Y-14995960D02*
X784110Y-15005484D01*
X784110Y-15005484D02*
X765062Y-15005484D01*
X765062Y-15005484D02*
X746015Y-14995960D01*
X746015Y-14995960D02*
X736491Y-14986436D01*
X736491Y-14986436D02*
X726967Y-14967388D01*
X726967Y-14967388D02*
X717443Y-14929293D01*
X717443Y-14929293D02*
X717443Y-14881674D01*
X717443Y-14881674D02*
X726967Y-14843579D01*
X726967Y-14843579D02*
X736491Y-14824531D01*
X736491Y-14824531D02*
X746015Y-14815008D01*
X746015Y-14815008D02*
X765062Y-14805484D01*
X955539Y-14805484D02*
X974586Y-14805484D01*
X974586Y-14805484D02*
X993634Y-14815008D01*
X993634Y-14815008D02*
X1003158Y-14824531D01*
X1003158Y-14824531D02*
X1012682Y-14843579D01*
X1012682Y-14843579D02*
X1022205Y-14881674D01*
X1022205Y-14881674D02*
X1022205Y-14929293D01*
X1022205Y-14929293D02*
X1012682Y-14967388D01*
X1012682Y-14967388D02*
X1003158Y-14986436D01*
X1003158Y-14986436D02*
X993634Y-14995960D01*
X993634Y-14995960D02*
X974586Y-15005484D01*
X974586Y-15005484D02*
X955539Y-15005484D01*
X955539Y-15005484D02*
X936491Y-14995960D01*
X936491Y-14995960D02*
X926967Y-14986436D01*
X926967Y-14986436D02*
X917443Y-14967388D01*
X917443Y-14967388D02*
X907920Y-14929293D01*
X907920Y-14929293D02*
X907920Y-14881674D01*
X907920Y-14881674D02*
X917443Y-14843579D01*
X917443Y-14843579D02*
X926967Y-14824531D01*
X926967Y-14824531D02*
X936491Y-14815008D01*
X936491Y-14815008D02*
X955539Y-14805484D01*
X1107920Y-15005484D02*
X1107920Y-14872150D01*
X1107920Y-14891198D02*
X1117444Y-14881674D01*
X1117444Y-14881674D02*
X1136491Y-14872150D01*
X1136491Y-14872150D02*
X1165063Y-14872150D01*
X1165063Y-14872150D02*
X1184110Y-14881674D01*
X1184110Y-14881674D02*
X1193634Y-14900722D01*
X1193634Y-14900722D02*
X1193634Y-15005484D01*
X1193634Y-14900722D02*
X1203158Y-14881674D01*
X1203158Y-14881674D02*
X1222205Y-14872150D01*
X1222205Y-14872150D02*
X1250777Y-14872150D01*
X1250777Y-14872150D02*
X1269825Y-14881674D01*
X1269825Y-14881674D02*
X1279348Y-14900722D01*
X1279348Y-14900722D02*
X1279348Y-15005484D01*
X1374586Y-15005484D02*
X1374586Y-14872150D01*
X1374586Y-14891198D02*
X1384110Y-14881674D01*
X1384110Y-14881674D02*
X1403158Y-14872150D01*
X1403158Y-14872150D02*
X1431729Y-14872150D01*
X1431729Y-14872150D02*
X1450777Y-14881674D01*
X1450777Y-14881674D02*
X1460301Y-14900722D01*
X1460301Y-14900722D02*
X1460301Y-15005484D01*
X1460301Y-14900722D02*
X1469824Y-14881674D01*
X1469824Y-14881674D02*
X1488872Y-14872150D01*
X1488872Y-14872150D02*
X1517443Y-14872150D01*
X1517443Y-14872150D02*
X1536491Y-14881674D01*
X1536491Y-14881674D02*
X1546015Y-14900722D01*
X1546015Y-14900722D02*
X1546015Y-15005484D01*
X1936491Y-14795960D02*
X1765063Y-15053103D01*
X2193634Y-14805484D02*
X2212682Y-14805484D01*
X2212682Y-14805484D02*
X2231729Y-14815008D01*
X2231729Y-14815008D02*
X2241253Y-14824531D01*
X2241253Y-14824531D02*
X2250777Y-14843579D01*
X2250777Y-14843579D02*
X2260301Y-14881674D01*
X2260301Y-14881674D02*
X2260301Y-14929293D01*
X2260301Y-14929293D02*
X2250777Y-14967388D01*
X2250777Y-14967388D02*
X2241253Y-14986436D01*
X2241253Y-14986436D02*
X2231729Y-14995960D01*
X2231729Y-14995960D02*
X2212682Y-15005484D01*
X2212682Y-15005484D02*
X2193634Y-15005484D01*
X2193634Y-15005484D02*
X2174587Y-14995960D01*
X2174587Y-14995960D02*
X2165063Y-14986436D01*
X2165063Y-14986436D02*
X2155539Y-14967388D01*
X2155539Y-14967388D02*
X2146015Y-14929293D01*
X2146015Y-14929293D02*
X2146015Y-14881674D01*
X2146015Y-14881674D02*
X2155539Y-14843579D01*
X2155539Y-14843579D02*
X2165063Y-14824531D01*
X2165063Y-14824531D02*
X2174587Y-14815008D01*
X2174587Y-14815008D02*
X2193634Y-14805484D01*
X2346015Y-14986436D02*
X2355539Y-14995960D01*
X2355539Y-14995960D02*
X2346015Y-15005484D01*
X2346015Y-15005484D02*
X2336491Y-14995960D01*
X2336491Y-14995960D02*
X2346015Y-14986436D01*
X2346015Y-14986436D02*
X2346015Y-15005484D01*
X2479348Y-14805484D02*
X2498396Y-14805484D01*
X2498396Y-14805484D02*
X2517444Y-14815008D01*
X2517444Y-14815008D02*
X2526968Y-14824531D01*
X2526968Y-14824531D02*
X2536491Y-14843579D01*
X2536491Y-14843579D02*
X2546015Y-14881674D01*
X2546015Y-14881674D02*
X2546015Y-14929293D01*
X2546015Y-14929293D02*
X2536491Y-14967388D01*
X2536491Y-14967388D02*
X2526968Y-14986436D01*
X2526968Y-14986436D02*
X2517444Y-14995960D01*
X2517444Y-14995960D02*
X2498396Y-15005484D01*
X2498396Y-15005484D02*
X2479348Y-15005484D01*
X2479348Y-15005484D02*
X2460301Y-14995960D01*
X2460301Y-14995960D02*
X2450777Y-14986436D01*
X2450777Y-14986436D02*
X2441253Y-14967388D01*
X2441253Y-14967388D02*
X2431729Y-14929293D01*
X2431729Y-14929293D02*
X2431729Y-14881674D01*
X2431729Y-14881674D02*
X2441253Y-14843579D01*
X2441253Y-14843579D02*
X2450777Y-14824531D01*
X2450777Y-14824531D02*
X2460301Y-14815008D01*
X2460301Y-14815008D02*
X2479348Y-14805484D01*
X2612682Y-14805484D02*
X2736491Y-14805484D01*
X2736491Y-14805484D02*
X2669825Y-14881674D01*
X2669825Y-14881674D02*
X2698396Y-14881674D01*
X2698396Y-14881674D02*
X2717444Y-14891198D01*
X2717444Y-14891198D02*
X2726968Y-14900722D01*
X2726968Y-14900722D02*
X2736491Y-14919769D01*
X2736491Y-14919769D02*
X2736491Y-14967388D01*
X2736491Y-14967388D02*
X2726968Y-14986436D01*
X2726968Y-14986436D02*
X2717444Y-14995960D01*
X2717444Y-14995960D02*
X2698396Y-15005484D01*
X2698396Y-15005484D02*
X2641253Y-15005484D01*
X2641253Y-15005484D02*
X2622206Y-14995960D01*
X2622206Y-14995960D02*
X2612682Y-14986436D01*
X2926967Y-15005484D02*
X2812682Y-15005484D01*
X2869825Y-15005484D02*
X2869825Y-14805484D01*
X2869825Y-14805484D02*
X2850777Y-14834055D01*
X2850777Y-14834055D02*
X2831729Y-14853103D01*
X2831729Y-14853103D02*
X2812682Y-14862627D01*
X3107920Y-14805484D02*
X3012682Y-14805484D01*
X3012682Y-14805484D02*
X3003158Y-14900722D01*
X3003158Y-14900722D02*
X3012682Y-14891198D01*
X3012682Y-14891198D02*
X3031729Y-14881674D01*
X3031729Y-14881674D02*
X3079348Y-14881674D01*
X3079348Y-14881674D02*
X3098396Y-14891198D01*
X3098396Y-14891198D02*
X3107920Y-14900722D01*
X3107920Y-14900722D02*
X3117444Y-14919769D01*
X3117444Y-14919769D02*
X3117444Y-14967388D01*
X3117444Y-14967388D02*
X3107920Y-14986436D01*
X3107920Y-14986436D02*
X3098396Y-14995960D01*
X3098396Y-14995960D02*
X3079348Y-15005484D01*
X3079348Y-15005484D02*
X3031729Y-15005484D01*
X3031729Y-15005484D02*
X3012682Y-14995960D01*
X3012682Y-14995960D02*
X3003158Y-14986436D01*
X3193634Y-14805484D02*
X3193634Y-14843579D01*
X3269825Y-14805484D02*
X3269825Y-14843579D01*
X3565063Y-15081674D02*
X3555539Y-15072150D01*
X3555539Y-15072150D02*
X3536491Y-15043579D01*
X3536491Y-15043579D02*
X3526968Y-15024531D01*
X3526968Y-15024531D02*
X3517444Y-14995960D01*
X3517444Y-14995960D02*
X3507920Y-14948341D01*
X3507920Y-14948341D02*
X3507920Y-14910246D01*
X3507920Y-14910246D02*
X3517444Y-14862627D01*
X3517444Y-14862627D02*
X3526968Y-14834055D01*
X3526968Y-14834055D02*
X3536491Y-14815008D01*
X3536491Y-14815008D02*
X3555539Y-14786436D01*
X3555539Y-14786436D02*
X3565063Y-14776912D01*
X3669825Y-14891198D02*
X3650777Y-14881674D01*
X3650777Y-14881674D02*
X3641253Y-14872150D01*
X3641253Y-14872150D02*
X3631729Y-14853103D01*
X3631729Y-14853103D02*
X3631729Y-14843579D01*
X3631729Y-14843579D02*
X3641253Y-14824531D01*
X3641253Y-14824531D02*
X3650777Y-14815008D01*
X3650777Y-14815008D02*
X3669825Y-14805484D01*
X3669825Y-14805484D02*
X3707920Y-14805484D01*
X3707920Y-14805484D02*
X3726968Y-14815008D01*
X3726968Y-14815008D02*
X3736491Y-14824531D01*
X3736491Y-14824531D02*
X3746015Y-14843579D01*
X3746015Y-14843579D02*
X3746015Y-14853103D01*
X3746015Y-14853103D02*
X3736491Y-14872150D01*
X3736491Y-14872150D02*
X3726968Y-14881674D01*
X3726968Y-14881674D02*
X3707920Y-14891198D01*
X3707920Y-14891198D02*
X3669825Y-14891198D01*
X3669825Y-14891198D02*
X3650777Y-14900722D01*
X3650777Y-14900722D02*
X3641253Y-14910246D01*
X3641253Y-14910246D02*
X3631729Y-14929293D01*
X3631729Y-14929293D02*
X3631729Y-14967388D01*
X3631729Y-14967388D02*
X3641253Y-14986436D01*
X3641253Y-14986436D02*
X3650777Y-14995960D01*
X3650777Y-14995960D02*
X3669825Y-15005484D01*
X3669825Y-15005484D02*
X3707920Y-15005484D01*
X3707920Y-15005484D02*
X3726968Y-14995960D01*
X3726968Y-14995960D02*
X3736491Y-14986436D01*
X3736491Y-14986436D02*
X3746015Y-14967388D01*
X3746015Y-14967388D02*
X3746015Y-14929293D01*
X3746015Y-14929293D02*
X3736491Y-14910246D01*
X3736491Y-14910246D02*
X3726968Y-14900722D01*
X3726968Y-14900722D02*
X3707920Y-14891198D01*
X3822206Y-14824531D02*
X3831729Y-14815008D01*
X3831729Y-14815008D02*
X3850777Y-14805484D01*
X3850777Y-14805484D02*
X3898396Y-14805484D01*
X3898396Y-14805484D02*
X3917444Y-14815008D01*
X3917444Y-14815008D02*
X3926968Y-14824531D01*
X3926968Y-14824531D02*
X3936491Y-14843579D01*
X3936491Y-14843579D02*
X3936491Y-14862627D01*
X3936491Y-14862627D02*
X3926968Y-14891198D01*
X3926968Y-14891198D02*
X3812682Y-15005484D01*
X3812682Y-15005484D02*
X3936491Y-15005484D01*
X4174587Y-15005484D02*
X4174587Y-14805484D01*
X4260301Y-15005484D02*
X4260301Y-14900722D01*
X4260301Y-14900722D02*
X4250777Y-14881674D01*
X4250777Y-14881674D02*
X4231730Y-14872150D01*
X4231730Y-14872150D02*
X4203158Y-14872150D01*
X4203158Y-14872150D02*
X4184110Y-14881674D01*
X4184110Y-14881674D02*
X4174587Y-14891198D01*
X4384111Y-15005484D02*
X4365063Y-14995960D01*
X4365063Y-14995960D02*
X4355539Y-14986436D01*
X4355539Y-14986436D02*
X4346015Y-14967388D01*
X4346015Y-14967388D02*
X4346015Y-14910246D01*
X4346015Y-14910246D02*
X4355539Y-14891198D01*
X4355539Y-14891198D02*
X4365063Y-14881674D01*
X4365063Y-14881674D02*
X4384111Y-14872150D01*
X4384111Y-14872150D02*
X4412682Y-14872150D01*
X4412682Y-14872150D02*
X4431730Y-14881674D01*
X4431730Y-14881674D02*
X4441253Y-14891198D01*
X4441253Y-14891198D02*
X4450777Y-14910246D01*
X4450777Y-14910246D02*
X4450777Y-14967388D01*
X4450777Y-14967388D02*
X4441253Y-14986436D01*
X4441253Y-14986436D02*
X4431730Y-14995960D01*
X4431730Y-14995960D02*
X4412682Y-15005484D01*
X4412682Y-15005484D02*
X4384111Y-15005484D01*
X4565063Y-15005484D02*
X4546015Y-14995960D01*
X4546015Y-14995960D02*
X4536492Y-14976912D01*
X4536492Y-14976912D02*
X4536492Y-14805484D01*
X4717444Y-14995960D02*
X4698396Y-15005484D01*
X4698396Y-15005484D02*
X4660301Y-15005484D01*
X4660301Y-15005484D02*
X4641253Y-14995960D01*
X4641253Y-14995960D02*
X4631730Y-14976912D01*
X4631730Y-14976912D02*
X4631730Y-14900722D01*
X4631730Y-14900722D02*
X4641253Y-14881674D01*
X4641253Y-14881674D02*
X4660301Y-14872150D01*
X4660301Y-14872150D02*
X4698396Y-14872150D01*
X4698396Y-14872150D02*
X4717444Y-14881674D01*
X4717444Y-14881674D02*
X4726968Y-14900722D01*
X4726968Y-14900722D02*
X4726968Y-14919769D01*
X4726968Y-14919769D02*
X4631730Y-14938817D01*
X4803158Y-14995960D02*
X4822206Y-15005484D01*
X4822206Y-15005484D02*
X4860301Y-15005484D01*
X4860301Y-15005484D02*
X4879349Y-14995960D01*
X4879349Y-14995960D02*
X4888873Y-14976912D01*
X4888873Y-14976912D02*
X4888873Y-14967388D01*
X4888873Y-14967388D02*
X4879349Y-14948341D01*
X4879349Y-14948341D02*
X4860301Y-14938817D01*
X4860301Y-14938817D02*
X4831730Y-14938817D01*
X4831730Y-14938817D02*
X4812682Y-14929293D01*
X4812682Y-14929293D02*
X4803158Y-14910246D01*
X4803158Y-14910246D02*
X4803158Y-14900722D01*
X4803158Y-14900722D02*
X4812682Y-14881674D01*
X4812682Y-14881674D02*
X4831730Y-14872150D01*
X4831730Y-14872150D02*
X4860301Y-14872150D01*
X4860301Y-14872150D02*
X4879349Y-14881674D01*
X4955539Y-15081674D02*
X4965063Y-15072150D01*
X4965063Y-15072150D02*
X4984111Y-15043579D01*
X4984111Y-15043579D02*
X4993634Y-15024531D01*
X4993634Y-15024531D02*
X5003158Y-14995960D01*
X5003158Y-14995960D02*
X5012682Y-14948341D01*
X5012682Y-14948341D02*
X5012682Y-14910246D01*
X5012682Y-14910246D02*
X5003158Y-14862627D01*
X5003158Y-14862627D02*
X4993634Y-14834055D01*
X4993634Y-14834055D02*
X4984111Y-14815008D01*
X4984111Y-14815008D02*
X4965063Y-14786436D01*
X4965063Y-14786436D02*
X4955539Y-14776912D01*
D13*
X-55000Y-15133000D02*
X-55000Y-15223000D01*
X-100000Y-15178000D02*
X-10000Y-15178000D01*
D10*
X288872Y-15069484D02*
X307920Y-15069484D01*
X307920Y-15069484D02*
X326967Y-15079008D01*
X326967Y-15079008D02*
X336491Y-15088531D01*
X336491Y-15088531D02*
X346015Y-15107579D01*
X346015Y-15107579D02*
X355539Y-15145674D01*
X355539Y-15145674D02*
X355539Y-15193293D01*
X355539Y-15193293D02*
X346015Y-15231388D01*
X346015Y-15231388D02*
X336491Y-15250436D01*
X336491Y-15250436D02*
X326967Y-15259960D01*
X326967Y-15259960D02*
X307920Y-15269484D01*
X307920Y-15269484D02*
X288872Y-15269484D01*
X288872Y-15269484D02*
X269824Y-15259960D01*
X269824Y-15259960D02*
X260301Y-15250436D01*
X260301Y-15250436D02*
X250777Y-15231388D01*
X250777Y-15231388D02*
X241253Y-15193293D01*
X241253Y-15193293D02*
X241253Y-15145674D01*
X241253Y-15145674D02*
X250777Y-15107579D01*
X250777Y-15107579D02*
X260301Y-15088531D01*
X260301Y-15088531D02*
X269824Y-15079008D01*
X269824Y-15079008D02*
X288872Y-15069484D01*
X441253Y-15250436D02*
X450777Y-15259960D01*
X450777Y-15259960D02*
X441253Y-15269484D01*
X441253Y-15269484D02*
X431729Y-15259960D01*
X431729Y-15259960D02*
X441253Y-15250436D01*
X441253Y-15250436D02*
X441253Y-15269484D01*
X546015Y-15269484D02*
X584110Y-15269484D01*
X584110Y-15269484D02*
X603158Y-15259960D01*
X603158Y-15259960D02*
X612682Y-15250436D01*
X612682Y-15250436D02*
X631729Y-15221865D01*
X631729Y-15221865D02*
X641253Y-15183769D01*
X641253Y-15183769D02*
X641253Y-15107579D01*
X641253Y-15107579D02*
X631729Y-15088531D01*
X631729Y-15088531D02*
X622205Y-15079008D01*
X622205Y-15079008D02*
X603158Y-15069484D01*
X603158Y-15069484D02*
X565063Y-15069484D01*
X565063Y-15069484D02*
X546015Y-15079008D01*
X546015Y-15079008D02*
X536491Y-15088531D01*
X536491Y-15088531D02*
X526967Y-15107579D01*
X526967Y-15107579D02*
X526967Y-15155198D01*
X526967Y-15155198D02*
X536491Y-15174246D01*
X536491Y-15174246D02*
X546015Y-15183769D01*
X546015Y-15183769D02*
X565063Y-15193293D01*
X565063Y-15193293D02*
X603158Y-15193293D01*
X603158Y-15193293D02*
X622205Y-15183769D01*
X622205Y-15183769D02*
X631729Y-15174246D01*
X631729Y-15174246D02*
X641253Y-15155198D01*
X765062Y-15069484D02*
X784110Y-15069484D01*
X784110Y-15069484D02*
X803158Y-15079008D01*
X803158Y-15079008D02*
X812682Y-15088531D01*
X812682Y-15088531D02*
X822205Y-15107579D01*
X822205Y-15107579D02*
X831729Y-15145674D01*
X831729Y-15145674D02*
X831729Y-15193293D01*
X831729Y-15193293D02*
X822205Y-15231388D01*
X822205Y-15231388D02*
X812682Y-15250436D01*
X812682Y-15250436D02*
X803158Y-15259960D01*
X803158Y-15259960D02*
X784110Y-15269484D01*
X784110Y-15269484D02*
X765062Y-15269484D01*
X765062Y-15269484D02*
X746015Y-15259960D01*
X746015Y-15259960D02*
X736491Y-15250436D01*
X736491Y-15250436D02*
X726967Y-15231388D01*
X726967Y-15231388D02*
X717443Y-15193293D01*
X717443Y-15193293D02*
X717443Y-15145674D01*
X717443Y-15145674D02*
X726967Y-15107579D01*
X726967Y-15107579D02*
X736491Y-15088531D01*
X736491Y-15088531D02*
X746015Y-15079008D01*
X746015Y-15079008D02*
X765062Y-15069484D01*
X955539Y-15069484D02*
X974586Y-15069484D01*
X974586Y-15069484D02*
X993634Y-15079008D01*
X993634Y-15079008D02*
X1003158Y-15088531D01*
X1003158Y-15088531D02*
X1012682Y-15107579D01*
X1012682Y-15107579D02*
X1022205Y-15145674D01*
X1022205Y-15145674D02*
X1022205Y-15193293D01*
X1022205Y-15193293D02*
X1012682Y-15231388D01*
X1012682Y-15231388D02*
X1003158Y-15250436D01*
X1003158Y-15250436D02*
X993634Y-15259960D01*
X993634Y-15259960D02*
X974586Y-15269484D01*
X974586Y-15269484D02*
X955539Y-15269484D01*
X955539Y-15269484D02*
X936491Y-15259960D01*
X936491Y-15259960D02*
X926967Y-15250436D01*
X926967Y-15250436D02*
X917443Y-15231388D01*
X917443Y-15231388D02*
X907920Y-15193293D01*
X907920Y-15193293D02*
X907920Y-15145674D01*
X907920Y-15145674D02*
X917443Y-15107579D01*
X917443Y-15107579D02*
X926967Y-15088531D01*
X926967Y-15088531D02*
X936491Y-15079008D01*
X936491Y-15079008D02*
X955539Y-15069484D01*
X1107920Y-15269484D02*
X1107920Y-15136150D01*
X1107920Y-15155198D02*
X1117444Y-15145674D01*
X1117444Y-15145674D02*
X1136491Y-15136150D01*
X1136491Y-15136150D02*
X1165063Y-15136150D01*
X1165063Y-15136150D02*
X1184110Y-15145674D01*
X1184110Y-15145674D02*
X1193634Y-15164722D01*
X1193634Y-15164722D02*
X1193634Y-15269484D01*
X1193634Y-15164722D02*
X1203158Y-15145674D01*
X1203158Y-15145674D02*
X1222205Y-15136150D01*
X1222205Y-15136150D02*
X1250777Y-15136150D01*
X1250777Y-15136150D02*
X1269825Y-15145674D01*
X1269825Y-15145674D02*
X1279348Y-15164722D01*
X1279348Y-15164722D02*
X1279348Y-15269484D01*
X1374586Y-15269484D02*
X1374586Y-15136150D01*
X1374586Y-15155198D02*
X1384110Y-15145674D01*
X1384110Y-15145674D02*
X1403158Y-15136150D01*
X1403158Y-15136150D02*
X1431729Y-15136150D01*
X1431729Y-15136150D02*
X1450777Y-15145674D01*
X1450777Y-15145674D02*
X1460301Y-15164722D01*
X1460301Y-15164722D02*
X1460301Y-15269484D01*
X1460301Y-15164722D02*
X1469824Y-15145674D01*
X1469824Y-15145674D02*
X1488872Y-15136150D01*
X1488872Y-15136150D02*
X1517443Y-15136150D01*
X1517443Y-15136150D02*
X1536491Y-15145674D01*
X1536491Y-15145674D02*
X1546015Y-15164722D01*
X1546015Y-15164722D02*
X1546015Y-15269484D01*
X1936491Y-15059960D02*
X1765063Y-15317103D01*
X2193634Y-15069484D02*
X2212682Y-15069484D01*
X2212682Y-15069484D02*
X2231729Y-15079008D01*
X2231729Y-15079008D02*
X2241253Y-15088531D01*
X2241253Y-15088531D02*
X2250777Y-15107579D01*
X2250777Y-15107579D02*
X2260301Y-15145674D01*
X2260301Y-15145674D02*
X2260301Y-15193293D01*
X2260301Y-15193293D02*
X2250777Y-15231388D01*
X2250777Y-15231388D02*
X2241253Y-15250436D01*
X2241253Y-15250436D02*
X2231729Y-15259960D01*
X2231729Y-15259960D02*
X2212682Y-15269484D01*
X2212682Y-15269484D02*
X2193634Y-15269484D01*
X2193634Y-15269484D02*
X2174587Y-15259960D01*
X2174587Y-15259960D02*
X2165063Y-15250436D01*
X2165063Y-15250436D02*
X2155539Y-15231388D01*
X2155539Y-15231388D02*
X2146015Y-15193293D01*
X2146015Y-15193293D02*
X2146015Y-15145674D01*
X2146015Y-15145674D02*
X2155539Y-15107579D01*
X2155539Y-15107579D02*
X2165063Y-15088531D01*
X2165063Y-15088531D02*
X2174587Y-15079008D01*
X2174587Y-15079008D02*
X2193634Y-15069484D01*
X2346015Y-15250436D02*
X2355539Y-15259960D01*
X2355539Y-15259960D02*
X2346015Y-15269484D01*
X2346015Y-15269484D02*
X2336491Y-15259960D01*
X2336491Y-15259960D02*
X2346015Y-15250436D01*
X2346015Y-15250436D02*
X2346015Y-15269484D01*
X2479348Y-15069484D02*
X2498396Y-15069484D01*
X2498396Y-15069484D02*
X2517444Y-15079008D01*
X2517444Y-15079008D02*
X2526968Y-15088531D01*
X2526968Y-15088531D02*
X2536491Y-15107579D01*
X2536491Y-15107579D02*
X2546015Y-15145674D01*
X2546015Y-15145674D02*
X2546015Y-15193293D01*
X2546015Y-15193293D02*
X2536491Y-15231388D01*
X2536491Y-15231388D02*
X2526968Y-15250436D01*
X2526968Y-15250436D02*
X2517444Y-15259960D01*
X2517444Y-15259960D02*
X2498396Y-15269484D01*
X2498396Y-15269484D02*
X2479348Y-15269484D01*
X2479348Y-15269484D02*
X2460301Y-15259960D01*
X2460301Y-15259960D02*
X2450777Y-15250436D01*
X2450777Y-15250436D02*
X2441253Y-15231388D01*
X2441253Y-15231388D02*
X2431729Y-15193293D01*
X2431729Y-15193293D02*
X2431729Y-15145674D01*
X2431729Y-15145674D02*
X2441253Y-15107579D01*
X2441253Y-15107579D02*
X2450777Y-15088531D01*
X2450777Y-15088531D02*
X2460301Y-15079008D01*
X2460301Y-15079008D02*
X2479348Y-15069484D01*
X2612682Y-15069484D02*
X2736491Y-15069484D01*
X2736491Y-15069484D02*
X2669825Y-15145674D01*
X2669825Y-15145674D02*
X2698396Y-15145674D01*
X2698396Y-15145674D02*
X2717444Y-15155198D01*
X2717444Y-15155198D02*
X2726968Y-15164722D01*
X2726968Y-15164722D02*
X2736491Y-15183769D01*
X2736491Y-15183769D02*
X2736491Y-15231388D01*
X2736491Y-15231388D02*
X2726968Y-15250436D01*
X2726968Y-15250436D02*
X2717444Y-15259960D01*
X2717444Y-15259960D02*
X2698396Y-15269484D01*
X2698396Y-15269484D02*
X2641253Y-15269484D01*
X2641253Y-15269484D02*
X2622206Y-15259960D01*
X2622206Y-15259960D02*
X2612682Y-15250436D01*
X2917444Y-15069484D02*
X2822206Y-15069484D01*
X2822206Y-15069484D02*
X2812682Y-15164722D01*
X2812682Y-15164722D02*
X2822206Y-15155198D01*
X2822206Y-15155198D02*
X2841253Y-15145674D01*
X2841253Y-15145674D02*
X2888872Y-15145674D01*
X2888872Y-15145674D02*
X2907920Y-15155198D01*
X2907920Y-15155198D02*
X2917444Y-15164722D01*
X2917444Y-15164722D02*
X2926967Y-15183769D01*
X2926967Y-15183769D02*
X2926967Y-15231388D01*
X2926967Y-15231388D02*
X2917444Y-15250436D01*
X2917444Y-15250436D02*
X2907920Y-15259960D01*
X2907920Y-15259960D02*
X2888872Y-15269484D01*
X2888872Y-15269484D02*
X2841253Y-15269484D01*
X2841253Y-15269484D02*
X2822206Y-15259960D01*
X2822206Y-15259960D02*
X2812682Y-15250436D01*
X3098396Y-15136150D02*
X3098396Y-15269484D01*
X3050777Y-15059960D02*
X3003158Y-15202817D01*
X3003158Y-15202817D02*
X3126967Y-15202817D01*
X3193634Y-15069484D02*
X3193634Y-15107579D01*
X3269825Y-15069484D02*
X3269825Y-15107579D01*
X3565063Y-15345674D02*
X3555539Y-15336150D01*
X3555539Y-15336150D02*
X3536491Y-15307579D01*
X3536491Y-15307579D02*
X3526968Y-15288531D01*
X3526968Y-15288531D02*
X3517444Y-15259960D01*
X3517444Y-15259960D02*
X3507920Y-15212341D01*
X3507920Y-15212341D02*
X3507920Y-15174246D01*
X3507920Y-15174246D02*
X3517444Y-15126627D01*
X3517444Y-15126627D02*
X3526968Y-15098055D01*
X3526968Y-15098055D02*
X3536491Y-15079008D01*
X3536491Y-15079008D02*
X3555539Y-15050436D01*
X3555539Y-15050436D02*
X3565063Y-15040912D01*
X3622206Y-15069484D02*
X3746015Y-15069484D01*
X3746015Y-15069484D02*
X3679348Y-15145674D01*
X3679348Y-15145674D02*
X3707920Y-15145674D01*
X3707920Y-15145674D02*
X3726968Y-15155198D01*
X3726968Y-15155198D02*
X3736491Y-15164722D01*
X3736491Y-15164722D02*
X3746015Y-15183769D01*
X3746015Y-15183769D02*
X3746015Y-15231388D01*
X3746015Y-15231388D02*
X3736491Y-15250436D01*
X3736491Y-15250436D02*
X3726968Y-15259960D01*
X3726968Y-15259960D02*
X3707920Y-15269484D01*
X3707920Y-15269484D02*
X3650777Y-15269484D01*
X3650777Y-15269484D02*
X3631729Y-15259960D01*
X3631729Y-15259960D02*
X3622206Y-15250436D01*
X3917444Y-15069484D02*
X3879348Y-15069484D01*
X3879348Y-15069484D02*
X3860301Y-15079008D01*
X3860301Y-15079008D02*
X3850777Y-15088531D01*
X3850777Y-15088531D02*
X3831729Y-15117103D01*
X3831729Y-15117103D02*
X3822206Y-15155198D01*
X3822206Y-15155198D02*
X3822206Y-15231388D01*
X3822206Y-15231388D02*
X3831729Y-15250436D01*
X3831729Y-15250436D02*
X3841253Y-15259960D01*
X3841253Y-15259960D02*
X3860301Y-15269484D01*
X3860301Y-15269484D02*
X3898396Y-15269484D01*
X3898396Y-15269484D02*
X3917444Y-15259960D01*
X3917444Y-15259960D02*
X3926968Y-15250436D01*
X3926968Y-15250436D02*
X3936491Y-15231388D01*
X3936491Y-15231388D02*
X3936491Y-15183769D01*
X3936491Y-15183769D02*
X3926968Y-15164722D01*
X3926968Y-15164722D02*
X3917444Y-15155198D01*
X3917444Y-15155198D02*
X3898396Y-15145674D01*
X3898396Y-15145674D02*
X3860301Y-15145674D01*
X3860301Y-15145674D02*
X3841253Y-15155198D01*
X3841253Y-15155198D02*
X3831729Y-15164722D01*
X3831729Y-15164722D02*
X3822206Y-15183769D01*
X4174587Y-15269484D02*
X4174587Y-15069484D01*
X4260301Y-15269484D02*
X4260301Y-15164722D01*
X4260301Y-15164722D02*
X4250777Y-15145674D01*
X4250777Y-15145674D02*
X4231730Y-15136150D01*
X4231730Y-15136150D02*
X4203158Y-15136150D01*
X4203158Y-15136150D02*
X4184110Y-15145674D01*
X4184110Y-15145674D02*
X4174587Y-15155198D01*
X4384111Y-15269484D02*
X4365063Y-15259960D01*
X4365063Y-15259960D02*
X4355539Y-15250436D01*
X4355539Y-15250436D02*
X4346015Y-15231388D01*
X4346015Y-15231388D02*
X4346015Y-15174246D01*
X4346015Y-15174246D02*
X4355539Y-15155198D01*
X4355539Y-15155198D02*
X4365063Y-15145674D01*
X4365063Y-15145674D02*
X4384111Y-15136150D01*
X4384111Y-15136150D02*
X4412682Y-15136150D01*
X4412682Y-15136150D02*
X4431730Y-15145674D01*
X4431730Y-15145674D02*
X4441253Y-15155198D01*
X4441253Y-15155198D02*
X4450777Y-15174246D01*
X4450777Y-15174246D02*
X4450777Y-15231388D01*
X4450777Y-15231388D02*
X4441253Y-15250436D01*
X4441253Y-15250436D02*
X4431730Y-15259960D01*
X4431730Y-15259960D02*
X4412682Y-15269484D01*
X4412682Y-15269484D02*
X4384111Y-15269484D01*
X4565063Y-15269484D02*
X4546015Y-15259960D01*
X4546015Y-15259960D02*
X4536492Y-15240912D01*
X4536492Y-15240912D02*
X4536492Y-15069484D01*
X4717444Y-15259960D02*
X4698396Y-15269484D01*
X4698396Y-15269484D02*
X4660301Y-15269484D01*
X4660301Y-15269484D02*
X4641253Y-15259960D01*
X4641253Y-15259960D02*
X4631730Y-15240912D01*
X4631730Y-15240912D02*
X4631730Y-15164722D01*
X4631730Y-15164722D02*
X4641253Y-15145674D01*
X4641253Y-15145674D02*
X4660301Y-15136150D01*
X4660301Y-15136150D02*
X4698396Y-15136150D01*
X4698396Y-15136150D02*
X4717444Y-15145674D01*
X4717444Y-15145674D02*
X4726968Y-15164722D01*
X4726968Y-15164722D02*
X4726968Y-15183769D01*
X4726968Y-15183769D02*
X4631730Y-15202817D01*
X4803158Y-15259960D02*
X4822206Y-15269484D01*
X4822206Y-15269484D02*
X4860301Y-15269484D01*
X4860301Y-15269484D02*
X4879349Y-15259960D01*
X4879349Y-15259960D02*
X4888873Y-15240912D01*
X4888873Y-15240912D02*
X4888873Y-15231388D01*
X4888873Y-15231388D02*
X4879349Y-15212341D01*
X4879349Y-15212341D02*
X4860301Y-15202817D01*
X4860301Y-15202817D02*
X4831730Y-15202817D01*
X4831730Y-15202817D02*
X4812682Y-15193293D01*
X4812682Y-15193293D02*
X4803158Y-15174246D01*
X4803158Y-15174246D02*
X4803158Y-15164722D01*
X4803158Y-15164722D02*
X4812682Y-15145674D01*
X4812682Y-15145674D02*
X4831730Y-15136150D01*
X4831730Y-15136150D02*
X4860301Y-15136150D01*
X4860301Y-15136150D02*
X4879349Y-15145674D01*
X4955539Y-15345674D02*
X4965063Y-15336150D01*
X4965063Y-15336150D02*
X4984111Y-15307579D01*
X4984111Y-15307579D02*
X4993634Y-15288531D01*
X4993634Y-15288531D02*
X5003158Y-15259960D01*
X5003158Y-15259960D02*
X5012682Y-15212341D01*
X5012682Y-15212341D02*
X5012682Y-15174246D01*
X5012682Y-15174246D02*
X5003158Y-15126627D01*
X5003158Y-15126627D02*
X4993634Y-15098055D01*
X4993634Y-15098055D02*
X4984111Y-15079008D01*
X4984111Y-15079008D02*
X4965063Y-15050436D01*
X4965063Y-15050436D02*
X4955539Y-15040912D01*
D14*
X-24644Y-15477356D02*
X-24644Y-15406644D01*
X-95356Y-15406644D01*
X-95356Y-15477356D01*
X-24644Y-15477356D01*
D10*
X355539Y-15533484D02*
X241253Y-15533484D01*
X298396Y-15533484D02*
X298396Y-15333484D01*
X298396Y-15333484D02*
X279348Y-15362055D01*
X279348Y-15362055D02*
X260301Y-15381103D01*
X260301Y-15381103D02*
X241253Y-15390627D01*
X441253Y-15514436D02*
X450777Y-15523960D01*
X450777Y-15523960D02*
X441253Y-15533484D01*
X441253Y-15533484D02*
X431729Y-15523960D01*
X431729Y-15523960D02*
X441253Y-15514436D01*
X441253Y-15514436D02*
X441253Y-15533484D01*
X574586Y-15333484D02*
X593634Y-15333484D01*
X593634Y-15333484D02*
X612682Y-15343008D01*
X612682Y-15343008D02*
X622205Y-15352531D01*
X622205Y-15352531D02*
X631729Y-15371579D01*
X631729Y-15371579D02*
X641253Y-15409674D01*
X641253Y-15409674D02*
X641253Y-15457293D01*
X641253Y-15457293D02*
X631729Y-15495388D01*
X631729Y-15495388D02*
X622205Y-15514436D01*
X622205Y-15514436D02*
X612682Y-15523960D01*
X612682Y-15523960D02*
X593634Y-15533484D01*
X593634Y-15533484D02*
X574586Y-15533484D01*
X574586Y-15533484D02*
X555539Y-15523960D01*
X555539Y-15523960D02*
X546015Y-15514436D01*
X546015Y-15514436D02*
X536491Y-15495388D01*
X536491Y-15495388D02*
X526967Y-15457293D01*
X526967Y-15457293D02*
X526967Y-15409674D01*
X526967Y-15409674D02*
X536491Y-15371579D01*
X536491Y-15371579D02*
X546015Y-15352531D01*
X546015Y-15352531D02*
X555539Y-15343008D01*
X555539Y-15343008D02*
X574586Y-15333484D01*
X765062Y-15333484D02*
X784110Y-15333484D01*
X784110Y-15333484D02*
X803158Y-15343008D01*
X803158Y-15343008D02*
X812682Y-15352531D01*
X812682Y-15352531D02*
X822205Y-15371579D01*
X822205Y-15371579D02*
X831729Y-15409674D01*
X831729Y-15409674D02*
X831729Y-15457293D01*
X831729Y-15457293D02*
X822205Y-15495388D01*
X822205Y-15495388D02*
X812682Y-15514436D01*
X812682Y-15514436D02*
X803158Y-15523960D01*
X803158Y-15523960D02*
X784110Y-15533484D01*
X784110Y-15533484D02*
X765062Y-15533484D01*
X765062Y-15533484D02*
X746015Y-15523960D01*
X746015Y-15523960D02*
X736491Y-15514436D01*
X736491Y-15514436D02*
X726967Y-15495388D01*
X726967Y-15495388D02*
X717443Y-15457293D01*
X717443Y-15457293D02*
X717443Y-15409674D01*
X717443Y-15409674D02*
X726967Y-15371579D01*
X726967Y-15371579D02*
X736491Y-15352531D01*
X736491Y-15352531D02*
X746015Y-15343008D01*
X746015Y-15343008D02*
X765062Y-15333484D01*
X955539Y-15333484D02*
X974586Y-15333484D01*
X974586Y-15333484D02*
X993634Y-15343008D01*
X993634Y-15343008D02*
X1003158Y-15352531D01*
X1003158Y-15352531D02*
X1012682Y-15371579D01*
X1012682Y-15371579D02*
X1022205Y-15409674D01*
X1022205Y-15409674D02*
X1022205Y-15457293D01*
X1022205Y-15457293D02*
X1012682Y-15495388D01*
X1012682Y-15495388D02*
X1003158Y-15514436D01*
X1003158Y-15514436D02*
X993634Y-15523960D01*
X993634Y-15523960D02*
X974586Y-15533484D01*
X974586Y-15533484D02*
X955539Y-15533484D01*
X955539Y-15533484D02*
X936491Y-15523960D01*
X936491Y-15523960D02*
X926967Y-15514436D01*
X926967Y-15514436D02*
X917443Y-15495388D01*
X917443Y-15495388D02*
X907920Y-15457293D01*
X907920Y-15457293D02*
X907920Y-15409674D01*
X907920Y-15409674D02*
X917443Y-15371579D01*
X917443Y-15371579D02*
X926967Y-15352531D01*
X926967Y-15352531D02*
X936491Y-15343008D01*
X936491Y-15343008D02*
X955539Y-15333484D01*
X1107920Y-15533484D02*
X1107920Y-15400150D01*
X1107920Y-15419198D02*
X1117444Y-15409674D01*
X1117444Y-15409674D02*
X1136491Y-15400150D01*
X1136491Y-15400150D02*
X1165063Y-15400150D01*
X1165063Y-15400150D02*
X1184110Y-15409674D01*
X1184110Y-15409674D02*
X1193634Y-15428722D01*
X1193634Y-15428722D02*
X1193634Y-15533484D01*
X1193634Y-15428722D02*
X1203158Y-15409674D01*
X1203158Y-15409674D02*
X1222205Y-15400150D01*
X1222205Y-15400150D02*
X1250777Y-15400150D01*
X1250777Y-15400150D02*
X1269825Y-15409674D01*
X1269825Y-15409674D02*
X1279348Y-15428722D01*
X1279348Y-15428722D02*
X1279348Y-15533484D01*
X1374586Y-15533484D02*
X1374586Y-15400150D01*
X1374586Y-15419198D02*
X1384110Y-15409674D01*
X1384110Y-15409674D02*
X1403158Y-15400150D01*
X1403158Y-15400150D02*
X1431729Y-15400150D01*
X1431729Y-15400150D02*
X1450777Y-15409674D01*
X1450777Y-15409674D02*
X1460301Y-15428722D01*
X1460301Y-15428722D02*
X1460301Y-15533484D01*
X1460301Y-15428722D02*
X1469824Y-15409674D01*
X1469824Y-15409674D02*
X1488872Y-15400150D01*
X1488872Y-15400150D02*
X1517443Y-15400150D01*
X1517443Y-15400150D02*
X1536491Y-15409674D01*
X1536491Y-15409674D02*
X1546015Y-15428722D01*
X1546015Y-15428722D02*
X1546015Y-15533484D01*
X1936491Y-15323960D02*
X1765063Y-15581103D01*
X2193634Y-15333484D02*
X2212682Y-15333484D01*
X2212682Y-15333484D02*
X2231729Y-15343008D01*
X2231729Y-15343008D02*
X2241253Y-15352531D01*
X2241253Y-15352531D02*
X2250777Y-15371579D01*
X2250777Y-15371579D02*
X2260301Y-15409674D01*
X2260301Y-15409674D02*
X2260301Y-15457293D01*
X2260301Y-15457293D02*
X2250777Y-15495388D01*
X2250777Y-15495388D02*
X2241253Y-15514436D01*
X2241253Y-15514436D02*
X2231729Y-15523960D01*
X2231729Y-15523960D02*
X2212682Y-15533484D01*
X2212682Y-15533484D02*
X2193634Y-15533484D01*
X2193634Y-15533484D02*
X2174587Y-15523960D01*
X2174587Y-15523960D02*
X2165063Y-15514436D01*
X2165063Y-15514436D02*
X2155539Y-15495388D01*
X2155539Y-15495388D02*
X2146015Y-15457293D01*
X2146015Y-15457293D02*
X2146015Y-15409674D01*
X2146015Y-15409674D02*
X2155539Y-15371579D01*
X2155539Y-15371579D02*
X2165063Y-15352531D01*
X2165063Y-15352531D02*
X2174587Y-15343008D01*
X2174587Y-15343008D02*
X2193634Y-15333484D01*
X2346015Y-15514436D02*
X2355539Y-15523960D01*
X2355539Y-15523960D02*
X2346015Y-15533484D01*
X2346015Y-15533484D02*
X2336491Y-15523960D01*
X2336491Y-15523960D02*
X2346015Y-15514436D01*
X2346015Y-15514436D02*
X2346015Y-15533484D01*
X2479348Y-15333484D02*
X2498396Y-15333484D01*
X2498396Y-15333484D02*
X2517444Y-15343008D01*
X2517444Y-15343008D02*
X2526968Y-15352531D01*
X2526968Y-15352531D02*
X2536491Y-15371579D01*
X2536491Y-15371579D02*
X2546015Y-15409674D01*
X2546015Y-15409674D02*
X2546015Y-15457293D01*
X2546015Y-15457293D02*
X2536491Y-15495388D01*
X2536491Y-15495388D02*
X2526968Y-15514436D01*
X2526968Y-15514436D02*
X2517444Y-15523960D01*
X2517444Y-15523960D02*
X2498396Y-15533484D01*
X2498396Y-15533484D02*
X2479348Y-15533484D01*
X2479348Y-15533484D02*
X2460301Y-15523960D01*
X2460301Y-15523960D02*
X2450777Y-15514436D01*
X2450777Y-15514436D02*
X2441253Y-15495388D01*
X2441253Y-15495388D02*
X2431729Y-15457293D01*
X2431729Y-15457293D02*
X2431729Y-15409674D01*
X2431729Y-15409674D02*
X2441253Y-15371579D01*
X2441253Y-15371579D02*
X2450777Y-15352531D01*
X2450777Y-15352531D02*
X2460301Y-15343008D01*
X2460301Y-15343008D02*
X2479348Y-15333484D01*
X2612682Y-15333484D02*
X2736491Y-15333484D01*
X2736491Y-15333484D02*
X2669825Y-15409674D01*
X2669825Y-15409674D02*
X2698396Y-15409674D01*
X2698396Y-15409674D02*
X2717444Y-15419198D01*
X2717444Y-15419198D02*
X2726968Y-15428722D01*
X2726968Y-15428722D02*
X2736491Y-15447769D01*
X2736491Y-15447769D02*
X2736491Y-15495388D01*
X2736491Y-15495388D02*
X2726968Y-15514436D01*
X2726968Y-15514436D02*
X2717444Y-15523960D01*
X2717444Y-15523960D02*
X2698396Y-15533484D01*
X2698396Y-15533484D02*
X2641253Y-15533484D01*
X2641253Y-15533484D02*
X2622206Y-15523960D01*
X2622206Y-15523960D02*
X2612682Y-15514436D01*
X2831729Y-15533484D02*
X2869825Y-15533484D01*
X2869825Y-15533484D02*
X2888872Y-15523960D01*
X2888872Y-15523960D02*
X2898396Y-15514436D01*
X2898396Y-15514436D02*
X2917444Y-15485865D01*
X2917444Y-15485865D02*
X2926967Y-15447769D01*
X2926967Y-15447769D02*
X2926967Y-15371579D01*
X2926967Y-15371579D02*
X2917444Y-15352531D01*
X2917444Y-15352531D02*
X2907920Y-15343008D01*
X2907920Y-15343008D02*
X2888872Y-15333484D01*
X2888872Y-15333484D02*
X2850777Y-15333484D01*
X2850777Y-15333484D02*
X2831729Y-15343008D01*
X2831729Y-15343008D02*
X2822206Y-15352531D01*
X2822206Y-15352531D02*
X2812682Y-15371579D01*
X2812682Y-15371579D02*
X2812682Y-15419198D01*
X2812682Y-15419198D02*
X2822206Y-15438246D01*
X2822206Y-15438246D02*
X2831729Y-15447769D01*
X2831729Y-15447769D02*
X2850777Y-15457293D01*
X2850777Y-15457293D02*
X2888872Y-15457293D01*
X2888872Y-15457293D02*
X2907920Y-15447769D01*
X2907920Y-15447769D02*
X2917444Y-15438246D01*
X2917444Y-15438246D02*
X2926967Y-15419198D01*
X3098396Y-15400150D02*
X3098396Y-15533484D01*
X3050777Y-15323960D02*
X3003158Y-15466817D01*
X3003158Y-15466817D02*
X3126967Y-15466817D01*
X3193634Y-15333484D02*
X3193634Y-15371579D01*
X3269825Y-15333484D02*
X3269825Y-15371579D01*
X3565063Y-15609674D02*
X3555539Y-15600150D01*
X3555539Y-15600150D02*
X3536491Y-15571579D01*
X3536491Y-15571579D02*
X3526968Y-15552531D01*
X3526968Y-15552531D02*
X3517444Y-15523960D01*
X3517444Y-15523960D02*
X3507920Y-15476341D01*
X3507920Y-15476341D02*
X3507920Y-15438246D01*
X3507920Y-15438246D02*
X3517444Y-15390627D01*
X3517444Y-15390627D02*
X3526968Y-15362055D01*
X3526968Y-15362055D02*
X3536491Y-15343008D01*
X3536491Y-15343008D02*
X3555539Y-15314436D01*
X3555539Y-15314436D02*
X3565063Y-15304912D01*
X3746015Y-15533484D02*
X3631729Y-15533484D01*
X3688872Y-15533484D02*
X3688872Y-15333484D01*
X3688872Y-15333484D02*
X3669825Y-15362055D01*
X3669825Y-15362055D02*
X3650777Y-15381103D01*
X3650777Y-15381103D02*
X3631729Y-15390627D01*
X3869825Y-15333484D02*
X3888872Y-15333484D01*
X3888872Y-15333484D02*
X3907920Y-15343008D01*
X3907920Y-15343008D02*
X3917444Y-15352531D01*
X3917444Y-15352531D02*
X3926968Y-15371579D01*
X3926968Y-15371579D02*
X3936491Y-15409674D01*
X3936491Y-15409674D02*
X3936491Y-15457293D01*
X3936491Y-15457293D02*
X3926968Y-15495388D01*
X3926968Y-15495388D02*
X3917444Y-15514436D01*
X3917444Y-15514436D02*
X3907920Y-15523960D01*
X3907920Y-15523960D02*
X3888872Y-15533484D01*
X3888872Y-15533484D02*
X3869825Y-15533484D01*
X3869825Y-15533484D02*
X3850777Y-15523960D01*
X3850777Y-15523960D02*
X3841253Y-15514436D01*
X3841253Y-15514436D02*
X3831729Y-15495388D01*
X3831729Y-15495388D02*
X3822206Y-15457293D01*
X3822206Y-15457293D02*
X3822206Y-15409674D01*
X3822206Y-15409674D02*
X3831729Y-15371579D01*
X3831729Y-15371579D02*
X3841253Y-15352531D01*
X3841253Y-15352531D02*
X3850777Y-15343008D01*
X3850777Y-15343008D02*
X3869825Y-15333484D01*
X4174587Y-15533484D02*
X4174587Y-15333484D01*
X4260301Y-15533484D02*
X4260301Y-15428722D01*
X4260301Y-15428722D02*
X4250777Y-15409674D01*
X4250777Y-15409674D02*
X4231730Y-15400150D01*
X4231730Y-15400150D02*
X4203158Y-15400150D01*
X4203158Y-15400150D02*
X4184110Y-15409674D01*
X4184110Y-15409674D02*
X4174587Y-15419198D01*
X4384111Y-15533484D02*
X4365063Y-15523960D01*
X4365063Y-15523960D02*
X4355539Y-15514436D01*
X4355539Y-15514436D02*
X4346015Y-15495388D01*
X4346015Y-15495388D02*
X4346015Y-15438246D01*
X4346015Y-15438246D02*
X4355539Y-15419198D01*
X4355539Y-15419198D02*
X4365063Y-15409674D01*
X4365063Y-15409674D02*
X4384111Y-15400150D01*
X4384111Y-15400150D02*
X4412682Y-15400150D01*
X4412682Y-15400150D02*
X4431730Y-15409674D01*
X4431730Y-15409674D02*
X4441253Y-15419198D01*
X4441253Y-15419198D02*
X4450777Y-15438246D01*
X4450777Y-15438246D02*
X4450777Y-15495388D01*
X4450777Y-15495388D02*
X4441253Y-15514436D01*
X4441253Y-15514436D02*
X4431730Y-15523960D01*
X4431730Y-15523960D02*
X4412682Y-15533484D01*
X4412682Y-15533484D02*
X4384111Y-15533484D01*
X4565063Y-15533484D02*
X4546015Y-15523960D01*
X4546015Y-15523960D02*
X4536492Y-15504912D01*
X4536492Y-15504912D02*
X4536492Y-15333484D01*
X4717444Y-15523960D02*
X4698396Y-15533484D01*
X4698396Y-15533484D02*
X4660301Y-15533484D01*
X4660301Y-15533484D02*
X4641253Y-15523960D01*
X4641253Y-15523960D02*
X4631730Y-15504912D01*
X4631730Y-15504912D02*
X4631730Y-15428722D01*
X4631730Y-15428722D02*
X4641253Y-15409674D01*
X4641253Y-15409674D02*
X4660301Y-15400150D01*
X4660301Y-15400150D02*
X4698396Y-15400150D01*
X4698396Y-15400150D02*
X4717444Y-15409674D01*
X4717444Y-15409674D02*
X4726968Y-15428722D01*
X4726968Y-15428722D02*
X4726968Y-15447769D01*
X4726968Y-15447769D02*
X4631730Y-15466817D01*
X4803158Y-15523960D02*
X4822206Y-15533484D01*
X4822206Y-15533484D02*
X4860301Y-15533484D01*
X4860301Y-15533484D02*
X4879349Y-15523960D01*
X4879349Y-15523960D02*
X4888873Y-15504912D01*
X4888873Y-15504912D02*
X4888873Y-15495388D01*
X4888873Y-15495388D02*
X4879349Y-15476341D01*
X4879349Y-15476341D02*
X4860301Y-15466817D01*
X4860301Y-15466817D02*
X4831730Y-15466817D01*
X4831730Y-15466817D02*
X4812682Y-15457293D01*
X4812682Y-15457293D02*
X4803158Y-15438246D01*
X4803158Y-15438246D02*
X4803158Y-15428722D01*
X4803158Y-15428722D02*
X4812682Y-15409674D01*
X4812682Y-15409674D02*
X4831730Y-15400150D01*
X4831730Y-15400150D02*
X4860301Y-15400150D01*
X4860301Y-15400150D02*
X4879349Y-15409674D01*
X4955539Y-15609674D02*
X4965063Y-15600150D01*
X4965063Y-15600150D02*
X4984111Y-15571579D01*
X4984111Y-15571579D02*
X4993634Y-15552531D01*
X4993634Y-15552531D02*
X5003158Y-15523960D01*
X5003158Y-15523960D02*
X5012682Y-15476341D01*
X5012682Y-15476341D02*
X5012682Y-15438246D01*
X5012682Y-15438246D02*
X5003158Y-15390627D01*
X5003158Y-15390627D02*
X4993634Y-15362055D01*
X4993634Y-15362055D02*
X4984111Y-15343008D01*
X4984111Y-15343008D02*
X4965063Y-15314436D01*
X4965063Y-15314436D02*
X4955539Y-15304912D01*
D15*
X-61000Y-15757000D02*
X-10000Y-15706000D01*
X-61000Y-15655000D01*
X-112000Y-15706000D01*
X-61000Y-15757000D01*
D10*
X355539Y-15797484D02*
X241253Y-15797484D01*
X298396Y-15797484D02*
X298396Y-15597484D01*
X298396Y-15597484D02*
X279348Y-15626055D01*
X279348Y-15626055D02*
X260301Y-15645103D01*
X260301Y-15645103D02*
X241253Y-15654627D01*
X441253Y-15778436D02*
X450777Y-15787960D01*
X450777Y-15787960D02*
X441253Y-15797484D01*
X441253Y-15797484D02*
X431729Y-15787960D01*
X431729Y-15787960D02*
X441253Y-15778436D01*
X441253Y-15778436D02*
X441253Y-15797484D01*
X574586Y-15597484D02*
X593634Y-15597484D01*
X593634Y-15597484D02*
X612682Y-15607008D01*
X612682Y-15607008D02*
X622205Y-15616531D01*
X622205Y-15616531D02*
X631729Y-15635579D01*
X631729Y-15635579D02*
X641253Y-15673674D01*
X641253Y-15673674D02*
X641253Y-15721293D01*
X641253Y-15721293D02*
X631729Y-15759388D01*
X631729Y-15759388D02*
X622205Y-15778436D01*
X622205Y-15778436D02*
X612682Y-15787960D01*
X612682Y-15787960D02*
X593634Y-15797484D01*
X593634Y-15797484D02*
X574586Y-15797484D01*
X574586Y-15797484D02*
X555539Y-15787960D01*
X555539Y-15787960D02*
X546015Y-15778436D01*
X546015Y-15778436D02*
X536491Y-15759388D01*
X536491Y-15759388D02*
X526967Y-15721293D01*
X526967Y-15721293D02*
X526967Y-15673674D01*
X526967Y-15673674D02*
X536491Y-15635579D01*
X536491Y-15635579D02*
X546015Y-15616531D01*
X546015Y-15616531D02*
X555539Y-15607008D01*
X555539Y-15607008D02*
X574586Y-15597484D01*
X717443Y-15616531D02*
X726967Y-15607008D01*
X726967Y-15607008D02*
X746015Y-15597484D01*
X746015Y-15597484D02*
X793634Y-15597484D01*
X793634Y-15597484D02*
X812682Y-15607008D01*
X812682Y-15607008D02*
X822205Y-15616531D01*
X822205Y-15616531D02*
X831729Y-15635579D01*
X831729Y-15635579D02*
X831729Y-15654627D01*
X831729Y-15654627D02*
X822205Y-15683198D01*
X822205Y-15683198D02*
X707920Y-15797484D01*
X707920Y-15797484D02*
X831729Y-15797484D01*
X955539Y-15597484D02*
X974586Y-15597484D01*
X974586Y-15597484D02*
X993634Y-15607008D01*
X993634Y-15607008D02*
X1003158Y-15616531D01*
X1003158Y-15616531D02*
X1012682Y-15635579D01*
X1012682Y-15635579D02*
X1022205Y-15673674D01*
X1022205Y-15673674D02*
X1022205Y-15721293D01*
X1022205Y-15721293D02*
X1012682Y-15759388D01*
X1012682Y-15759388D02*
X1003158Y-15778436D01*
X1003158Y-15778436D02*
X993634Y-15787960D01*
X993634Y-15787960D02*
X974586Y-15797484D01*
X974586Y-15797484D02*
X955539Y-15797484D01*
X955539Y-15797484D02*
X936491Y-15787960D01*
X936491Y-15787960D02*
X926967Y-15778436D01*
X926967Y-15778436D02*
X917443Y-15759388D01*
X917443Y-15759388D02*
X907920Y-15721293D01*
X907920Y-15721293D02*
X907920Y-15673674D01*
X907920Y-15673674D02*
X917443Y-15635579D01*
X917443Y-15635579D02*
X926967Y-15616531D01*
X926967Y-15616531D02*
X936491Y-15607008D01*
X936491Y-15607008D02*
X955539Y-15597484D01*
X1107920Y-15797484D02*
X1107920Y-15664150D01*
X1107920Y-15683198D02*
X1117444Y-15673674D01*
X1117444Y-15673674D02*
X1136491Y-15664150D01*
X1136491Y-15664150D02*
X1165063Y-15664150D01*
X1165063Y-15664150D02*
X1184110Y-15673674D01*
X1184110Y-15673674D02*
X1193634Y-15692722D01*
X1193634Y-15692722D02*
X1193634Y-15797484D01*
X1193634Y-15692722D02*
X1203158Y-15673674D01*
X1203158Y-15673674D02*
X1222205Y-15664150D01*
X1222205Y-15664150D02*
X1250777Y-15664150D01*
X1250777Y-15664150D02*
X1269825Y-15673674D01*
X1269825Y-15673674D02*
X1279348Y-15692722D01*
X1279348Y-15692722D02*
X1279348Y-15797484D01*
X1374586Y-15797484D02*
X1374586Y-15664150D01*
X1374586Y-15683198D02*
X1384110Y-15673674D01*
X1384110Y-15673674D02*
X1403158Y-15664150D01*
X1403158Y-15664150D02*
X1431729Y-15664150D01*
X1431729Y-15664150D02*
X1450777Y-15673674D01*
X1450777Y-15673674D02*
X1460301Y-15692722D01*
X1460301Y-15692722D02*
X1460301Y-15797484D01*
X1460301Y-15692722D02*
X1469824Y-15673674D01*
X1469824Y-15673674D02*
X1488872Y-15664150D01*
X1488872Y-15664150D02*
X1517443Y-15664150D01*
X1517443Y-15664150D02*
X1536491Y-15673674D01*
X1536491Y-15673674D02*
X1546015Y-15692722D01*
X1546015Y-15692722D02*
X1546015Y-15797484D01*
X1936491Y-15587960D02*
X1765063Y-15845103D01*
X2193634Y-15597484D02*
X2212682Y-15597484D01*
X2212682Y-15597484D02*
X2231729Y-15607008D01*
X2231729Y-15607008D02*
X2241253Y-15616531D01*
X2241253Y-15616531D02*
X2250777Y-15635579D01*
X2250777Y-15635579D02*
X2260301Y-15673674D01*
X2260301Y-15673674D02*
X2260301Y-15721293D01*
X2260301Y-15721293D02*
X2250777Y-15759388D01*
X2250777Y-15759388D02*
X2241253Y-15778436D01*
X2241253Y-15778436D02*
X2231729Y-15787960D01*
X2231729Y-15787960D02*
X2212682Y-15797484D01*
X2212682Y-15797484D02*
X2193634Y-15797484D01*
X2193634Y-15797484D02*
X2174587Y-15787960D01*
X2174587Y-15787960D02*
X2165063Y-15778436D01*
X2165063Y-15778436D02*
X2155539Y-15759388D01*
X2155539Y-15759388D02*
X2146015Y-15721293D01*
X2146015Y-15721293D02*
X2146015Y-15673674D01*
X2146015Y-15673674D02*
X2155539Y-15635579D01*
X2155539Y-15635579D02*
X2165063Y-15616531D01*
X2165063Y-15616531D02*
X2174587Y-15607008D01*
X2174587Y-15607008D02*
X2193634Y-15597484D01*
X2346015Y-15778436D02*
X2355539Y-15787960D01*
X2355539Y-15787960D02*
X2346015Y-15797484D01*
X2346015Y-15797484D02*
X2336491Y-15787960D01*
X2336491Y-15787960D02*
X2346015Y-15778436D01*
X2346015Y-15778436D02*
X2346015Y-15797484D01*
X2479348Y-15597484D02*
X2498396Y-15597484D01*
X2498396Y-15597484D02*
X2517444Y-15607008D01*
X2517444Y-15607008D02*
X2526968Y-15616531D01*
X2526968Y-15616531D02*
X2536491Y-15635579D01*
X2536491Y-15635579D02*
X2546015Y-15673674D01*
X2546015Y-15673674D02*
X2546015Y-15721293D01*
X2546015Y-15721293D02*
X2536491Y-15759388D01*
X2536491Y-15759388D02*
X2526968Y-15778436D01*
X2526968Y-15778436D02*
X2517444Y-15787960D01*
X2517444Y-15787960D02*
X2498396Y-15797484D01*
X2498396Y-15797484D02*
X2479348Y-15797484D01*
X2479348Y-15797484D02*
X2460301Y-15787960D01*
X2460301Y-15787960D02*
X2450777Y-15778436D01*
X2450777Y-15778436D02*
X2441253Y-15759388D01*
X2441253Y-15759388D02*
X2431729Y-15721293D01*
X2431729Y-15721293D02*
X2431729Y-15673674D01*
X2431729Y-15673674D02*
X2441253Y-15635579D01*
X2441253Y-15635579D02*
X2450777Y-15616531D01*
X2450777Y-15616531D02*
X2460301Y-15607008D01*
X2460301Y-15607008D02*
X2479348Y-15597484D01*
X2717444Y-15664150D02*
X2717444Y-15797484D01*
X2669825Y-15587960D02*
X2622206Y-15730817D01*
X2622206Y-15730817D02*
X2746015Y-15730817D01*
X2860301Y-15597484D02*
X2879348Y-15597484D01*
X2879348Y-15597484D02*
X2898396Y-15607008D01*
X2898396Y-15607008D02*
X2907920Y-15616531D01*
X2907920Y-15616531D02*
X2917444Y-15635579D01*
X2917444Y-15635579D02*
X2926967Y-15673674D01*
X2926967Y-15673674D02*
X2926967Y-15721293D01*
X2926967Y-15721293D02*
X2917444Y-15759388D01*
X2917444Y-15759388D02*
X2907920Y-15778436D01*
X2907920Y-15778436D02*
X2898396Y-15787960D01*
X2898396Y-15787960D02*
X2879348Y-15797484D01*
X2879348Y-15797484D02*
X2860301Y-15797484D01*
X2860301Y-15797484D02*
X2841253Y-15787960D01*
X2841253Y-15787960D02*
X2831729Y-15778436D01*
X2831729Y-15778436D02*
X2822206Y-15759388D01*
X2822206Y-15759388D02*
X2812682Y-15721293D01*
X2812682Y-15721293D02*
X2812682Y-15673674D01*
X2812682Y-15673674D02*
X2822206Y-15635579D01*
X2822206Y-15635579D02*
X2831729Y-15616531D01*
X2831729Y-15616531D02*
X2841253Y-15607008D01*
X2841253Y-15607008D02*
X2860301Y-15597484D01*
X3003158Y-15616531D02*
X3012682Y-15607008D01*
X3012682Y-15607008D02*
X3031729Y-15597484D01*
X3031729Y-15597484D02*
X3079348Y-15597484D01*
X3079348Y-15597484D02*
X3098396Y-15607008D01*
X3098396Y-15607008D02*
X3107920Y-15616531D01*
X3107920Y-15616531D02*
X3117444Y-15635579D01*
X3117444Y-15635579D02*
X3117444Y-15654627D01*
X3117444Y-15654627D02*
X3107920Y-15683198D01*
X3107920Y-15683198D02*
X2993634Y-15797484D01*
X2993634Y-15797484D02*
X3117444Y-15797484D01*
X3193634Y-15597484D02*
X3193634Y-15635579D01*
X3269825Y-15597484D02*
X3269825Y-15635579D01*
X3565063Y-15873674D02*
X3555539Y-15864150D01*
X3555539Y-15864150D02*
X3536491Y-15835579D01*
X3536491Y-15835579D02*
X3526968Y-15816531D01*
X3526968Y-15816531D02*
X3517444Y-15787960D01*
X3517444Y-15787960D02*
X3507920Y-15740341D01*
X3507920Y-15740341D02*
X3507920Y-15702246D01*
X3507920Y-15702246D02*
X3517444Y-15654627D01*
X3517444Y-15654627D02*
X3526968Y-15626055D01*
X3526968Y-15626055D02*
X3536491Y-15607008D01*
X3536491Y-15607008D02*
X3555539Y-15578436D01*
X3555539Y-15578436D02*
X3565063Y-15568912D01*
X3726968Y-15664150D02*
X3726968Y-15797484D01*
X3679348Y-15587960D02*
X3631729Y-15730817D01*
X3631729Y-15730817D02*
X3755539Y-15730817D01*
X3812682Y-15597484D02*
X3936491Y-15597484D01*
X3936491Y-15597484D02*
X3869825Y-15673674D01*
X3869825Y-15673674D02*
X3898396Y-15673674D01*
X3898396Y-15673674D02*
X3917444Y-15683198D01*
X3917444Y-15683198D02*
X3926968Y-15692722D01*
X3926968Y-15692722D02*
X3936491Y-15711769D01*
X3936491Y-15711769D02*
X3936491Y-15759388D01*
X3936491Y-15759388D02*
X3926968Y-15778436D01*
X3926968Y-15778436D02*
X3917444Y-15787960D01*
X3917444Y-15787960D02*
X3898396Y-15797484D01*
X3898396Y-15797484D02*
X3841253Y-15797484D01*
X3841253Y-15797484D02*
X3822206Y-15787960D01*
X3822206Y-15787960D02*
X3812682Y-15778436D01*
X4174587Y-15797484D02*
X4174587Y-15597484D01*
X4260301Y-15797484D02*
X4260301Y-15692722D01*
X4260301Y-15692722D02*
X4250777Y-15673674D01*
X4250777Y-15673674D02*
X4231730Y-15664150D01*
X4231730Y-15664150D02*
X4203158Y-15664150D01*
X4203158Y-15664150D02*
X4184110Y-15673674D01*
X4184110Y-15673674D02*
X4174587Y-15683198D01*
X4384111Y-15797484D02*
X4365063Y-15787960D01*
X4365063Y-15787960D02*
X4355539Y-15778436D01*
X4355539Y-15778436D02*
X4346015Y-15759388D01*
X4346015Y-15759388D02*
X4346015Y-15702246D01*
X4346015Y-15702246D02*
X4355539Y-15683198D01*
X4355539Y-15683198D02*
X4365063Y-15673674D01*
X4365063Y-15673674D02*
X4384111Y-15664150D01*
X4384111Y-15664150D02*
X4412682Y-15664150D01*
X4412682Y-15664150D02*
X4431730Y-15673674D01*
X4431730Y-15673674D02*
X4441253Y-15683198D01*
X4441253Y-15683198D02*
X4450777Y-15702246D01*
X4450777Y-15702246D02*
X4450777Y-15759388D01*
X4450777Y-15759388D02*
X4441253Y-15778436D01*
X4441253Y-15778436D02*
X4431730Y-15787960D01*
X4431730Y-15787960D02*
X4412682Y-15797484D01*
X4412682Y-15797484D02*
X4384111Y-15797484D01*
X4565063Y-15797484D02*
X4546015Y-15787960D01*
X4546015Y-15787960D02*
X4536492Y-15768912D01*
X4536492Y-15768912D02*
X4536492Y-15597484D01*
X4717444Y-15787960D02*
X4698396Y-15797484D01*
X4698396Y-15797484D02*
X4660301Y-15797484D01*
X4660301Y-15797484D02*
X4641253Y-15787960D01*
X4641253Y-15787960D02*
X4631730Y-15768912D01*
X4631730Y-15768912D02*
X4631730Y-15692722D01*
X4631730Y-15692722D02*
X4641253Y-15673674D01*
X4641253Y-15673674D02*
X4660301Y-15664150D01*
X4660301Y-15664150D02*
X4698396Y-15664150D01*
X4698396Y-15664150D02*
X4717444Y-15673674D01*
X4717444Y-15673674D02*
X4726968Y-15692722D01*
X4726968Y-15692722D02*
X4726968Y-15711769D01*
X4726968Y-15711769D02*
X4631730Y-15730817D01*
X4803158Y-15787960D02*
X4822206Y-15797484D01*
X4822206Y-15797484D02*
X4860301Y-15797484D01*
X4860301Y-15797484D02*
X4879349Y-15787960D01*
X4879349Y-15787960D02*
X4888873Y-15768912D01*
X4888873Y-15768912D02*
X4888873Y-15759388D01*
X4888873Y-15759388D02*
X4879349Y-15740341D01*
X4879349Y-15740341D02*
X4860301Y-15730817D01*
X4860301Y-15730817D02*
X4831730Y-15730817D01*
X4831730Y-15730817D02*
X4812682Y-15721293D01*
X4812682Y-15721293D02*
X4803158Y-15702246D01*
X4803158Y-15702246D02*
X4803158Y-15692722D01*
X4803158Y-15692722D02*
X4812682Y-15673674D01*
X4812682Y-15673674D02*
X4831730Y-15664150D01*
X4831730Y-15664150D02*
X4860301Y-15664150D01*
X4860301Y-15664150D02*
X4879349Y-15673674D01*
X4955539Y-15873674D02*
X4965063Y-15864150D01*
X4965063Y-15864150D02*
X4984111Y-15835579D01*
X4984111Y-15835579D02*
X4993634Y-15816531D01*
X4993634Y-15816531D02*
X5003158Y-15787960D01*
X5003158Y-15787960D02*
X5012682Y-15740341D01*
X5012682Y-15740341D02*
X5012682Y-15702246D01*
X5012682Y-15702246D02*
X5003158Y-15654627D01*
X5003158Y-15654627D02*
X4993634Y-15626055D01*
X4993634Y-15626055D02*
X4984111Y-15607008D01*
X4984111Y-15607008D02*
X4965063Y-15578436D01*
X4965063Y-15578436D02*
X4955539Y-15568912D01*
D16*
X-130000Y-15910000D02*
X-10000Y-16030000D01*
X-10000Y-15910000D02*
X-130000Y-16030000D01*
X-10000Y-15970000D02*
G75*
G03*
X-10000Y-15970000I-60000J0D01*
G01*
D10*
X355539Y-16061484D02*
X241253Y-16061484D01*
X298396Y-16061484D02*
X298396Y-15861484D01*
X298396Y-15861484D02*
X279348Y-15890055D01*
X279348Y-15890055D02*
X260301Y-15909103D01*
X260301Y-15909103D02*
X241253Y-15918627D01*
X441253Y-16042436D02*
X450777Y-16051960D01*
X450777Y-16051960D02*
X441253Y-16061484D01*
X441253Y-16061484D02*
X431729Y-16051960D01*
X431729Y-16051960D02*
X441253Y-16042436D01*
X441253Y-16042436D02*
X441253Y-16061484D01*
X526967Y-15880531D02*
X536491Y-15871008D01*
X536491Y-15871008D02*
X555539Y-15861484D01*
X555539Y-15861484D02*
X603158Y-15861484D01*
X603158Y-15861484D02*
X622205Y-15871008D01*
X622205Y-15871008D02*
X631729Y-15880531D01*
X631729Y-15880531D02*
X641253Y-15899579D01*
X641253Y-15899579D02*
X641253Y-15918627D01*
X641253Y-15918627D02*
X631729Y-15947198D01*
X631729Y-15947198D02*
X517443Y-16061484D01*
X517443Y-16061484D02*
X641253Y-16061484D01*
X765062Y-15861484D02*
X784110Y-15861484D01*
X784110Y-15861484D02*
X803158Y-15871008D01*
X803158Y-15871008D02*
X812682Y-15880531D01*
X812682Y-15880531D02*
X822205Y-15899579D01*
X822205Y-15899579D02*
X831729Y-15937674D01*
X831729Y-15937674D02*
X831729Y-15985293D01*
X831729Y-15985293D02*
X822205Y-16023388D01*
X822205Y-16023388D02*
X812682Y-16042436D01*
X812682Y-16042436D02*
X803158Y-16051960D01*
X803158Y-16051960D02*
X784110Y-16061484D01*
X784110Y-16061484D02*
X765062Y-16061484D01*
X765062Y-16061484D02*
X746015Y-16051960D01*
X746015Y-16051960D02*
X736491Y-16042436D01*
X736491Y-16042436D02*
X726967Y-16023388D01*
X726967Y-16023388D02*
X717443Y-15985293D01*
X717443Y-15985293D02*
X717443Y-15937674D01*
X717443Y-15937674D02*
X726967Y-15899579D01*
X726967Y-15899579D02*
X736491Y-15880531D01*
X736491Y-15880531D02*
X746015Y-15871008D01*
X746015Y-15871008D02*
X765062Y-15861484D01*
X955539Y-15861484D02*
X974586Y-15861484D01*
X974586Y-15861484D02*
X993634Y-15871008D01*
X993634Y-15871008D02*
X1003158Y-15880531D01*
X1003158Y-15880531D02*
X1012682Y-15899579D01*
X1012682Y-15899579D02*
X1022205Y-15937674D01*
X1022205Y-15937674D02*
X1022205Y-15985293D01*
X1022205Y-15985293D02*
X1012682Y-16023388D01*
X1012682Y-16023388D02*
X1003158Y-16042436D01*
X1003158Y-16042436D02*
X993634Y-16051960D01*
X993634Y-16051960D02*
X974586Y-16061484D01*
X974586Y-16061484D02*
X955539Y-16061484D01*
X955539Y-16061484D02*
X936491Y-16051960D01*
X936491Y-16051960D02*
X926967Y-16042436D01*
X926967Y-16042436D02*
X917443Y-16023388D01*
X917443Y-16023388D02*
X907920Y-15985293D01*
X907920Y-15985293D02*
X907920Y-15937674D01*
X907920Y-15937674D02*
X917443Y-15899579D01*
X917443Y-15899579D02*
X926967Y-15880531D01*
X926967Y-15880531D02*
X936491Y-15871008D01*
X936491Y-15871008D02*
X955539Y-15861484D01*
X1107920Y-16061484D02*
X1107920Y-15928150D01*
X1107920Y-15947198D02*
X1117444Y-15937674D01*
X1117444Y-15937674D02*
X1136491Y-15928150D01*
X1136491Y-15928150D02*
X1165063Y-15928150D01*
X1165063Y-15928150D02*
X1184110Y-15937674D01*
X1184110Y-15937674D02*
X1193634Y-15956722D01*
X1193634Y-15956722D02*
X1193634Y-16061484D01*
X1193634Y-15956722D02*
X1203158Y-15937674D01*
X1203158Y-15937674D02*
X1222205Y-15928150D01*
X1222205Y-15928150D02*
X1250777Y-15928150D01*
X1250777Y-15928150D02*
X1269825Y-15937674D01*
X1269825Y-15937674D02*
X1279348Y-15956722D01*
X1279348Y-15956722D02*
X1279348Y-16061484D01*
X1374586Y-16061484D02*
X1374586Y-15928150D01*
X1374586Y-15947198D02*
X1384110Y-15937674D01*
X1384110Y-15937674D02*
X1403158Y-15928150D01*
X1403158Y-15928150D02*
X1431729Y-15928150D01*
X1431729Y-15928150D02*
X1450777Y-15937674D01*
X1450777Y-15937674D02*
X1460301Y-15956722D01*
X1460301Y-15956722D02*
X1460301Y-16061484D01*
X1460301Y-15956722D02*
X1469824Y-15937674D01*
X1469824Y-15937674D02*
X1488872Y-15928150D01*
X1488872Y-15928150D02*
X1517443Y-15928150D01*
X1517443Y-15928150D02*
X1536491Y-15937674D01*
X1536491Y-15937674D02*
X1546015Y-15956722D01*
X1546015Y-15956722D02*
X1546015Y-16061484D01*
X1936491Y-15851960D02*
X1765063Y-16109103D01*
X2193634Y-15861484D02*
X2212682Y-15861484D01*
X2212682Y-15861484D02*
X2231729Y-15871008D01*
X2231729Y-15871008D02*
X2241253Y-15880531D01*
X2241253Y-15880531D02*
X2250777Y-15899579D01*
X2250777Y-15899579D02*
X2260301Y-15937674D01*
X2260301Y-15937674D02*
X2260301Y-15985293D01*
X2260301Y-15985293D02*
X2250777Y-16023388D01*
X2250777Y-16023388D02*
X2241253Y-16042436D01*
X2241253Y-16042436D02*
X2231729Y-16051960D01*
X2231729Y-16051960D02*
X2212682Y-16061484D01*
X2212682Y-16061484D02*
X2193634Y-16061484D01*
X2193634Y-16061484D02*
X2174587Y-16051960D01*
X2174587Y-16051960D02*
X2165063Y-16042436D01*
X2165063Y-16042436D02*
X2155539Y-16023388D01*
X2155539Y-16023388D02*
X2146015Y-15985293D01*
X2146015Y-15985293D02*
X2146015Y-15937674D01*
X2146015Y-15937674D02*
X2155539Y-15899579D01*
X2155539Y-15899579D02*
X2165063Y-15880531D01*
X2165063Y-15880531D02*
X2174587Y-15871008D01*
X2174587Y-15871008D02*
X2193634Y-15861484D01*
X2346015Y-16042436D02*
X2355539Y-16051960D01*
X2355539Y-16051960D02*
X2346015Y-16061484D01*
X2346015Y-16061484D02*
X2336491Y-16051960D01*
X2336491Y-16051960D02*
X2346015Y-16042436D01*
X2346015Y-16042436D02*
X2346015Y-16061484D01*
X2479348Y-15861484D02*
X2498396Y-15861484D01*
X2498396Y-15861484D02*
X2517444Y-15871008D01*
X2517444Y-15871008D02*
X2526968Y-15880531D01*
X2526968Y-15880531D02*
X2536491Y-15899579D01*
X2536491Y-15899579D02*
X2546015Y-15937674D01*
X2546015Y-15937674D02*
X2546015Y-15985293D01*
X2546015Y-15985293D02*
X2536491Y-16023388D01*
X2536491Y-16023388D02*
X2526968Y-16042436D01*
X2526968Y-16042436D02*
X2517444Y-16051960D01*
X2517444Y-16051960D02*
X2498396Y-16061484D01*
X2498396Y-16061484D02*
X2479348Y-16061484D01*
X2479348Y-16061484D02*
X2460301Y-16051960D01*
X2460301Y-16051960D02*
X2450777Y-16042436D01*
X2450777Y-16042436D02*
X2441253Y-16023388D01*
X2441253Y-16023388D02*
X2431729Y-15985293D01*
X2431729Y-15985293D02*
X2431729Y-15937674D01*
X2431729Y-15937674D02*
X2441253Y-15899579D01*
X2441253Y-15899579D02*
X2450777Y-15880531D01*
X2450777Y-15880531D02*
X2460301Y-15871008D01*
X2460301Y-15871008D02*
X2479348Y-15861484D01*
X2717444Y-15928150D02*
X2717444Y-16061484D01*
X2669825Y-15851960D02*
X2622206Y-15994817D01*
X2622206Y-15994817D02*
X2746015Y-15994817D01*
X2803158Y-15861484D02*
X2936491Y-15861484D01*
X2936491Y-15861484D02*
X2850777Y-16061484D01*
X3003158Y-15880531D02*
X3012682Y-15871008D01*
X3012682Y-15871008D02*
X3031729Y-15861484D01*
X3031729Y-15861484D02*
X3079348Y-15861484D01*
X3079348Y-15861484D02*
X3098396Y-15871008D01*
X3098396Y-15871008D02*
X3107920Y-15880531D01*
X3107920Y-15880531D02*
X3117444Y-15899579D01*
X3117444Y-15899579D02*
X3117444Y-15918627D01*
X3117444Y-15918627D02*
X3107920Y-15947198D01*
X3107920Y-15947198D02*
X2993634Y-16061484D01*
X2993634Y-16061484D02*
X3117444Y-16061484D01*
X3193634Y-15861484D02*
X3193634Y-15899579D01*
X3269825Y-15861484D02*
X3269825Y-15899579D01*
X3565063Y-16137674D02*
X3555539Y-16128150D01*
X3555539Y-16128150D02*
X3536491Y-16099579D01*
X3536491Y-16099579D02*
X3526968Y-16080531D01*
X3526968Y-16080531D02*
X3517444Y-16051960D01*
X3517444Y-16051960D02*
X3507920Y-16004341D01*
X3507920Y-16004341D02*
X3507920Y-15966246D01*
X3507920Y-15966246D02*
X3517444Y-15918627D01*
X3517444Y-15918627D02*
X3526968Y-15890055D01*
X3526968Y-15890055D02*
X3536491Y-15871008D01*
X3536491Y-15871008D02*
X3555539Y-15842436D01*
X3555539Y-15842436D02*
X3565063Y-15832912D01*
X3726968Y-15928150D02*
X3726968Y-16061484D01*
X3679348Y-15851960D02*
X3631729Y-15994817D01*
X3631729Y-15994817D02*
X3755539Y-15994817D01*
X3984110Y-16061484D02*
X3984110Y-15861484D01*
X4069825Y-16061484D02*
X4069825Y-15956722D01*
X4069825Y-15956722D02*
X4060301Y-15937674D01*
X4060301Y-15937674D02*
X4041253Y-15928150D01*
X4041253Y-15928150D02*
X4012682Y-15928150D01*
X4012682Y-15928150D02*
X3993634Y-15937674D01*
X3993634Y-15937674D02*
X3984110Y-15947198D01*
X4193634Y-16061484D02*
X4174587Y-16051960D01*
X4174587Y-16051960D02*
X4165063Y-16042436D01*
X4165063Y-16042436D02*
X4155539Y-16023388D01*
X4155539Y-16023388D02*
X4155539Y-15966246D01*
X4155539Y-15966246D02*
X4165063Y-15947198D01*
X4165063Y-15947198D02*
X4174587Y-15937674D01*
X4174587Y-15937674D02*
X4193634Y-15928150D01*
X4193634Y-15928150D02*
X4222206Y-15928150D01*
X4222206Y-15928150D02*
X4241253Y-15937674D01*
X4241253Y-15937674D02*
X4250777Y-15947198D01*
X4250777Y-15947198D02*
X4260301Y-15966246D01*
X4260301Y-15966246D02*
X4260301Y-16023388D01*
X4260301Y-16023388D02*
X4250777Y-16042436D01*
X4250777Y-16042436D02*
X4241253Y-16051960D01*
X4241253Y-16051960D02*
X4222206Y-16061484D01*
X4222206Y-16061484D02*
X4193634Y-16061484D01*
X4374587Y-16061484D02*
X4355539Y-16051960D01*
X4355539Y-16051960D02*
X4346015Y-16032912D01*
X4346015Y-16032912D02*
X4346015Y-15861484D01*
X4526968Y-16051960D02*
X4507920Y-16061484D01*
X4507920Y-16061484D02*
X4469825Y-16061484D01*
X4469825Y-16061484D02*
X4450777Y-16051960D01*
X4450777Y-16051960D02*
X4441253Y-16032912D01*
X4441253Y-16032912D02*
X4441253Y-15956722D01*
X4441253Y-15956722D02*
X4450777Y-15937674D01*
X4450777Y-15937674D02*
X4469825Y-15928150D01*
X4469825Y-15928150D02*
X4507920Y-15928150D01*
X4507920Y-15928150D02*
X4526968Y-15937674D01*
X4526968Y-15937674D02*
X4536492Y-15956722D01*
X4536492Y-15956722D02*
X4536492Y-15975769D01*
X4536492Y-15975769D02*
X4441253Y-15994817D01*
X4612682Y-16051960D02*
X4631730Y-16061484D01*
X4631730Y-16061484D02*
X4669825Y-16061484D01*
X4669825Y-16061484D02*
X4688873Y-16051960D01*
X4688873Y-16051960D02*
X4698396Y-16032912D01*
X4698396Y-16032912D02*
X4698396Y-16023388D01*
X4698396Y-16023388D02*
X4688873Y-16004341D01*
X4688873Y-16004341D02*
X4669825Y-15994817D01*
X4669825Y-15994817D02*
X4641253Y-15994817D01*
X4641253Y-15994817D02*
X4622206Y-15985293D01*
X4622206Y-15985293D02*
X4612682Y-15966246D01*
X4612682Y-15966246D02*
X4612682Y-15956722D01*
X4612682Y-15956722D02*
X4622206Y-15937674D01*
X4622206Y-15937674D02*
X4641253Y-15928150D01*
X4641253Y-15928150D02*
X4669825Y-15928150D01*
X4669825Y-15928150D02*
X4688873Y-15937674D01*
X4765063Y-16137674D02*
X4774587Y-16128150D01*
X4774587Y-16128150D02*
X4793634Y-16099579D01*
X4793634Y-16099579D02*
X4803158Y-16080531D01*
X4803158Y-16080531D02*
X4812682Y-16051960D01*
X4812682Y-16051960D02*
X4822206Y-16004341D01*
X4822206Y-16004341D02*
X4822206Y-15966246D01*
X4822206Y-15966246D02*
X4812682Y-15918627D01*
X4812682Y-15918627D02*
X4803158Y-15890055D01*
X4803158Y-15890055D02*
X4793634Y-15871008D01*
X4793634Y-15871008D02*
X4774587Y-15842436D01*
X4774587Y-15842436D02*
X4765063Y-15832912D01*
D17*
X-160000Y-16159000D02*
X-10000Y-16309000D01*
X-10000Y-16159000D02*
X-160000Y-16309000D01*
X-85000Y-16159000D02*
X-85000Y-16309000D01*
X-160000Y-16234000D02*
X-10000Y-16234000D01*
D10*
X355539Y-16325484D02*
X241253Y-16325484D01*
X298396Y-16325484D02*
X298396Y-16125484D01*
X298396Y-16125484D02*
X279348Y-16154055D01*
X279348Y-16154055D02*
X260301Y-16173103D01*
X260301Y-16173103D02*
X241253Y-16182627D01*
X441253Y-16306436D02*
X450777Y-16315960D01*
X450777Y-16315960D02*
X441253Y-16325484D01*
X441253Y-16325484D02*
X431729Y-16315960D01*
X431729Y-16315960D02*
X441253Y-16306436D01*
X441253Y-16306436D02*
X441253Y-16325484D01*
X631729Y-16125484D02*
X536491Y-16125484D01*
X536491Y-16125484D02*
X526967Y-16220722D01*
X526967Y-16220722D02*
X536491Y-16211198D01*
X536491Y-16211198D02*
X555539Y-16201674D01*
X555539Y-16201674D02*
X603158Y-16201674D01*
X603158Y-16201674D02*
X622205Y-16211198D01*
X622205Y-16211198D02*
X631729Y-16220722D01*
X631729Y-16220722D02*
X641253Y-16239769D01*
X641253Y-16239769D02*
X641253Y-16287388D01*
X641253Y-16287388D02*
X631729Y-16306436D01*
X631729Y-16306436D02*
X622205Y-16315960D01*
X622205Y-16315960D02*
X603158Y-16325484D01*
X603158Y-16325484D02*
X555539Y-16325484D01*
X555539Y-16325484D02*
X536491Y-16315960D01*
X536491Y-16315960D02*
X526967Y-16306436D01*
X765062Y-16125484D02*
X784110Y-16125484D01*
X784110Y-16125484D02*
X803158Y-16135008D01*
X803158Y-16135008D02*
X812682Y-16144531D01*
X812682Y-16144531D02*
X822205Y-16163579D01*
X822205Y-16163579D02*
X831729Y-16201674D01*
X831729Y-16201674D02*
X831729Y-16249293D01*
X831729Y-16249293D02*
X822205Y-16287388D01*
X822205Y-16287388D02*
X812682Y-16306436D01*
X812682Y-16306436D02*
X803158Y-16315960D01*
X803158Y-16315960D02*
X784110Y-16325484D01*
X784110Y-16325484D02*
X765062Y-16325484D01*
X765062Y-16325484D02*
X746015Y-16315960D01*
X746015Y-16315960D02*
X736491Y-16306436D01*
X736491Y-16306436D02*
X726967Y-16287388D01*
X726967Y-16287388D02*
X717443Y-16249293D01*
X717443Y-16249293D02*
X717443Y-16201674D01*
X717443Y-16201674D02*
X726967Y-16163579D01*
X726967Y-16163579D02*
X736491Y-16144531D01*
X736491Y-16144531D02*
X746015Y-16135008D01*
X746015Y-16135008D02*
X765062Y-16125484D01*
X955539Y-16125484D02*
X974586Y-16125484D01*
X974586Y-16125484D02*
X993634Y-16135008D01*
X993634Y-16135008D02*
X1003158Y-16144531D01*
X1003158Y-16144531D02*
X1012682Y-16163579D01*
X1012682Y-16163579D02*
X1022205Y-16201674D01*
X1022205Y-16201674D02*
X1022205Y-16249293D01*
X1022205Y-16249293D02*
X1012682Y-16287388D01*
X1012682Y-16287388D02*
X1003158Y-16306436D01*
X1003158Y-16306436D02*
X993634Y-16315960D01*
X993634Y-16315960D02*
X974586Y-16325484D01*
X974586Y-16325484D02*
X955539Y-16325484D01*
X955539Y-16325484D02*
X936491Y-16315960D01*
X936491Y-16315960D02*
X926967Y-16306436D01*
X926967Y-16306436D02*
X917443Y-16287388D01*
X917443Y-16287388D02*
X907920Y-16249293D01*
X907920Y-16249293D02*
X907920Y-16201674D01*
X907920Y-16201674D02*
X917443Y-16163579D01*
X917443Y-16163579D02*
X926967Y-16144531D01*
X926967Y-16144531D02*
X936491Y-16135008D01*
X936491Y-16135008D02*
X955539Y-16125484D01*
X1107920Y-16325484D02*
X1107920Y-16192150D01*
X1107920Y-16211198D02*
X1117444Y-16201674D01*
X1117444Y-16201674D02*
X1136491Y-16192150D01*
X1136491Y-16192150D02*
X1165063Y-16192150D01*
X1165063Y-16192150D02*
X1184110Y-16201674D01*
X1184110Y-16201674D02*
X1193634Y-16220722D01*
X1193634Y-16220722D02*
X1193634Y-16325484D01*
X1193634Y-16220722D02*
X1203158Y-16201674D01*
X1203158Y-16201674D02*
X1222205Y-16192150D01*
X1222205Y-16192150D02*
X1250777Y-16192150D01*
X1250777Y-16192150D02*
X1269825Y-16201674D01*
X1269825Y-16201674D02*
X1279348Y-16220722D01*
X1279348Y-16220722D02*
X1279348Y-16325484D01*
X1374586Y-16325484D02*
X1374586Y-16192150D01*
X1374586Y-16211198D02*
X1384110Y-16201674D01*
X1384110Y-16201674D02*
X1403158Y-16192150D01*
X1403158Y-16192150D02*
X1431729Y-16192150D01*
X1431729Y-16192150D02*
X1450777Y-16201674D01*
X1450777Y-16201674D02*
X1460301Y-16220722D01*
X1460301Y-16220722D02*
X1460301Y-16325484D01*
X1460301Y-16220722D02*
X1469824Y-16201674D01*
X1469824Y-16201674D02*
X1488872Y-16192150D01*
X1488872Y-16192150D02*
X1517443Y-16192150D01*
X1517443Y-16192150D02*
X1536491Y-16201674D01*
X1536491Y-16201674D02*
X1546015Y-16220722D01*
X1546015Y-16220722D02*
X1546015Y-16325484D01*
X1936491Y-16115960D02*
X1765063Y-16373103D01*
X2193634Y-16125484D02*
X2212682Y-16125484D01*
X2212682Y-16125484D02*
X2231729Y-16135008D01*
X2231729Y-16135008D02*
X2241253Y-16144531D01*
X2241253Y-16144531D02*
X2250777Y-16163579D01*
X2250777Y-16163579D02*
X2260301Y-16201674D01*
X2260301Y-16201674D02*
X2260301Y-16249293D01*
X2260301Y-16249293D02*
X2250777Y-16287388D01*
X2250777Y-16287388D02*
X2241253Y-16306436D01*
X2241253Y-16306436D02*
X2231729Y-16315960D01*
X2231729Y-16315960D02*
X2212682Y-16325484D01*
X2212682Y-16325484D02*
X2193634Y-16325484D01*
X2193634Y-16325484D02*
X2174587Y-16315960D01*
X2174587Y-16315960D02*
X2165063Y-16306436D01*
X2165063Y-16306436D02*
X2155539Y-16287388D01*
X2155539Y-16287388D02*
X2146015Y-16249293D01*
X2146015Y-16249293D02*
X2146015Y-16201674D01*
X2146015Y-16201674D02*
X2155539Y-16163579D01*
X2155539Y-16163579D02*
X2165063Y-16144531D01*
X2165063Y-16144531D02*
X2174587Y-16135008D01*
X2174587Y-16135008D02*
X2193634Y-16125484D01*
X2346015Y-16306436D02*
X2355539Y-16315960D01*
X2355539Y-16315960D02*
X2346015Y-16325484D01*
X2346015Y-16325484D02*
X2336491Y-16315960D01*
X2336491Y-16315960D02*
X2346015Y-16306436D01*
X2346015Y-16306436D02*
X2346015Y-16325484D01*
X2479348Y-16125484D02*
X2498396Y-16125484D01*
X2498396Y-16125484D02*
X2517444Y-16135008D01*
X2517444Y-16135008D02*
X2526968Y-16144531D01*
X2526968Y-16144531D02*
X2536491Y-16163579D01*
X2536491Y-16163579D02*
X2546015Y-16201674D01*
X2546015Y-16201674D02*
X2546015Y-16249293D01*
X2546015Y-16249293D02*
X2536491Y-16287388D01*
X2536491Y-16287388D02*
X2526968Y-16306436D01*
X2526968Y-16306436D02*
X2517444Y-16315960D01*
X2517444Y-16315960D02*
X2498396Y-16325484D01*
X2498396Y-16325484D02*
X2479348Y-16325484D01*
X2479348Y-16325484D02*
X2460301Y-16315960D01*
X2460301Y-16315960D02*
X2450777Y-16306436D01*
X2450777Y-16306436D02*
X2441253Y-16287388D01*
X2441253Y-16287388D02*
X2431729Y-16249293D01*
X2431729Y-16249293D02*
X2431729Y-16201674D01*
X2431729Y-16201674D02*
X2441253Y-16163579D01*
X2441253Y-16163579D02*
X2450777Y-16144531D01*
X2450777Y-16144531D02*
X2460301Y-16135008D01*
X2460301Y-16135008D02*
X2479348Y-16125484D01*
X2726968Y-16125484D02*
X2631729Y-16125484D01*
X2631729Y-16125484D02*
X2622206Y-16220722D01*
X2622206Y-16220722D02*
X2631729Y-16211198D01*
X2631729Y-16211198D02*
X2650777Y-16201674D01*
X2650777Y-16201674D02*
X2698396Y-16201674D01*
X2698396Y-16201674D02*
X2717444Y-16211198D01*
X2717444Y-16211198D02*
X2726968Y-16220722D01*
X2726968Y-16220722D02*
X2736491Y-16239769D01*
X2736491Y-16239769D02*
X2736491Y-16287388D01*
X2736491Y-16287388D02*
X2726968Y-16306436D01*
X2726968Y-16306436D02*
X2717444Y-16315960D01*
X2717444Y-16315960D02*
X2698396Y-16325484D01*
X2698396Y-16325484D02*
X2650777Y-16325484D01*
X2650777Y-16325484D02*
X2631729Y-16315960D01*
X2631729Y-16315960D02*
X2622206Y-16306436D01*
X2831729Y-16325484D02*
X2869825Y-16325484D01*
X2869825Y-16325484D02*
X2888872Y-16315960D01*
X2888872Y-16315960D02*
X2898396Y-16306436D01*
X2898396Y-16306436D02*
X2917444Y-16277865D01*
X2917444Y-16277865D02*
X2926967Y-16239769D01*
X2926967Y-16239769D02*
X2926967Y-16163579D01*
X2926967Y-16163579D02*
X2917444Y-16144531D01*
X2917444Y-16144531D02*
X2907920Y-16135008D01*
X2907920Y-16135008D02*
X2888872Y-16125484D01*
X2888872Y-16125484D02*
X2850777Y-16125484D01*
X2850777Y-16125484D02*
X2831729Y-16135008D01*
X2831729Y-16135008D02*
X2822206Y-16144531D01*
X2822206Y-16144531D02*
X2812682Y-16163579D01*
X2812682Y-16163579D02*
X2812682Y-16211198D01*
X2812682Y-16211198D02*
X2822206Y-16230246D01*
X2822206Y-16230246D02*
X2831729Y-16239769D01*
X2831729Y-16239769D02*
X2850777Y-16249293D01*
X2850777Y-16249293D02*
X2888872Y-16249293D01*
X2888872Y-16249293D02*
X2907920Y-16239769D01*
X2907920Y-16239769D02*
X2917444Y-16230246D01*
X2917444Y-16230246D02*
X2926967Y-16211198D01*
X3117444Y-16325484D02*
X3003158Y-16325484D01*
X3060301Y-16325484D02*
X3060301Y-16125484D01*
X3060301Y-16125484D02*
X3041253Y-16154055D01*
X3041253Y-16154055D02*
X3022206Y-16173103D01*
X3022206Y-16173103D02*
X3003158Y-16182627D01*
X3193634Y-16125484D02*
X3193634Y-16163579D01*
X3269825Y-16125484D02*
X3269825Y-16163579D01*
X3565063Y-16401674D02*
X3555539Y-16392150D01*
X3555539Y-16392150D02*
X3536491Y-16363579D01*
X3536491Y-16363579D02*
X3526968Y-16344531D01*
X3526968Y-16344531D02*
X3517444Y-16315960D01*
X3517444Y-16315960D02*
X3507920Y-16268341D01*
X3507920Y-16268341D02*
X3507920Y-16230246D01*
X3507920Y-16230246D02*
X3517444Y-16182627D01*
X3517444Y-16182627D02*
X3526968Y-16154055D01*
X3526968Y-16154055D02*
X3536491Y-16135008D01*
X3536491Y-16135008D02*
X3555539Y-16106436D01*
X3555539Y-16106436D02*
X3565063Y-16096912D01*
X3679348Y-16125484D02*
X3698396Y-16125484D01*
X3698396Y-16125484D02*
X3717444Y-16135008D01*
X3717444Y-16135008D02*
X3726968Y-16144531D01*
X3726968Y-16144531D02*
X3736491Y-16163579D01*
X3736491Y-16163579D02*
X3746015Y-16201674D01*
X3746015Y-16201674D02*
X3746015Y-16249293D01*
X3746015Y-16249293D02*
X3736491Y-16287388D01*
X3736491Y-16287388D02*
X3726968Y-16306436D01*
X3726968Y-16306436D02*
X3717444Y-16315960D01*
X3717444Y-16315960D02*
X3698396Y-16325484D01*
X3698396Y-16325484D02*
X3679348Y-16325484D01*
X3679348Y-16325484D02*
X3660301Y-16315960D01*
X3660301Y-16315960D02*
X3650777Y-16306436D01*
X3650777Y-16306436D02*
X3641253Y-16287388D01*
X3641253Y-16287388D02*
X3631729Y-16249293D01*
X3631729Y-16249293D02*
X3631729Y-16201674D01*
X3631729Y-16201674D02*
X3641253Y-16163579D01*
X3641253Y-16163579D02*
X3650777Y-16144531D01*
X3650777Y-16144531D02*
X3660301Y-16135008D01*
X3660301Y-16135008D02*
X3679348Y-16125484D01*
X3984110Y-16325484D02*
X3984110Y-16125484D01*
X4069825Y-16325484D02*
X4069825Y-16220722D01*
X4069825Y-16220722D02*
X4060301Y-16201674D01*
X4060301Y-16201674D02*
X4041253Y-16192150D01*
X4041253Y-16192150D02*
X4012682Y-16192150D01*
X4012682Y-16192150D02*
X3993634Y-16201674D01*
X3993634Y-16201674D02*
X3984110Y-16211198D01*
X4193634Y-16325484D02*
X4174587Y-16315960D01*
X4174587Y-16315960D02*
X4165063Y-16306436D01*
X4165063Y-16306436D02*
X4155539Y-16287388D01*
X4155539Y-16287388D02*
X4155539Y-16230246D01*
X4155539Y-16230246D02*
X4165063Y-16211198D01*
X4165063Y-16211198D02*
X4174587Y-16201674D01*
X4174587Y-16201674D02*
X4193634Y-16192150D01*
X4193634Y-16192150D02*
X4222206Y-16192150D01*
X4222206Y-16192150D02*
X4241253Y-16201674D01*
X4241253Y-16201674D02*
X4250777Y-16211198D01*
X4250777Y-16211198D02*
X4260301Y-16230246D01*
X4260301Y-16230246D02*
X4260301Y-16287388D01*
X4260301Y-16287388D02*
X4250777Y-16306436D01*
X4250777Y-16306436D02*
X4241253Y-16315960D01*
X4241253Y-16315960D02*
X4222206Y-16325484D01*
X4222206Y-16325484D02*
X4193634Y-16325484D01*
X4374587Y-16325484D02*
X4355539Y-16315960D01*
X4355539Y-16315960D02*
X4346015Y-16296912D01*
X4346015Y-16296912D02*
X4346015Y-16125484D01*
X4526968Y-16315960D02*
X4507920Y-16325484D01*
X4507920Y-16325484D02*
X4469825Y-16325484D01*
X4469825Y-16325484D02*
X4450777Y-16315960D01*
X4450777Y-16315960D02*
X4441253Y-16296912D01*
X4441253Y-16296912D02*
X4441253Y-16220722D01*
X4441253Y-16220722D02*
X4450777Y-16201674D01*
X4450777Y-16201674D02*
X4469825Y-16192150D01*
X4469825Y-16192150D02*
X4507920Y-16192150D01*
X4507920Y-16192150D02*
X4526968Y-16201674D01*
X4526968Y-16201674D02*
X4536492Y-16220722D01*
X4536492Y-16220722D02*
X4536492Y-16239769D01*
X4536492Y-16239769D02*
X4441253Y-16258817D01*
X4612682Y-16315960D02*
X4631730Y-16325484D01*
X4631730Y-16325484D02*
X4669825Y-16325484D01*
X4669825Y-16325484D02*
X4688873Y-16315960D01*
X4688873Y-16315960D02*
X4698396Y-16296912D01*
X4698396Y-16296912D02*
X4698396Y-16287388D01*
X4698396Y-16287388D02*
X4688873Y-16268341D01*
X4688873Y-16268341D02*
X4669825Y-16258817D01*
X4669825Y-16258817D02*
X4641253Y-16258817D01*
X4641253Y-16258817D02*
X4622206Y-16249293D01*
X4622206Y-16249293D02*
X4612682Y-16230246D01*
X4612682Y-16230246D02*
X4612682Y-16220722D01*
X4612682Y-16220722D02*
X4622206Y-16201674D01*
X4622206Y-16201674D02*
X4641253Y-16192150D01*
X4641253Y-16192150D02*
X4669825Y-16192150D01*
X4669825Y-16192150D02*
X4688873Y-16201674D01*
X4936492Y-16249293D02*
X5088873Y-16249293D01*
X5012682Y-16325484D02*
X5012682Y-16173103D01*
X5326968Y-16144531D02*
X5336492Y-16135008D01*
X5336492Y-16135008D02*
X5355539Y-16125484D01*
X5355539Y-16125484D02*
X5403158Y-16125484D01*
X5403158Y-16125484D02*
X5422206Y-16135008D01*
X5422206Y-16135008D02*
X5431730Y-16144531D01*
X5431730Y-16144531D02*
X5441254Y-16163579D01*
X5441254Y-16163579D02*
X5441254Y-16182627D01*
X5441254Y-16182627D02*
X5431730Y-16211198D01*
X5431730Y-16211198D02*
X5317444Y-16325484D01*
X5317444Y-16325484D02*
X5441254Y-16325484D01*
X5669825Y-16315960D02*
X5688873Y-16325484D01*
X5688873Y-16325484D02*
X5726968Y-16325484D01*
X5726968Y-16325484D02*
X5746015Y-16315960D01*
X5746015Y-16315960D02*
X5755539Y-16296912D01*
X5755539Y-16296912D02*
X5755539Y-16287388D01*
X5755539Y-16287388D02*
X5746015Y-16268341D01*
X5746015Y-16268341D02*
X5726968Y-16258817D01*
X5726968Y-16258817D02*
X5698396Y-16258817D01*
X5698396Y-16258817D02*
X5679349Y-16249293D01*
X5679349Y-16249293D02*
X5669825Y-16230246D01*
X5669825Y-16230246D02*
X5669825Y-16220722D01*
X5669825Y-16220722D02*
X5679349Y-16201674D01*
X5679349Y-16201674D02*
X5698396Y-16192150D01*
X5698396Y-16192150D02*
X5726968Y-16192150D01*
X5726968Y-16192150D02*
X5746015Y-16201674D01*
X5869825Y-16325484D02*
X5850777Y-16315960D01*
X5850777Y-16315960D02*
X5841254Y-16296912D01*
X5841254Y-16296912D02*
X5841254Y-16125484D01*
X5974587Y-16325484D02*
X5955539Y-16315960D01*
X5955539Y-16315960D02*
X5946015Y-16306436D01*
X5946015Y-16306436D02*
X5936492Y-16287388D01*
X5936492Y-16287388D02*
X5936492Y-16230246D01*
X5936492Y-16230246D02*
X5946015Y-16211198D01*
X5946015Y-16211198D02*
X5955539Y-16201674D01*
X5955539Y-16201674D02*
X5974587Y-16192150D01*
X5974587Y-16192150D02*
X6003158Y-16192150D01*
X6003158Y-16192150D02*
X6022206Y-16201674D01*
X6022206Y-16201674D02*
X6031730Y-16211198D01*
X6031730Y-16211198D02*
X6041254Y-16230246D01*
X6041254Y-16230246D02*
X6041254Y-16287388D01*
X6041254Y-16287388D02*
X6031730Y-16306436D01*
X6031730Y-16306436D02*
X6022206Y-16315960D01*
X6022206Y-16315960D02*
X6003158Y-16325484D01*
X6003158Y-16325484D02*
X5974587Y-16325484D01*
X6098396Y-16192150D02*
X6174587Y-16192150D01*
X6126968Y-16125484D02*
X6126968Y-16296912D01*
X6126968Y-16296912D02*
X6136492Y-16315960D01*
X6136492Y-16315960D02*
X6155539Y-16325484D01*
X6155539Y-16325484D02*
X6174587Y-16325484D01*
X6231730Y-16315960D02*
X6250777Y-16325484D01*
X6250777Y-16325484D02*
X6288873Y-16325484D01*
X6288873Y-16325484D02*
X6307920Y-16315960D01*
X6307920Y-16315960D02*
X6317444Y-16296912D01*
X6317444Y-16296912D02*
X6317444Y-16287388D01*
X6317444Y-16287388D02*
X6307920Y-16268341D01*
X6307920Y-16268341D02*
X6288873Y-16258817D01*
X6288873Y-16258817D02*
X6260301Y-16258817D01*
X6260301Y-16258817D02*
X6241254Y-16249293D01*
X6241254Y-16249293D02*
X6231730Y-16230246D01*
X6231730Y-16230246D02*
X6231730Y-16220722D01*
X6231730Y-16220722D02*
X6241254Y-16201674D01*
X6241254Y-16201674D02*
X6260301Y-16192150D01*
X6260301Y-16192150D02*
X6288873Y-16192150D01*
X6288873Y-16192150D02*
X6307920Y-16201674D01*
X6384111Y-16401674D02*
X6393635Y-16392150D01*
X6393635Y-16392150D02*
X6412682Y-16363579D01*
X6412682Y-16363579D02*
X6422206Y-16344531D01*
X6422206Y-16344531D02*
X6431730Y-16315960D01*
X6431730Y-16315960D02*
X6441254Y-16268341D01*
X6441254Y-16268341D02*
X6441254Y-16230246D01*
X6441254Y-16230246D02*
X6431730Y-16182627D01*
X6431730Y-16182627D02*
X6422206Y-16154055D01*
X6422206Y-16154055D02*
X6412682Y-16135008D01*
X6412682Y-16135008D02*
X6393635Y-16106436D01*
X6393635Y-16106436D02*
X6384111Y-16096912D01*
X-210000Y-16404000D02*
X-10000Y-16604000D01*
X-10000Y-16404000D02*
X-210000Y-16604000D01*
X-39289Y-16574711D02*
X-39289Y-16433289D01*
X-180711Y-16433289D01*
X-180711Y-16574711D01*
X-39289Y-16574711D01*
X241253Y-16414531D02*
X250777Y-16405008D01*
X250777Y-16405008D02*
X269824Y-16395484D01*
X269824Y-16395484D02*
X317444Y-16395484D01*
X317444Y-16395484D02*
X336491Y-16405008D01*
X336491Y-16405008D02*
X346015Y-16414531D01*
X346015Y-16414531D02*
X355539Y-16433579D01*
X355539Y-16433579D02*
X355539Y-16452627D01*
X355539Y-16452627D02*
X346015Y-16481198D01*
X346015Y-16481198D02*
X231729Y-16595484D01*
X231729Y-16595484D02*
X355539Y-16595484D01*
X441253Y-16576436D02*
X450777Y-16585960D01*
X450777Y-16585960D02*
X441253Y-16595484D01*
X441253Y-16595484D02*
X431729Y-16585960D01*
X431729Y-16585960D02*
X441253Y-16576436D01*
X441253Y-16576436D02*
X441253Y-16595484D01*
X631729Y-16395484D02*
X536491Y-16395484D01*
X536491Y-16395484D02*
X526967Y-16490722D01*
X526967Y-16490722D02*
X536491Y-16481198D01*
X536491Y-16481198D02*
X555539Y-16471674D01*
X555539Y-16471674D02*
X603158Y-16471674D01*
X603158Y-16471674D02*
X622205Y-16481198D01*
X622205Y-16481198D02*
X631729Y-16490722D01*
X631729Y-16490722D02*
X641253Y-16509769D01*
X641253Y-16509769D02*
X641253Y-16557388D01*
X641253Y-16557388D02*
X631729Y-16576436D01*
X631729Y-16576436D02*
X622205Y-16585960D01*
X622205Y-16585960D02*
X603158Y-16595484D01*
X603158Y-16595484D02*
X555539Y-16595484D01*
X555539Y-16595484D02*
X536491Y-16585960D01*
X536491Y-16585960D02*
X526967Y-16576436D01*
X765062Y-16395484D02*
X784110Y-16395484D01*
X784110Y-16395484D02*
X803158Y-16405008D01*
X803158Y-16405008D02*
X812682Y-16414531D01*
X812682Y-16414531D02*
X822205Y-16433579D01*
X822205Y-16433579D02*
X831729Y-16471674D01*
X831729Y-16471674D02*
X831729Y-16519293D01*
X831729Y-16519293D02*
X822205Y-16557388D01*
X822205Y-16557388D02*
X812682Y-16576436D01*
X812682Y-16576436D02*
X803158Y-16585960D01*
X803158Y-16585960D02*
X784110Y-16595484D01*
X784110Y-16595484D02*
X765062Y-16595484D01*
X765062Y-16595484D02*
X746015Y-16585960D01*
X746015Y-16585960D02*
X736491Y-16576436D01*
X736491Y-16576436D02*
X726967Y-16557388D01*
X726967Y-16557388D02*
X717443Y-16519293D01*
X717443Y-16519293D02*
X717443Y-16471674D01*
X717443Y-16471674D02*
X726967Y-16433579D01*
X726967Y-16433579D02*
X736491Y-16414531D01*
X736491Y-16414531D02*
X746015Y-16405008D01*
X746015Y-16405008D02*
X765062Y-16395484D01*
X955539Y-16395484D02*
X974586Y-16395484D01*
X974586Y-16395484D02*
X993634Y-16405008D01*
X993634Y-16405008D02*
X1003158Y-16414531D01*
X1003158Y-16414531D02*
X1012682Y-16433579D01*
X1012682Y-16433579D02*
X1022205Y-16471674D01*
X1022205Y-16471674D02*
X1022205Y-16519293D01*
X1022205Y-16519293D02*
X1012682Y-16557388D01*
X1012682Y-16557388D02*
X1003158Y-16576436D01*
X1003158Y-16576436D02*
X993634Y-16585960D01*
X993634Y-16585960D02*
X974586Y-16595484D01*
X974586Y-16595484D02*
X955539Y-16595484D01*
X955539Y-16595484D02*
X936491Y-16585960D01*
X936491Y-16585960D02*
X926967Y-16576436D01*
X926967Y-16576436D02*
X917443Y-16557388D01*
X917443Y-16557388D02*
X907920Y-16519293D01*
X907920Y-16519293D02*
X907920Y-16471674D01*
X907920Y-16471674D02*
X917443Y-16433579D01*
X917443Y-16433579D02*
X926967Y-16414531D01*
X926967Y-16414531D02*
X936491Y-16405008D01*
X936491Y-16405008D02*
X955539Y-16395484D01*
X1107920Y-16595484D02*
X1107920Y-16462150D01*
X1107920Y-16481198D02*
X1117444Y-16471674D01*
X1117444Y-16471674D02*
X1136491Y-16462150D01*
X1136491Y-16462150D02*
X1165063Y-16462150D01*
X1165063Y-16462150D02*
X1184110Y-16471674D01*
X1184110Y-16471674D02*
X1193634Y-16490722D01*
X1193634Y-16490722D02*
X1193634Y-16595484D01*
X1193634Y-16490722D02*
X1203158Y-16471674D01*
X1203158Y-16471674D02*
X1222205Y-16462150D01*
X1222205Y-16462150D02*
X1250777Y-16462150D01*
X1250777Y-16462150D02*
X1269825Y-16471674D01*
X1269825Y-16471674D02*
X1279348Y-16490722D01*
X1279348Y-16490722D02*
X1279348Y-16595484D01*
X1374586Y-16595484D02*
X1374586Y-16462150D01*
X1374586Y-16481198D02*
X1384110Y-16471674D01*
X1384110Y-16471674D02*
X1403158Y-16462150D01*
X1403158Y-16462150D02*
X1431729Y-16462150D01*
X1431729Y-16462150D02*
X1450777Y-16471674D01*
X1450777Y-16471674D02*
X1460301Y-16490722D01*
X1460301Y-16490722D02*
X1460301Y-16595484D01*
X1460301Y-16490722D02*
X1469824Y-16471674D01*
X1469824Y-16471674D02*
X1488872Y-16462150D01*
X1488872Y-16462150D02*
X1517443Y-16462150D01*
X1517443Y-16462150D02*
X1536491Y-16471674D01*
X1536491Y-16471674D02*
X1546015Y-16490722D01*
X1546015Y-16490722D02*
X1546015Y-16595484D01*
X1936491Y-16385960D02*
X1765063Y-16643103D01*
X2193634Y-16395484D02*
X2212682Y-16395484D01*
X2212682Y-16395484D02*
X2231729Y-16405008D01*
X2231729Y-16405008D02*
X2241253Y-16414531D01*
X2241253Y-16414531D02*
X2250777Y-16433579D01*
X2250777Y-16433579D02*
X2260301Y-16471674D01*
X2260301Y-16471674D02*
X2260301Y-16519293D01*
X2260301Y-16519293D02*
X2250777Y-16557388D01*
X2250777Y-16557388D02*
X2241253Y-16576436D01*
X2241253Y-16576436D02*
X2231729Y-16585960D01*
X2231729Y-16585960D02*
X2212682Y-16595484D01*
X2212682Y-16595484D02*
X2193634Y-16595484D01*
X2193634Y-16595484D02*
X2174587Y-16585960D01*
X2174587Y-16585960D02*
X2165063Y-16576436D01*
X2165063Y-16576436D02*
X2155539Y-16557388D01*
X2155539Y-16557388D02*
X2146015Y-16519293D01*
X2146015Y-16519293D02*
X2146015Y-16471674D01*
X2146015Y-16471674D02*
X2155539Y-16433579D01*
X2155539Y-16433579D02*
X2165063Y-16414531D01*
X2165063Y-16414531D02*
X2174587Y-16405008D01*
X2174587Y-16405008D02*
X2193634Y-16395484D01*
X2346015Y-16576436D02*
X2355539Y-16585960D01*
X2355539Y-16585960D02*
X2346015Y-16595484D01*
X2346015Y-16595484D02*
X2336491Y-16585960D01*
X2336491Y-16585960D02*
X2346015Y-16576436D01*
X2346015Y-16576436D02*
X2346015Y-16595484D01*
X2479348Y-16395484D02*
X2498396Y-16395484D01*
X2498396Y-16395484D02*
X2517444Y-16405008D01*
X2517444Y-16405008D02*
X2526968Y-16414531D01*
X2526968Y-16414531D02*
X2536491Y-16433579D01*
X2536491Y-16433579D02*
X2546015Y-16471674D01*
X2546015Y-16471674D02*
X2546015Y-16519293D01*
X2546015Y-16519293D02*
X2536491Y-16557388D01*
X2536491Y-16557388D02*
X2526968Y-16576436D01*
X2526968Y-16576436D02*
X2517444Y-16585960D01*
X2517444Y-16585960D02*
X2498396Y-16595484D01*
X2498396Y-16595484D02*
X2479348Y-16595484D01*
X2479348Y-16595484D02*
X2460301Y-16585960D01*
X2460301Y-16585960D02*
X2450777Y-16576436D01*
X2450777Y-16576436D02*
X2441253Y-16557388D01*
X2441253Y-16557388D02*
X2431729Y-16519293D01*
X2431729Y-16519293D02*
X2431729Y-16471674D01*
X2431729Y-16471674D02*
X2441253Y-16433579D01*
X2441253Y-16433579D02*
X2450777Y-16414531D01*
X2450777Y-16414531D02*
X2460301Y-16405008D01*
X2460301Y-16405008D02*
X2479348Y-16395484D01*
X2641253Y-16595484D02*
X2679348Y-16595484D01*
X2679348Y-16595484D02*
X2698396Y-16585960D01*
X2698396Y-16585960D02*
X2707920Y-16576436D01*
X2707920Y-16576436D02*
X2726968Y-16547865D01*
X2726968Y-16547865D02*
X2736491Y-16509769D01*
X2736491Y-16509769D02*
X2736491Y-16433579D01*
X2736491Y-16433579D02*
X2726968Y-16414531D01*
X2726968Y-16414531D02*
X2717444Y-16405008D01*
X2717444Y-16405008D02*
X2698396Y-16395484D01*
X2698396Y-16395484D02*
X2660301Y-16395484D01*
X2660301Y-16395484D02*
X2641253Y-16405008D01*
X2641253Y-16405008D02*
X2631729Y-16414531D01*
X2631729Y-16414531D02*
X2622206Y-16433579D01*
X2622206Y-16433579D02*
X2622206Y-16481198D01*
X2622206Y-16481198D02*
X2631729Y-16500246D01*
X2631729Y-16500246D02*
X2641253Y-16509769D01*
X2641253Y-16509769D02*
X2660301Y-16519293D01*
X2660301Y-16519293D02*
X2698396Y-16519293D01*
X2698396Y-16519293D02*
X2717444Y-16509769D01*
X2717444Y-16509769D02*
X2726968Y-16500246D01*
X2726968Y-16500246D02*
X2736491Y-16481198D01*
X2850777Y-16481198D02*
X2831729Y-16471674D01*
X2831729Y-16471674D02*
X2822206Y-16462150D01*
X2822206Y-16462150D02*
X2812682Y-16443103D01*
X2812682Y-16443103D02*
X2812682Y-16433579D01*
X2812682Y-16433579D02*
X2822206Y-16414531D01*
X2822206Y-16414531D02*
X2831729Y-16405008D01*
X2831729Y-16405008D02*
X2850777Y-16395484D01*
X2850777Y-16395484D02*
X2888872Y-16395484D01*
X2888872Y-16395484D02*
X2907920Y-16405008D01*
X2907920Y-16405008D02*
X2917444Y-16414531D01*
X2917444Y-16414531D02*
X2926967Y-16433579D01*
X2926967Y-16433579D02*
X2926967Y-16443103D01*
X2926967Y-16443103D02*
X2917444Y-16462150D01*
X2917444Y-16462150D02*
X2907920Y-16471674D01*
X2907920Y-16471674D02*
X2888872Y-16481198D01*
X2888872Y-16481198D02*
X2850777Y-16481198D01*
X2850777Y-16481198D02*
X2831729Y-16490722D01*
X2831729Y-16490722D02*
X2822206Y-16500246D01*
X2822206Y-16500246D02*
X2812682Y-16519293D01*
X2812682Y-16519293D02*
X2812682Y-16557388D01*
X2812682Y-16557388D02*
X2822206Y-16576436D01*
X2822206Y-16576436D02*
X2831729Y-16585960D01*
X2831729Y-16585960D02*
X2850777Y-16595484D01*
X2850777Y-16595484D02*
X2888872Y-16595484D01*
X2888872Y-16595484D02*
X2907920Y-16585960D01*
X2907920Y-16585960D02*
X2917444Y-16576436D01*
X2917444Y-16576436D02*
X2926967Y-16557388D01*
X2926967Y-16557388D02*
X2926967Y-16519293D01*
X2926967Y-16519293D02*
X2917444Y-16500246D01*
X2917444Y-16500246D02*
X2907920Y-16490722D01*
X2907920Y-16490722D02*
X2888872Y-16481198D01*
X3098396Y-16462150D02*
X3098396Y-16595484D01*
X3050777Y-16385960D02*
X3003158Y-16528817D01*
X3003158Y-16528817D02*
X3126967Y-16528817D01*
X3193634Y-16395484D02*
X3193634Y-16433579D01*
X3269825Y-16395484D02*
X3269825Y-16433579D01*
X3565063Y-16671674D02*
X3555539Y-16662150D01*
X3555539Y-16662150D02*
X3536491Y-16633579D01*
X3536491Y-16633579D02*
X3526968Y-16614531D01*
X3526968Y-16614531D02*
X3517444Y-16585960D01*
X3517444Y-16585960D02*
X3507920Y-16538341D01*
X3507920Y-16538341D02*
X3507920Y-16500246D01*
X3507920Y-16500246D02*
X3517444Y-16452627D01*
X3517444Y-16452627D02*
X3526968Y-16424055D01*
X3526968Y-16424055D02*
X3536491Y-16405008D01*
X3536491Y-16405008D02*
X3555539Y-16376436D01*
X3555539Y-16376436D02*
X3565063Y-16366912D01*
X3726968Y-16462150D02*
X3726968Y-16595484D01*
X3679348Y-16385960D02*
X3631729Y-16528817D01*
X3631729Y-16528817D02*
X3755539Y-16528817D01*
X3984110Y-16595484D02*
X3984110Y-16395484D01*
X4069825Y-16595484D02*
X4069825Y-16490722D01*
X4069825Y-16490722D02*
X4060301Y-16471674D01*
X4060301Y-16471674D02*
X4041253Y-16462150D01*
X4041253Y-16462150D02*
X4012682Y-16462150D01*
X4012682Y-16462150D02*
X3993634Y-16471674D01*
X3993634Y-16471674D02*
X3984110Y-16481198D01*
X4193634Y-16595484D02*
X4174587Y-16585960D01*
X4174587Y-16585960D02*
X4165063Y-16576436D01*
X4165063Y-16576436D02*
X4155539Y-16557388D01*
X4155539Y-16557388D02*
X4155539Y-16500246D01*
X4155539Y-16500246D02*
X4165063Y-16481198D01*
X4165063Y-16481198D02*
X4174587Y-16471674D01*
X4174587Y-16471674D02*
X4193634Y-16462150D01*
X4193634Y-16462150D02*
X4222206Y-16462150D01*
X4222206Y-16462150D02*
X4241253Y-16471674D01*
X4241253Y-16471674D02*
X4250777Y-16481198D01*
X4250777Y-16481198D02*
X4260301Y-16500246D01*
X4260301Y-16500246D02*
X4260301Y-16557388D01*
X4260301Y-16557388D02*
X4250777Y-16576436D01*
X4250777Y-16576436D02*
X4241253Y-16585960D01*
X4241253Y-16585960D02*
X4222206Y-16595484D01*
X4222206Y-16595484D02*
X4193634Y-16595484D01*
X4374587Y-16595484D02*
X4355539Y-16585960D01*
X4355539Y-16585960D02*
X4346015Y-16566912D01*
X4346015Y-16566912D02*
X4346015Y-16395484D01*
X4526968Y-16585960D02*
X4507920Y-16595484D01*
X4507920Y-16595484D02*
X4469825Y-16595484D01*
X4469825Y-16595484D02*
X4450777Y-16585960D01*
X4450777Y-16585960D02*
X4441253Y-16566912D01*
X4441253Y-16566912D02*
X4441253Y-16490722D01*
X4441253Y-16490722D02*
X4450777Y-16471674D01*
X4450777Y-16471674D02*
X4469825Y-16462150D01*
X4469825Y-16462150D02*
X4507920Y-16462150D01*
X4507920Y-16462150D02*
X4526968Y-16471674D01*
X4526968Y-16471674D02*
X4536492Y-16490722D01*
X4536492Y-16490722D02*
X4536492Y-16509769D01*
X4536492Y-16509769D02*
X4441253Y-16528817D01*
X4612682Y-16585960D02*
X4631730Y-16595484D01*
X4631730Y-16595484D02*
X4669825Y-16595484D01*
X4669825Y-16595484D02*
X4688873Y-16585960D01*
X4688873Y-16585960D02*
X4698396Y-16566912D01*
X4698396Y-16566912D02*
X4698396Y-16557388D01*
X4698396Y-16557388D02*
X4688873Y-16538341D01*
X4688873Y-16538341D02*
X4669825Y-16528817D01*
X4669825Y-16528817D02*
X4641253Y-16528817D01*
X4641253Y-16528817D02*
X4622206Y-16519293D01*
X4622206Y-16519293D02*
X4612682Y-16500246D01*
X4612682Y-16500246D02*
X4612682Y-16490722D01*
X4612682Y-16490722D02*
X4622206Y-16471674D01*
X4622206Y-16471674D02*
X4641253Y-16462150D01*
X4641253Y-16462150D02*
X4669825Y-16462150D01*
X4669825Y-16462150D02*
X4688873Y-16471674D01*
X4765063Y-16671674D02*
X4774587Y-16662150D01*
X4774587Y-16662150D02*
X4793634Y-16633579D01*
X4793634Y-16633579D02*
X4803158Y-16614531D01*
X4803158Y-16614531D02*
X4812682Y-16585960D01*
X4812682Y-16585960D02*
X4822206Y-16538341D01*
X4822206Y-16538341D02*
X4822206Y-16500246D01*
X4822206Y-16500246D02*
X4812682Y-16452627D01*
X4812682Y-16452627D02*
X4803158Y-16424055D01*
X4803158Y-16424055D02*
X4793634Y-16405008D01*
X4793634Y-16405008D02*
X4774587Y-16376436D01*
X4774587Y-16376436D02*
X4765063Y-16366912D01*
X-210000Y-16724000D02*
X-10000Y-16924000D01*
X-10000Y-16724000D02*
X-210000Y-16924000D01*
X-110000Y-16924000D02*
X-10000Y-16824000D01*
X-110000Y-16724000D01*
X-210000Y-16824000D01*
X-110000Y-16924000D01*
X346015Y-16715484D02*
X250777Y-16715484D01*
X250777Y-16715484D02*
X241253Y-16810722D01*
X241253Y-16810722D02*
X250777Y-16801198D01*
X250777Y-16801198D02*
X269824Y-16791674D01*
X269824Y-16791674D02*
X317444Y-16791674D01*
X317444Y-16791674D02*
X336491Y-16801198D01*
X336491Y-16801198D02*
X346015Y-16810722D01*
X346015Y-16810722D02*
X355539Y-16829770D01*
X355539Y-16829770D02*
X355539Y-16877389D01*
X355539Y-16877389D02*
X346015Y-16896436D01*
X346015Y-16896436D02*
X336491Y-16905960D01*
X336491Y-16905960D02*
X317444Y-16915484D01*
X317444Y-16915484D02*
X269824Y-16915484D01*
X269824Y-16915484D02*
X250777Y-16905960D01*
X250777Y-16905960D02*
X241253Y-16896436D01*
X441253Y-16896436D02*
X450777Y-16905960D01*
X450777Y-16905960D02*
X441253Y-16915484D01*
X441253Y-16915484D02*
X431729Y-16905960D01*
X431729Y-16905960D02*
X441253Y-16896436D01*
X441253Y-16896436D02*
X441253Y-16915484D01*
X631729Y-16715484D02*
X536491Y-16715484D01*
X536491Y-16715484D02*
X526967Y-16810722D01*
X526967Y-16810722D02*
X536491Y-16801198D01*
X536491Y-16801198D02*
X555539Y-16791674D01*
X555539Y-16791674D02*
X603158Y-16791674D01*
X603158Y-16791674D02*
X622205Y-16801198D01*
X622205Y-16801198D02*
X631729Y-16810722D01*
X631729Y-16810722D02*
X641253Y-16829770D01*
X641253Y-16829770D02*
X641253Y-16877389D01*
X641253Y-16877389D02*
X631729Y-16896436D01*
X631729Y-16896436D02*
X622205Y-16905960D01*
X622205Y-16905960D02*
X603158Y-16915484D01*
X603158Y-16915484D02*
X555539Y-16915484D01*
X555539Y-16915484D02*
X536491Y-16905960D01*
X536491Y-16905960D02*
X526967Y-16896436D01*
X765062Y-16715484D02*
X784110Y-16715484D01*
X784110Y-16715484D02*
X803158Y-16725008D01*
X803158Y-16725008D02*
X812682Y-16734531D01*
X812682Y-16734531D02*
X822205Y-16753579D01*
X822205Y-16753579D02*
X831729Y-16791674D01*
X831729Y-16791674D02*
X831729Y-16839293D01*
X831729Y-16839293D02*
X822205Y-16877389D01*
X822205Y-16877389D02*
X812682Y-16896436D01*
X812682Y-16896436D02*
X803158Y-16905960D01*
X803158Y-16905960D02*
X784110Y-16915484D01*
X784110Y-16915484D02*
X765062Y-16915484D01*
X765062Y-16915484D02*
X746015Y-16905960D01*
X746015Y-16905960D02*
X736491Y-16896436D01*
X736491Y-16896436D02*
X726967Y-16877389D01*
X726967Y-16877389D02*
X717443Y-16839293D01*
X717443Y-16839293D02*
X717443Y-16791674D01*
X717443Y-16791674D02*
X726967Y-16753579D01*
X726967Y-16753579D02*
X736491Y-16734531D01*
X736491Y-16734531D02*
X746015Y-16725008D01*
X746015Y-16725008D02*
X765062Y-16715484D01*
X955539Y-16715484D02*
X974586Y-16715484D01*
X974586Y-16715484D02*
X993634Y-16725008D01*
X993634Y-16725008D02*
X1003158Y-16734531D01*
X1003158Y-16734531D02*
X1012682Y-16753579D01*
X1012682Y-16753579D02*
X1022205Y-16791674D01*
X1022205Y-16791674D02*
X1022205Y-16839293D01*
X1022205Y-16839293D02*
X1012682Y-16877389D01*
X1012682Y-16877389D02*
X1003158Y-16896436D01*
X1003158Y-16896436D02*
X993634Y-16905960D01*
X993634Y-16905960D02*
X974586Y-16915484D01*
X974586Y-16915484D02*
X955539Y-16915484D01*
X955539Y-16915484D02*
X936491Y-16905960D01*
X936491Y-16905960D02*
X926967Y-16896436D01*
X926967Y-16896436D02*
X917443Y-16877389D01*
X917443Y-16877389D02*
X907920Y-16839293D01*
X907920Y-16839293D02*
X907920Y-16791674D01*
X907920Y-16791674D02*
X917443Y-16753579D01*
X917443Y-16753579D02*
X926967Y-16734531D01*
X926967Y-16734531D02*
X936491Y-16725008D01*
X936491Y-16725008D02*
X955539Y-16715484D01*
X1107920Y-16915484D02*
X1107920Y-16782150D01*
X1107920Y-16801198D02*
X1117444Y-16791674D01*
X1117444Y-16791674D02*
X1136491Y-16782150D01*
X1136491Y-16782150D02*
X1165063Y-16782150D01*
X1165063Y-16782150D02*
X1184110Y-16791674D01*
X1184110Y-16791674D02*
X1193634Y-16810722D01*
X1193634Y-16810722D02*
X1193634Y-16915484D01*
X1193634Y-16810722D02*
X1203158Y-16791674D01*
X1203158Y-16791674D02*
X1222205Y-16782150D01*
X1222205Y-16782150D02*
X1250777Y-16782150D01*
X1250777Y-16782150D02*
X1269825Y-16791674D01*
X1269825Y-16791674D02*
X1279348Y-16810722D01*
X1279348Y-16810722D02*
X1279348Y-16915484D01*
X1374586Y-16915484D02*
X1374586Y-16782150D01*
X1374586Y-16801198D02*
X1384110Y-16791674D01*
X1384110Y-16791674D02*
X1403158Y-16782150D01*
X1403158Y-16782150D02*
X1431729Y-16782150D01*
X1431729Y-16782150D02*
X1450777Y-16791674D01*
X1450777Y-16791674D02*
X1460301Y-16810722D01*
X1460301Y-16810722D02*
X1460301Y-16915484D01*
X1460301Y-16810722D02*
X1469824Y-16791674D01*
X1469824Y-16791674D02*
X1488872Y-16782150D01*
X1488872Y-16782150D02*
X1517443Y-16782150D01*
X1517443Y-16782150D02*
X1536491Y-16791674D01*
X1536491Y-16791674D02*
X1546015Y-16810722D01*
X1546015Y-16810722D02*
X1546015Y-16915484D01*
X1936491Y-16705960D02*
X1765063Y-16963103D01*
X2193634Y-16715484D02*
X2212682Y-16715484D01*
X2212682Y-16715484D02*
X2231729Y-16725008D01*
X2231729Y-16725008D02*
X2241253Y-16734531D01*
X2241253Y-16734531D02*
X2250777Y-16753579D01*
X2250777Y-16753579D02*
X2260301Y-16791674D01*
X2260301Y-16791674D02*
X2260301Y-16839293D01*
X2260301Y-16839293D02*
X2250777Y-16877389D01*
X2250777Y-16877389D02*
X2241253Y-16896436D01*
X2241253Y-16896436D02*
X2231729Y-16905960D01*
X2231729Y-16905960D02*
X2212682Y-16915484D01*
X2212682Y-16915484D02*
X2193634Y-16915484D01*
X2193634Y-16915484D02*
X2174587Y-16905960D01*
X2174587Y-16905960D02*
X2165063Y-16896436D01*
X2165063Y-16896436D02*
X2155539Y-16877389D01*
X2155539Y-16877389D02*
X2146015Y-16839293D01*
X2146015Y-16839293D02*
X2146015Y-16791674D01*
X2146015Y-16791674D02*
X2155539Y-16753579D01*
X2155539Y-16753579D02*
X2165063Y-16734531D01*
X2165063Y-16734531D02*
X2174587Y-16725008D01*
X2174587Y-16725008D02*
X2193634Y-16715484D01*
X2346015Y-16896436D02*
X2355539Y-16905960D01*
X2355539Y-16905960D02*
X2346015Y-16915484D01*
X2346015Y-16915484D02*
X2336491Y-16905960D01*
X2336491Y-16905960D02*
X2346015Y-16896436D01*
X2346015Y-16896436D02*
X2346015Y-16915484D01*
X2431729Y-16734531D02*
X2441253Y-16725008D01*
X2441253Y-16725008D02*
X2460301Y-16715484D01*
X2460301Y-16715484D02*
X2507920Y-16715484D01*
X2507920Y-16715484D02*
X2526968Y-16725008D01*
X2526968Y-16725008D02*
X2536491Y-16734531D01*
X2536491Y-16734531D02*
X2546015Y-16753579D01*
X2546015Y-16753579D02*
X2546015Y-16772627D01*
X2546015Y-16772627D02*
X2536491Y-16801198D01*
X2536491Y-16801198D02*
X2422206Y-16915484D01*
X2422206Y-16915484D02*
X2546015Y-16915484D01*
X2736491Y-16915484D02*
X2622206Y-16915484D01*
X2679348Y-16915484D02*
X2679348Y-16715484D01*
X2679348Y-16715484D02*
X2660301Y-16744055D01*
X2660301Y-16744055D02*
X2641253Y-16763103D01*
X2641253Y-16763103D02*
X2622206Y-16772627D01*
X2907920Y-16715484D02*
X2869825Y-16715484D01*
X2869825Y-16715484D02*
X2850777Y-16725008D01*
X2850777Y-16725008D02*
X2841253Y-16734531D01*
X2841253Y-16734531D02*
X2822206Y-16763103D01*
X2822206Y-16763103D02*
X2812682Y-16801198D01*
X2812682Y-16801198D02*
X2812682Y-16877389D01*
X2812682Y-16877389D02*
X2822206Y-16896436D01*
X2822206Y-16896436D02*
X2831729Y-16905960D01*
X2831729Y-16905960D02*
X2850777Y-16915484D01*
X2850777Y-16915484D02*
X2888872Y-16915484D01*
X2888872Y-16915484D02*
X2907920Y-16905960D01*
X2907920Y-16905960D02*
X2917444Y-16896436D01*
X2917444Y-16896436D02*
X2926967Y-16877389D01*
X2926967Y-16877389D02*
X2926967Y-16829770D01*
X2926967Y-16829770D02*
X2917444Y-16810722D01*
X2917444Y-16810722D02*
X2907920Y-16801198D01*
X2907920Y-16801198D02*
X2888872Y-16791674D01*
X2888872Y-16791674D02*
X2850777Y-16791674D01*
X2850777Y-16791674D02*
X2831729Y-16801198D01*
X2831729Y-16801198D02*
X2822206Y-16810722D01*
X2822206Y-16810722D02*
X2812682Y-16829770D01*
X3107920Y-16715484D02*
X3012682Y-16715484D01*
X3012682Y-16715484D02*
X3003158Y-16810722D01*
X3003158Y-16810722D02*
X3012682Y-16801198D01*
X3012682Y-16801198D02*
X3031729Y-16791674D01*
X3031729Y-16791674D02*
X3079348Y-16791674D01*
X3079348Y-16791674D02*
X3098396Y-16801198D01*
X3098396Y-16801198D02*
X3107920Y-16810722D01*
X3107920Y-16810722D02*
X3117444Y-16829770D01*
X3117444Y-16829770D02*
X3117444Y-16877389D01*
X3117444Y-16877389D02*
X3107920Y-16896436D01*
X3107920Y-16896436D02*
X3098396Y-16905960D01*
X3098396Y-16905960D02*
X3079348Y-16915484D01*
X3079348Y-16915484D02*
X3031729Y-16915484D01*
X3031729Y-16915484D02*
X3012682Y-16905960D01*
X3012682Y-16905960D02*
X3003158Y-16896436D01*
X3193634Y-16715484D02*
X3193634Y-16753579D01*
X3269825Y-16715484D02*
X3269825Y-16753579D01*
X3565063Y-16991674D02*
X3555539Y-16982150D01*
X3555539Y-16982150D02*
X3536491Y-16953579D01*
X3536491Y-16953579D02*
X3526968Y-16934531D01*
X3526968Y-16934531D02*
X3517444Y-16905960D01*
X3517444Y-16905960D02*
X3507920Y-16858341D01*
X3507920Y-16858341D02*
X3507920Y-16820246D01*
X3507920Y-16820246D02*
X3517444Y-16772627D01*
X3517444Y-16772627D02*
X3526968Y-16744055D01*
X3526968Y-16744055D02*
X3536491Y-16725008D01*
X3536491Y-16725008D02*
X3555539Y-16696436D01*
X3555539Y-16696436D02*
X3565063Y-16686912D01*
X3622206Y-16715484D02*
X3746015Y-16715484D01*
X3746015Y-16715484D02*
X3679348Y-16791674D01*
X3679348Y-16791674D02*
X3707920Y-16791674D01*
X3707920Y-16791674D02*
X3726968Y-16801198D01*
X3726968Y-16801198D02*
X3736491Y-16810722D01*
X3736491Y-16810722D02*
X3746015Y-16829770D01*
X3746015Y-16829770D02*
X3746015Y-16877389D01*
X3746015Y-16877389D02*
X3736491Y-16896436D01*
X3736491Y-16896436D02*
X3726968Y-16905960D01*
X3726968Y-16905960D02*
X3707920Y-16915484D01*
X3707920Y-16915484D02*
X3650777Y-16915484D01*
X3650777Y-16915484D02*
X3631729Y-16905960D01*
X3631729Y-16905960D02*
X3622206Y-16896436D01*
X3869825Y-16715484D02*
X3888872Y-16715484D01*
X3888872Y-16715484D02*
X3907920Y-16725008D01*
X3907920Y-16725008D02*
X3917444Y-16734531D01*
X3917444Y-16734531D02*
X3926968Y-16753579D01*
X3926968Y-16753579D02*
X3936491Y-16791674D01*
X3936491Y-16791674D02*
X3936491Y-16839293D01*
X3936491Y-16839293D02*
X3926968Y-16877389D01*
X3926968Y-16877389D02*
X3917444Y-16896436D01*
X3917444Y-16896436D02*
X3907920Y-16905960D01*
X3907920Y-16905960D02*
X3888872Y-16915484D01*
X3888872Y-16915484D02*
X3869825Y-16915484D01*
X3869825Y-16915484D02*
X3850777Y-16905960D01*
X3850777Y-16905960D02*
X3841253Y-16896436D01*
X3841253Y-16896436D02*
X3831729Y-16877389D01*
X3831729Y-16877389D02*
X3822206Y-16839293D01*
X3822206Y-16839293D02*
X3822206Y-16791674D01*
X3822206Y-16791674D02*
X3831729Y-16753579D01*
X3831729Y-16753579D02*
X3841253Y-16734531D01*
X3841253Y-16734531D02*
X3850777Y-16725008D01*
X3850777Y-16725008D02*
X3869825Y-16715484D01*
X4174587Y-16915484D02*
X4174587Y-16715484D01*
X4260301Y-16915484D02*
X4260301Y-16810722D01*
X4260301Y-16810722D02*
X4250777Y-16791674D01*
X4250777Y-16791674D02*
X4231730Y-16782150D01*
X4231730Y-16782150D02*
X4203158Y-16782150D01*
X4203158Y-16782150D02*
X4184110Y-16791674D01*
X4184110Y-16791674D02*
X4174587Y-16801198D01*
X4384111Y-16915484D02*
X4365063Y-16905960D01*
X4365063Y-16905960D02*
X4355539Y-16896436D01*
X4355539Y-16896436D02*
X4346015Y-16877389D01*
X4346015Y-16877389D02*
X4346015Y-16820246D01*
X4346015Y-16820246D02*
X4355539Y-16801198D01*
X4355539Y-16801198D02*
X4365063Y-16791674D01*
X4365063Y-16791674D02*
X4384111Y-16782150D01*
X4384111Y-16782150D02*
X4412682Y-16782150D01*
X4412682Y-16782150D02*
X4431730Y-16791674D01*
X4431730Y-16791674D02*
X4441253Y-16801198D01*
X4441253Y-16801198D02*
X4450777Y-16820246D01*
X4450777Y-16820246D02*
X4450777Y-16877389D01*
X4450777Y-16877389D02*
X4441253Y-16896436D01*
X4441253Y-16896436D02*
X4431730Y-16905960D01*
X4431730Y-16905960D02*
X4412682Y-16915484D01*
X4412682Y-16915484D02*
X4384111Y-16915484D01*
X4565063Y-16915484D02*
X4546015Y-16905960D01*
X4546015Y-16905960D02*
X4536492Y-16886912D01*
X4536492Y-16886912D02*
X4536492Y-16715484D01*
X4717444Y-16905960D02*
X4698396Y-16915484D01*
X4698396Y-16915484D02*
X4660301Y-16915484D01*
X4660301Y-16915484D02*
X4641253Y-16905960D01*
X4641253Y-16905960D02*
X4631730Y-16886912D01*
X4631730Y-16886912D02*
X4631730Y-16810722D01*
X4631730Y-16810722D02*
X4641253Y-16791674D01*
X4641253Y-16791674D02*
X4660301Y-16782150D01*
X4660301Y-16782150D02*
X4698396Y-16782150D01*
X4698396Y-16782150D02*
X4717444Y-16791674D01*
X4717444Y-16791674D02*
X4726968Y-16810722D01*
X4726968Y-16810722D02*
X4726968Y-16829770D01*
X4726968Y-16829770D02*
X4631730Y-16848817D01*
X4803158Y-16905960D02*
X4822206Y-16915484D01*
X4822206Y-16915484D02*
X4860301Y-16915484D01*
X4860301Y-16915484D02*
X4879349Y-16905960D01*
X4879349Y-16905960D02*
X4888873Y-16886912D01*
X4888873Y-16886912D02*
X4888873Y-16877389D01*
X4888873Y-16877389D02*
X4879349Y-16858341D01*
X4879349Y-16858341D02*
X4860301Y-16848817D01*
X4860301Y-16848817D02*
X4831730Y-16848817D01*
X4831730Y-16848817D02*
X4812682Y-16839293D01*
X4812682Y-16839293D02*
X4803158Y-16820246D01*
X4803158Y-16820246D02*
X4803158Y-16810722D01*
X4803158Y-16810722D02*
X4812682Y-16791674D01*
X4812682Y-16791674D02*
X4831730Y-16782150D01*
X4831730Y-16782150D02*
X4860301Y-16782150D01*
X4860301Y-16782150D02*
X4879349Y-16791674D01*
X4955539Y-16991674D02*
X4965063Y-16982150D01*
X4965063Y-16982150D02*
X4984111Y-16953579D01*
X4984111Y-16953579D02*
X4993634Y-16934531D01*
X4993634Y-16934531D02*
X5003158Y-16905960D01*
X5003158Y-16905960D02*
X5012682Y-16858341D01*
X5012682Y-16858341D02*
X5012682Y-16820246D01*
X5012682Y-16820246D02*
X5003158Y-16772627D01*
X5003158Y-16772627D02*
X4993634Y-16744055D01*
X4993634Y-16744055D02*
X4984111Y-16725008D01*
X4984111Y-16725008D02*
X4965063Y-16696436D01*
X4965063Y-16696436D02*
X4955539Y-16686912D01*
M02*
