%TF.GenerationSoftware,KiCad,Pcbnew,7.0.6*%
%TF.CreationDate,2023-07-11T14:03:09+05:30*%
%TF.ProjectId,trainer kit arduino proto,74726169-6e65-4722-906b-697420617264,rev?*%
%TF.SameCoordinates,Original*%
%TF.FileFunction,Drillmap*%
%TF.FilePolarity,Positive*%
%FSLAX45Y45*%
G04 Gerber Fmt 4.5, Leading zero omitted, Abs format (unit mm)*
G04 Created by KiCad (PCBNEW 7.0.6) date 2023-07-11 14:03:09*
%MOMM*%
%LPD*%
G01*
G04 APERTURE LIST*
%ADD10C,0.100000*%
%ADD11C,0.200000*%
%ADD12C,0.070000*%
%ADD13C,0.080000*%
%ADD14C,0.090000*%
%ADD15C,0.550000*%
G04 APERTURE END LIST*
D10*
X0Y0D02*
X11226800Y0D01*
X11226800Y-13512800D01*
X0Y-13512800D01*
X0Y0D01*
D11*
D12*
X625400Y-7585000D02*
X695400Y-7655000D01*
X695400Y-7585000D02*
X625400Y-7655000D01*
X625400Y-8651800D02*
X695400Y-8721800D01*
X695400Y-8651800D02*
X625400Y-8721800D01*
X676200Y-9820200D02*
X746200Y-9890200D01*
X746200Y-9820200D02*
X676200Y-9890200D01*
X777800Y-168200D02*
X847800Y-238200D01*
X847800Y-168200D02*
X777800Y-238200D01*
X777800Y-676200D02*
X847800Y-746200D01*
X847800Y-676200D02*
X777800Y-746200D01*
X777800Y-10521050D02*
X847800Y-10591050D01*
X847800Y-10521050D02*
X777800Y-10591050D01*
X777800Y-11029050D02*
X847800Y-11099050D01*
X847800Y-11029050D02*
X777800Y-11099050D01*
X1133400Y-7585000D02*
X1203400Y-7655000D01*
X1203400Y-7585000D02*
X1133400Y-7655000D01*
X1133400Y-8651800D02*
X1203400Y-8721800D01*
X1203400Y-8651800D02*
X1133400Y-8721800D01*
X1184200Y-9820200D02*
X1254200Y-9890200D01*
X1254200Y-9820200D02*
X1184200Y-9890200D01*
X1844600Y-198300D02*
X1914600Y-268300D01*
X1914600Y-198300D02*
X1844600Y-268300D01*
X1844600Y-706300D02*
X1914600Y-776300D01*
X1914600Y-706300D02*
X1844600Y-776300D01*
X1895400Y-10521050D02*
X1965400Y-10591050D01*
X1965400Y-10521050D02*
X1895400Y-10591050D01*
X1895400Y-11029050D02*
X1965400Y-11099050D01*
X1965400Y-11029050D02*
X1895400Y-11099050D01*
X2911400Y-219000D02*
X2981400Y-289000D01*
X2981400Y-219000D02*
X2911400Y-289000D01*
X2911400Y-727000D02*
X2981400Y-797000D01*
X2981400Y-727000D02*
X2911400Y-797000D01*
X3063800Y-10470250D02*
X3133800Y-10540250D01*
X3133800Y-10470250D02*
X3063800Y-10540250D01*
X3063800Y-10978250D02*
X3133800Y-11048250D01*
X3133800Y-10978250D02*
X3063800Y-11048250D01*
X3927400Y-219000D02*
X3997400Y-289000D01*
X3997400Y-219000D02*
X3927400Y-289000D01*
X3927400Y-727000D02*
X3997400Y-797000D01*
X3997400Y-727000D02*
X3927400Y-797000D01*
X3927400Y-3724200D02*
X3997400Y-3794200D01*
X3997400Y-3724200D02*
X3927400Y-3794200D01*
X3927400Y-4232200D02*
X3997400Y-4302200D01*
X3997400Y-4232200D02*
X3927400Y-4302200D01*
X4181400Y-10459900D02*
X4251400Y-10529900D01*
X4251400Y-10459900D02*
X4181400Y-10529900D01*
X4181400Y-10967900D02*
X4251400Y-11037900D01*
X4251400Y-10967900D02*
X4181400Y-11037900D01*
X4283000Y-4232200D02*
X4353000Y-4302200D01*
X4353000Y-4232200D02*
X4283000Y-4302200D01*
X4791000Y-4232200D02*
X4861000Y-4302200D01*
X4861000Y-4232200D02*
X4791000Y-4302200D01*
X4943400Y-208650D02*
X5013400Y-278650D01*
X5013400Y-208650D02*
X4943400Y-278650D01*
X4943400Y-716650D02*
X5013400Y-786650D01*
X5013400Y-716650D02*
X4943400Y-786650D01*
X4943400Y-2505000D02*
X5013400Y-2575000D01*
X5013400Y-2505000D02*
X4943400Y-2575000D01*
X5248200Y-10459900D02*
X5318200Y-10529900D01*
X5318200Y-10459900D02*
X5248200Y-10529900D01*
X5248200Y-10967900D02*
X5318200Y-11037900D01*
X5318200Y-10967900D02*
X5248200Y-11037900D01*
X5451400Y-2505000D02*
X5521400Y-2575000D01*
X5521400Y-2505000D02*
X5451400Y-2575000D01*
X5959400Y-147500D02*
X6029400Y-217500D01*
X6029400Y-147500D02*
X5959400Y-217500D01*
X5959400Y-655500D02*
X6029400Y-725500D01*
X6029400Y-655500D02*
X5959400Y-725500D01*
X6213400Y-3063800D02*
X6283400Y-3133800D01*
X6283400Y-3063800D02*
X6213400Y-3133800D01*
X6213400Y-3571800D02*
X6283400Y-3641800D01*
X6283400Y-3571800D02*
X6213400Y-3641800D01*
X6416600Y-10459900D02*
X6486600Y-10529900D01*
X6486600Y-10459900D02*
X6416600Y-10529900D01*
X6416600Y-10967900D02*
X6486600Y-11037900D01*
X6486600Y-10967900D02*
X6416600Y-11037900D01*
X7077000Y-168200D02*
X7147000Y-238200D01*
X7147000Y-168200D02*
X7077000Y-238200D01*
X7077000Y-676200D02*
X7147000Y-746200D01*
X7147000Y-676200D02*
X7077000Y-746200D01*
X7534200Y-10470250D02*
X7604200Y-10540250D01*
X7604200Y-10470250D02*
X7534200Y-10540250D01*
X7534200Y-10978250D02*
X7604200Y-11048250D01*
X7604200Y-10978250D02*
X7534200Y-11048250D01*
X8143800Y-168200D02*
X8213800Y-238200D01*
X8213800Y-168200D02*
X8143800Y-238200D01*
X8143800Y-676200D02*
X8213800Y-746200D01*
X8213800Y-676200D02*
X8143800Y-746200D01*
X8651800Y-10480600D02*
X8721800Y-10550600D01*
X8721800Y-10480600D02*
X8651800Y-10550600D01*
X8651800Y-10988600D02*
X8721800Y-11058600D01*
X8721800Y-10988600D02*
X8651800Y-11058600D01*
X9755000Y-10480600D02*
X9825000Y-10550600D01*
X9825000Y-10480600D02*
X9755000Y-10550600D01*
X9755000Y-10988600D02*
X9825000Y-11058600D01*
X9825000Y-10988600D02*
X9755000Y-11058600D01*
X10887000Y-10480600D02*
X10957000Y-10550600D01*
X10957000Y-10480600D02*
X10887000Y-10550600D01*
X10887000Y-10988600D02*
X10957000Y-11058600D01*
X10957000Y-10988600D02*
X10887000Y-11058600D01*
D13*
X330400Y-11984000D02*
G75*
G03*
X330400Y-11984000I-40000J0D01*
G01*
X584400Y-11984000D02*
G75*
G03*
X584400Y-11984000I-40000J0D01*
G01*
X838400Y-11984000D02*
G75*
G03*
X838400Y-11984000I-40000J0D01*
G01*
X1450400Y-11984000D02*
G75*
G03*
X1450400Y-11984000I-40000J0D01*
G01*
X1704400Y-11984000D02*
G75*
G03*
X1704400Y-11984000I-40000J0D01*
G01*
X1958400Y-11984000D02*
G75*
G03*
X1958400Y-11984000I-40000J0D01*
G01*
X2057600Y-2590800D02*
G75*
G03*
X2057600Y-2590800I-40000J0D01*
G01*
X2057600Y-4114800D02*
G75*
G03*
X2057600Y-4114800I-40000J0D01*
G01*
X2057600Y-4673600D02*
G75*
G03*
X2057600Y-4673600I-40000J0D01*
G01*
X2057600Y-4927600D02*
G75*
G03*
X2057600Y-4927600I-40000J0D01*
G01*
X2057600Y-5181600D02*
G75*
G03*
X2057600Y-5181600I-40000J0D01*
G01*
X2057600Y-5435600D02*
G75*
G03*
X2057600Y-5435600I-40000J0D01*
G01*
X2057600Y-5689600D02*
G75*
G03*
X2057600Y-5689600I-40000J0D01*
G01*
X2057600Y-5943600D02*
G75*
G03*
X2057600Y-5943600I-40000J0D01*
G01*
X2057600Y-6197600D02*
G75*
G03*
X2057600Y-6197600I-40000J0D01*
G01*
X2057600Y-6451600D02*
G75*
G03*
X2057600Y-6451600I-40000J0D01*
G01*
X2311600Y-2590800D02*
G75*
G03*
X2311600Y-2590800I-40000J0D01*
G01*
X2311600Y-4114800D02*
G75*
G03*
X2311600Y-4114800I-40000J0D01*
G01*
X2565600Y-2590800D02*
G75*
G03*
X2565600Y-2590800I-40000J0D01*
G01*
X2565600Y-4114800D02*
G75*
G03*
X2565600Y-4114800I-40000J0D01*
G01*
X2570400Y-11984000D02*
G75*
G03*
X2570400Y-11984000I-40000J0D01*
G01*
X2819600Y-2590800D02*
G75*
G03*
X2819600Y-2590800I-40000J0D01*
G01*
X2819600Y-4114800D02*
G75*
G03*
X2819600Y-4114800I-40000J0D01*
G01*
X2824400Y-11984000D02*
G75*
G03*
X2824400Y-11984000I-40000J0D01*
G01*
X3073600Y-2590800D02*
G75*
G03*
X3073600Y-2590800I-40000J0D01*
G01*
X3073600Y-4114800D02*
G75*
G03*
X3073600Y-4114800I-40000J0D01*
G01*
X3073600Y-4673600D02*
G75*
G03*
X3073600Y-4673600I-40000J0D01*
G01*
X3073600Y-4927600D02*
G75*
G03*
X3073600Y-4927600I-40000J0D01*
G01*
X3073600Y-5181600D02*
G75*
G03*
X3073600Y-5181600I-40000J0D01*
G01*
X3073600Y-5435600D02*
G75*
G03*
X3073600Y-5435600I-40000J0D01*
G01*
X3073600Y-5689600D02*
G75*
G03*
X3073600Y-5689600I-40000J0D01*
G01*
X3073600Y-5943600D02*
G75*
G03*
X3073600Y-5943600I-40000J0D01*
G01*
X3073600Y-6197600D02*
G75*
G03*
X3073600Y-6197600I-40000J0D01*
G01*
X3073600Y-6451600D02*
G75*
G03*
X3073600Y-6451600I-40000J0D01*
G01*
X3078400Y-11984000D02*
G75*
G03*
X3078400Y-11984000I-40000J0D01*
G01*
X3690400Y-11984000D02*
G75*
G03*
X3690400Y-11984000I-40000J0D01*
G01*
X3944400Y-11984000D02*
G75*
G03*
X3944400Y-11984000I-40000J0D01*
G01*
X4198400Y-11984000D02*
G75*
G03*
X4198400Y-11984000I-40000J0D01*
G01*
X4810400Y-11984000D02*
G75*
G03*
X4810400Y-11984000I-40000J0D01*
G01*
X5028400Y-2871200D02*
G75*
G03*
X5028400Y-2871200I-40000J0D01*
G01*
X5028400Y-3633200D02*
G75*
G03*
X5028400Y-3633200I-40000J0D01*
G01*
X5064400Y-11984000D02*
G75*
G03*
X5064400Y-11984000I-40000J0D01*
G01*
X5282400Y-2871200D02*
G75*
G03*
X5282400Y-2871200I-40000J0D01*
G01*
X5282400Y-3633200D02*
G75*
G03*
X5282400Y-3633200I-40000J0D01*
G01*
X5318400Y-11984000D02*
G75*
G03*
X5318400Y-11984000I-40000J0D01*
G01*
X5536400Y-2871200D02*
G75*
G03*
X5536400Y-2871200I-40000J0D01*
G01*
X5536400Y-3633200D02*
G75*
G03*
X5536400Y-3633200I-40000J0D01*
G01*
X5790400Y-2871200D02*
G75*
G03*
X5790400Y-2871200I-40000J0D01*
G01*
X5790400Y-3633200D02*
G75*
G03*
X5790400Y-3633200I-40000J0D01*
G01*
X5930400Y-11984000D02*
G75*
G03*
X5930400Y-11984000I-40000J0D01*
G01*
X6184400Y-11984000D02*
G75*
G03*
X6184400Y-11984000I-40000J0D01*
G01*
X6438400Y-11984000D02*
G75*
G03*
X6438400Y-11984000I-40000J0D01*
G01*
X7050400Y-11984000D02*
G75*
G03*
X7050400Y-11984000I-40000J0D01*
G01*
X7304400Y-11984000D02*
G75*
G03*
X7304400Y-11984000I-40000J0D01*
G01*
X7558400Y-11984000D02*
G75*
G03*
X7558400Y-11984000I-40000J0D01*
G01*
X8170400Y-11984000D02*
G75*
G03*
X8170400Y-11984000I-40000J0D01*
G01*
X8424400Y-11984000D02*
G75*
G03*
X8424400Y-11984000I-40000J0D01*
G01*
X8678400Y-11984000D02*
G75*
G03*
X8678400Y-11984000I-40000J0D01*
G01*
X9290400Y-11984000D02*
G75*
G03*
X9290400Y-11984000I-40000J0D01*
G01*
X9544400Y-11984000D02*
G75*
G03*
X9544400Y-11984000I-40000J0D01*
G01*
X9798400Y-11984000D02*
G75*
G03*
X9798400Y-11984000I-40000J0D01*
G01*
X10410400Y-11984000D02*
G75*
G03*
X10410400Y-11984000I-40000J0D01*
G01*
X10664400Y-11984000D02*
G75*
G03*
X10664400Y-11984000I-40000J0D01*
G01*
X10918400Y-11984000D02*
G75*
G03*
X10918400Y-11984000I-40000J0D01*
G01*
D14*
X188800Y-361400D02*
X188800Y-451400D01*
X143800Y-406400D02*
X233800Y-406400D01*
X188800Y-10775400D02*
X188800Y-10865400D01*
X143800Y-10820400D02*
X233800Y-10820400D01*
X442800Y-361400D02*
X442800Y-451400D01*
X397800Y-406400D02*
X487800Y-406400D01*
X442800Y-10775400D02*
X442800Y-10865400D01*
X397800Y-10820400D02*
X487800Y-10820400D01*
X849200Y-7117800D02*
X849200Y-7207800D01*
X804200Y-7162800D02*
X894200Y-7162800D01*
X849200Y-8184600D02*
X849200Y-8274600D01*
X804200Y-8229600D02*
X894200Y-8229600D01*
X849200Y-9353000D02*
X849200Y-9443000D01*
X804200Y-9398000D02*
X894200Y-9398000D01*
X1103200Y-7117800D02*
X1103200Y-7207800D01*
X1058200Y-7162800D02*
X1148200Y-7162800D01*
X1103200Y-8184600D02*
X1103200Y-8274600D01*
X1058200Y-8229600D02*
X1148200Y-8229600D01*
X1103200Y-9353000D02*
X1103200Y-9443000D01*
X1058200Y-9398000D02*
X1148200Y-9398000D01*
X1208600Y-310600D02*
X1208600Y-400600D01*
X1163600Y-355600D02*
X1253600Y-355600D01*
X1357200Y-10775400D02*
X1357200Y-10865400D01*
X1312200Y-10820400D02*
X1402200Y-10820400D01*
X1462600Y-310600D02*
X1462600Y-400600D01*
X1417600Y-355600D02*
X1507600Y-355600D01*
X1611200Y-10775400D02*
X1611200Y-10865400D01*
X1566200Y-10820400D02*
X1656200Y-10820400D01*
X2271600Y-310600D02*
X2271600Y-400600D01*
X2226600Y-355600D02*
X2316600Y-355600D01*
X2525600Y-310600D02*
X2525600Y-400600D01*
X2480600Y-355600D02*
X2570600Y-355600D01*
X2525600Y-10775400D02*
X2525600Y-10865400D01*
X2480600Y-10820400D02*
X2570600Y-10820400D01*
X2779600Y-10775400D02*
X2779600Y-10865400D01*
X2734600Y-10820400D02*
X2824600Y-10820400D01*
X3313500Y-310600D02*
X3313500Y-400600D01*
X3268500Y-355600D02*
X3358500Y-355600D01*
X3567500Y-310600D02*
X3567500Y-400600D01*
X3522500Y-355600D02*
X3612500Y-355600D01*
X3643200Y-10775400D02*
X3643200Y-10865400D01*
X3598200Y-10820400D02*
X3688200Y-10820400D01*
X3897200Y-10775400D02*
X3897200Y-10865400D01*
X3852200Y-10820400D02*
X3942200Y-10820400D01*
X4329500Y-310600D02*
X4329500Y-400600D01*
X4284500Y-355600D02*
X4374500Y-355600D01*
X4583500Y-310600D02*
X4583500Y-400600D01*
X4538500Y-355600D02*
X4628500Y-355600D01*
X4734900Y-10775400D02*
X4734900Y-10865400D01*
X4689900Y-10820400D02*
X4779900Y-10820400D01*
X4988900Y-10775400D02*
X4988900Y-10865400D01*
X4943900Y-10820400D02*
X5033900Y-10820400D01*
X5396300Y-310600D02*
X5396300Y-400600D01*
X5351300Y-355600D02*
X5441300Y-355600D01*
X5580400Y-3996200D02*
X5580400Y-4086200D01*
X5535400Y-4041200D02*
X5625400Y-4041200D01*
X5580400Y-4250200D02*
X5580400Y-4340200D01*
X5535400Y-4295200D02*
X5625400Y-4295200D01*
X5650300Y-310600D02*
X5650300Y-400600D01*
X5605300Y-355600D02*
X5695300Y-355600D01*
X5878400Y-10775400D02*
X5878400Y-10865400D01*
X5833400Y-10820400D02*
X5923400Y-10820400D01*
X6132400Y-10775400D02*
X6132400Y-10865400D01*
X6087400Y-10820400D02*
X6177400Y-10820400D01*
X6437200Y-310600D02*
X6437200Y-400600D01*
X6392200Y-355600D02*
X6482200Y-355600D01*
X6691200Y-310600D02*
X6691200Y-400600D01*
X6646200Y-355600D02*
X6736200Y-355600D01*
X6970100Y-10775400D02*
X6970100Y-10865400D01*
X6925100Y-10820400D02*
X7015100Y-10820400D01*
X7224100Y-10775400D02*
X7224100Y-10865400D01*
X7179100Y-10820400D02*
X7269100Y-10820400D01*
X7504000Y-310600D02*
X7504000Y-400600D01*
X7459000Y-355600D02*
X7549000Y-355600D01*
X7758000Y-310600D02*
X7758000Y-400600D01*
X7713000Y-355600D02*
X7803000Y-355600D01*
X8087700Y-10775400D02*
X8087700Y-10865400D01*
X8042700Y-10820400D02*
X8132700Y-10820400D01*
X8341700Y-10775400D02*
X8341700Y-10865400D01*
X8296700Y-10820400D02*
X8386700Y-10820400D01*
X9231200Y-10775400D02*
X9231200Y-10865400D01*
X9186200Y-10820400D02*
X9276200Y-10820400D01*
X9485200Y-10775400D02*
X9485200Y-10865400D01*
X9440200Y-10820400D02*
X9530200Y-10820400D01*
X10348800Y-10775400D02*
X10348800Y-10865400D01*
X10303800Y-10820400D02*
X10393800Y-10820400D01*
X10602800Y-10775400D02*
X10602800Y-10865400D01*
X10557800Y-10820400D02*
X10647800Y-10820400D01*
D10*
X3894456Y-4988356D02*
X3894456Y-4917644D01*
X3823744Y-4917644D01*
X3823744Y-4988356D01*
X3894456Y-4988356D01*
X3894456Y-9814356D02*
X3894456Y-9743644D01*
X3823744Y-9743644D01*
X3823744Y-9814356D01*
X3894456Y-9814356D01*
X4148456Y-4988356D02*
X4148456Y-4917644D01*
X4077744Y-4917644D01*
X4077744Y-4988356D01*
X4148456Y-4988356D01*
X4148456Y-9814356D02*
X4148456Y-9743644D01*
X4077744Y-9743644D01*
X4077744Y-9814356D01*
X4148456Y-9814356D01*
X4402456Y-4988356D02*
X4402456Y-4917644D01*
X4331744Y-4917644D01*
X4331744Y-4988356D01*
X4402456Y-4988356D01*
X4402456Y-9814356D02*
X4402456Y-9743644D01*
X4331744Y-9743644D01*
X4331744Y-9814356D01*
X4402456Y-9814356D01*
X4656456Y-4988356D02*
X4656456Y-4917644D01*
X4585744Y-4917644D01*
X4585744Y-4988356D01*
X4656456Y-4988356D01*
X4656456Y-9814356D02*
X4656456Y-9743644D01*
X4585744Y-9743644D01*
X4585744Y-9814356D01*
X4656456Y-9814356D01*
X4910456Y-4988356D02*
X4910456Y-4917644D01*
X4839744Y-4917644D01*
X4839744Y-4988356D01*
X4910456Y-4988356D01*
X4910456Y-9814356D02*
X4910456Y-9743644D01*
X4839744Y-9743644D01*
X4839744Y-9814356D01*
X4910456Y-9814356D01*
X5164456Y-4988356D02*
X5164456Y-4917644D01*
X5093744Y-4917644D01*
X5093744Y-4988356D01*
X5164456Y-4988356D01*
X5164456Y-9814356D02*
X5164456Y-9743644D01*
X5093744Y-9743644D01*
X5093744Y-9814356D01*
X5164456Y-9814356D01*
X5418456Y-4988356D02*
X5418456Y-4917644D01*
X5347744Y-4917644D01*
X5347744Y-4988356D01*
X5418456Y-4988356D01*
X5672456Y-4988356D02*
X5672456Y-4917644D01*
X5601744Y-4917644D01*
X5601744Y-4988356D01*
X5672456Y-4988356D01*
X5672456Y-9814356D02*
X5672456Y-9743644D01*
X5601744Y-9743644D01*
X5601744Y-9814356D01*
X5672456Y-9814356D01*
X5926456Y-9814356D02*
X5926456Y-9743644D01*
X5855744Y-9743644D01*
X5855744Y-9814356D01*
X5926456Y-9814356D01*
X6078456Y-4988356D02*
X6078456Y-4917644D01*
X6007744Y-4917644D01*
X6007744Y-4988356D01*
X6078456Y-4988356D01*
X6180456Y-9814356D02*
X6180456Y-9743644D01*
X6109744Y-9743644D01*
X6109744Y-9814356D01*
X6180456Y-9814356D01*
X6332456Y-4988356D02*
X6332456Y-4917644D01*
X6261744Y-4917644D01*
X6261744Y-4988356D01*
X6332456Y-4988356D01*
X6434456Y-9814356D02*
X6434456Y-9743644D01*
X6363744Y-9743644D01*
X6363744Y-9814356D01*
X6434456Y-9814356D01*
X6586456Y-4988356D02*
X6586456Y-4917644D01*
X6515744Y-4917644D01*
X6515744Y-4988356D01*
X6586456Y-4988356D01*
X6688456Y-9814356D02*
X6688456Y-9743644D01*
X6617744Y-9743644D01*
X6617744Y-9814356D01*
X6688456Y-9814356D01*
X6840456Y-4988356D02*
X6840456Y-4917644D01*
X6769744Y-4917644D01*
X6769744Y-4988356D01*
X6840456Y-4988356D01*
X6942456Y-9814356D02*
X6942456Y-9743644D01*
X6871744Y-9743644D01*
X6871744Y-9814356D01*
X6942456Y-9814356D01*
X7094456Y-4988356D02*
X7094456Y-4917644D01*
X7023744Y-4917644D01*
X7023744Y-4988356D01*
X7094456Y-4988356D01*
X7196456Y-9814356D02*
X7196456Y-9743644D01*
X7125744Y-9743644D01*
X7125744Y-9814356D01*
X7196456Y-9814356D01*
X7348456Y-4988356D02*
X7348456Y-4917644D01*
X7277744Y-4917644D01*
X7277744Y-4988356D01*
X7348456Y-4988356D01*
X7450456Y-9814356D02*
X7450456Y-9743644D01*
X7379744Y-9743644D01*
X7379744Y-9814356D01*
X7450456Y-9814356D01*
X7602456Y-4988356D02*
X7602456Y-4917644D01*
X7531744Y-4917644D01*
X7531744Y-4988356D01*
X7602456Y-4988356D01*
X7856456Y-4988356D02*
X7856456Y-4917644D01*
X7785744Y-4917644D01*
X7785744Y-4988356D01*
X7856456Y-4988356D01*
X8100156Y-3489756D02*
X8100156Y-3419044D01*
X8029444Y-3419044D01*
X8029444Y-3489756D01*
X8100156Y-3489756D01*
X8110456Y-4988356D02*
X8110456Y-4917644D01*
X8039744Y-4917644D01*
X8039744Y-4988356D01*
X8110456Y-4988356D01*
X8364456Y-4988356D02*
X8364456Y-4917644D01*
X8293744Y-4917644D01*
X8293744Y-4988356D01*
X8364456Y-4988356D01*
X8860156Y-3489756D02*
X8860156Y-3419044D01*
X8789444Y-3419044D01*
X8789444Y-3489756D01*
X8860156Y-3489756D01*
D15*
X457200Y-1595800D02*
X732200Y-1320800D01*
X457200Y-1045800D01*
X182200Y-1320800D01*
X457200Y-1595800D01*
X544400Y-13178200D02*
X819400Y-12903200D01*
X544400Y-12628200D01*
X269400Y-12903200D01*
X544400Y-13178200D01*
X595200Y-3151600D02*
X870200Y-2876600D01*
X595200Y-2601600D01*
X320200Y-2876600D01*
X595200Y-3151600D01*
X595200Y-4186600D02*
X870200Y-3911600D01*
X595200Y-3636600D01*
X320200Y-3911600D01*
X595200Y-4186600D01*
X595200Y-5202600D02*
X870200Y-4927600D01*
X595200Y-4652600D01*
X320200Y-4927600D01*
X595200Y-5202600D01*
X595200Y-6237600D02*
X870200Y-5962600D01*
X595200Y-5687600D01*
X320200Y-5962600D01*
X595200Y-6237600D01*
X1492200Y-1595800D02*
X1767200Y-1320800D01*
X1492200Y-1045800D01*
X1217200Y-1320800D01*
X1492200Y-1595800D01*
X1670200Y-13178200D02*
X1945200Y-12903200D01*
X1670200Y-12628200D01*
X1395200Y-12903200D01*
X1670200Y-13178200D01*
X1833500Y-7687700D02*
X2108500Y-7412700D01*
X1833500Y-7137700D01*
X1558500Y-7412700D01*
X1833500Y-7687700D01*
X1833500Y-8722700D02*
X2108500Y-8447700D01*
X1833500Y-8172700D01*
X1558500Y-8447700D01*
X1833500Y-8722700D01*
X1833500Y-9757700D02*
X2108500Y-9482700D01*
X1833500Y-9207700D01*
X1558500Y-9482700D01*
X1833500Y-9757700D01*
X2527200Y-1595800D02*
X2802200Y-1320800D01*
X2527200Y-1045800D01*
X2252200Y-1320800D01*
X2527200Y-1595800D01*
X2784400Y-13178200D02*
X3059400Y-12903200D01*
X2784400Y-12628200D01*
X2509400Y-12903200D01*
X2784400Y-13178200D01*
X3556000Y-1595800D02*
X3831000Y-1320800D01*
X3556000Y-1045800D01*
X3281000Y-1320800D01*
X3556000Y-1595800D01*
X3904400Y-13178200D02*
X4179400Y-12903200D01*
X3904400Y-12628200D01*
X3629400Y-12903200D01*
X3904400Y-13178200D01*
X3998800Y-3119800D02*
X4273800Y-2844800D01*
X3998800Y-2569800D01*
X3723800Y-2844800D01*
X3998800Y-3119800D01*
X4591000Y-1595800D02*
X4866000Y-1320800D01*
X4591000Y-1045800D01*
X4316000Y-1320800D01*
X4591000Y-1595800D01*
X5024400Y-13178200D02*
X5299400Y-12903200D01*
X5024400Y-12628200D01*
X4749400Y-12903200D01*
X5024400Y-13178200D01*
X5626000Y-1595800D02*
X5901000Y-1320800D01*
X5626000Y-1045800D01*
X5351000Y-1320800D01*
X5626000Y-1595800D01*
X6144400Y-13178200D02*
X6419400Y-12903200D01*
X6144400Y-12628200D01*
X5869400Y-12903200D01*
X6144400Y-13178200D01*
X6661000Y-1595800D02*
X6936000Y-1320800D01*
X6661000Y-1045800D01*
X6386000Y-1320800D01*
X6661000Y-1595800D01*
X6894400Y-3018200D02*
X7169400Y-2743200D01*
X6894400Y-2468200D01*
X6619400Y-2743200D01*
X6894400Y-3018200D01*
X6945200Y-4288200D02*
X7220200Y-4013200D01*
X6945200Y-3738200D01*
X6670200Y-4013200D01*
X6945200Y-4288200D01*
X7264400Y-13178200D02*
X7539400Y-12903200D01*
X7264400Y-12628200D01*
X6989400Y-12903200D01*
X7264400Y-13178200D01*
X7696000Y-1595800D02*
X7971000Y-1320800D01*
X7696000Y-1045800D01*
X7421000Y-1320800D01*
X7696000Y-1595800D01*
X8384400Y-13178200D02*
X8659400Y-12903200D01*
X8384400Y-12628200D01*
X8109400Y-12903200D01*
X8384400Y-13178200D01*
X9485200Y-935400D02*
X9760200Y-660400D01*
X9485200Y-385400D01*
X9210200Y-660400D01*
X9485200Y-935400D01*
X9485200Y-2053000D02*
X9760200Y-1778000D01*
X9485200Y-1503000D01*
X9210200Y-1778000D01*
X9485200Y-2053000D01*
X9504400Y-13178200D02*
X9779400Y-12903200D01*
X9504400Y-12628200D01*
X9229400Y-12903200D01*
X9504400Y-13178200D01*
X10624400Y-13178200D02*
X10899400Y-12903200D01*
X10624400Y-12628200D01*
X10349400Y-12903200D01*
X10624400Y-13178200D01*
D11*
X255777Y-13829284D02*
X255777Y-13629284D01*
X255777Y-13629284D02*
X303396Y-13629284D01*
X303396Y-13629284D02*
X331967Y-13638808D01*
X331967Y-13638808D02*
X351015Y-13657855D01*
X351015Y-13657855D02*
X360539Y-13676903D01*
X360539Y-13676903D02*
X370062Y-13714998D01*
X370062Y-13714998D02*
X370062Y-13743569D01*
X370062Y-13743569D02*
X360539Y-13781665D01*
X360539Y-13781665D02*
X351015Y-13800712D01*
X351015Y-13800712D02*
X331967Y-13819760D01*
X331967Y-13819760D02*
X303396Y-13829284D01*
X303396Y-13829284D02*
X255777Y-13829284D01*
X455777Y-13829284D02*
X455777Y-13695950D01*
X455777Y-13734046D02*
X465301Y-13714998D01*
X465301Y-13714998D02*
X474824Y-13705474D01*
X474824Y-13705474D02*
X493872Y-13695950D01*
X493872Y-13695950D02*
X512920Y-13695950D01*
X579586Y-13829284D02*
X579586Y-13695950D01*
X579586Y-13629284D02*
X570063Y-13638808D01*
X570063Y-13638808D02*
X579586Y-13648331D01*
X579586Y-13648331D02*
X589110Y-13638808D01*
X589110Y-13638808D02*
X579586Y-13629284D01*
X579586Y-13629284D02*
X579586Y-13648331D01*
X703396Y-13829284D02*
X684348Y-13819760D01*
X684348Y-13819760D02*
X674824Y-13800712D01*
X674824Y-13800712D02*
X674824Y-13629284D01*
X808158Y-13829284D02*
X789110Y-13819760D01*
X789110Y-13819760D02*
X779586Y-13800712D01*
X779586Y-13800712D02*
X779586Y-13629284D01*
X1036729Y-13829284D02*
X1036729Y-13629284D01*
X1036729Y-13629284D02*
X1103396Y-13772141D01*
X1103396Y-13772141D02*
X1170063Y-13629284D01*
X1170063Y-13629284D02*
X1170063Y-13829284D01*
X1351015Y-13829284D02*
X1351015Y-13724522D01*
X1351015Y-13724522D02*
X1341491Y-13705474D01*
X1341491Y-13705474D02*
X1322444Y-13695950D01*
X1322444Y-13695950D02*
X1284348Y-13695950D01*
X1284348Y-13695950D02*
X1265301Y-13705474D01*
X1351015Y-13819760D02*
X1331967Y-13829284D01*
X1331967Y-13829284D02*
X1284348Y-13829284D01*
X1284348Y-13829284D02*
X1265301Y-13819760D01*
X1265301Y-13819760D02*
X1255777Y-13800712D01*
X1255777Y-13800712D02*
X1255777Y-13781665D01*
X1255777Y-13781665D02*
X1265301Y-13762617D01*
X1265301Y-13762617D02*
X1284348Y-13753093D01*
X1284348Y-13753093D02*
X1331967Y-13753093D01*
X1331967Y-13753093D02*
X1351015Y-13743569D01*
X1446253Y-13695950D02*
X1446253Y-13895950D01*
X1446253Y-13705474D02*
X1465301Y-13695950D01*
X1465301Y-13695950D02*
X1503396Y-13695950D01*
X1503396Y-13695950D02*
X1522443Y-13705474D01*
X1522443Y-13705474D02*
X1531967Y-13714998D01*
X1531967Y-13714998D02*
X1541491Y-13734046D01*
X1541491Y-13734046D02*
X1541491Y-13791188D01*
X1541491Y-13791188D02*
X1531967Y-13810236D01*
X1531967Y-13810236D02*
X1522443Y-13819760D01*
X1522443Y-13819760D02*
X1503396Y-13829284D01*
X1503396Y-13829284D02*
X1465301Y-13829284D01*
X1465301Y-13829284D02*
X1446253Y-13819760D01*
X1627205Y-13810236D02*
X1636729Y-13819760D01*
X1636729Y-13819760D02*
X1627205Y-13829284D01*
X1627205Y-13829284D02*
X1617682Y-13819760D01*
X1617682Y-13819760D02*
X1627205Y-13810236D01*
X1627205Y-13810236D02*
X1627205Y-13829284D01*
X1627205Y-13705474D02*
X1636729Y-13714998D01*
X1636729Y-13714998D02*
X1627205Y-13724522D01*
X1627205Y-13724522D02*
X1617682Y-13714998D01*
X1617682Y-13714998D02*
X1627205Y-13705474D01*
X1627205Y-13705474D02*
X1627205Y-13724522D01*
D12*
X-75000Y-14122800D02*
X-5000Y-14192800D01*
X-5000Y-14122800D02*
X-75000Y-14192800D01*
D11*
X293872Y-14049284D02*
X312920Y-14049284D01*
X312920Y-14049284D02*
X331967Y-14058808D01*
X331967Y-14058808D02*
X341491Y-14068331D01*
X341491Y-14068331D02*
X351015Y-14087379D01*
X351015Y-14087379D02*
X360539Y-14125474D01*
X360539Y-14125474D02*
X360539Y-14173093D01*
X360539Y-14173093D02*
X351015Y-14211188D01*
X351015Y-14211188D02*
X341491Y-14230236D01*
X341491Y-14230236D02*
X331967Y-14239760D01*
X331967Y-14239760D02*
X312920Y-14249284D01*
X312920Y-14249284D02*
X293872Y-14249284D01*
X293872Y-14249284D02*
X274824Y-14239760D01*
X274824Y-14239760D02*
X265301Y-14230236D01*
X265301Y-14230236D02*
X255777Y-14211188D01*
X255777Y-14211188D02*
X246253Y-14173093D01*
X246253Y-14173093D02*
X246253Y-14125474D01*
X246253Y-14125474D02*
X255777Y-14087379D01*
X255777Y-14087379D02*
X265301Y-14068331D01*
X265301Y-14068331D02*
X274824Y-14058808D01*
X274824Y-14058808D02*
X293872Y-14049284D01*
X446253Y-14230236D02*
X455777Y-14239760D01*
X455777Y-14239760D02*
X446253Y-14249284D01*
X446253Y-14249284D02*
X436729Y-14239760D01*
X436729Y-14239760D02*
X446253Y-14230236D01*
X446253Y-14230236D02*
X446253Y-14249284D01*
X522443Y-14049284D02*
X655777Y-14049284D01*
X655777Y-14049284D02*
X570063Y-14249284D01*
X770062Y-14049284D02*
X789110Y-14049284D01*
X789110Y-14049284D02*
X808158Y-14058808D01*
X808158Y-14058808D02*
X817682Y-14068331D01*
X817682Y-14068331D02*
X827205Y-14087379D01*
X827205Y-14087379D02*
X836729Y-14125474D01*
X836729Y-14125474D02*
X836729Y-14173093D01*
X836729Y-14173093D02*
X827205Y-14211188D01*
X827205Y-14211188D02*
X817682Y-14230236D01*
X817682Y-14230236D02*
X808158Y-14239760D01*
X808158Y-14239760D02*
X789110Y-14249284D01*
X789110Y-14249284D02*
X770062Y-14249284D01*
X770062Y-14249284D02*
X751015Y-14239760D01*
X751015Y-14239760D02*
X741491Y-14230236D01*
X741491Y-14230236D02*
X731967Y-14211188D01*
X731967Y-14211188D02*
X722443Y-14173093D01*
X722443Y-14173093D02*
X722443Y-14125474D01*
X722443Y-14125474D02*
X731967Y-14087379D01*
X731967Y-14087379D02*
X741491Y-14068331D01*
X741491Y-14068331D02*
X751015Y-14058808D01*
X751015Y-14058808D02*
X770062Y-14049284D01*
X960539Y-14049284D02*
X979586Y-14049284D01*
X979586Y-14049284D02*
X998634Y-14058808D01*
X998634Y-14058808D02*
X1008158Y-14068331D01*
X1008158Y-14068331D02*
X1017682Y-14087379D01*
X1017682Y-14087379D02*
X1027205Y-14125474D01*
X1027205Y-14125474D02*
X1027205Y-14173093D01*
X1027205Y-14173093D02*
X1017682Y-14211188D01*
X1017682Y-14211188D02*
X1008158Y-14230236D01*
X1008158Y-14230236D02*
X998634Y-14239760D01*
X998634Y-14239760D02*
X979586Y-14249284D01*
X979586Y-14249284D02*
X960539Y-14249284D01*
X960539Y-14249284D02*
X941491Y-14239760D01*
X941491Y-14239760D02*
X931967Y-14230236D01*
X931967Y-14230236D02*
X922443Y-14211188D01*
X922443Y-14211188D02*
X912920Y-14173093D01*
X912920Y-14173093D02*
X912920Y-14125474D01*
X912920Y-14125474D02*
X922443Y-14087379D01*
X922443Y-14087379D02*
X931967Y-14068331D01*
X931967Y-14068331D02*
X941491Y-14058808D01*
X941491Y-14058808D02*
X960539Y-14049284D01*
X1112920Y-14249284D02*
X1112920Y-14115950D01*
X1112920Y-14134998D02*
X1122444Y-14125474D01*
X1122444Y-14125474D02*
X1141491Y-14115950D01*
X1141491Y-14115950D02*
X1170063Y-14115950D01*
X1170063Y-14115950D02*
X1189110Y-14125474D01*
X1189110Y-14125474D02*
X1198634Y-14144522D01*
X1198634Y-14144522D02*
X1198634Y-14249284D01*
X1198634Y-14144522D02*
X1208158Y-14125474D01*
X1208158Y-14125474D02*
X1227205Y-14115950D01*
X1227205Y-14115950D02*
X1255777Y-14115950D01*
X1255777Y-14115950D02*
X1274825Y-14125474D01*
X1274825Y-14125474D02*
X1284348Y-14144522D01*
X1284348Y-14144522D02*
X1284348Y-14249284D01*
X1379586Y-14249284D02*
X1379586Y-14115950D01*
X1379586Y-14134998D02*
X1389110Y-14125474D01*
X1389110Y-14125474D02*
X1408158Y-14115950D01*
X1408158Y-14115950D02*
X1436729Y-14115950D01*
X1436729Y-14115950D02*
X1455777Y-14125474D01*
X1455777Y-14125474D02*
X1465301Y-14144522D01*
X1465301Y-14144522D02*
X1465301Y-14249284D01*
X1465301Y-14144522D02*
X1474824Y-14125474D01*
X1474824Y-14125474D02*
X1493872Y-14115950D01*
X1493872Y-14115950D02*
X1522443Y-14115950D01*
X1522443Y-14115950D02*
X1541491Y-14125474D01*
X1541491Y-14125474D02*
X1551015Y-14144522D01*
X1551015Y-14144522D02*
X1551015Y-14249284D01*
X1941491Y-14039760D02*
X1770063Y-14296903D01*
X2198634Y-14049284D02*
X2217682Y-14049284D01*
X2217682Y-14049284D02*
X2236729Y-14058808D01*
X2236729Y-14058808D02*
X2246253Y-14068331D01*
X2246253Y-14068331D02*
X2255777Y-14087379D01*
X2255777Y-14087379D02*
X2265301Y-14125474D01*
X2265301Y-14125474D02*
X2265301Y-14173093D01*
X2265301Y-14173093D02*
X2255777Y-14211188D01*
X2255777Y-14211188D02*
X2246253Y-14230236D01*
X2246253Y-14230236D02*
X2236729Y-14239760D01*
X2236729Y-14239760D02*
X2217682Y-14249284D01*
X2217682Y-14249284D02*
X2198634Y-14249284D01*
X2198634Y-14249284D02*
X2179587Y-14239760D01*
X2179587Y-14239760D02*
X2170063Y-14230236D01*
X2170063Y-14230236D02*
X2160539Y-14211188D01*
X2160539Y-14211188D02*
X2151015Y-14173093D01*
X2151015Y-14173093D02*
X2151015Y-14125474D01*
X2151015Y-14125474D02*
X2160539Y-14087379D01*
X2160539Y-14087379D02*
X2170063Y-14068331D01*
X2170063Y-14068331D02*
X2179587Y-14058808D01*
X2179587Y-14058808D02*
X2198634Y-14049284D01*
X2351015Y-14230236D02*
X2360539Y-14239760D01*
X2360539Y-14239760D02*
X2351015Y-14249284D01*
X2351015Y-14249284D02*
X2341491Y-14239760D01*
X2341491Y-14239760D02*
X2351015Y-14230236D01*
X2351015Y-14230236D02*
X2351015Y-14249284D01*
X2484348Y-14049284D02*
X2503396Y-14049284D01*
X2503396Y-14049284D02*
X2522444Y-14058808D01*
X2522444Y-14058808D02*
X2531968Y-14068331D01*
X2531968Y-14068331D02*
X2541491Y-14087379D01*
X2541491Y-14087379D02*
X2551015Y-14125474D01*
X2551015Y-14125474D02*
X2551015Y-14173093D01*
X2551015Y-14173093D02*
X2541491Y-14211188D01*
X2541491Y-14211188D02*
X2531968Y-14230236D01*
X2531968Y-14230236D02*
X2522444Y-14239760D01*
X2522444Y-14239760D02*
X2503396Y-14249284D01*
X2503396Y-14249284D02*
X2484348Y-14249284D01*
X2484348Y-14249284D02*
X2465301Y-14239760D01*
X2465301Y-14239760D02*
X2455777Y-14230236D01*
X2455777Y-14230236D02*
X2446253Y-14211188D01*
X2446253Y-14211188D02*
X2436729Y-14173093D01*
X2436729Y-14173093D02*
X2436729Y-14125474D01*
X2436729Y-14125474D02*
X2446253Y-14087379D01*
X2446253Y-14087379D02*
X2455777Y-14068331D01*
X2455777Y-14068331D02*
X2465301Y-14058808D01*
X2465301Y-14058808D02*
X2484348Y-14049284D01*
X2627206Y-14068331D02*
X2636729Y-14058808D01*
X2636729Y-14058808D02*
X2655777Y-14049284D01*
X2655777Y-14049284D02*
X2703396Y-14049284D01*
X2703396Y-14049284D02*
X2722444Y-14058808D01*
X2722444Y-14058808D02*
X2731968Y-14068331D01*
X2731968Y-14068331D02*
X2741491Y-14087379D01*
X2741491Y-14087379D02*
X2741491Y-14106427D01*
X2741491Y-14106427D02*
X2731968Y-14134998D01*
X2731968Y-14134998D02*
X2617682Y-14249284D01*
X2617682Y-14249284D02*
X2741491Y-14249284D01*
X2808158Y-14049284D02*
X2941491Y-14049284D01*
X2941491Y-14049284D02*
X2855777Y-14249284D01*
X3103396Y-14049284D02*
X3065301Y-14049284D01*
X3065301Y-14049284D02*
X3046253Y-14058808D01*
X3046253Y-14058808D02*
X3036729Y-14068331D01*
X3036729Y-14068331D02*
X3017682Y-14096903D01*
X3017682Y-14096903D02*
X3008158Y-14134998D01*
X3008158Y-14134998D02*
X3008158Y-14211188D01*
X3008158Y-14211188D02*
X3017682Y-14230236D01*
X3017682Y-14230236D02*
X3027206Y-14239760D01*
X3027206Y-14239760D02*
X3046253Y-14249284D01*
X3046253Y-14249284D02*
X3084348Y-14249284D01*
X3084348Y-14249284D02*
X3103396Y-14239760D01*
X3103396Y-14239760D02*
X3112920Y-14230236D01*
X3112920Y-14230236D02*
X3122444Y-14211188D01*
X3122444Y-14211188D02*
X3122444Y-14163569D01*
X3122444Y-14163569D02*
X3112920Y-14144522D01*
X3112920Y-14144522D02*
X3103396Y-14134998D01*
X3103396Y-14134998D02*
X3084348Y-14125474D01*
X3084348Y-14125474D02*
X3046253Y-14125474D01*
X3046253Y-14125474D02*
X3027206Y-14134998D01*
X3027206Y-14134998D02*
X3017682Y-14144522D01*
X3017682Y-14144522D02*
X3008158Y-14163569D01*
X3198634Y-14049284D02*
X3198634Y-14087379D01*
X3274825Y-14049284D02*
X3274825Y-14087379D01*
X3570063Y-14325474D02*
X3560539Y-14315950D01*
X3560539Y-14315950D02*
X3541491Y-14287379D01*
X3541491Y-14287379D02*
X3531968Y-14268331D01*
X3531968Y-14268331D02*
X3522444Y-14239760D01*
X3522444Y-14239760D02*
X3512920Y-14192141D01*
X3512920Y-14192141D02*
X3512920Y-14154046D01*
X3512920Y-14154046D02*
X3522444Y-14106427D01*
X3522444Y-14106427D02*
X3531968Y-14077855D01*
X3531968Y-14077855D02*
X3541491Y-14058808D01*
X3541491Y-14058808D02*
X3560539Y-14030236D01*
X3560539Y-14030236D02*
X3570063Y-14020712D01*
X3741491Y-14049284D02*
X3646253Y-14049284D01*
X3646253Y-14049284D02*
X3636729Y-14144522D01*
X3636729Y-14144522D02*
X3646253Y-14134998D01*
X3646253Y-14134998D02*
X3665301Y-14125474D01*
X3665301Y-14125474D02*
X3712920Y-14125474D01*
X3712920Y-14125474D02*
X3731968Y-14134998D01*
X3731968Y-14134998D02*
X3741491Y-14144522D01*
X3741491Y-14144522D02*
X3751015Y-14163569D01*
X3751015Y-14163569D02*
X3751015Y-14211188D01*
X3751015Y-14211188D02*
X3741491Y-14230236D01*
X3741491Y-14230236D02*
X3731968Y-14239760D01*
X3731968Y-14239760D02*
X3712920Y-14249284D01*
X3712920Y-14249284D02*
X3665301Y-14249284D01*
X3665301Y-14249284D02*
X3646253Y-14239760D01*
X3646253Y-14239760D02*
X3636729Y-14230236D01*
X3874825Y-14049284D02*
X3893872Y-14049284D01*
X3893872Y-14049284D02*
X3912920Y-14058808D01*
X3912920Y-14058808D02*
X3922444Y-14068331D01*
X3922444Y-14068331D02*
X3931968Y-14087379D01*
X3931968Y-14087379D02*
X3941491Y-14125474D01*
X3941491Y-14125474D02*
X3941491Y-14173093D01*
X3941491Y-14173093D02*
X3931968Y-14211188D01*
X3931968Y-14211188D02*
X3922444Y-14230236D01*
X3922444Y-14230236D02*
X3912920Y-14239760D01*
X3912920Y-14239760D02*
X3893872Y-14249284D01*
X3893872Y-14249284D02*
X3874825Y-14249284D01*
X3874825Y-14249284D02*
X3855777Y-14239760D01*
X3855777Y-14239760D02*
X3846253Y-14230236D01*
X3846253Y-14230236D02*
X3836729Y-14211188D01*
X3836729Y-14211188D02*
X3827206Y-14173093D01*
X3827206Y-14173093D02*
X3827206Y-14125474D01*
X3827206Y-14125474D02*
X3836729Y-14087379D01*
X3836729Y-14087379D02*
X3846253Y-14068331D01*
X3846253Y-14068331D02*
X3855777Y-14058808D01*
X3855777Y-14058808D02*
X3874825Y-14049284D01*
X4179587Y-14249284D02*
X4179587Y-14049284D01*
X4265301Y-14249284D02*
X4265301Y-14144522D01*
X4265301Y-14144522D02*
X4255777Y-14125474D01*
X4255777Y-14125474D02*
X4236730Y-14115950D01*
X4236730Y-14115950D02*
X4208158Y-14115950D01*
X4208158Y-14115950D02*
X4189110Y-14125474D01*
X4189110Y-14125474D02*
X4179587Y-14134998D01*
X4389111Y-14249284D02*
X4370063Y-14239760D01*
X4370063Y-14239760D02*
X4360539Y-14230236D01*
X4360539Y-14230236D02*
X4351015Y-14211188D01*
X4351015Y-14211188D02*
X4351015Y-14154046D01*
X4351015Y-14154046D02*
X4360539Y-14134998D01*
X4360539Y-14134998D02*
X4370063Y-14125474D01*
X4370063Y-14125474D02*
X4389111Y-14115950D01*
X4389111Y-14115950D02*
X4417682Y-14115950D01*
X4417682Y-14115950D02*
X4436730Y-14125474D01*
X4436730Y-14125474D02*
X4446253Y-14134998D01*
X4446253Y-14134998D02*
X4455777Y-14154046D01*
X4455777Y-14154046D02*
X4455777Y-14211188D01*
X4455777Y-14211188D02*
X4446253Y-14230236D01*
X4446253Y-14230236D02*
X4436730Y-14239760D01*
X4436730Y-14239760D02*
X4417682Y-14249284D01*
X4417682Y-14249284D02*
X4389111Y-14249284D01*
X4570063Y-14249284D02*
X4551015Y-14239760D01*
X4551015Y-14239760D02*
X4541492Y-14220712D01*
X4541492Y-14220712D02*
X4541492Y-14049284D01*
X4722444Y-14239760D02*
X4703396Y-14249284D01*
X4703396Y-14249284D02*
X4665301Y-14249284D01*
X4665301Y-14249284D02*
X4646253Y-14239760D01*
X4646253Y-14239760D02*
X4636730Y-14220712D01*
X4636730Y-14220712D02*
X4636730Y-14144522D01*
X4636730Y-14144522D02*
X4646253Y-14125474D01*
X4646253Y-14125474D02*
X4665301Y-14115950D01*
X4665301Y-14115950D02*
X4703396Y-14115950D01*
X4703396Y-14115950D02*
X4722444Y-14125474D01*
X4722444Y-14125474D02*
X4731968Y-14144522D01*
X4731968Y-14144522D02*
X4731968Y-14163569D01*
X4731968Y-14163569D02*
X4636730Y-14182617D01*
X4808158Y-14239760D02*
X4827206Y-14249284D01*
X4827206Y-14249284D02*
X4865301Y-14249284D01*
X4865301Y-14249284D02*
X4884349Y-14239760D01*
X4884349Y-14239760D02*
X4893873Y-14220712D01*
X4893873Y-14220712D02*
X4893873Y-14211188D01*
X4893873Y-14211188D02*
X4884349Y-14192141D01*
X4884349Y-14192141D02*
X4865301Y-14182617D01*
X4865301Y-14182617D02*
X4836730Y-14182617D01*
X4836730Y-14182617D02*
X4817682Y-14173093D01*
X4817682Y-14173093D02*
X4808158Y-14154046D01*
X4808158Y-14154046D02*
X4808158Y-14144522D01*
X4808158Y-14144522D02*
X4817682Y-14125474D01*
X4817682Y-14125474D02*
X4836730Y-14115950D01*
X4836730Y-14115950D02*
X4865301Y-14115950D01*
X4865301Y-14115950D02*
X4884349Y-14125474D01*
X4960539Y-14325474D02*
X4970063Y-14315950D01*
X4970063Y-14315950D02*
X4989111Y-14287379D01*
X4989111Y-14287379D02*
X4998634Y-14268331D01*
X4998634Y-14268331D02*
X5008158Y-14239760D01*
X5008158Y-14239760D02*
X5017682Y-14192141D01*
X5017682Y-14192141D02*
X5017682Y-14154046D01*
X5017682Y-14154046D02*
X5008158Y-14106427D01*
X5008158Y-14106427D02*
X4998634Y-14077855D01*
X4998634Y-14077855D02*
X4989111Y-14058808D01*
X4989111Y-14058808D02*
X4970063Y-14030236D01*
X4970063Y-14030236D02*
X4960539Y-14020712D01*
D13*
X-5000Y-14421800D02*
G75*
G03*
X-5000Y-14421800I-40000J0D01*
G01*
D11*
X293872Y-14313284D02*
X312920Y-14313284D01*
X312920Y-14313284D02*
X331967Y-14322808D01*
X331967Y-14322808D02*
X341491Y-14332331D01*
X341491Y-14332331D02*
X351015Y-14351379D01*
X351015Y-14351379D02*
X360539Y-14389474D01*
X360539Y-14389474D02*
X360539Y-14437093D01*
X360539Y-14437093D02*
X351015Y-14475188D01*
X351015Y-14475188D02*
X341491Y-14494236D01*
X341491Y-14494236D02*
X331967Y-14503760D01*
X331967Y-14503760D02*
X312920Y-14513284D01*
X312920Y-14513284D02*
X293872Y-14513284D01*
X293872Y-14513284D02*
X274824Y-14503760D01*
X274824Y-14503760D02*
X265301Y-14494236D01*
X265301Y-14494236D02*
X255777Y-14475188D01*
X255777Y-14475188D02*
X246253Y-14437093D01*
X246253Y-14437093D02*
X246253Y-14389474D01*
X246253Y-14389474D02*
X255777Y-14351379D01*
X255777Y-14351379D02*
X265301Y-14332331D01*
X265301Y-14332331D02*
X274824Y-14322808D01*
X274824Y-14322808D02*
X293872Y-14313284D01*
X446253Y-14494236D02*
X455777Y-14503760D01*
X455777Y-14503760D02*
X446253Y-14513284D01*
X446253Y-14513284D02*
X436729Y-14503760D01*
X436729Y-14503760D02*
X446253Y-14494236D01*
X446253Y-14494236D02*
X446253Y-14513284D01*
X570063Y-14398998D02*
X551015Y-14389474D01*
X551015Y-14389474D02*
X541491Y-14379950D01*
X541491Y-14379950D02*
X531967Y-14360903D01*
X531967Y-14360903D02*
X531967Y-14351379D01*
X531967Y-14351379D02*
X541491Y-14332331D01*
X541491Y-14332331D02*
X551015Y-14322808D01*
X551015Y-14322808D02*
X570063Y-14313284D01*
X570063Y-14313284D02*
X608158Y-14313284D01*
X608158Y-14313284D02*
X627205Y-14322808D01*
X627205Y-14322808D02*
X636729Y-14332331D01*
X636729Y-14332331D02*
X646253Y-14351379D01*
X646253Y-14351379D02*
X646253Y-14360903D01*
X646253Y-14360903D02*
X636729Y-14379950D01*
X636729Y-14379950D02*
X627205Y-14389474D01*
X627205Y-14389474D02*
X608158Y-14398998D01*
X608158Y-14398998D02*
X570063Y-14398998D01*
X570063Y-14398998D02*
X551015Y-14408522D01*
X551015Y-14408522D02*
X541491Y-14418046D01*
X541491Y-14418046D02*
X531967Y-14437093D01*
X531967Y-14437093D02*
X531967Y-14475188D01*
X531967Y-14475188D02*
X541491Y-14494236D01*
X541491Y-14494236D02*
X551015Y-14503760D01*
X551015Y-14503760D02*
X570063Y-14513284D01*
X570063Y-14513284D02*
X608158Y-14513284D01*
X608158Y-14513284D02*
X627205Y-14503760D01*
X627205Y-14503760D02*
X636729Y-14494236D01*
X636729Y-14494236D02*
X646253Y-14475188D01*
X646253Y-14475188D02*
X646253Y-14437093D01*
X646253Y-14437093D02*
X636729Y-14418046D01*
X636729Y-14418046D02*
X627205Y-14408522D01*
X627205Y-14408522D02*
X608158Y-14398998D01*
X770062Y-14313284D02*
X789110Y-14313284D01*
X789110Y-14313284D02*
X808158Y-14322808D01*
X808158Y-14322808D02*
X817682Y-14332331D01*
X817682Y-14332331D02*
X827205Y-14351379D01*
X827205Y-14351379D02*
X836729Y-14389474D01*
X836729Y-14389474D02*
X836729Y-14437093D01*
X836729Y-14437093D02*
X827205Y-14475188D01*
X827205Y-14475188D02*
X817682Y-14494236D01*
X817682Y-14494236D02*
X808158Y-14503760D01*
X808158Y-14503760D02*
X789110Y-14513284D01*
X789110Y-14513284D02*
X770062Y-14513284D01*
X770062Y-14513284D02*
X751015Y-14503760D01*
X751015Y-14503760D02*
X741491Y-14494236D01*
X741491Y-14494236D02*
X731967Y-14475188D01*
X731967Y-14475188D02*
X722443Y-14437093D01*
X722443Y-14437093D02*
X722443Y-14389474D01*
X722443Y-14389474D02*
X731967Y-14351379D01*
X731967Y-14351379D02*
X741491Y-14332331D01*
X741491Y-14332331D02*
X751015Y-14322808D01*
X751015Y-14322808D02*
X770062Y-14313284D01*
X960539Y-14313284D02*
X979586Y-14313284D01*
X979586Y-14313284D02*
X998634Y-14322808D01*
X998634Y-14322808D02*
X1008158Y-14332331D01*
X1008158Y-14332331D02*
X1017682Y-14351379D01*
X1017682Y-14351379D02*
X1027205Y-14389474D01*
X1027205Y-14389474D02*
X1027205Y-14437093D01*
X1027205Y-14437093D02*
X1017682Y-14475188D01*
X1017682Y-14475188D02*
X1008158Y-14494236D01*
X1008158Y-14494236D02*
X998634Y-14503760D01*
X998634Y-14503760D02*
X979586Y-14513284D01*
X979586Y-14513284D02*
X960539Y-14513284D01*
X960539Y-14513284D02*
X941491Y-14503760D01*
X941491Y-14503760D02*
X931967Y-14494236D01*
X931967Y-14494236D02*
X922443Y-14475188D01*
X922443Y-14475188D02*
X912920Y-14437093D01*
X912920Y-14437093D02*
X912920Y-14389474D01*
X912920Y-14389474D02*
X922443Y-14351379D01*
X922443Y-14351379D02*
X931967Y-14332331D01*
X931967Y-14332331D02*
X941491Y-14322808D01*
X941491Y-14322808D02*
X960539Y-14313284D01*
X1112920Y-14513284D02*
X1112920Y-14379950D01*
X1112920Y-14398998D02*
X1122444Y-14389474D01*
X1122444Y-14389474D02*
X1141491Y-14379950D01*
X1141491Y-14379950D02*
X1170063Y-14379950D01*
X1170063Y-14379950D02*
X1189110Y-14389474D01*
X1189110Y-14389474D02*
X1198634Y-14408522D01*
X1198634Y-14408522D02*
X1198634Y-14513284D01*
X1198634Y-14408522D02*
X1208158Y-14389474D01*
X1208158Y-14389474D02*
X1227205Y-14379950D01*
X1227205Y-14379950D02*
X1255777Y-14379950D01*
X1255777Y-14379950D02*
X1274825Y-14389474D01*
X1274825Y-14389474D02*
X1284348Y-14408522D01*
X1284348Y-14408522D02*
X1284348Y-14513284D01*
X1379586Y-14513284D02*
X1379586Y-14379950D01*
X1379586Y-14398998D02*
X1389110Y-14389474D01*
X1389110Y-14389474D02*
X1408158Y-14379950D01*
X1408158Y-14379950D02*
X1436729Y-14379950D01*
X1436729Y-14379950D02*
X1455777Y-14389474D01*
X1455777Y-14389474D02*
X1465301Y-14408522D01*
X1465301Y-14408522D02*
X1465301Y-14513284D01*
X1465301Y-14408522D02*
X1474824Y-14389474D01*
X1474824Y-14389474D02*
X1493872Y-14379950D01*
X1493872Y-14379950D02*
X1522443Y-14379950D01*
X1522443Y-14379950D02*
X1541491Y-14389474D01*
X1541491Y-14389474D02*
X1551015Y-14408522D01*
X1551015Y-14408522D02*
X1551015Y-14513284D01*
X1941491Y-14303760D02*
X1770063Y-14560903D01*
X2198634Y-14313284D02*
X2217682Y-14313284D01*
X2217682Y-14313284D02*
X2236729Y-14322808D01*
X2236729Y-14322808D02*
X2246253Y-14332331D01*
X2246253Y-14332331D02*
X2255777Y-14351379D01*
X2255777Y-14351379D02*
X2265301Y-14389474D01*
X2265301Y-14389474D02*
X2265301Y-14437093D01*
X2265301Y-14437093D02*
X2255777Y-14475188D01*
X2255777Y-14475188D02*
X2246253Y-14494236D01*
X2246253Y-14494236D02*
X2236729Y-14503760D01*
X2236729Y-14503760D02*
X2217682Y-14513284D01*
X2217682Y-14513284D02*
X2198634Y-14513284D01*
X2198634Y-14513284D02*
X2179587Y-14503760D01*
X2179587Y-14503760D02*
X2170063Y-14494236D01*
X2170063Y-14494236D02*
X2160539Y-14475188D01*
X2160539Y-14475188D02*
X2151015Y-14437093D01*
X2151015Y-14437093D02*
X2151015Y-14389474D01*
X2151015Y-14389474D02*
X2160539Y-14351379D01*
X2160539Y-14351379D02*
X2170063Y-14332331D01*
X2170063Y-14332331D02*
X2179587Y-14322808D01*
X2179587Y-14322808D02*
X2198634Y-14313284D01*
X2351015Y-14494236D02*
X2360539Y-14503760D01*
X2360539Y-14503760D02*
X2351015Y-14513284D01*
X2351015Y-14513284D02*
X2341491Y-14503760D01*
X2341491Y-14503760D02*
X2351015Y-14494236D01*
X2351015Y-14494236D02*
X2351015Y-14513284D01*
X2484348Y-14313284D02*
X2503396Y-14313284D01*
X2503396Y-14313284D02*
X2522444Y-14322808D01*
X2522444Y-14322808D02*
X2531968Y-14332331D01*
X2531968Y-14332331D02*
X2541491Y-14351379D01*
X2541491Y-14351379D02*
X2551015Y-14389474D01*
X2551015Y-14389474D02*
X2551015Y-14437093D01*
X2551015Y-14437093D02*
X2541491Y-14475188D01*
X2541491Y-14475188D02*
X2531968Y-14494236D01*
X2531968Y-14494236D02*
X2522444Y-14503760D01*
X2522444Y-14503760D02*
X2503396Y-14513284D01*
X2503396Y-14513284D02*
X2484348Y-14513284D01*
X2484348Y-14513284D02*
X2465301Y-14503760D01*
X2465301Y-14503760D02*
X2455777Y-14494236D01*
X2455777Y-14494236D02*
X2446253Y-14475188D01*
X2446253Y-14475188D02*
X2436729Y-14437093D01*
X2436729Y-14437093D02*
X2436729Y-14389474D01*
X2436729Y-14389474D02*
X2446253Y-14351379D01*
X2446253Y-14351379D02*
X2455777Y-14332331D01*
X2455777Y-14332331D02*
X2465301Y-14322808D01*
X2465301Y-14322808D02*
X2484348Y-14313284D01*
X2617682Y-14313284D02*
X2741491Y-14313284D01*
X2741491Y-14313284D02*
X2674825Y-14389474D01*
X2674825Y-14389474D02*
X2703396Y-14389474D01*
X2703396Y-14389474D02*
X2722444Y-14398998D01*
X2722444Y-14398998D02*
X2731968Y-14408522D01*
X2731968Y-14408522D02*
X2741491Y-14427569D01*
X2741491Y-14427569D02*
X2741491Y-14475188D01*
X2741491Y-14475188D02*
X2731968Y-14494236D01*
X2731968Y-14494236D02*
X2722444Y-14503760D01*
X2722444Y-14503760D02*
X2703396Y-14513284D01*
X2703396Y-14513284D02*
X2646253Y-14513284D01*
X2646253Y-14513284D02*
X2627206Y-14503760D01*
X2627206Y-14503760D02*
X2617682Y-14494236D01*
X2931967Y-14513284D02*
X2817682Y-14513284D01*
X2874825Y-14513284D02*
X2874825Y-14313284D01*
X2874825Y-14313284D02*
X2855777Y-14341855D01*
X2855777Y-14341855D02*
X2836729Y-14360903D01*
X2836729Y-14360903D02*
X2817682Y-14370427D01*
X3112920Y-14313284D02*
X3017682Y-14313284D01*
X3017682Y-14313284D02*
X3008158Y-14408522D01*
X3008158Y-14408522D02*
X3017682Y-14398998D01*
X3017682Y-14398998D02*
X3036729Y-14389474D01*
X3036729Y-14389474D02*
X3084348Y-14389474D01*
X3084348Y-14389474D02*
X3103396Y-14398998D01*
X3103396Y-14398998D02*
X3112920Y-14408522D01*
X3112920Y-14408522D02*
X3122444Y-14427569D01*
X3122444Y-14427569D02*
X3122444Y-14475188D01*
X3122444Y-14475188D02*
X3112920Y-14494236D01*
X3112920Y-14494236D02*
X3103396Y-14503760D01*
X3103396Y-14503760D02*
X3084348Y-14513284D01*
X3084348Y-14513284D02*
X3036729Y-14513284D01*
X3036729Y-14513284D02*
X3017682Y-14503760D01*
X3017682Y-14503760D02*
X3008158Y-14494236D01*
X3198634Y-14313284D02*
X3198634Y-14351379D01*
X3274825Y-14313284D02*
X3274825Y-14351379D01*
X3570063Y-14589474D02*
X3560539Y-14579950D01*
X3560539Y-14579950D02*
X3541491Y-14551379D01*
X3541491Y-14551379D02*
X3531968Y-14532331D01*
X3531968Y-14532331D02*
X3522444Y-14503760D01*
X3522444Y-14503760D02*
X3512920Y-14456141D01*
X3512920Y-14456141D02*
X3512920Y-14418046D01*
X3512920Y-14418046D02*
X3522444Y-14370427D01*
X3522444Y-14370427D02*
X3531968Y-14341855D01*
X3531968Y-14341855D02*
X3541491Y-14322808D01*
X3541491Y-14322808D02*
X3560539Y-14294236D01*
X3560539Y-14294236D02*
X3570063Y-14284712D01*
X3731968Y-14313284D02*
X3693872Y-14313284D01*
X3693872Y-14313284D02*
X3674825Y-14322808D01*
X3674825Y-14322808D02*
X3665301Y-14332331D01*
X3665301Y-14332331D02*
X3646253Y-14360903D01*
X3646253Y-14360903D02*
X3636729Y-14398998D01*
X3636729Y-14398998D02*
X3636729Y-14475188D01*
X3636729Y-14475188D02*
X3646253Y-14494236D01*
X3646253Y-14494236D02*
X3655777Y-14503760D01*
X3655777Y-14503760D02*
X3674825Y-14513284D01*
X3674825Y-14513284D02*
X3712920Y-14513284D01*
X3712920Y-14513284D02*
X3731968Y-14503760D01*
X3731968Y-14503760D02*
X3741491Y-14494236D01*
X3741491Y-14494236D02*
X3751015Y-14475188D01*
X3751015Y-14475188D02*
X3751015Y-14427569D01*
X3751015Y-14427569D02*
X3741491Y-14408522D01*
X3741491Y-14408522D02*
X3731968Y-14398998D01*
X3731968Y-14398998D02*
X3712920Y-14389474D01*
X3712920Y-14389474D02*
X3674825Y-14389474D01*
X3674825Y-14389474D02*
X3655777Y-14398998D01*
X3655777Y-14398998D02*
X3646253Y-14408522D01*
X3646253Y-14408522D02*
X3636729Y-14427569D01*
X3922444Y-14379950D02*
X3922444Y-14513284D01*
X3874825Y-14303760D02*
X3827206Y-14446617D01*
X3827206Y-14446617D02*
X3951015Y-14446617D01*
X4179587Y-14513284D02*
X4179587Y-14313284D01*
X4265301Y-14513284D02*
X4265301Y-14408522D01*
X4265301Y-14408522D02*
X4255777Y-14389474D01*
X4255777Y-14389474D02*
X4236730Y-14379950D01*
X4236730Y-14379950D02*
X4208158Y-14379950D01*
X4208158Y-14379950D02*
X4189110Y-14389474D01*
X4189110Y-14389474D02*
X4179587Y-14398998D01*
X4389111Y-14513284D02*
X4370063Y-14503760D01*
X4370063Y-14503760D02*
X4360539Y-14494236D01*
X4360539Y-14494236D02*
X4351015Y-14475188D01*
X4351015Y-14475188D02*
X4351015Y-14418046D01*
X4351015Y-14418046D02*
X4360539Y-14398998D01*
X4360539Y-14398998D02*
X4370063Y-14389474D01*
X4370063Y-14389474D02*
X4389111Y-14379950D01*
X4389111Y-14379950D02*
X4417682Y-14379950D01*
X4417682Y-14379950D02*
X4436730Y-14389474D01*
X4436730Y-14389474D02*
X4446253Y-14398998D01*
X4446253Y-14398998D02*
X4455777Y-14418046D01*
X4455777Y-14418046D02*
X4455777Y-14475188D01*
X4455777Y-14475188D02*
X4446253Y-14494236D01*
X4446253Y-14494236D02*
X4436730Y-14503760D01*
X4436730Y-14503760D02*
X4417682Y-14513284D01*
X4417682Y-14513284D02*
X4389111Y-14513284D01*
X4570063Y-14513284D02*
X4551015Y-14503760D01*
X4551015Y-14503760D02*
X4541492Y-14484712D01*
X4541492Y-14484712D02*
X4541492Y-14313284D01*
X4722444Y-14503760D02*
X4703396Y-14513284D01*
X4703396Y-14513284D02*
X4665301Y-14513284D01*
X4665301Y-14513284D02*
X4646253Y-14503760D01*
X4646253Y-14503760D02*
X4636730Y-14484712D01*
X4636730Y-14484712D02*
X4636730Y-14408522D01*
X4636730Y-14408522D02*
X4646253Y-14389474D01*
X4646253Y-14389474D02*
X4665301Y-14379950D01*
X4665301Y-14379950D02*
X4703396Y-14379950D01*
X4703396Y-14379950D02*
X4722444Y-14389474D01*
X4722444Y-14389474D02*
X4731968Y-14408522D01*
X4731968Y-14408522D02*
X4731968Y-14427569D01*
X4731968Y-14427569D02*
X4636730Y-14446617D01*
X4808158Y-14503760D02*
X4827206Y-14513284D01*
X4827206Y-14513284D02*
X4865301Y-14513284D01*
X4865301Y-14513284D02*
X4884349Y-14503760D01*
X4884349Y-14503760D02*
X4893873Y-14484712D01*
X4893873Y-14484712D02*
X4893873Y-14475188D01*
X4893873Y-14475188D02*
X4884349Y-14456141D01*
X4884349Y-14456141D02*
X4865301Y-14446617D01*
X4865301Y-14446617D02*
X4836730Y-14446617D01*
X4836730Y-14446617D02*
X4817682Y-14437093D01*
X4817682Y-14437093D02*
X4808158Y-14418046D01*
X4808158Y-14418046D02*
X4808158Y-14408522D01*
X4808158Y-14408522D02*
X4817682Y-14389474D01*
X4817682Y-14389474D02*
X4836730Y-14379950D01*
X4836730Y-14379950D02*
X4865301Y-14379950D01*
X4865301Y-14379950D02*
X4884349Y-14389474D01*
X4960539Y-14589474D02*
X4970063Y-14579950D01*
X4970063Y-14579950D02*
X4989111Y-14551379D01*
X4989111Y-14551379D02*
X4998634Y-14532331D01*
X4998634Y-14532331D02*
X5008158Y-14503760D01*
X5008158Y-14503760D02*
X5017682Y-14456141D01*
X5017682Y-14456141D02*
X5017682Y-14418046D01*
X5017682Y-14418046D02*
X5008158Y-14370427D01*
X5008158Y-14370427D02*
X4998634Y-14341855D01*
X4998634Y-14341855D02*
X4989111Y-14322808D01*
X4989111Y-14322808D02*
X4970063Y-14294236D01*
X4970063Y-14294236D02*
X4960539Y-14284712D01*
D14*
X-50000Y-14640800D02*
X-50000Y-14730800D01*
X-95000Y-14685800D02*
X-5000Y-14685800D01*
D11*
X293872Y-14577284D02*
X312920Y-14577284D01*
X312920Y-14577284D02*
X331967Y-14586808D01*
X331967Y-14586808D02*
X341491Y-14596331D01*
X341491Y-14596331D02*
X351015Y-14615379D01*
X351015Y-14615379D02*
X360539Y-14653474D01*
X360539Y-14653474D02*
X360539Y-14701093D01*
X360539Y-14701093D02*
X351015Y-14739188D01*
X351015Y-14739188D02*
X341491Y-14758236D01*
X341491Y-14758236D02*
X331967Y-14767760D01*
X331967Y-14767760D02*
X312920Y-14777284D01*
X312920Y-14777284D02*
X293872Y-14777284D01*
X293872Y-14777284D02*
X274824Y-14767760D01*
X274824Y-14767760D02*
X265301Y-14758236D01*
X265301Y-14758236D02*
X255777Y-14739188D01*
X255777Y-14739188D02*
X246253Y-14701093D01*
X246253Y-14701093D02*
X246253Y-14653474D01*
X246253Y-14653474D02*
X255777Y-14615379D01*
X255777Y-14615379D02*
X265301Y-14596331D01*
X265301Y-14596331D02*
X274824Y-14586808D01*
X274824Y-14586808D02*
X293872Y-14577284D01*
X446253Y-14758236D02*
X455777Y-14767760D01*
X455777Y-14767760D02*
X446253Y-14777284D01*
X446253Y-14777284D02*
X436729Y-14767760D01*
X436729Y-14767760D02*
X446253Y-14758236D01*
X446253Y-14758236D02*
X446253Y-14777284D01*
X551015Y-14777284D02*
X589110Y-14777284D01*
X589110Y-14777284D02*
X608158Y-14767760D01*
X608158Y-14767760D02*
X617682Y-14758236D01*
X617682Y-14758236D02*
X636729Y-14729665D01*
X636729Y-14729665D02*
X646253Y-14691569D01*
X646253Y-14691569D02*
X646253Y-14615379D01*
X646253Y-14615379D02*
X636729Y-14596331D01*
X636729Y-14596331D02*
X627205Y-14586808D01*
X627205Y-14586808D02*
X608158Y-14577284D01*
X608158Y-14577284D02*
X570063Y-14577284D01*
X570063Y-14577284D02*
X551015Y-14586808D01*
X551015Y-14586808D02*
X541491Y-14596331D01*
X541491Y-14596331D02*
X531967Y-14615379D01*
X531967Y-14615379D02*
X531967Y-14662998D01*
X531967Y-14662998D02*
X541491Y-14682046D01*
X541491Y-14682046D02*
X551015Y-14691569D01*
X551015Y-14691569D02*
X570063Y-14701093D01*
X570063Y-14701093D02*
X608158Y-14701093D01*
X608158Y-14701093D02*
X627205Y-14691569D01*
X627205Y-14691569D02*
X636729Y-14682046D01*
X636729Y-14682046D02*
X646253Y-14662998D01*
X770062Y-14577284D02*
X789110Y-14577284D01*
X789110Y-14577284D02*
X808158Y-14586808D01*
X808158Y-14586808D02*
X817682Y-14596331D01*
X817682Y-14596331D02*
X827205Y-14615379D01*
X827205Y-14615379D02*
X836729Y-14653474D01*
X836729Y-14653474D02*
X836729Y-14701093D01*
X836729Y-14701093D02*
X827205Y-14739188D01*
X827205Y-14739188D02*
X817682Y-14758236D01*
X817682Y-14758236D02*
X808158Y-14767760D01*
X808158Y-14767760D02*
X789110Y-14777284D01*
X789110Y-14777284D02*
X770062Y-14777284D01*
X770062Y-14777284D02*
X751015Y-14767760D01*
X751015Y-14767760D02*
X741491Y-14758236D01*
X741491Y-14758236D02*
X731967Y-14739188D01*
X731967Y-14739188D02*
X722443Y-14701093D01*
X722443Y-14701093D02*
X722443Y-14653474D01*
X722443Y-14653474D02*
X731967Y-14615379D01*
X731967Y-14615379D02*
X741491Y-14596331D01*
X741491Y-14596331D02*
X751015Y-14586808D01*
X751015Y-14586808D02*
X770062Y-14577284D01*
X960539Y-14577284D02*
X979586Y-14577284D01*
X979586Y-14577284D02*
X998634Y-14586808D01*
X998634Y-14586808D02*
X1008158Y-14596331D01*
X1008158Y-14596331D02*
X1017682Y-14615379D01*
X1017682Y-14615379D02*
X1027205Y-14653474D01*
X1027205Y-14653474D02*
X1027205Y-14701093D01*
X1027205Y-14701093D02*
X1017682Y-14739188D01*
X1017682Y-14739188D02*
X1008158Y-14758236D01*
X1008158Y-14758236D02*
X998634Y-14767760D01*
X998634Y-14767760D02*
X979586Y-14777284D01*
X979586Y-14777284D02*
X960539Y-14777284D01*
X960539Y-14777284D02*
X941491Y-14767760D01*
X941491Y-14767760D02*
X931967Y-14758236D01*
X931967Y-14758236D02*
X922443Y-14739188D01*
X922443Y-14739188D02*
X912920Y-14701093D01*
X912920Y-14701093D02*
X912920Y-14653474D01*
X912920Y-14653474D02*
X922443Y-14615379D01*
X922443Y-14615379D02*
X931967Y-14596331D01*
X931967Y-14596331D02*
X941491Y-14586808D01*
X941491Y-14586808D02*
X960539Y-14577284D01*
X1112920Y-14777284D02*
X1112920Y-14643950D01*
X1112920Y-14662998D02*
X1122444Y-14653474D01*
X1122444Y-14653474D02*
X1141491Y-14643950D01*
X1141491Y-14643950D02*
X1170063Y-14643950D01*
X1170063Y-14643950D02*
X1189110Y-14653474D01*
X1189110Y-14653474D02*
X1198634Y-14672522D01*
X1198634Y-14672522D02*
X1198634Y-14777284D01*
X1198634Y-14672522D02*
X1208158Y-14653474D01*
X1208158Y-14653474D02*
X1227205Y-14643950D01*
X1227205Y-14643950D02*
X1255777Y-14643950D01*
X1255777Y-14643950D02*
X1274825Y-14653474D01*
X1274825Y-14653474D02*
X1284348Y-14672522D01*
X1284348Y-14672522D02*
X1284348Y-14777284D01*
X1379586Y-14777284D02*
X1379586Y-14643950D01*
X1379586Y-14662998D02*
X1389110Y-14653474D01*
X1389110Y-14653474D02*
X1408158Y-14643950D01*
X1408158Y-14643950D02*
X1436729Y-14643950D01*
X1436729Y-14643950D02*
X1455777Y-14653474D01*
X1455777Y-14653474D02*
X1465301Y-14672522D01*
X1465301Y-14672522D02*
X1465301Y-14777284D01*
X1465301Y-14672522D02*
X1474824Y-14653474D01*
X1474824Y-14653474D02*
X1493872Y-14643950D01*
X1493872Y-14643950D02*
X1522443Y-14643950D01*
X1522443Y-14643950D02*
X1541491Y-14653474D01*
X1541491Y-14653474D02*
X1551015Y-14672522D01*
X1551015Y-14672522D02*
X1551015Y-14777284D01*
X1941491Y-14567760D02*
X1770063Y-14824903D01*
X2198634Y-14577284D02*
X2217682Y-14577284D01*
X2217682Y-14577284D02*
X2236729Y-14586808D01*
X2236729Y-14586808D02*
X2246253Y-14596331D01*
X2246253Y-14596331D02*
X2255777Y-14615379D01*
X2255777Y-14615379D02*
X2265301Y-14653474D01*
X2265301Y-14653474D02*
X2265301Y-14701093D01*
X2265301Y-14701093D02*
X2255777Y-14739188D01*
X2255777Y-14739188D02*
X2246253Y-14758236D01*
X2246253Y-14758236D02*
X2236729Y-14767760D01*
X2236729Y-14767760D02*
X2217682Y-14777284D01*
X2217682Y-14777284D02*
X2198634Y-14777284D01*
X2198634Y-14777284D02*
X2179587Y-14767760D01*
X2179587Y-14767760D02*
X2170063Y-14758236D01*
X2170063Y-14758236D02*
X2160539Y-14739188D01*
X2160539Y-14739188D02*
X2151015Y-14701093D01*
X2151015Y-14701093D02*
X2151015Y-14653474D01*
X2151015Y-14653474D02*
X2160539Y-14615379D01*
X2160539Y-14615379D02*
X2170063Y-14596331D01*
X2170063Y-14596331D02*
X2179587Y-14586808D01*
X2179587Y-14586808D02*
X2198634Y-14577284D01*
X2351015Y-14758236D02*
X2360539Y-14767760D01*
X2360539Y-14767760D02*
X2351015Y-14777284D01*
X2351015Y-14777284D02*
X2341491Y-14767760D01*
X2341491Y-14767760D02*
X2351015Y-14758236D01*
X2351015Y-14758236D02*
X2351015Y-14777284D01*
X2484348Y-14577284D02*
X2503396Y-14577284D01*
X2503396Y-14577284D02*
X2522444Y-14586808D01*
X2522444Y-14586808D02*
X2531968Y-14596331D01*
X2531968Y-14596331D02*
X2541491Y-14615379D01*
X2541491Y-14615379D02*
X2551015Y-14653474D01*
X2551015Y-14653474D02*
X2551015Y-14701093D01*
X2551015Y-14701093D02*
X2541491Y-14739188D01*
X2541491Y-14739188D02*
X2531968Y-14758236D01*
X2531968Y-14758236D02*
X2522444Y-14767760D01*
X2522444Y-14767760D02*
X2503396Y-14777284D01*
X2503396Y-14777284D02*
X2484348Y-14777284D01*
X2484348Y-14777284D02*
X2465301Y-14767760D01*
X2465301Y-14767760D02*
X2455777Y-14758236D01*
X2455777Y-14758236D02*
X2446253Y-14739188D01*
X2446253Y-14739188D02*
X2436729Y-14701093D01*
X2436729Y-14701093D02*
X2436729Y-14653474D01*
X2436729Y-14653474D02*
X2446253Y-14615379D01*
X2446253Y-14615379D02*
X2455777Y-14596331D01*
X2455777Y-14596331D02*
X2465301Y-14586808D01*
X2465301Y-14586808D02*
X2484348Y-14577284D01*
X2617682Y-14577284D02*
X2741491Y-14577284D01*
X2741491Y-14577284D02*
X2674825Y-14653474D01*
X2674825Y-14653474D02*
X2703396Y-14653474D01*
X2703396Y-14653474D02*
X2722444Y-14662998D01*
X2722444Y-14662998D02*
X2731968Y-14672522D01*
X2731968Y-14672522D02*
X2741491Y-14691569D01*
X2741491Y-14691569D02*
X2741491Y-14739188D01*
X2741491Y-14739188D02*
X2731968Y-14758236D01*
X2731968Y-14758236D02*
X2722444Y-14767760D01*
X2722444Y-14767760D02*
X2703396Y-14777284D01*
X2703396Y-14777284D02*
X2646253Y-14777284D01*
X2646253Y-14777284D02*
X2627206Y-14767760D01*
X2627206Y-14767760D02*
X2617682Y-14758236D01*
X2922444Y-14577284D02*
X2827206Y-14577284D01*
X2827206Y-14577284D02*
X2817682Y-14672522D01*
X2817682Y-14672522D02*
X2827206Y-14662998D01*
X2827206Y-14662998D02*
X2846253Y-14653474D01*
X2846253Y-14653474D02*
X2893872Y-14653474D01*
X2893872Y-14653474D02*
X2912920Y-14662998D01*
X2912920Y-14662998D02*
X2922444Y-14672522D01*
X2922444Y-14672522D02*
X2931967Y-14691569D01*
X2931967Y-14691569D02*
X2931967Y-14739188D01*
X2931967Y-14739188D02*
X2922444Y-14758236D01*
X2922444Y-14758236D02*
X2912920Y-14767760D01*
X2912920Y-14767760D02*
X2893872Y-14777284D01*
X2893872Y-14777284D02*
X2846253Y-14777284D01*
X2846253Y-14777284D02*
X2827206Y-14767760D01*
X2827206Y-14767760D02*
X2817682Y-14758236D01*
X3103396Y-14643950D02*
X3103396Y-14777284D01*
X3055777Y-14567760D02*
X3008158Y-14710617D01*
X3008158Y-14710617D02*
X3131967Y-14710617D01*
X3198634Y-14577284D02*
X3198634Y-14615379D01*
X3274825Y-14577284D02*
X3274825Y-14615379D01*
X3570063Y-14853474D02*
X3560539Y-14843950D01*
X3560539Y-14843950D02*
X3541491Y-14815379D01*
X3541491Y-14815379D02*
X3531968Y-14796331D01*
X3531968Y-14796331D02*
X3522444Y-14767760D01*
X3522444Y-14767760D02*
X3512920Y-14720141D01*
X3512920Y-14720141D02*
X3512920Y-14682046D01*
X3512920Y-14682046D02*
X3522444Y-14634427D01*
X3522444Y-14634427D02*
X3531968Y-14605855D01*
X3531968Y-14605855D02*
X3541491Y-14586808D01*
X3541491Y-14586808D02*
X3560539Y-14558236D01*
X3560539Y-14558236D02*
X3570063Y-14548712D01*
X3731968Y-14643950D02*
X3731968Y-14777284D01*
X3684348Y-14567760D02*
X3636729Y-14710617D01*
X3636729Y-14710617D02*
X3760539Y-14710617D01*
X3922444Y-14643950D02*
X3922444Y-14777284D01*
X3874825Y-14567760D02*
X3827206Y-14710617D01*
X3827206Y-14710617D02*
X3951015Y-14710617D01*
X4179587Y-14777284D02*
X4179587Y-14577284D01*
X4265301Y-14777284D02*
X4265301Y-14672522D01*
X4265301Y-14672522D02*
X4255777Y-14653474D01*
X4255777Y-14653474D02*
X4236730Y-14643950D01*
X4236730Y-14643950D02*
X4208158Y-14643950D01*
X4208158Y-14643950D02*
X4189110Y-14653474D01*
X4189110Y-14653474D02*
X4179587Y-14662998D01*
X4389111Y-14777284D02*
X4370063Y-14767760D01*
X4370063Y-14767760D02*
X4360539Y-14758236D01*
X4360539Y-14758236D02*
X4351015Y-14739188D01*
X4351015Y-14739188D02*
X4351015Y-14682046D01*
X4351015Y-14682046D02*
X4360539Y-14662998D01*
X4360539Y-14662998D02*
X4370063Y-14653474D01*
X4370063Y-14653474D02*
X4389111Y-14643950D01*
X4389111Y-14643950D02*
X4417682Y-14643950D01*
X4417682Y-14643950D02*
X4436730Y-14653474D01*
X4436730Y-14653474D02*
X4446253Y-14662998D01*
X4446253Y-14662998D02*
X4455777Y-14682046D01*
X4455777Y-14682046D02*
X4455777Y-14739188D01*
X4455777Y-14739188D02*
X4446253Y-14758236D01*
X4446253Y-14758236D02*
X4436730Y-14767760D01*
X4436730Y-14767760D02*
X4417682Y-14777284D01*
X4417682Y-14777284D02*
X4389111Y-14777284D01*
X4570063Y-14777284D02*
X4551015Y-14767760D01*
X4551015Y-14767760D02*
X4541492Y-14748712D01*
X4541492Y-14748712D02*
X4541492Y-14577284D01*
X4722444Y-14767760D02*
X4703396Y-14777284D01*
X4703396Y-14777284D02*
X4665301Y-14777284D01*
X4665301Y-14777284D02*
X4646253Y-14767760D01*
X4646253Y-14767760D02*
X4636730Y-14748712D01*
X4636730Y-14748712D02*
X4636730Y-14672522D01*
X4636730Y-14672522D02*
X4646253Y-14653474D01*
X4646253Y-14653474D02*
X4665301Y-14643950D01*
X4665301Y-14643950D02*
X4703396Y-14643950D01*
X4703396Y-14643950D02*
X4722444Y-14653474D01*
X4722444Y-14653474D02*
X4731968Y-14672522D01*
X4731968Y-14672522D02*
X4731968Y-14691569D01*
X4731968Y-14691569D02*
X4636730Y-14710617D01*
X4808158Y-14767760D02*
X4827206Y-14777284D01*
X4827206Y-14777284D02*
X4865301Y-14777284D01*
X4865301Y-14777284D02*
X4884349Y-14767760D01*
X4884349Y-14767760D02*
X4893873Y-14748712D01*
X4893873Y-14748712D02*
X4893873Y-14739188D01*
X4893873Y-14739188D02*
X4884349Y-14720141D01*
X4884349Y-14720141D02*
X4865301Y-14710617D01*
X4865301Y-14710617D02*
X4836730Y-14710617D01*
X4836730Y-14710617D02*
X4817682Y-14701093D01*
X4817682Y-14701093D02*
X4808158Y-14682046D01*
X4808158Y-14682046D02*
X4808158Y-14672522D01*
X4808158Y-14672522D02*
X4817682Y-14653474D01*
X4817682Y-14653474D02*
X4836730Y-14643950D01*
X4836730Y-14643950D02*
X4865301Y-14643950D01*
X4865301Y-14643950D02*
X4884349Y-14653474D01*
X4960539Y-14853474D02*
X4970063Y-14843950D01*
X4970063Y-14843950D02*
X4989111Y-14815379D01*
X4989111Y-14815379D02*
X4998634Y-14796331D01*
X4998634Y-14796331D02*
X5008158Y-14767760D01*
X5008158Y-14767760D02*
X5017682Y-14720141D01*
X5017682Y-14720141D02*
X5017682Y-14682046D01*
X5017682Y-14682046D02*
X5008158Y-14634427D01*
X5008158Y-14634427D02*
X4998634Y-14605855D01*
X4998634Y-14605855D02*
X4989111Y-14586808D01*
X4989111Y-14586808D02*
X4970063Y-14558236D01*
X4970063Y-14558236D02*
X4960539Y-14548712D01*
D10*
X-19644Y-14985156D02*
X-19644Y-14914444D01*
X-90356Y-14914444D01*
X-90356Y-14985156D01*
X-19644Y-14985156D01*
D11*
X360539Y-15041284D02*
X246253Y-15041284D01*
X303396Y-15041284D02*
X303396Y-14841284D01*
X303396Y-14841284D02*
X284348Y-14869855D01*
X284348Y-14869855D02*
X265301Y-14888903D01*
X265301Y-14888903D02*
X246253Y-14898427D01*
X446253Y-15022236D02*
X455777Y-15031760D01*
X455777Y-15031760D02*
X446253Y-15041284D01*
X446253Y-15041284D02*
X436729Y-15031760D01*
X436729Y-15031760D02*
X446253Y-15022236D01*
X446253Y-15022236D02*
X446253Y-15041284D01*
X579586Y-14841284D02*
X598634Y-14841284D01*
X598634Y-14841284D02*
X617682Y-14850808D01*
X617682Y-14850808D02*
X627205Y-14860331D01*
X627205Y-14860331D02*
X636729Y-14879379D01*
X636729Y-14879379D02*
X646253Y-14917474D01*
X646253Y-14917474D02*
X646253Y-14965093D01*
X646253Y-14965093D02*
X636729Y-15003188D01*
X636729Y-15003188D02*
X627205Y-15022236D01*
X627205Y-15022236D02*
X617682Y-15031760D01*
X617682Y-15031760D02*
X598634Y-15041284D01*
X598634Y-15041284D02*
X579586Y-15041284D01*
X579586Y-15041284D02*
X560539Y-15031760D01*
X560539Y-15031760D02*
X551015Y-15022236D01*
X551015Y-15022236D02*
X541491Y-15003188D01*
X541491Y-15003188D02*
X531967Y-14965093D01*
X531967Y-14965093D02*
X531967Y-14917474D01*
X531967Y-14917474D02*
X541491Y-14879379D01*
X541491Y-14879379D02*
X551015Y-14860331D01*
X551015Y-14860331D02*
X560539Y-14850808D01*
X560539Y-14850808D02*
X579586Y-14841284D01*
X770062Y-14841284D02*
X789110Y-14841284D01*
X789110Y-14841284D02*
X808158Y-14850808D01*
X808158Y-14850808D02*
X817682Y-14860331D01*
X817682Y-14860331D02*
X827205Y-14879379D01*
X827205Y-14879379D02*
X836729Y-14917474D01*
X836729Y-14917474D02*
X836729Y-14965093D01*
X836729Y-14965093D02*
X827205Y-15003188D01*
X827205Y-15003188D02*
X817682Y-15022236D01*
X817682Y-15022236D02*
X808158Y-15031760D01*
X808158Y-15031760D02*
X789110Y-15041284D01*
X789110Y-15041284D02*
X770062Y-15041284D01*
X770062Y-15041284D02*
X751015Y-15031760D01*
X751015Y-15031760D02*
X741491Y-15022236D01*
X741491Y-15022236D02*
X731967Y-15003188D01*
X731967Y-15003188D02*
X722443Y-14965093D01*
X722443Y-14965093D02*
X722443Y-14917474D01*
X722443Y-14917474D02*
X731967Y-14879379D01*
X731967Y-14879379D02*
X741491Y-14860331D01*
X741491Y-14860331D02*
X751015Y-14850808D01*
X751015Y-14850808D02*
X770062Y-14841284D01*
X960539Y-14841284D02*
X979586Y-14841284D01*
X979586Y-14841284D02*
X998634Y-14850808D01*
X998634Y-14850808D02*
X1008158Y-14860331D01*
X1008158Y-14860331D02*
X1017682Y-14879379D01*
X1017682Y-14879379D02*
X1027205Y-14917474D01*
X1027205Y-14917474D02*
X1027205Y-14965093D01*
X1027205Y-14965093D02*
X1017682Y-15003188D01*
X1017682Y-15003188D02*
X1008158Y-15022236D01*
X1008158Y-15022236D02*
X998634Y-15031760D01*
X998634Y-15031760D02*
X979586Y-15041284D01*
X979586Y-15041284D02*
X960539Y-15041284D01*
X960539Y-15041284D02*
X941491Y-15031760D01*
X941491Y-15031760D02*
X931967Y-15022236D01*
X931967Y-15022236D02*
X922443Y-15003188D01*
X922443Y-15003188D02*
X912920Y-14965093D01*
X912920Y-14965093D02*
X912920Y-14917474D01*
X912920Y-14917474D02*
X922443Y-14879379D01*
X922443Y-14879379D02*
X931967Y-14860331D01*
X931967Y-14860331D02*
X941491Y-14850808D01*
X941491Y-14850808D02*
X960539Y-14841284D01*
X1112920Y-15041284D02*
X1112920Y-14907950D01*
X1112920Y-14926998D02*
X1122444Y-14917474D01*
X1122444Y-14917474D02*
X1141491Y-14907950D01*
X1141491Y-14907950D02*
X1170063Y-14907950D01*
X1170063Y-14907950D02*
X1189110Y-14917474D01*
X1189110Y-14917474D02*
X1198634Y-14936522D01*
X1198634Y-14936522D02*
X1198634Y-15041284D01*
X1198634Y-14936522D02*
X1208158Y-14917474D01*
X1208158Y-14917474D02*
X1227205Y-14907950D01*
X1227205Y-14907950D02*
X1255777Y-14907950D01*
X1255777Y-14907950D02*
X1274825Y-14917474D01*
X1274825Y-14917474D02*
X1284348Y-14936522D01*
X1284348Y-14936522D02*
X1284348Y-15041284D01*
X1379586Y-15041284D02*
X1379586Y-14907950D01*
X1379586Y-14926998D02*
X1389110Y-14917474D01*
X1389110Y-14917474D02*
X1408158Y-14907950D01*
X1408158Y-14907950D02*
X1436729Y-14907950D01*
X1436729Y-14907950D02*
X1455777Y-14917474D01*
X1455777Y-14917474D02*
X1465301Y-14936522D01*
X1465301Y-14936522D02*
X1465301Y-15041284D01*
X1465301Y-14936522D02*
X1474824Y-14917474D01*
X1474824Y-14917474D02*
X1493872Y-14907950D01*
X1493872Y-14907950D02*
X1522443Y-14907950D01*
X1522443Y-14907950D02*
X1541491Y-14917474D01*
X1541491Y-14917474D02*
X1551015Y-14936522D01*
X1551015Y-14936522D02*
X1551015Y-15041284D01*
X1941491Y-14831760D02*
X1770063Y-15088903D01*
X2198634Y-14841284D02*
X2217682Y-14841284D01*
X2217682Y-14841284D02*
X2236729Y-14850808D01*
X2236729Y-14850808D02*
X2246253Y-14860331D01*
X2246253Y-14860331D02*
X2255777Y-14879379D01*
X2255777Y-14879379D02*
X2265301Y-14917474D01*
X2265301Y-14917474D02*
X2265301Y-14965093D01*
X2265301Y-14965093D02*
X2255777Y-15003188D01*
X2255777Y-15003188D02*
X2246253Y-15022236D01*
X2246253Y-15022236D02*
X2236729Y-15031760D01*
X2236729Y-15031760D02*
X2217682Y-15041284D01*
X2217682Y-15041284D02*
X2198634Y-15041284D01*
X2198634Y-15041284D02*
X2179587Y-15031760D01*
X2179587Y-15031760D02*
X2170063Y-15022236D01*
X2170063Y-15022236D02*
X2160539Y-15003188D01*
X2160539Y-15003188D02*
X2151015Y-14965093D01*
X2151015Y-14965093D02*
X2151015Y-14917474D01*
X2151015Y-14917474D02*
X2160539Y-14879379D01*
X2160539Y-14879379D02*
X2170063Y-14860331D01*
X2170063Y-14860331D02*
X2179587Y-14850808D01*
X2179587Y-14850808D02*
X2198634Y-14841284D01*
X2351015Y-15022236D02*
X2360539Y-15031760D01*
X2360539Y-15031760D02*
X2351015Y-15041284D01*
X2351015Y-15041284D02*
X2341491Y-15031760D01*
X2341491Y-15031760D02*
X2351015Y-15022236D01*
X2351015Y-15022236D02*
X2351015Y-15041284D01*
X2484348Y-14841284D02*
X2503396Y-14841284D01*
X2503396Y-14841284D02*
X2522444Y-14850808D01*
X2522444Y-14850808D02*
X2531968Y-14860331D01*
X2531968Y-14860331D02*
X2541491Y-14879379D01*
X2541491Y-14879379D02*
X2551015Y-14917474D01*
X2551015Y-14917474D02*
X2551015Y-14965093D01*
X2551015Y-14965093D02*
X2541491Y-15003188D01*
X2541491Y-15003188D02*
X2531968Y-15022236D01*
X2531968Y-15022236D02*
X2522444Y-15031760D01*
X2522444Y-15031760D02*
X2503396Y-15041284D01*
X2503396Y-15041284D02*
X2484348Y-15041284D01*
X2484348Y-15041284D02*
X2465301Y-15031760D01*
X2465301Y-15031760D02*
X2455777Y-15022236D01*
X2455777Y-15022236D02*
X2446253Y-15003188D01*
X2446253Y-15003188D02*
X2436729Y-14965093D01*
X2436729Y-14965093D02*
X2436729Y-14917474D01*
X2436729Y-14917474D02*
X2446253Y-14879379D01*
X2446253Y-14879379D02*
X2455777Y-14860331D01*
X2455777Y-14860331D02*
X2465301Y-14850808D01*
X2465301Y-14850808D02*
X2484348Y-14841284D01*
X2617682Y-14841284D02*
X2741491Y-14841284D01*
X2741491Y-14841284D02*
X2674825Y-14917474D01*
X2674825Y-14917474D02*
X2703396Y-14917474D01*
X2703396Y-14917474D02*
X2722444Y-14926998D01*
X2722444Y-14926998D02*
X2731968Y-14936522D01*
X2731968Y-14936522D02*
X2741491Y-14955569D01*
X2741491Y-14955569D02*
X2741491Y-15003188D01*
X2741491Y-15003188D02*
X2731968Y-15022236D01*
X2731968Y-15022236D02*
X2722444Y-15031760D01*
X2722444Y-15031760D02*
X2703396Y-15041284D01*
X2703396Y-15041284D02*
X2646253Y-15041284D01*
X2646253Y-15041284D02*
X2627206Y-15031760D01*
X2627206Y-15031760D02*
X2617682Y-15022236D01*
X2836729Y-15041284D02*
X2874825Y-15041284D01*
X2874825Y-15041284D02*
X2893872Y-15031760D01*
X2893872Y-15031760D02*
X2903396Y-15022236D01*
X2903396Y-15022236D02*
X2922444Y-14993665D01*
X2922444Y-14993665D02*
X2931967Y-14955569D01*
X2931967Y-14955569D02*
X2931967Y-14879379D01*
X2931967Y-14879379D02*
X2922444Y-14860331D01*
X2922444Y-14860331D02*
X2912920Y-14850808D01*
X2912920Y-14850808D02*
X2893872Y-14841284D01*
X2893872Y-14841284D02*
X2855777Y-14841284D01*
X2855777Y-14841284D02*
X2836729Y-14850808D01*
X2836729Y-14850808D02*
X2827206Y-14860331D01*
X2827206Y-14860331D02*
X2817682Y-14879379D01*
X2817682Y-14879379D02*
X2817682Y-14926998D01*
X2817682Y-14926998D02*
X2827206Y-14946046D01*
X2827206Y-14946046D02*
X2836729Y-14955569D01*
X2836729Y-14955569D02*
X2855777Y-14965093D01*
X2855777Y-14965093D02*
X2893872Y-14965093D01*
X2893872Y-14965093D02*
X2912920Y-14955569D01*
X2912920Y-14955569D02*
X2922444Y-14946046D01*
X2922444Y-14946046D02*
X2931967Y-14926998D01*
X3103396Y-14907950D02*
X3103396Y-15041284D01*
X3055777Y-14831760D02*
X3008158Y-14974617D01*
X3008158Y-14974617D02*
X3131967Y-14974617D01*
X3198634Y-14841284D02*
X3198634Y-14879379D01*
X3274825Y-14841284D02*
X3274825Y-14879379D01*
X3570063Y-15117474D02*
X3560539Y-15107950D01*
X3560539Y-15107950D02*
X3541491Y-15079379D01*
X3541491Y-15079379D02*
X3531968Y-15060331D01*
X3531968Y-15060331D02*
X3522444Y-15031760D01*
X3522444Y-15031760D02*
X3512920Y-14984141D01*
X3512920Y-14984141D02*
X3512920Y-14946046D01*
X3512920Y-14946046D02*
X3522444Y-14898427D01*
X3522444Y-14898427D02*
X3531968Y-14869855D01*
X3531968Y-14869855D02*
X3541491Y-14850808D01*
X3541491Y-14850808D02*
X3560539Y-14822236D01*
X3560539Y-14822236D02*
X3570063Y-14812712D01*
X3627206Y-14841284D02*
X3751015Y-14841284D01*
X3751015Y-14841284D02*
X3684348Y-14917474D01*
X3684348Y-14917474D02*
X3712920Y-14917474D01*
X3712920Y-14917474D02*
X3731968Y-14926998D01*
X3731968Y-14926998D02*
X3741491Y-14936522D01*
X3741491Y-14936522D02*
X3751015Y-14955569D01*
X3751015Y-14955569D02*
X3751015Y-15003188D01*
X3751015Y-15003188D02*
X3741491Y-15022236D01*
X3741491Y-15022236D02*
X3731968Y-15031760D01*
X3731968Y-15031760D02*
X3712920Y-15041284D01*
X3712920Y-15041284D02*
X3655777Y-15041284D01*
X3655777Y-15041284D02*
X3636729Y-15031760D01*
X3636729Y-15031760D02*
X3627206Y-15022236D01*
X3922444Y-14907950D02*
X3922444Y-15041284D01*
X3874825Y-14831760D02*
X3827206Y-14974617D01*
X3827206Y-14974617D02*
X3951015Y-14974617D01*
X4179587Y-15041284D02*
X4179587Y-14841284D01*
X4265301Y-15041284D02*
X4265301Y-14936522D01*
X4265301Y-14936522D02*
X4255777Y-14917474D01*
X4255777Y-14917474D02*
X4236730Y-14907950D01*
X4236730Y-14907950D02*
X4208158Y-14907950D01*
X4208158Y-14907950D02*
X4189110Y-14917474D01*
X4189110Y-14917474D02*
X4179587Y-14926998D01*
X4389111Y-15041284D02*
X4370063Y-15031760D01*
X4370063Y-15031760D02*
X4360539Y-15022236D01*
X4360539Y-15022236D02*
X4351015Y-15003188D01*
X4351015Y-15003188D02*
X4351015Y-14946046D01*
X4351015Y-14946046D02*
X4360539Y-14926998D01*
X4360539Y-14926998D02*
X4370063Y-14917474D01*
X4370063Y-14917474D02*
X4389111Y-14907950D01*
X4389111Y-14907950D02*
X4417682Y-14907950D01*
X4417682Y-14907950D02*
X4436730Y-14917474D01*
X4436730Y-14917474D02*
X4446253Y-14926998D01*
X4446253Y-14926998D02*
X4455777Y-14946046D01*
X4455777Y-14946046D02*
X4455777Y-15003188D01*
X4455777Y-15003188D02*
X4446253Y-15022236D01*
X4446253Y-15022236D02*
X4436730Y-15031760D01*
X4436730Y-15031760D02*
X4417682Y-15041284D01*
X4417682Y-15041284D02*
X4389111Y-15041284D01*
X4570063Y-15041284D02*
X4551015Y-15031760D01*
X4551015Y-15031760D02*
X4541492Y-15012712D01*
X4541492Y-15012712D02*
X4541492Y-14841284D01*
X4722444Y-15031760D02*
X4703396Y-15041284D01*
X4703396Y-15041284D02*
X4665301Y-15041284D01*
X4665301Y-15041284D02*
X4646253Y-15031760D01*
X4646253Y-15031760D02*
X4636730Y-15012712D01*
X4636730Y-15012712D02*
X4636730Y-14936522D01*
X4636730Y-14936522D02*
X4646253Y-14917474D01*
X4646253Y-14917474D02*
X4665301Y-14907950D01*
X4665301Y-14907950D02*
X4703396Y-14907950D01*
X4703396Y-14907950D02*
X4722444Y-14917474D01*
X4722444Y-14917474D02*
X4731968Y-14936522D01*
X4731968Y-14936522D02*
X4731968Y-14955569D01*
X4731968Y-14955569D02*
X4636730Y-14974617D01*
X4808158Y-15031760D02*
X4827206Y-15041284D01*
X4827206Y-15041284D02*
X4865301Y-15041284D01*
X4865301Y-15041284D02*
X4884349Y-15031760D01*
X4884349Y-15031760D02*
X4893873Y-15012712D01*
X4893873Y-15012712D02*
X4893873Y-15003188D01*
X4893873Y-15003188D02*
X4884349Y-14984141D01*
X4884349Y-14984141D02*
X4865301Y-14974617D01*
X4865301Y-14974617D02*
X4836730Y-14974617D01*
X4836730Y-14974617D02*
X4817682Y-14965093D01*
X4817682Y-14965093D02*
X4808158Y-14946046D01*
X4808158Y-14946046D02*
X4808158Y-14936522D01*
X4808158Y-14936522D02*
X4817682Y-14917474D01*
X4817682Y-14917474D02*
X4836730Y-14907950D01*
X4836730Y-14907950D02*
X4865301Y-14907950D01*
X4865301Y-14907950D02*
X4884349Y-14917474D01*
X4960539Y-15117474D02*
X4970063Y-15107950D01*
X4970063Y-15107950D02*
X4989111Y-15079379D01*
X4989111Y-15079379D02*
X4998634Y-15060331D01*
X4998634Y-15060331D02*
X5008158Y-15031760D01*
X5008158Y-15031760D02*
X5017682Y-14984141D01*
X5017682Y-14984141D02*
X5017682Y-14946046D01*
X5017682Y-14946046D02*
X5008158Y-14898427D01*
X5008158Y-14898427D02*
X4998634Y-14869855D01*
X4998634Y-14869855D02*
X4989111Y-14850808D01*
X4989111Y-14850808D02*
X4970063Y-14822236D01*
X4970063Y-14822236D02*
X4960539Y-14812712D01*
X-105000Y-15313800D02*
X-5000Y-15213800D01*
X-105000Y-15113800D01*
X-205000Y-15213800D01*
X-105000Y-15313800D01*
X351015Y-15105284D02*
X255777Y-15105284D01*
X255777Y-15105284D02*
X246253Y-15200522D01*
X246253Y-15200522D02*
X255777Y-15190998D01*
X255777Y-15190998D02*
X274824Y-15181474D01*
X274824Y-15181474D02*
X322444Y-15181474D01*
X322444Y-15181474D02*
X341491Y-15190998D01*
X341491Y-15190998D02*
X351015Y-15200522D01*
X351015Y-15200522D02*
X360539Y-15219569D01*
X360539Y-15219569D02*
X360539Y-15267188D01*
X360539Y-15267188D02*
X351015Y-15286236D01*
X351015Y-15286236D02*
X341491Y-15295760D01*
X341491Y-15295760D02*
X322444Y-15305284D01*
X322444Y-15305284D02*
X274824Y-15305284D01*
X274824Y-15305284D02*
X255777Y-15295760D01*
X255777Y-15295760D02*
X246253Y-15286236D01*
X446253Y-15286236D02*
X455777Y-15295760D01*
X455777Y-15295760D02*
X446253Y-15305284D01*
X446253Y-15305284D02*
X436729Y-15295760D01*
X436729Y-15295760D02*
X446253Y-15286236D01*
X446253Y-15286236D02*
X446253Y-15305284D01*
X636729Y-15105284D02*
X541491Y-15105284D01*
X541491Y-15105284D02*
X531967Y-15200522D01*
X531967Y-15200522D02*
X541491Y-15190998D01*
X541491Y-15190998D02*
X560539Y-15181474D01*
X560539Y-15181474D02*
X608158Y-15181474D01*
X608158Y-15181474D02*
X627205Y-15190998D01*
X627205Y-15190998D02*
X636729Y-15200522D01*
X636729Y-15200522D02*
X646253Y-15219569D01*
X646253Y-15219569D02*
X646253Y-15267188D01*
X646253Y-15267188D02*
X636729Y-15286236D01*
X636729Y-15286236D02*
X627205Y-15295760D01*
X627205Y-15295760D02*
X608158Y-15305284D01*
X608158Y-15305284D02*
X560539Y-15305284D01*
X560539Y-15305284D02*
X541491Y-15295760D01*
X541491Y-15295760D02*
X531967Y-15286236D01*
X770062Y-15105284D02*
X789110Y-15105284D01*
X789110Y-15105284D02*
X808158Y-15114808D01*
X808158Y-15114808D02*
X817682Y-15124331D01*
X817682Y-15124331D02*
X827205Y-15143379D01*
X827205Y-15143379D02*
X836729Y-15181474D01*
X836729Y-15181474D02*
X836729Y-15229093D01*
X836729Y-15229093D02*
X827205Y-15267188D01*
X827205Y-15267188D02*
X817682Y-15286236D01*
X817682Y-15286236D02*
X808158Y-15295760D01*
X808158Y-15295760D02*
X789110Y-15305284D01*
X789110Y-15305284D02*
X770062Y-15305284D01*
X770062Y-15305284D02*
X751015Y-15295760D01*
X751015Y-15295760D02*
X741491Y-15286236D01*
X741491Y-15286236D02*
X731967Y-15267188D01*
X731967Y-15267188D02*
X722443Y-15229093D01*
X722443Y-15229093D02*
X722443Y-15181474D01*
X722443Y-15181474D02*
X731967Y-15143379D01*
X731967Y-15143379D02*
X741491Y-15124331D01*
X741491Y-15124331D02*
X751015Y-15114808D01*
X751015Y-15114808D02*
X770062Y-15105284D01*
X960539Y-15105284D02*
X979586Y-15105284D01*
X979586Y-15105284D02*
X998634Y-15114808D01*
X998634Y-15114808D02*
X1008158Y-15124331D01*
X1008158Y-15124331D02*
X1017682Y-15143379D01*
X1017682Y-15143379D02*
X1027205Y-15181474D01*
X1027205Y-15181474D02*
X1027205Y-15229093D01*
X1027205Y-15229093D02*
X1017682Y-15267188D01*
X1017682Y-15267188D02*
X1008158Y-15286236D01*
X1008158Y-15286236D02*
X998634Y-15295760D01*
X998634Y-15295760D02*
X979586Y-15305284D01*
X979586Y-15305284D02*
X960539Y-15305284D01*
X960539Y-15305284D02*
X941491Y-15295760D01*
X941491Y-15295760D02*
X931967Y-15286236D01*
X931967Y-15286236D02*
X922443Y-15267188D01*
X922443Y-15267188D02*
X912920Y-15229093D01*
X912920Y-15229093D02*
X912920Y-15181474D01*
X912920Y-15181474D02*
X922443Y-15143379D01*
X922443Y-15143379D02*
X931967Y-15124331D01*
X931967Y-15124331D02*
X941491Y-15114808D01*
X941491Y-15114808D02*
X960539Y-15105284D01*
X1112920Y-15305284D02*
X1112920Y-15171950D01*
X1112920Y-15190998D02*
X1122444Y-15181474D01*
X1122444Y-15181474D02*
X1141491Y-15171950D01*
X1141491Y-15171950D02*
X1170063Y-15171950D01*
X1170063Y-15171950D02*
X1189110Y-15181474D01*
X1189110Y-15181474D02*
X1198634Y-15200522D01*
X1198634Y-15200522D02*
X1198634Y-15305284D01*
X1198634Y-15200522D02*
X1208158Y-15181474D01*
X1208158Y-15181474D02*
X1227205Y-15171950D01*
X1227205Y-15171950D02*
X1255777Y-15171950D01*
X1255777Y-15171950D02*
X1274825Y-15181474D01*
X1274825Y-15181474D02*
X1284348Y-15200522D01*
X1284348Y-15200522D02*
X1284348Y-15305284D01*
X1379586Y-15305284D02*
X1379586Y-15171950D01*
X1379586Y-15190998D02*
X1389110Y-15181474D01*
X1389110Y-15181474D02*
X1408158Y-15171950D01*
X1408158Y-15171950D02*
X1436729Y-15171950D01*
X1436729Y-15171950D02*
X1455777Y-15181474D01*
X1455777Y-15181474D02*
X1465301Y-15200522D01*
X1465301Y-15200522D02*
X1465301Y-15305284D01*
X1465301Y-15200522D02*
X1474824Y-15181474D01*
X1474824Y-15181474D02*
X1493872Y-15171950D01*
X1493872Y-15171950D02*
X1522443Y-15171950D01*
X1522443Y-15171950D02*
X1541491Y-15181474D01*
X1541491Y-15181474D02*
X1551015Y-15200522D01*
X1551015Y-15200522D02*
X1551015Y-15305284D01*
X1941491Y-15095760D02*
X1770063Y-15352903D01*
X2198634Y-15105284D02*
X2217682Y-15105284D01*
X2217682Y-15105284D02*
X2236729Y-15114808D01*
X2236729Y-15114808D02*
X2246253Y-15124331D01*
X2246253Y-15124331D02*
X2255777Y-15143379D01*
X2255777Y-15143379D02*
X2265301Y-15181474D01*
X2265301Y-15181474D02*
X2265301Y-15229093D01*
X2265301Y-15229093D02*
X2255777Y-15267188D01*
X2255777Y-15267188D02*
X2246253Y-15286236D01*
X2246253Y-15286236D02*
X2236729Y-15295760D01*
X2236729Y-15295760D02*
X2217682Y-15305284D01*
X2217682Y-15305284D02*
X2198634Y-15305284D01*
X2198634Y-15305284D02*
X2179587Y-15295760D01*
X2179587Y-15295760D02*
X2170063Y-15286236D01*
X2170063Y-15286236D02*
X2160539Y-15267188D01*
X2160539Y-15267188D02*
X2151015Y-15229093D01*
X2151015Y-15229093D02*
X2151015Y-15181474D01*
X2151015Y-15181474D02*
X2160539Y-15143379D01*
X2160539Y-15143379D02*
X2170063Y-15124331D01*
X2170063Y-15124331D02*
X2179587Y-15114808D01*
X2179587Y-15114808D02*
X2198634Y-15105284D01*
X2351015Y-15286236D02*
X2360539Y-15295760D01*
X2360539Y-15295760D02*
X2351015Y-15305284D01*
X2351015Y-15305284D02*
X2341491Y-15295760D01*
X2341491Y-15295760D02*
X2351015Y-15286236D01*
X2351015Y-15286236D02*
X2351015Y-15305284D01*
X2436729Y-15124331D02*
X2446253Y-15114808D01*
X2446253Y-15114808D02*
X2465301Y-15105284D01*
X2465301Y-15105284D02*
X2512920Y-15105284D01*
X2512920Y-15105284D02*
X2531968Y-15114808D01*
X2531968Y-15114808D02*
X2541491Y-15124331D01*
X2541491Y-15124331D02*
X2551015Y-15143379D01*
X2551015Y-15143379D02*
X2551015Y-15162427D01*
X2551015Y-15162427D02*
X2541491Y-15190998D01*
X2541491Y-15190998D02*
X2427206Y-15305284D01*
X2427206Y-15305284D02*
X2551015Y-15305284D01*
X2741491Y-15305284D02*
X2627206Y-15305284D01*
X2684348Y-15305284D02*
X2684348Y-15105284D01*
X2684348Y-15105284D02*
X2665301Y-15133855D01*
X2665301Y-15133855D02*
X2646253Y-15152903D01*
X2646253Y-15152903D02*
X2627206Y-15162427D01*
X2912920Y-15105284D02*
X2874825Y-15105284D01*
X2874825Y-15105284D02*
X2855777Y-15114808D01*
X2855777Y-15114808D02*
X2846253Y-15124331D01*
X2846253Y-15124331D02*
X2827206Y-15152903D01*
X2827206Y-15152903D02*
X2817682Y-15190998D01*
X2817682Y-15190998D02*
X2817682Y-15267188D01*
X2817682Y-15267188D02*
X2827206Y-15286236D01*
X2827206Y-15286236D02*
X2836729Y-15295760D01*
X2836729Y-15295760D02*
X2855777Y-15305284D01*
X2855777Y-15305284D02*
X2893872Y-15305284D01*
X2893872Y-15305284D02*
X2912920Y-15295760D01*
X2912920Y-15295760D02*
X2922444Y-15286236D01*
X2922444Y-15286236D02*
X2931967Y-15267188D01*
X2931967Y-15267188D02*
X2931967Y-15219569D01*
X2931967Y-15219569D02*
X2922444Y-15200522D01*
X2922444Y-15200522D02*
X2912920Y-15190998D01*
X2912920Y-15190998D02*
X2893872Y-15181474D01*
X2893872Y-15181474D02*
X2855777Y-15181474D01*
X2855777Y-15181474D02*
X2836729Y-15190998D01*
X2836729Y-15190998D02*
X2827206Y-15200522D01*
X2827206Y-15200522D02*
X2817682Y-15219569D01*
X3112920Y-15105284D02*
X3017682Y-15105284D01*
X3017682Y-15105284D02*
X3008158Y-15200522D01*
X3008158Y-15200522D02*
X3017682Y-15190998D01*
X3017682Y-15190998D02*
X3036729Y-15181474D01*
X3036729Y-15181474D02*
X3084348Y-15181474D01*
X3084348Y-15181474D02*
X3103396Y-15190998D01*
X3103396Y-15190998D02*
X3112920Y-15200522D01*
X3112920Y-15200522D02*
X3122444Y-15219569D01*
X3122444Y-15219569D02*
X3122444Y-15267188D01*
X3122444Y-15267188D02*
X3112920Y-15286236D01*
X3112920Y-15286236D02*
X3103396Y-15295760D01*
X3103396Y-15295760D02*
X3084348Y-15305284D01*
X3084348Y-15305284D02*
X3036729Y-15305284D01*
X3036729Y-15305284D02*
X3017682Y-15295760D01*
X3017682Y-15295760D02*
X3008158Y-15286236D01*
X3198634Y-15105284D02*
X3198634Y-15143379D01*
X3274825Y-15105284D02*
X3274825Y-15143379D01*
X3570063Y-15381474D02*
X3560539Y-15371950D01*
X3560539Y-15371950D02*
X3541491Y-15343379D01*
X3541491Y-15343379D02*
X3531968Y-15324331D01*
X3531968Y-15324331D02*
X3522444Y-15295760D01*
X3522444Y-15295760D02*
X3512920Y-15248141D01*
X3512920Y-15248141D02*
X3512920Y-15210046D01*
X3512920Y-15210046D02*
X3522444Y-15162427D01*
X3522444Y-15162427D02*
X3531968Y-15133855D01*
X3531968Y-15133855D02*
X3541491Y-15114808D01*
X3541491Y-15114808D02*
X3560539Y-15086236D01*
X3560539Y-15086236D02*
X3570063Y-15076712D01*
X3627206Y-15105284D02*
X3751015Y-15105284D01*
X3751015Y-15105284D02*
X3684348Y-15181474D01*
X3684348Y-15181474D02*
X3712920Y-15181474D01*
X3712920Y-15181474D02*
X3731968Y-15190998D01*
X3731968Y-15190998D02*
X3741491Y-15200522D01*
X3741491Y-15200522D02*
X3751015Y-15219569D01*
X3751015Y-15219569D02*
X3751015Y-15267188D01*
X3751015Y-15267188D02*
X3741491Y-15286236D01*
X3741491Y-15286236D02*
X3731968Y-15295760D01*
X3731968Y-15295760D02*
X3712920Y-15305284D01*
X3712920Y-15305284D02*
X3655777Y-15305284D01*
X3655777Y-15305284D02*
X3636729Y-15295760D01*
X3636729Y-15295760D02*
X3627206Y-15286236D01*
X3874825Y-15105284D02*
X3893872Y-15105284D01*
X3893872Y-15105284D02*
X3912920Y-15114808D01*
X3912920Y-15114808D02*
X3922444Y-15124331D01*
X3922444Y-15124331D02*
X3931968Y-15143379D01*
X3931968Y-15143379D02*
X3941491Y-15181474D01*
X3941491Y-15181474D02*
X3941491Y-15229093D01*
X3941491Y-15229093D02*
X3931968Y-15267188D01*
X3931968Y-15267188D02*
X3922444Y-15286236D01*
X3922444Y-15286236D02*
X3912920Y-15295760D01*
X3912920Y-15295760D02*
X3893872Y-15305284D01*
X3893872Y-15305284D02*
X3874825Y-15305284D01*
X3874825Y-15305284D02*
X3855777Y-15295760D01*
X3855777Y-15295760D02*
X3846253Y-15286236D01*
X3846253Y-15286236D02*
X3836729Y-15267188D01*
X3836729Y-15267188D02*
X3827206Y-15229093D01*
X3827206Y-15229093D02*
X3827206Y-15181474D01*
X3827206Y-15181474D02*
X3836729Y-15143379D01*
X3836729Y-15143379D02*
X3846253Y-15124331D01*
X3846253Y-15124331D02*
X3855777Y-15114808D01*
X3855777Y-15114808D02*
X3874825Y-15105284D01*
X4179587Y-15305284D02*
X4179587Y-15105284D01*
X4265301Y-15305284D02*
X4265301Y-15200522D01*
X4265301Y-15200522D02*
X4255777Y-15181474D01*
X4255777Y-15181474D02*
X4236730Y-15171950D01*
X4236730Y-15171950D02*
X4208158Y-15171950D01*
X4208158Y-15171950D02*
X4189110Y-15181474D01*
X4189110Y-15181474D02*
X4179587Y-15190998D01*
X4389111Y-15305284D02*
X4370063Y-15295760D01*
X4370063Y-15295760D02*
X4360539Y-15286236D01*
X4360539Y-15286236D02*
X4351015Y-15267188D01*
X4351015Y-15267188D02*
X4351015Y-15210046D01*
X4351015Y-15210046D02*
X4360539Y-15190998D01*
X4360539Y-15190998D02*
X4370063Y-15181474D01*
X4370063Y-15181474D02*
X4389111Y-15171950D01*
X4389111Y-15171950D02*
X4417682Y-15171950D01*
X4417682Y-15171950D02*
X4436730Y-15181474D01*
X4436730Y-15181474D02*
X4446253Y-15190998D01*
X4446253Y-15190998D02*
X4455777Y-15210046D01*
X4455777Y-15210046D02*
X4455777Y-15267188D01*
X4455777Y-15267188D02*
X4446253Y-15286236D01*
X4446253Y-15286236D02*
X4436730Y-15295760D01*
X4436730Y-15295760D02*
X4417682Y-15305284D01*
X4417682Y-15305284D02*
X4389111Y-15305284D01*
X4570063Y-15305284D02*
X4551015Y-15295760D01*
X4551015Y-15295760D02*
X4541492Y-15276712D01*
X4541492Y-15276712D02*
X4541492Y-15105284D01*
X4722444Y-15295760D02*
X4703396Y-15305284D01*
X4703396Y-15305284D02*
X4665301Y-15305284D01*
X4665301Y-15305284D02*
X4646253Y-15295760D01*
X4646253Y-15295760D02*
X4636730Y-15276712D01*
X4636730Y-15276712D02*
X4636730Y-15200522D01*
X4636730Y-15200522D02*
X4646253Y-15181474D01*
X4646253Y-15181474D02*
X4665301Y-15171950D01*
X4665301Y-15171950D02*
X4703396Y-15171950D01*
X4703396Y-15171950D02*
X4722444Y-15181474D01*
X4722444Y-15181474D02*
X4731968Y-15200522D01*
X4731968Y-15200522D02*
X4731968Y-15219569D01*
X4731968Y-15219569D02*
X4636730Y-15238617D01*
X4808158Y-15295760D02*
X4827206Y-15305284D01*
X4827206Y-15305284D02*
X4865301Y-15305284D01*
X4865301Y-15305284D02*
X4884349Y-15295760D01*
X4884349Y-15295760D02*
X4893873Y-15276712D01*
X4893873Y-15276712D02*
X4893873Y-15267188D01*
X4893873Y-15267188D02*
X4884349Y-15248141D01*
X4884349Y-15248141D02*
X4865301Y-15238617D01*
X4865301Y-15238617D02*
X4836730Y-15238617D01*
X4836730Y-15238617D02*
X4817682Y-15229093D01*
X4817682Y-15229093D02*
X4808158Y-15210046D01*
X4808158Y-15210046D02*
X4808158Y-15200522D01*
X4808158Y-15200522D02*
X4817682Y-15181474D01*
X4817682Y-15181474D02*
X4836730Y-15171950D01*
X4836730Y-15171950D02*
X4865301Y-15171950D01*
X4865301Y-15171950D02*
X4884349Y-15181474D01*
X4960539Y-15381474D02*
X4970063Y-15371950D01*
X4970063Y-15371950D02*
X4989111Y-15343379D01*
X4989111Y-15343379D02*
X4998634Y-15324331D01*
X4998634Y-15324331D02*
X5008158Y-15295760D01*
X5008158Y-15295760D02*
X5017682Y-15248141D01*
X5017682Y-15248141D02*
X5017682Y-15210046D01*
X5017682Y-15210046D02*
X5008158Y-15162427D01*
X5008158Y-15162427D02*
X4998634Y-15133855D01*
X4998634Y-15133855D02*
X4989111Y-15114808D01*
X4989111Y-15114808D02*
X4970063Y-15086236D01*
X4970063Y-15086236D02*
X4960539Y-15076712D01*
M02*
