M48
; DRILL file {KiCad 7.0.6} date Tue 11 Jul 2023 01:44:21 PM IST
; FORMAT={-:-/ absolute / inch / decimal}
; #@! TF.CreationDate,2023-07-11T13:44:21+05:30
; #@! TF.GenerationSoftware,Kicad,Pcbnew,7.0.6
; #@! TF.FileFunction,NonPlated,1,2,NPTH
FMAT,2
INCH
; #@! TA.AperFunction,NonPlated,NPTH,ComponentDrill
T1C0.0315
%
G90
G05
T1
X0.1143Y-4.4819
X0.2143Y-4.4819
X0.3143Y-4.4819
X0.5553Y-4.4819
X0.6553Y-4.4819
X0.7553Y-4.4819
X0.9962Y-4.4819
X1.0962Y-4.4819
X1.1962Y-4.4819
X1.4372Y-4.4819
X1.5372Y-4.4819
X1.6372Y-4.4819
X1.8781Y-4.4819
X1.9781Y-4.4819
X2.0781Y-4.4819
X2.3191Y-4.4819
X2.4191Y-4.4819
X2.5191Y-4.4819
X2.76Y-4.4819
X2.86Y-4.4819
X2.96Y-4.4819
X3.2009Y-4.4819
X3.3009Y-4.4819
X3.4009Y-4.4819
X3.6419Y-4.4819
X3.7419Y-4.4819
X3.8419Y-4.4819
X4.0828Y-4.4819
X4.1828Y-4.4819
X4.2828Y-4.4819
T0
M30
