%TF.GenerationSoftware,KiCad,Pcbnew,7.0.6*%
%TF.CreationDate,2023-07-20T19:54:13+05:30*%
%TF.ProjectId,trainer kit arduino proto,74726169-6e65-4722-906b-697420617264,rev?*%
%TF.SameCoordinates,Original*%
%TF.FileFunction,Soldermask,Bot*%
%TF.FilePolarity,Negative*%
%FSLAX46Y46*%
G04 Gerber Fmt 4.6, Leading zero omitted, Abs format (unit mm)*
G04 Created by KiCad (PCBNEW 7.0.6) date 2023-07-20 19:54:13*
%MOMM*%
%LPD*%
G01*
G04 APERTURE LIST*
%ADD10R,3.750000X2.400000*%
%ADD11R,1.600000X1.600000*%
%ADD12O,1.600000X1.600000*%
%ADD13C,5.900000*%
%ADD14C,9.000000*%
%ADD15R,1.800000X1.800000*%
%ADD16C,1.800000*%
%ADD17C,1.400000*%
%ADD18O,1.400000X1.400000*%
%ADD19C,1.600000*%
%ADD20R,2.000000X2.000000*%
%ADD21C,2.000000*%
G04 APERTURE END LIST*
D10*
%TO.C,SW10*%
X106600000Y-118420000D03*
X106600000Y-123300000D03*
X106600000Y-127300000D03*
%TD*%
%TO.C,SW9*%
X95350000Y-118420000D03*
X95350000Y-123300000D03*
X95350000Y-127300000D03*
%TD*%
%TO.C,SW8*%
X83750000Y-127350000D03*
X83750000Y-123350000D03*
X83750000Y-118470000D03*
%TD*%
%TO.C,SW7*%
X72500000Y-127350000D03*
X72500000Y-123350000D03*
X72500000Y-118470000D03*
%TD*%
%TO.C,SW6*%
X61450000Y-118470000D03*
X61450000Y-123350000D03*
X61450000Y-127350000D03*
%TD*%
%TO.C,SW5*%
X50350000Y-118470000D03*
X50350000Y-123350000D03*
X50350000Y-127350000D03*
%TD*%
%TO.C,SW4*%
X39250000Y-118420000D03*
X39250000Y-123300000D03*
X39250000Y-127300000D03*
%TD*%
%TO.C,SW3*%
X28300000Y-118370000D03*
X28300000Y-123250000D03*
X28300000Y-127250000D03*
%TD*%
%TO.C,SW2*%
X16850000Y-127200000D03*
X16850000Y-123200000D03*
X16850000Y-118320000D03*
%TD*%
%TO.C,SW1*%
X5000000Y-118270000D03*
X5000000Y-123150000D03*
X5000000Y-127150000D03*
%TD*%
D11*
%TO.C,A1*%
X74151000Y-97790000D03*
D12*
X71611000Y-97790000D03*
X69071000Y-97790000D03*
X66531000Y-97790000D03*
X63991000Y-97790000D03*
X61451000Y-97790000D03*
X58911000Y-97790000D03*
X56371000Y-97790000D03*
X51291000Y-97790000D03*
X48751000Y-97790000D03*
X46211000Y-97790000D03*
X43671000Y-97790000D03*
X41131000Y-97790000D03*
X38591000Y-97790000D03*
X38591000Y-49530000D03*
X41131000Y-49530000D03*
X43671000Y-49530000D03*
X46211000Y-49530000D03*
X48751000Y-49530000D03*
X51291000Y-49530000D03*
X53831000Y-49530000D03*
X56371000Y-49530000D03*
X60431000Y-49530000D03*
X62971000Y-49530000D03*
X65511000Y-49530000D03*
X68051000Y-49530000D03*
X70591000Y-49530000D03*
X73131000Y-49530000D03*
X75671000Y-49530000D03*
X78211000Y-49530000D03*
X80751000Y-49530000D03*
X83291000Y-49530000D03*
%TD*%
D13*
%TO.C,BP2*%
X17150000Y-140000000D03*
D14*
X17150000Y-140000000D03*
%TD*%
D13*
%TO.C,BP24*%
X5952000Y-59626000D03*
D14*
X5952000Y-59626000D03*
%TD*%
D13*
%TO.C,BP5*%
X50244000Y-140000000D03*
D14*
X50244000Y-140000000D03*
%TD*%
D15*
%TO.C,D18*%
X25256000Y-3556000D03*
D16*
X22716000Y-3556000D03*
%TD*%
D17*
%TO.C,R5*%
X19850000Y-105600000D03*
D18*
X19850000Y-110680000D03*
%TD*%
D15*
%TO.C,D22*%
X66912000Y-3556000D03*
D16*
X64372000Y-3556000D03*
%TD*%
D13*
%TO.C,BP19*%
X66610000Y-13208000D03*
D14*
X66610000Y-13208000D03*
%TD*%
D15*
%TO.C,D12*%
X92312000Y-108204000D03*
D16*
X94852000Y-108204000D03*
%TD*%
D15*
%TO.C,D21*%
X56503000Y-3556000D03*
D16*
X53963000Y-3556000D03*
%TD*%
D13*
%TO.C,BP13*%
X4572000Y-13208000D03*
D14*
X4572000Y-13208000D03*
%TD*%
D11*
%TO.C,U4*%
X20176000Y-41148000D03*
D19*
X22716000Y-41148000D03*
X25256000Y-41148000D03*
X27796000Y-41148000D03*
X30336000Y-41148000D03*
X30336000Y-25908000D03*
X27796000Y-25908000D03*
X25256000Y-25908000D03*
X22716000Y-25908000D03*
X20176000Y-25908000D03*
%TD*%
D13*
%TO.C,BP22*%
X69452000Y-40132000D03*
D14*
X69452000Y-40132000D03*
%TD*%
D13*
%TO.C,BP14*%
X14922000Y-13208000D03*
D14*
X14922000Y-13208000D03*
%TD*%
D13*
%TO.C,BP1*%
X5750000Y-140000000D03*
D14*
X5750000Y-140000000D03*
%TD*%
D17*
%TO.C,R13*%
X109220000Y-105156000D03*
D18*
X109220000Y-110236000D03*
%TD*%
D13*
%TO.C,BP21*%
X68944000Y-27432000D03*
D14*
X68944000Y-27432000D03*
%TD*%
D15*
%TO.C,D16*%
X4428000Y-4064000D03*
D16*
X1888000Y-4064000D03*
%TD*%
D17*
%TO.C,R9*%
X64516000Y-104949000D03*
D18*
X64516000Y-110029000D03*
%TD*%
D13*
%TO.C,BP4*%
X39044000Y-140000000D03*
D14*
X39044000Y-140000000D03*
%TD*%
D17*
%TO.C,R6*%
X30988000Y-105052500D03*
D18*
X30988000Y-110132500D03*
%TD*%
D15*
%TO.C,D23*%
X77580000Y-3556000D03*
D16*
X75040000Y-3556000D03*
%TD*%
D17*
%TO.C,R17*%
X18796000Y-7413000D03*
D18*
X18796000Y-2333000D03*
%TD*%
D17*
%TO.C,R8*%
X52832000Y-104949000D03*
D18*
X52832000Y-110029000D03*
%TD*%
D15*
%TO.C,D3*%
X8492000Y-93980000D03*
D16*
X11032000Y-93980000D03*
%TD*%
D15*
%TO.C,D8*%
X47349000Y-108204000D03*
D16*
X49889000Y-108204000D03*
%TD*%
D15*
%TO.C,D25*%
X55804000Y-40412000D03*
D16*
X55804000Y-42952000D03*
%TD*%
D17*
%TO.C,R7*%
X42164000Y-104949000D03*
D18*
X42164000Y-110029000D03*
%TD*%
D13*
%TO.C,BP26*%
X5952000Y-39116000D03*
D14*
X5952000Y-39116000D03*
%TD*%
D15*
%TO.C,D19*%
X35675000Y-3556000D03*
D16*
X33135000Y-3556000D03*
%TD*%
D13*
%TO.C,BP3*%
X27900000Y-140000000D03*
D14*
X27900000Y-140000000D03*
%TD*%
D13*
%TO.C,BP29*%
X18335000Y-84477000D03*
D14*
X18335000Y-84477000D03*
%TD*%
D17*
%TO.C,R24*%
X62484000Y-30988000D03*
D18*
X62484000Y-36068000D03*
%TD*%
D15*
%TO.C,D10*%
X69701000Y-108204000D03*
D16*
X72241000Y-108204000D03*
%TD*%
D13*
%TO.C,BP28*%
X18335000Y-74127000D03*
D14*
X18335000Y-74127000D03*
%TD*%
D11*
%TO.C,U2*%
X57504000Y-28712000D03*
D12*
X54964000Y-28712000D03*
X52424000Y-28712000D03*
X49884000Y-28712000D03*
X49884000Y-36332000D03*
X52424000Y-36332000D03*
X54964000Y-36332000D03*
X57504000Y-36332000D03*
%TD*%
D17*
%TO.C,R14*%
X39624000Y-37592000D03*
D18*
X39624000Y-42672000D03*
%TD*%
D13*
%TO.C,BP9*%
X95044000Y-140000000D03*
D14*
X95044000Y-140000000D03*
%TD*%
D13*
%TO.C,BP16*%
X35560000Y-13208000D03*
D14*
X35560000Y-13208000D03*
%TD*%
D17*
%TO.C,R26*%
X43180000Y-42672000D03*
D18*
X48260000Y-42672000D03*
%TD*%
D17*
%TO.C,R10*%
X75692000Y-105052500D03*
D18*
X75692000Y-110132500D03*
%TD*%
D13*
%TO.C,BP11*%
X94852000Y-6604000D03*
D14*
X94852000Y-6604000D03*
%TD*%
D15*
%TO.C,D9*%
X58784000Y-108204000D03*
D16*
X61324000Y-108204000D03*
%TD*%
D13*
%TO.C,BP23*%
X39988000Y-28448000D03*
D14*
X39988000Y-28448000D03*
%TD*%
D13*
%TO.C,BP8*%
X83844000Y-140000000D03*
D14*
X83844000Y-140000000D03*
%TD*%
D17*
%TO.C,R3*%
X12192000Y-98552000D03*
D18*
X7112000Y-98552000D03*
%TD*%
D17*
%TO.C,R21*%
X59944000Y-6905000D03*
D18*
X59944000Y-1825000D03*
%TD*%
D15*
%TO.C,D1*%
X8492000Y-71628000D03*
D16*
X11032000Y-71628000D03*
%TD*%
D17*
%TO.C,R2*%
X11684000Y-86868000D03*
D18*
X6604000Y-86868000D03*
%TD*%
D17*
%TO.C,R19*%
X39624000Y-7620000D03*
D18*
X39624000Y-2540000D03*
%TD*%
D15*
%TO.C,D7*%
X36432000Y-108204000D03*
D16*
X38972000Y-108204000D03*
%TD*%
D15*
%TO.C,D17*%
X14626000Y-3556000D03*
D16*
X12086000Y-3556000D03*
%TD*%
D13*
%TO.C,BP7*%
X72644000Y-140000000D03*
D14*
X72644000Y-140000000D03*
%TD*%
D13*
%TO.C,BP27*%
X5952000Y-28766000D03*
D14*
X5952000Y-28766000D03*
%TD*%
D15*
%TO.C,D6*%
X25256000Y-108204000D03*
D16*
X27796000Y-108204000D03*
%TD*%
D15*
%TO.C,D11*%
X80877000Y-108204000D03*
D16*
X83417000Y-108204000D03*
%TD*%
D17*
%TO.C,R23*%
X81788000Y-7112000D03*
D18*
X81788000Y-2032000D03*
%TD*%
D11*
%TO.C,U3*%
X20176000Y-46736000D03*
D12*
X20176000Y-49276000D03*
X20176000Y-51816000D03*
X20176000Y-54356000D03*
X20176000Y-56896000D03*
X20176000Y-59436000D03*
X20176000Y-61976000D03*
X20176000Y-64516000D03*
X30336000Y-64516000D03*
X30336000Y-61976000D03*
X30336000Y-59436000D03*
X30336000Y-56896000D03*
X30336000Y-54356000D03*
X30336000Y-51816000D03*
X30336000Y-49276000D03*
X30336000Y-46736000D03*
%TD*%
D16*
%TO.C,D13*%
X106028000Y-108204000D03*
D15*
X103488000Y-108204000D03*
%TD*%
D17*
%TO.C,R22*%
X71120000Y-7112000D03*
D18*
X71120000Y-2032000D03*
%TD*%
D17*
%TO.C,R4*%
X8128000Y-105560500D03*
D18*
X8128000Y-110640500D03*
%TD*%
D15*
%TO.C,D4*%
X1888000Y-108204000D03*
D16*
X4428000Y-108204000D03*
%TD*%
D17*
%TO.C,R11*%
X86868000Y-105156000D03*
D18*
X86868000Y-110236000D03*
%TD*%
D17*
%TO.C,R18*%
X29464000Y-7620000D03*
D18*
X29464000Y-2540000D03*
%TD*%
D17*
%TO.C,R25*%
X49784000Y-25400000D03*
D18*
X54864000Y-25400000D03*
%TD*%
D17*
%TO.C,R16*%
X8128000Y-7112000D03*
D18*
X8128000Y-2032000D03*
%TD*%
D15*
%TO.C,D5*%
X13572000Y-108204000D03*
D16*
X16112000Y-108204000D03*
%TD*%
D13*
%TO.C,BP18*%
X56260000Y-13208000D03*
D14*
X56260000Y-13208000D03*
%TD*%
D13*
%TO.C,BP12*%
X94852000Y-17780000D03*
D14*
X94852000Y-17780000D03*
%TD*%
D17*
%TO.C,R12*%
X97900000Y-105156000D03*
D18*
X97900000Y-110236000D03*
%TD*%
D13*
%TO.C,BP25*%
X5952000Y-49276000D03*
D14*
X5952000Y-49276000D03*
%TD*%
D20*
%TO.C,D24*%
X80648000Y-34544000D03*
D21*
X88248000Y-34544000D03*
%TD*%
D17*
%TO.C,R20*%
X49784000Y-7516500D03*
D18*
X49784000Y-2436500D03*
%TD*%
D17*
%TO.C,R1*%
X11684000Y-76200000D03*
D18*
X6604000Y-76200000D03*
%TD*%
D15*
%TO.C,D20*%
X45835000Y-3556000D03*
D16*
X43295000Y-3556000D03*
%TD*%
D13*
%TO.C,BP20*%
X76960000Y-13208000D03*
D14*
X76960000Y-13208000D03*
%TD*%
D15*
%TO.C,D2*%
X8492000Y-82296000D03*
D16*
X11032000Y-82296000D03*
%TD*%
D13*
%TO.C,BP10*%
X106244000Y-140000000D03*
D14*
X106244000Y-140000000D03*
%TD*%
D13*
%TO.C,BP17*%
X45910000Y-13208000D03*
D14*
X45910000Y-13208000D03*
%TD*%
D13*
%TO.C,BP30*%
X18335000Y-94827000D03*
D14*
X18335000Y-94827000D03*
%TD*%
D13*
%TO.C,BP6*%
X61444000Y-140000000D03*
D14*
X61444000Y-140000000D03*
%TD*%
D13*
%TO.C,BP15*%
X25272000Y-13208000D03*
D14*
X25272000Y-13208000D03*
%TD*%
M02*
