%TF.GenerationSoftware,KiCad,Pcbnew,7.0.6*%
%TF.CreationDate,2023-07-20T19:54:13+05:30*%
%TF.ProjectId,trainer kit arduino proto,74726169-6e65-4722-906b-697420617264,rev?*%
%TF.SameCoordinates,Original*%
%TF.FileFunction,Legend,Top*%
%TF.FilePolarity,Positive*%
%FSLAX46Y46*%
G04 Gerber Fmt 4.6, Leading zero omitted, Abs format (unit mm)*
G04 Created by KiCad (PCBNEW 7.0.6) date 2023-07-20 19:54:13*
%MOMM*%
%LPD*%
G01*
G04 APERTURE LIST*
%ADD10C,0.100000*%
%ADD11C,0.150000*%
%ADD12C,0.120000*%
G04 APERTURE END LIST*
D10*
X100740476Y-130509800D02*
X100883333Y-130557419D01*
X100883333Y-130557419D02*
X101121428Y-130557419D01*
X101121428Y-130557419D02*
X101216666Y-130509800D01*
X101216666Y-130509800D02*
X101264285Y-130462180D01*
X101264285Y-130462180D02*
X101311904Y-130366942D01*
X101311904Y-130366942D02*
X101311904Y-130271704D01*
X101311904Y-130271704D02*
X101264285Y-130176466D01*
X101264285Y-130176466D02*
X101216666Y-130128847D01*
X101216666Y-130128847D02*
X101121428Y-130081228D01*
X101121428Y-130081228D02*
X100930952Y-130033609D01*
X100930952Y-130033609D02*
X100835714Y-129985990D01*
X100835714Y-129985990D02*
X100788095Y-129938371D01*
X100788095Y-129938371D02*
X100740476Y-129843133D01*
X100740476Y-129843133D02*
X100740476Y-129747895D01*
X100740476Y-129747895D02*
X100788095Y-129652657D01*
X100788095Y-129652657D02*
X100835714Y-129605038D01*
X100835714Y-129605038D02*
X100930952Y-129557419D01*
X100930952Y-129557419D02*
X101169047Y-129557419D01*
X101169047Y-129557419D02*
X101311904Y-129605038D01*
X101645238Y-129557419D02*
X101883333Y-130557419D01*
X101883333Y-130557419D02*
X102073809Y-129843133D01*
X102073809Y-129843133D02*
X102264285Y-130557419D01*
X102264285Y-130557419D02*
X102502381Y-129557419D01*
X103407142Y-130557419D02*
X102835714Y-130557419D01*
X103121428Y-130557419D02*
X103121428Y-129557419D01*
X103121428Y-129557419D02*
X103026190Y-129700276D01*
X103026190Y-129700276D02*
X102930952Y-129795514D01*
X102930952Y-129795514D02*
X102835714Y-129843133D01*
X104026190Y-129557419D02*
X104121428Y-129557419D01*
X104121428Y-129557419D02*
X104216666Y-129605038D01*
X104216666Y-129605038D02*
X104264285Y-129652657D01*
X104264285Y-129652657D02*
X104311904Y-129747895D01*
X104311904Y-129747895D02*
X104359523Y-129938371D01*
X104359523Y-129938371D02*
X104359523Y-130176466D01*
X104359523Y-130176466D02*
X104311904Y-130366942D01*
X104311904Y-130366942D02*
X104264285Y-130462180D01*
X104264285Y-130462180D02*
X104216666Y-130509800D01*
X104216666Y-130509800D02*
X104121428Y-130557419D01*
X104121428Y-130557419D02*
X104026190Y-130557419D01*
X104026190Y-130557419D02*
X103930952Y-130509800D01*
X103930952Y-130509800D02*
X103883333Y-130462180D01*
X103883333Y-130462180D02*
X103835714Y-130366942D01*
X103835714Y-130366942D02*
X103788095Y-130176466D01*
X103788095Y-130176466D02*
X103788095Y-129938371D01*
X103788095Y-129938371D02*
X103835714Y-129747895D01*
X103835714Y-129747895D02*
X103883333Y-129652657D01*
X103883333Y-129652657D02*
X103930952Y-129605038D01*
X103930952Y-129605038D02*
X104026190Y-129557419D01*
X89966667Y-130509800D02*
X90109524Y-130557419D01*
X90109524Y-130557419D02*
X90347619Y-130557419D01*
X90347619Y-130557419D02*
X90442857Y-130509800D01*
X90442857Y-130509800D02*
X90490476Y-130462180D01*
X90490476Y-130462180D02*
X90538095Y-130366942D01*
X90538095Y-130366942D02*
X90538095Y-130271704D01*
X90538095Y-130271704D02*
X90490476Y-130176466D01*
X90490476Y-130176466D02*
X90442857Y-130128847D01*
X90442857Y-130128847D02*
X90347619Y-130081228D01*
X90347619Y-130081228D02*
X90157143Y-130033609D01*
X90157143Y-130033609D02*
X90061905Y-129985990D01*
X90061905Y-129985990D02*
X90014286Y-129938371D01*
X90014286Y-129938371D02*
X89966667Y-129843133D01*
X89966667Y-129843133D02*
X89966667Y-129747895D01*
X89966667Y-129747895D02*
X90014286Y-129652657D01*
X90014286Y-129652657D02*
X90061905Y-129605038D01*
X90061905Y-129605038D02*
X90157143Y-129557419D01*
X90157143Y-129557419D02*
X90395238Y-129557419D01*
X90395238Y-129557419D02*
X90538095Y-129605038D01*
X90871429Y-129557419D02*
X91109524Y-130557419D01*
X91109524Y-130557419D02*
X91300000Y-129843133D01*
X91300000Y-129843133D02*
X91490476Y-130557419D01*
X91490476Y-130557419D02*
X91728572Y-129557419D01*
X92157143Y-130557419D02*
X92347619Y-130557419D01*
X92347619Y-130557419D02*
X92442857Y-130509800D01*
X92442857Y-130509800D02*
X92490476Y-130462180D01*
X92490476Y-130462180D02*
X92585714Y-130319323D01*
X92585714Y-130319323D02*
X92633333Y-130128847D01*
X92633333Y-130128847D02*
X92633333Y-129747895D01*
X92633333Y-129747895D02*
X92585714Y-129652657D01*
X92585714Y-129652657D02*
X92538095Y-129605038D01*
X92538095Y-129605038D02*
X92442857Y-129557419D01*
X92442857Y-129557419D02*
X92252381Y-129557419D01*
X92252381Y-129557419D02*
X92157143Y-129605038D01*
X92157143Y-129605038D02*
X92109524Y-129652657D01*
X92109524Y-129652657D02*
X92061905Y-129747895D01*
X92061905Y-129747895D02*
X92061905Y-129985990D01*
X92061905Y-129985990D02*
X92109524Y-130081228D01*
X92109524Y-130081228D02*
X92157143Y-130128847D01*
X92157143Y-130128847D02*
X92252381Y-130176466D01*
X92252381Y-130176466D02*
X92442857Y-130176466D01*
X92442857Y-130176466D02*
X92538095Y-130128847D01*
X92538095Y-130128847D02*
X92585714Y-130081228D01*
X92585714Y-130081228D02*
X92633333Y-129985990D01*
X78366667Y-130559800D02*
X78509524Y-130607419D01*
X78509524Y-130607419D02*
X78747619Y-130607419D01*
X78747619Y-130607419D02*
X78842857Y-130559800D01*
X78842857Y-130559800D02*
X78890476Y-130512180D01*
X78890476Y-130512180D02*
X78938095Y-130416942D01*
X78938095Y-130416942D02*
X78938095Y-130321704D01*
X78938095Y-130321704D02*
X78890476Y-130226466D01*
X78890476Y-130226466D02*
X78842857Y-130178847D01*
X78842857Y-130178847D02*
X78747619Y-130131228D01*
X78747619Y-130131228D02*
X78557143Y-130083609D01*
X78557143Y-130083609D02*
X78461905Y-130035990D01*
X78461905Y-130035990D02*
X78414286Y-129988371D01*
X78414286Y-129988371D02*
X78366667Y-129893133D01*
X78366667Y-129893133D02*
X78366667Y-129797895D01*
X78366667Y-129797895D02*
X78414286Y-129702657D01*
X78414286Y-129702657D02*
X78461905Y-129655038D01*
X78461905Y-129655038D02*
X78557143Y-129607419D01*
X78557143Y-129607419D02*
X78795238Y-129607419D01*
X78795238Y-129607419D02*
X78938095Y-129655038D01*
X79271429Y-129607419D02*
X79509524Y-130607419D01*
X79509524Y-130607419D02*
X79700000Y-129893133D01*
X79700000Y-129893133D02*
X79890476Y-130607419D01*
X79890476Y-130607419D02*
X80128572Y-129607419D01*
X80652381Y-130035990D02*
X80557143Y-129988371D01*
X80557143Y-129988371D02*
X80509524Y-129940752D01*
X80509524Y-129940752D02*
X80461905Y-129845514D01*
X80461905Y-129845514D02*
X80461905Y-129797895D01*
X80461905Y-129797895D02*
X80509524Y-129702657D01*
X80509524Y-129702657D02*
X80557143Y-129655038D01*
X80557143Y-129655038D02*
X80652381Y-129607419D01*
X80652381Y-129607419D02*
X80842857Y-129607419D01*
X80842857Y-129607419D02*
X80938095Y-129655038D01*
X80938095Y-129655038D02*
X80985714Y-129702657D01*
X80985714Y-129702657D02*
X81033333Y-129797895D01*
X81033333Y-129797895D02*
X81033333Y-129845514D01*
X81033333Y-129845514D02*
X80985714Y-129940752D01*
X80985714Y-129940752D02*
X80938095Y-129988371D01*
X80938095Y-129988371D02*
X80842857Y-130035990D01*
X80842857Y-130035990D02*
X80652381Y-130035990D01*
X80652381Y-130035990D02*
X80557143Y-130083609D01*
X80557143Y-130083609D02*
X80509524Y-130131228D01*
X80509524Y-130131228D02*
X80461905Y-130226466D01*
X80461905Y-130226466D02*
X80461905Y-130416942D01*
X80461905Y-130416942D02*
X80509524Y-130512180D01*
X80509524Y-130512180D02*
X80557143Y-130559800D01*
X80557143Y-130559800D02*
X80652381Y-130607419D01*
X80652381Y-130607419D02*
X80842857Y-130607419D01*
X80842857Y-130607419D02*
X80938095Y-130559800D01*
X80938095Y-130559800D02*
X80985714Y-130512180D01*
X80985714Y-130512180D02*
X81033333Y-130416942D01*
X81033333Y-130416942D02*
X81033333Y-130226466D01*
X81033333Y-130226466D02*
X80985714Y-130131228D01*
X80985714Y-130131228D02*
X80938095Y-130083609D01*
X80938095Y-130083609D02*
X80842857Y-130035990D01*
X67116667Y-130559800D02*
X67259524Y-130607419D01*
X67259524Y-130607419D02*
X67497619Y-130607419D01*
X67497619Y-130607419D02*
X67592857Y-130559800D01*
X67592857Y-130559800D02*
X67640476Y-130512180D01*
X67640476Y-130512180D02*
X67688095Y-130416942D01*
X67688095Y-130416942D02*
X67688095Y-130321704D01*
X67688095Y-130321704D02*
X67640476Y-130226466D01*
X67640476Y-130226466D02*
X67592857Y-130178847D01*
X67592857Y-130178847D02*
X67497619Y-130131228D01*
X67497619Y-130131228D02*
X67307143Y-130083609D01*
X67307143Y-130083609D02*
X67211905Y-130035990D01*
X67211905Y-130035990D02*
X67164286Y-129988371D01*
X67164286Y-129988371D02*
X67116667Y-129893133D01*
X67116667Y-129893133D02*
X67116667Y-129797895D01*
X67116667Y-129797895D02*
X67164286Y-129702657D01*
X67164286Y-129702657D02*
X67211905Y-129655038D01*
X67211905Y-129655038D02*
X67307143Y-129607419D01*
X67307143Y-129607419D02*
X67545238Y-129607419D01*
X67545238Y-129607419D02*
X67688095Y-129655038D01*
X68021429Y-129607419D02*
X68259524Y-130607419D01*
X68259524Y-130607419D02*
X68450000Y-129893133D01*
X68450000Y-129893133D02*
X68640476Y-130607419D01*
X68640476Y-130607419D02*
X68878572Y-129607419D01*
X69164286Y-129607419D02*
X69830952Y-129607419D01*
X69830952Y-129607419D02*
X69402381Y-130607419D01*
X56066667Y-130559800D02*
X56209524Y-130607419D01*
X56209524Y-130607419D02*
X56447619Y-130607419D01*
X56447619Y-130607419D02*
X56542857Y-130559800D01*
X56542857Y-130559800D02*
X56590476Y-130512180D01*
X56590476Y-130512180D02*
X56638095Y-130416942D01*
X56638095Y-130416942D02*
X56638095Y-130321704D01*
X56638095Y-130321704D02*
X56590476Y-130226466D01*
X56590476Y-130226466D02*
X56542857Y-130178847D01*
X56542857Y-130178847D02*
X56447619Y-130131228D01*
X56447619Y-130131228D02*
X56257143Y-130083609D01*
X56257143Y-130083609D02*
X56161905Y-130035990D01*
X56161905Y-130035990D02*
X56114286Y-129988371D01*
X56114286Y-129988371D02*
X56066667Y-129893133D01*
X56066667Y-129893133D02*
X56066667Y-129797895D01*
X56066667Y-129797895D02*
X56114286Y-129702657D01*
X56114286Y-129702657D02*
X56161905Y-129655038D01*
X56161905Y-129655038D02*
X56257143Y-129607419D01*
X56257143Y-129607419D02*
X56495238Y-129607419D01*
X56495238Y-129607419D02*
X56638095Y-129655038D01*
X56971429Y-129607419D02*
X57209524Y-130607419D01*
X57209524Y-130607419D02*
X57400000Y-129893133D01*
X57400000Y-129893133D02*
X57590476Y-130607419D01*
X57590476Y-130607419D02*
X57828572Y-129607419D01*
X58638095Y-129607419D02*
X58447619Y-129607419D01*
X58447619Y-129607419D02*
X58352381Y-129655038D01*
X58352381Y-129655038D02*
X58304762Y-129702657D01*
X58304762Y-129702657D02*
X58209524Y-129845514D01*
X58209524Y-129845514D02*
X58161905Y-130035990D01*
X58161905Y-130035990D02*
X58161905Y-130416942D01*
X58161905Y-130416942D02*
X58209524Y-130512180D01*
X58209524Y-130512180D02*
X58257143Y-130559800D01*
X58257143Y-130559800D02*
X58352381Y-130607419D01*
X58352381Y-130607419D02*
X58542857Y-130607419D01*
X58542857Y-130607419D02*
X58638095Y-130559800D01*
X58638095Y-130559800D02*
X58685714Y-130512180D01*
X58685714Y-130512180D02*
X58733333Y-130416942D01*
X58733333Y-130416942D02*
X58733333Y-130178847D01*
X58733333Y-130178847D02*
X58685714Y-130083609D01*
X58685714Y-130083609D02*
X58638095Y-130035990D01*
X58638095Y-130035990D02*
X58542857Y-129988371D01*
X58542857Y-129988371D02*
X58352381Y-129988371D01*
X58352381Y-129988371D02*
X58257143Y-130035990D01*
X58257143Y-130035990D02*
X58209524Y-130083609D01*
X58209524Y-130083609D02*
X58161905Y-130178847D01*
X44966667Y-130559800D02*
X45109524Y-130607419D01*
X45109524Y-130607419D02*
X45347619Y-130607419D01*
X45347619Y-130607419D02*
X45442857Y-130559800D01*
X45442857Y-130559800D02*
X45490476Y-130512180D01*
X45490476Y-130512180D02*
X45538095Y-130416942D01*
X45538095Y-130416942D02*
X45538095Y-130321704D01*
X45538095Y-130321704D02*
X45490476Y-130226466D01*
X45490476Y-130226466D02*
X45442857Y-130178847D01*
X45442857Y-130178847D02*
X45347619Y-130131228D01*
X45347619Y-130131228D02*
X45157143Y-130083609D01*
X45157143Y-130083609D02*
X45061905Y-130035990D01*
X45061905Y-130035990D02*
X45014286Y-129988371D01*
X45014286Y-129988371D02*
X44966667Y-129893133D01*
X44966667Y-129893133D02*
X44966667Y-129797895D01*
X44966667Y-129797895D02*
X45014286Y-129702657D01*
X45014286Y-129702657D02*
X45061905Y-129655038D01*
X45061905Y-129655038D02*
X45157143Y-129607419D01*
X45157143Y-129607419D02*
X45395238Y-129607419D01*
X45395238Y-129607419D02*
X45538095Y-129655038D01*
X45871429Y-129607419D02*
X46109524Y-130607419D01*
X46109524Y-130607419D02*
X46300000Y-129893133D01*
X46300000Y-129893133D02*
X46490476Y-130607419D01*
X46490476Y-130607419D02*
X46728572Y-129607419D01*
X47585714Y-129607419D02*
X47109524Y-129607419D01*
X47109524Y-129607419D02*
X47061905Y-130083609D01*
X47061905Y-130083609D02*
X47109524Y-130035990D01*
X47109524Y-130035990D02*
X47204762Y-129988371D01*
X47204762Y-129988371D02*
X47442857Y-129988371D01*
X47442857Y-129988371D02*
X47538095Y-130035990D01*
X47538095Y-130035990D02*
X47585714Y-130083609D01*
X47585714Y-130083609D02*
X47633333Y-130178847D01*
X47633333Y-130178847D02*
X47633333Y-130416942D01*
X47633333Y-130416942D02*
X47585714Y-130512180D01*
X47585714Y-130512180D02*
X47538095Y-130559800D01*
X47538095Y-130559800D02*
X47442857Y-130607419D01*
X47442857Y-130607419D02*
X47204762Y-130607419D01*
X47204762Y-130607419D02*
X47109524Y-130559800D01*
X47109524Y-130559800D02*
X47061905Y-130512180D01*
X33866667Y-130509800D02*
X34009524Y-130557419D01*
X34009524Y-130557419D02*
X34247619Y-130557419D01*
X34247619Y-130557419D02*
X34342857Y-130509800D01*
X34342857Y-130509800D02*
X34390476Y-130462180D01*
X34390476Y-130462180D02*
X34438095Y-130366942D01*
X34438095Y-130366942D02*
X34438095Y-130271704D01*
X34438095Y-130271704D02*
X34390476Y-130176466D01*
X34390476Y-130176466D02*
X34342857Y-130128847D01*
X34342857Y-130128847D02*
X34247619Y-130081228D01*
X34247619Y-130081228D02*
X34057143Y-130033609D01*
X34057143Y-130033609D02*
X33961905Y-129985990D01*
X33961905Y-129985990D02*
X33914286Y-129938371D01*
X33914286Y-129938371D02*
X33866667Y-129843133D01*
X33866667Y-129843133D02*
X33866667Y-129747895D01*
X33866667Y-129747895D02*
X33914286Y-129652657D01*
X33914286Y-129652657D02*
X33961905Y-129605038D01*
X33961905Y-129605038D02*
X34057143Y-129557419D01*
X34057143Y-129557419D02*
X34295238Y-129557419D01*
X34295238Y-129557419D02*
X34438095Y-129605038D01*
X34771429Y-129557419D02*
X35009524Y-130557419D01*
X35009524Y-130557419D02*
X35200000Y-129843133D01*
X35200000Y-129843133D02*
X35390476Y-130557419D01*
X35390476Y-130557419D02*
X35628572Y-129557419D01*
X36438095Y-129890752D02*
X36438095Y-130557419D01*
X36200000Y-129509800D02*
X35961905Y-130224085D01*
X35961905Y-130224085D02*
X36580952Y-130224085D01*
X22916667Y-130459800D02*
X23059524Y-130507419D01*
X23059524Y-130507419D02*
X23297619Y-130507419D01*
X23297619Y-130507419D02*
X23392857Y-130459800D01*
X23392857Y-130459800D02*
X23440476Y-130412180D01*
X23440476Y-130412180D02*
X23488095Y-130316942D01*
X23488095Y-130316942D02*
X23488095Y-130221704D01*
X23488095Y-130221704D02*
X23440476Y-130126466D01*
X23440476Y-130126466D02*
X23392857Y-130078847D01*
X23392857Y-130078847D02*
X23297619Y-130031228D01*
X23297619Y-130031228D02*
X23107143Y-129983609D01*
X23107143Y-129983609D02*
X23011905Y-129935990D01*
X23011905Y-129935990D02*
X22964286Y-129888371D01*
X22964286Y-129888371D02*
X22916667Y-129793133D01*
X22916667Y-129793133D02*
X22916667Y-129697895D01*
X22916667Y-129697895D02*
X22964286Y-129602657D01*
X22964286Y-129602657D02*
X23011905Y-129555038D01*
X23011905Y-129555038D02*
X23107143Y-129507419D01*
X23107143Y-129507419D02*
X23345238Y-129507419D01*
X23345238Y-129507419D02*
X23488095Y-129555038D01*
X23821429Y-129507419D02*
X24059524Y-130507419D01*
X24059524Y-130507419D02*
X24250000Y-129793133D01*
X24250000Y-129793133D02*
X24440476Y-130507419D01*
X24440476Y-130507419D02*
X24678572Y-129507419D01*
X24964286Y-129507419D02*
X25583333Y-129507419D01*
X25583333Y-129507419D02*
X25250000Y-129888371D01*
X25250000Y-129888371D02*
X25392857Y-129888371D01*
X25392857Y-129888371D02*
X25488095Y-129935990D01*
X25488095Y-129935990D02*
X25535714Y-129983609D01*
X25535714Y-129983609D02*
X25583333Y-130078847D01*
X25583333Y-130078847D02*
X25583333Y-130316942D01*
X25583333Y-130316942D02*
X25535714Y-130412180D01*
X25535714Y-130412180D02*
X25488095Y-130459800D01*
X25488095Y-130459800D02*
X25392857Y-130507419D01*
X25392857Y-130507419D02*
X25107143Y-130507419D01*
X25107143Y-130507419D02*
X25011905Y-130459800D01*
X25011905Y-130459800D02*
X24964286Y-130412180D01*
X11466667Y-130409800D02*
X11609524Y-130457419D01*
X11609524Y-130457419D02*
X11847619Y-130457419D01*
X11847619Y-130457419D02*
X11942857Y-130409800D01*
X11942857Y-130409800D02*
X11990476Y-130362180D01*
X11990476Y-130362180D02*
X12038095Y-130266942D01*
X12038095Y-130266942D02*
X12038095Y-130171704D01*
X12038095Y-130171704D02*
X11990476Y-130076466D01*
X11990476Y-130076466D02*
X11942857Y-130028847D01*
X11942857Y-130028847D02*
X11847619Y-129981228D01*
X11847619Y-129981228D02*
X11657143Y-129933609D01*
X11657143Y-129933609D02*
X11561905Y-129885990D01*
X11561905Y-129885990D02*
X11514286Y-129838371D01*
X11514286Y-129838371D02*
X11466667Y-129743133D01*
X11466667Y-129743133D02*
X11466667Y-129647895D01*
X11466667Y-129647895D02*
X11514286Y-129552657D01*
X11514286Y-129552657D02*
X11561905Y-129505038D01*
X11561905Y-129505038D02*
X11657143Y-129457419D01*
X11657143Y-129457419D02*
X11895238Y-129457419D01*
X11895238Y-129457419D02*
X12038095Y-129505038D01*
X12371429Y-129457419D02*
X12609524Y-130457419D01*
X12609524Y-130457419D02*
X12800000Y-129743133D01*
X12800000Y-129743133D02*
X12990476Y-130457419D01*
X12990476Y-130457419D02*
X13228572Y-129457419D01*
X13561905Y-129552657D02*
X13609524Y-129505038D01*
X13609524Y-129505038D02*
X13704762Y-129457419D01*
X13704762Y-129457419D02*
X13942857Y-129457419D01*
X13942857Y-129457419D02*
X14038095Y-129505038D01*
X14038095Y-129505038D02*
X14085714Y-129552657D01*
X14085714Y-129552657D02*
X14133333Y-129647895D01*
X14133333Y-129647895D02*
X14133333Y-129743133D01*
X14133333Y-129743133D02*
X14085714Y-129885990D01*
X14085714Y-129885990D02*
X13514286Y-130457419D01*
X13514286Y-130457419D02*
X14133333Y-130457419D01*
X-383332Y-130359800D02*
X-240475Y-130407419D01*
X-240475Y-130407419D02*
X-2380Y-130407419D01*
X-2380Y-130407419D02*
X92857Y-130359800D01*
X92857Y-130359800D02*
X140476Y-130312180D01*
X140476Y-130312180D02*
X188095Y-130216942D01*
X188095Y-130216942D02*
X188095Y-130121704D01*
X188095Y-130121704D02*
X140476Y-130026466D01*
X140476Y-130026466D02*
X92857Y-129978847D01*
X92857Y-129978847D02*
X-2380Y-129931228D01*
X-2380Y-129931228D02*
X-192856Y-129883609D01*
X-192856Y-129883609D02*
X-288094Y-129835990D01*
X-288094Y-129835990D02*
X-335713Y-129788371D01*
X-335713Y-129788371D02*
X-383332Y-129693133D01*
X-383332Y-129693133D02*
X-383332Y-129597895D01*
X-383332Y-129597895D02*
X-335713Y-129502657D01*
X-335713Y-129502657D02*
X-288094Y-129455038D01*
X-288094Y-129455038D02*
X-192856Y-129407419D01*
X-192856Y-129407419D02*
X45238Y-129407419D01*
X45238Y-129407419D02*
X188095Y-129455038D01*
X521429Y-129407419D02*
X759524Y-130407419D01*
X759524Y-130407419D02*
X950000Y-129693133D01*
X950000Y-129693133D02*
X1140476Y-130407419D01*
X1140476Y-130407419D02*
X1378572Y-129407419D01*
X2283333Y-130407419D02*
X1711905Y-130407419D01*
X1997619Y-130407419D02*
X1997619Y-129407419D01*
X1997619Y-129407419D02*
X1902381Y-129550276D01*
X1902381Y-129550276D02*
X1807143Y-129645514D01*
X1807143Y-129645514D02*
X1711905Y-129693133D01*
D11*
X73453714Y-98213104D02*
X73929904Y-98213104D01*
X73358476Y-98498819D02*
X73691809Y-97498819D01*
X73691809Y-97498819D02*
X74025142Y-98498819D01*
X74882285Y-98498819D02*
X74310857Y-98498819D01*
X74596571Y-98498819D02*
X74596571Y-97498819D01*
X74596571Y-97498819D02*
X74501333Y-97641676D01*
X74501333Y-97641676D02*
X74406095Y-97736914D01*
X74406095Y-97736914D02*
X74310857Y-97784533D01*
X16245238Y-133431009D02*
X16388095Y-133478628D01*
X16388095Y-133478628D02*
X16435714Y-133526247D01*
X16435714Y-133526247D02*
X16483333Y-133621485D01*
X16483333Y-133621485D02*
X16483333Y-133764342D01*
X16483333Y-133764342D02*
X16435714Y-133859580D01*
X16435714Y-133859580D02*
X16388095Y-133907200D01*
X16388095Y-133907200D02*
X16292857Y-133954819D01*
X16292857Y-133954819D02*
X15911905Y-133954819D01*
X15911905Y-133954819D02*
X15911905Y-132954819D01*
X15911905Y-132954819D02*
X16245238Y-132954819D01*
X16245238Y-132954819D02*
X16340476Y-133002438D01*
X16340476Y-133002438D02*
X16388095Y-133050057D01*
X16388095Y-133050057D02*
X16435714Y-133145295D01*
X16435714Y-133145295D02*
X16435714Y-133240533D01*
X16435714Y-133240533D02*
X16388095Y-133335771D01*
X16388095Y-133335771D02*
X16340476Y-133383390D01*
X16340476Y-133383390D02*
X16245238Y-133431009D01*
X16245238Y-133431009D02*
X15911905Y-133431009D01*
X16911905Y-133954819D02*
X16911905Y-132954819D01*
X16911905Y-132954819D02*
X17292857Y-132954819D01*
X17292857Y-132954819D02*
X17388095Y-133002438D01*
X17388095Y-133002438D02*
X17435714Y-133050057D01*
X17435714Y-133050057D02*
X17483333Y-133145295D01*
X17483333Y-133145295D02*
X17483333Y-133288152D01*
X17483333Y-133288152D02*
X17435714Y-133383390D01*
X17435714Y-133383390D02*
X17388095Y-133431009D01*
X17388095Y-133431009D02*
X17292857Y-133478628D01*
X17292857Y-133478628D02*
X16911905Y-133478628D01*
X17864286Y-133050057D02*
X17911905Y-133002438D01*
X17911905Y-133002438D02*
X18007143Y-132954819D01*
X18007143Y-132954819D02*
X18245238Y-132954819D01*
X18245238Y-132954819D02*
X18340476Y-133002438D01*
X18340476Y-133002438D02*
X18388095Y-133050057D01*
X18388095Y-133050057D02*
X18435714Y-133145295D01*
X18435714Y-133145295D02*
X18435714Y-133240533D01*
X18435714Y-133240533D02*
X18388095Y-133383390D01*
X18388095Y-133383390D02*
X17816667Y-133954819D01*
X17816667Y-133954819D02*
X18435714Y-133954819D01*
X4571047Y-66057009D02*
X4713904Y-66104628D01*
X4713904Y-66104628D02*
X4761523Y-66152247D01*
X4761523Y-66152247D02*
X4809142Y-66247485D01*
X4809142Y-66247485D02*
X4809142Y-66390342D01*
X4809142Y-66390342D02*
X4761523Y-66485580D01*
X4761523Y-66485580D02*
X4713904Y-66533200D01*
X4713904Y-66533200D02*
X4618666Y-66580819D01*
X4618666Y-66580819D02*
X4237714Y-66580819D01*
X4237714Y-66580819D02*
X4237714Y-65580819D01*
X4237714Y-65580819D02*
X4571047Y-65580819D01*
X4571047Y-65580819D02*
X4666285Y-65628438D01*
X4666285Y-65628438D02*
X4713904Y-65676057D01*
X4713904Y-65676057D02*
X4761523Y-65771295D01*
X4761523Y-65771295D02*
X4761523Y-65866533D01*
X4761523Y-65866533D02*
X4713904Y-65961771D01*
X4713904Y-65961771D02*
X4666285Y-66009390D01*
X4666285Y-66009390D02*
X4571047Y-66057009D01*
X4571047Y-66057009D02*
X4237714Y-66057009D01*
X5237714Y-66580819D02*
X5237714Y-65580819D01*
X5237714Y-65580819D02*
X5618666Y-65580819D01*
X5618666Y-65580819D02*
X5713904Y-65628438D01*
X5713904Y-65628438D02*
X5761523Y-65676057D01*
X5761523Y-65676057D02*
X5809142Y-65771295D01*
X5809142Y-65771295D02*
X5809142Y-65914152D01*
X5809142Y-65914152D02*
X5761523Y-66009390D01*
X5761523Y-66009390D02*
X5713904Y-66057009D01*
X5713904Y-66057009D02*
X5618666Y-66104628D01*
X5618666Y-66104628D02*
X5237714Y-66104628D01*
X6190095Y-65676057D02*
X6237714Y-65628438D01*
X6237714Y-65628438D02*
X6332952Y-65580819D01*
X6332952Y-65580819D02*
X6571047Y-65580819D01*
X6571047Y-65580819D02*
X6666285Y-65628438D01*
X6666285Y-65628438D02*
X6713904Y-65676057D01*
X6713904Y-65676057D02*
X6761523Y-65771295D01*
X6761523Y-65771295D02*
X6761523Y-65866533D01*
X6761523Y-65866533D02*
X6713904Y-66009390D01*
X6713904Y-66009390D02*
X6142476Y-66580819D01*
X6142476Y-66580819D02*
X6761523Y-66580819D01*
X7618666Y-65914152D02*
X7618666Y-66580819D01*
X7380571Y-65533200D02*
X7142476Y-66247485D01*
X7142476Y-66247485D02*
X7761523Y-66247485D01*
X49339238Y-133431009D02*
X49482095Y-133478628D01*
X49482095Y-133478628D02*
X49529714Y-133526247D01*
X49529714Y-133526247D02*
X49577333Y-133621485D01*
X49577333Y-133621485D02*
X49577333Y-133764342D01*
X49577333Y-133764342D02*
X49529714Y-133859580D01*
X49529714Y-133859580D02*
X49482095Y-133907200D01*
X49482095Y-133907200D02*
X49386857Y-133954819D01*
X49386857Y-133954819D02*
X49005905Y-133954819D01*
X49005905Y-133954819D02*
X49005905Y-132954819D01*
X49005905Y-132954819D02*
X49339238Y-132954819D01*
X49339238Y-132954819D02*
X49434476Y-133002438D01*
X49434476Y-133002438D02*
X49482095Y-133050057D01*
X49482095Y-133050057D02*
X49529714Y-133145295D01*
X49529714Y-133145295D02*
X49529714Y-133240533D01*
X49529714Y-133240533D02*
X49482095Y-133335771D01*
X49482095Y-133335771D02*
X49434476Y-133383390D01*
X49434476Y-133383390D02*
X49339238Y-133431009D01*
X49339238Y-133431009D02*
X49005905Y-133431009D01*
X50005905Y-133954819D02*
X50005905Y-132954819D01*
X50005905Y-132954819D02*
X50386857Y-132954819D01*
X50386857Y-132954819D02*
X50482095Y-133002438D01*
X50482095Y-133002438D02*
X50529714Y-133050057D01*
X50529714Y-133050057D02*
X50577333Y-133145295D01*
X50577333Y-133145295D02*
X50577333Y-133288152D01*
X50577333Y-133288152D02*
X50529714Y-133383390D01*
X50529714Y-133383390D02*
X50482095Y-133431009D01*
X50482095Y-133431009D02*
X50386857Y-133478628D01*
X50386857Y-133478628D02*
X50005905Y-133478628D01*
X51482095Y-132954819D02*
X51005905Y-132954819D01*
X51005905Y-132954819D02*
X50958286Y-133431009D01*
X50958286Y-133431009D02*
X51005905Y-133383390D01*
X51005905Y-133383390D02*
X51101143Y-133335771D01*
X51101143Y-133335771D02*
X51339238Y-133335771D01*
X51339238Y-133335771D02*
X51434476Y-133383390D01*
X51434476Y-133383390D02*
X51482095Y-133431009D01*
X51482095Y-133431009D02*
X51529714Y-133526247D01*
X51529714Y-133526247D02*
X51529714Y-133764342D01*
X51529714Y-133764342D02*
X51482095Y-133859580D01*
X51482095Y-133859580D02*
X51434476Y-133907200D01*
X51434476Y-133907200D02*
X51339238Y-133954819D01*
X51339238Y-133954819D02*
X51101143Y-133954819D01*
X51101143Y-133954819D02*
X51005905Y-133907200D01*
X51005905Y-133907200D02*
X50958286Y-133859580D01*
X22771714Y-6970819D02*
X22771714Y-5970819D01*
X22771714Y-5970819D02*
X23009809Y-5970819D01*
X23009809Y-5970819D02*
X23152666Y-6018438D01*
X23152666Y-6018438D02*
X23247904Y-6113676D01*
X23247904Y-6113676D02*
X23295523Y-6208914D01*
X23295523Y-6208914D02*
X23343142Y-6399390D01*
X23343142Y-6399390D02*
X23343142Y-6542247D01*
X23343142Y-6542247D02*
X23295523Y-6732723D01*
X23295523Y-6732723D02*
X23247904Y-6827961D01*
X23247904Y-6827961D02*
X23152666Y-6923200D01*
X23152666Y-6923200D02*
X23009809Y-6970819D01*
X23009809Y-6970819D02*
X22771714Y-6970819D01*
X24295523Y-6970819D02*
X23724095Y-6970819D01*
X24009809Y-6970819D02*
X24009809Y-5970819D01*
X24009809Y-5970819D02*
X23914571Y-6113676D01*
X23914571Y-6113676D02*
X23819333Y-6208914D01*
X23819333Y-6208914D02*
X23724095Y-6256533D01*
X24866952Y-6399390D02*
X24771714Y-6351771D01*
X24771714Y-6351771D02*
X24724095Y-6304152D01*
X24724095Y-6304152D02*
X24676476Y-6208914D01*
X24676476Y-6208914D02*
X24676476Y-6161295D01*
X24676476Y-6161295D02*
X24724095Y-6066057D01*
X24724095Y-6066057D02*
X24771714Y-6018438D01*
X24771714Y-6018438D02*
X24866952Y-5970819D01*
X24866952Y-5970819D02*
X25057428Y-5970819D01*
X25057428Y-5970819D02*
X25152666Y-6018438D01*
X25152666Y-6018438D02*
X25200285Y-6066057D01*
X25200285Y-6066057D02*
X25247904Y-6161295D01*
X25247904Y-6161295D02*
X25247904Y-6208914D01*
X25247904Y-6208914D02*
X25200285Y-6304152D01*
X25200285Y-6304152D02*
X25152666Y-6351771D01*
X25152666Y-6351771D02*
X25057428Y-6399390D01*
X25057428Y-6399390D02*
X24866952Y-6399390D01*
X24866952Y-6399390D02*
X24771714Y-6447009D01*
X24771714Y-6447009D02*
X24724095Y-6494628D01*
X24724095Y-6494628D02*
X24676476Y-6589866D01*
X24676476Y-6589866D02*
X24676476Y-6780342D01*
X24676476Y-6780342D02*
X24724095Y-6875580D01*
X24724095Y-6875580D02*
X24771714Y-6923200D01*
X24771714Y-6923200D02*
X24866952Y-6970819D01*
X24866952Y-6970819D02*
X25057428Y-6970819D01*
X25057428Y-6970819D02*
X25152666Y-6923200D01*
X25152666Y-6923200D02*
X25200285Y-6875580D01*
X25200285Y-6875580D02*
X25247904Y-6780342D01*
X25247904Y-6780342D02*
X25247904Y-6589866D01*
X25247904Y-6589866D02*
X25200285Y-6494628D01*
X25200285Y-6494628D02*
X25152666Y-6447009D01*
X25152666Y-6447009D02*
X25057428Y-6399390D01*
X22224819Y-108306666D02*
X21748628Y-108639999D01*
X22224819Y-108878094D02*
X21224819Y-108878094D01*
X21224819Y-108878094D02*
X21224819Y-108497142D01*
X21224819Y-108497142D02*
X21272438Y-108401904D01*
X21272438Y-108401904D02*
X21320057Y-108354285D01*
X21320057Y-108354285D02*
X21415295Y-108306666D01*
X21415295Y-108306666D02*
X21558152Y-108306666D01*
X21558152Y-108306666D02*
X21653390Y-108354285D01*
X21653390Y-108354285D02*
X21701009Y-108401904D01*
X21701009Y-108401904D02*
X21748628Y-108497142D01*
X21748628Y-108497142D02*
X21748628Y-108878094D01*
X21224819Y-107401904D02*
X21224819Y-107878094D01*
X21224819Y-107878094D02*
X21701009Y-107925713D01*
X21701009Y-107925713D02*
X21653390Y-107878094D01*
X21653390Y-107878094D02*
X21605771Y-107782856D01*
X21605771Y-107782856D02*
X21605771Y-107544761D01*
X21605771Y-107544761D02*
X21653390Y-107449523D01*
X21653390Y-107449523D02*
X21701009Y-107401904D01*
X21701009Y-107401904D02*
X21796247Y-107354285D01*
X21796247Y-107354285D02*
X22034342Y-107354285D01*
X22034342Y-107354285D02*
X22129580Y-107401904D01*
X22129580Y-107401904D02*
X22177200Y-107449523D01*
X22177200Y-107449523D02*
X22224819Y-107544761D01*
X22224819Y-107544761D02*
X22224819Y-107782856D01*
X22224819Y-107782856D02*
X22177200Y-107878094D01*
X22177200Y-107878094D02*
X22129580Y-107925713D01*
X64427714Y-6970819D02*
X64427714Y-5970819D01*
X64427714Y-5970819D02*
X64665809Y-5970819D01*
X64665809Y-5970819D02*
X64808666Y-6018438D01*
X64808666Y-6018438D02*
X64903904Y-6113676D01*
X64903904Y-6113676D02*
X64951523Y-6208914D01*
X64951523Y-6208914D02*
X64999142Y-6399390D01*
X64999142Y-6399390D02*
X64999142Y-6542247D01*
X64999142Y-6542247D02*
X64951523Y-6732723D01*
X64951523Y-6732723D02*
X64903904Y-6827961D01*
X64903904Y-6827961D02*
X64808666Y-6923200D01*
X64808666Y-6923200D02*
X64665809Y-6970819D01*
X64665809Y-6970819D02*
X64427714Y-6970819D01*
X65380095Y-6066057D02*
X65427714Y-6018438D01*
X65427714Y-6018438D02*
X65522952Y-5970819D01*
X65522952Y-5970819D02*
X65761047Y-5970819D01*
X65761047Y-5970819D02*
X65856285Y-6018438D01*
X65856285Y-6018438D02*
X65903904Y-6066057D01*
X65903904Y-6066057D02*
X65951523Y-6161295D01*
X65951523Y-6161295D02*
X65951523Y-6256533D01*
X65951523Y-6256533D02*
X65903904Y-6399390D01*
X65903904Y-6399390D02*
X65332476Y-6970819D01*
X65332476Y-6970819D02*
X65951523Y-6970819D01*
X66332476Y-6066057D02*
X66380095Y-6018438D01*
X66380095Y-6018438D02*
X66475333Y-5970819D01*
X66475333Y-5970819D02*
X66713428Y-5970819D01*
X66713428Y-5970819D02*
X66808666Y-6018438D01*
X66808666Y-6018438D02*
X66856285Y-6066057D01*
X66856285Y-6066057D02*
X66903904Y-6161295D01*
X66903904Y-6161295D02*
X66903904Y-6256533D01*
X66903904Y-6256533D02*
X66856285Y-6399390D01*
X66856285Y-6399390D02*
X66284857Y-6970819D01*
X66284857Y-6970819D02*
X66903904Y-6970819D01*
X60041009Y-14588952D02*
X60088628Y-14446095D01*
X60088628Y-14446095D02*
X60136247Y-14398476D01*
X60136247Y-14398476D02*
X60231485Y-14350857D01*
X60231485Y-14350857D02*
X60374342Y-14350857D01*
X60374342Y-14350857D02*
X60469580Y-14398476D01*
X60469580Y-14398476D02*
X60517200Y-14446095D01*
X60517200Y-14446095D02*
X60564819Y-14541333D01*
X60564819Y-14541333D02*
X60564819Y-14922285D01*
X60564819Y-14922285D02*
X59564819Y-14922285D01*
X59564819Y-14922285D02*
X59564819Y-14588952D01*
X59564819Y-14588952D02*
X59612438Y-14493714D01*
X59612438Y-14493714D02*
X59660057Y-14446095D01*
X59660057Y-14446095D02*
X59755295Y-14398476D01*
X59755295Y-14398476D02*
X59850533Y-14398476D01*
X59850533Y-14398476D02*
X59945771Y-14446095D01*
X59945771Y-14446095D02*
X59993390Y-14493714D01*
X59993390Y-14493714D02*
X60041009Y-14588952D01*
X60041009Y-14588952D02*
X60041009Y-14922285D01*
X60564819Y-13922285D02*
X59564819Y-13922285D01*
X59564819Y-13922285D02*
X59564819Y-13541333D01*
X59564819Y-13541333D02*
X59612438Y-13446095D01*
X59612438Y-13446095D02*
X59660057Y-13398476D01*
X59660057Y-13398476D02*
X59755295Y-13350857D01*
X59755295Y-13350857D02*
X59898152Y-13350857D01*
X59898152Y-13350857D02*
X59993390Y-13398476D01*
X59993390Y-13398476D02*
X60041009Y-13446095D01*
X60041009Y-13446095D02*
X60088628Y-13541333D01*
X60088628Y-13541333D02*
X60088628Y-13922285D01*
X60564819Y-12398476D02*
X60564819Y-12969904D01*
X60564819Y-12684190D02*
X59564819Y-12684190D01*
X59564819Y-12684190D02*
X59707676Y-12779428D01*
X59707676Y-12779428D02*
X59802914Y-12874666D01*
X59802914Y-12874666D02*
X59850533Y-12969904D01*
X60564819Y-11922285D02*
X60564819Y-11731809D01*
X60564819Y-11731809D02*
X60517200Y-11636571D01*
X60517200Y-11636571D02*
X60469580Y-11588952D01*
X60469580Y-11588952D02*
X60326723Y-11493714D01*
X60326723Y-11493714D02*
X60136247Y-11446095D01*
X60136247Y-11446095D02*
X59755295Y-11446095D01*
X59755295Y-11446095D02*
X59660057Y-11493714D01*
X59660057Y-11493714D02*
X59612438Y-11541333D01*
X59612438Y-11541333D02*
X59564819Y-11636571D01*
X59564819Y-11636571D02*
X59564819Y-11827047D01*
X59564819Y-11827047D02*
X59612438Y-11922285D01*
X59612438Y-11922285D02*
X59660057Y-11969904D01*
X59660057Y-11969904D02*
X59755295Y-12017523D01*
X59755295Y-12017523D02*
X59993390Y-12017523D01*
X59993390Y-12017523D02*
X60088628Y-11969904D01*
X60088628Y-11969904D02*
X60136247Y-11922285D01*
X60136247Y-11922285D02*
X60183866Y-11827047D01*
X60183866Y-11827047D02*
X60183866Y-11636571D01*
X60183866Y-11636571D02*
X60136247Y-11541333D01*
X60136247Y-11541333D02*
X60088628Y-11493714D01*
X60088628Y-11493714D02*
X59993390Y-11446095D01*
X92367714Y-105698819D02*
X92367714Y-104698819D01*
X92367714Y-104698819D02*
X92605809Y-104698819D01*
X92605809Y-104698819D02*
X92748666Y-104746438D01*
X92748666Y-104746438D02*
X92843904Y-104841676D01*
X92843904Y-104841676D02*
X92891523Y-104936914D01*
X92891523Y-104936914D02*
X92939142Y-105127390D01*
X92939142Y-105127390D02*
X92939142Y-105270247D01*
X92939142Y-105270247D02*
X92891523Y-105460723D01*
X92891523Y-105460723D02*
X92843904Y-105555961D01*
X92843904Y-105555961D02*
X92748666Y-105651200D01*
X92748666Y-105651200D02*
X92605809Y-105698819D01*
X92605809Y-105698819D02*
X92367714Y-105698819D01*
X93891523Y-105698819D02*
X93320095Y-105698819D01*
X93605809Y-105698819D02*
X93605809Y-104698819D01*
X93605809Y-104698819D02*
X93510571Y-104841676D01*
X93510571Y-104841676D02*
X93415333Y-104936914D01*
X93415333Y-104936914D02*
X93320095Y-104984533D01*
X94272476Y-104794057D02*
X94320095Y-104746438D01*
X94320095Y-104746438D02*
X94415333Y-104698819D01*
X94415333Y-104698819D02*
X94653428Y-104698819D01*
X94653428Y-104698819D02*
X94748666Y-104746438D01*
X94748666Y-104746438D02*
X94796285Y-104794057D01*
X94796285Y-104794057D02*
X94843904Y-104889295D01*
X94843904Y-104889295D02*
X94843904Y-104984533D01*
X94843904Y-104984533D02*
X94796285Y-105127390D01*
X94796285Y-105127390D02*
X94224857Y-105698819D01*
X94224857Y-105698819D02*
X94843904Y-105698819D01*
X54018714Y-6970819D02*
X54018714Y-5970819D01*
X54018714Y-5970819D02*
X54256809Y-5970819D01*
X54256809Y-5970819D02*
X54399666Y-6018438D01*
X54399666Y-6018438D02*
X54494904Y-6113676D01*
X54494904Y-6113676D02*
X54542523Y-6208914D01*
X54542523Y-6208914D02*
X54590142Y-6399390D01*
X54590142Y-6399390D02*
X54590142Y-6542247D01*
X54590142Y-6542247D02*
X54542523Y-6732723D01*
X54542523Y-6732723D02*
X54494904Y-6827961D01*
X54494904Y-6827961D02*
X54399666Y-6923200D01*
X54399666Y-6923200D02*
X54256809Y-6970819D01*
X54256809Y-6970819D02*
X54018714Y-6970819D01*
X54971095Y-6066057D02*
X55018714Y-6018438D01*
X55018714Y-6018438D02*
X55113952Y-5970819D01*
X55113952Y-5970819D02*
X55352047Y-5970819D01*
X55352047Y-5970819D02*
X55447285Y-6018438D01*
X55447285Y-6018438D02*
X55494904Y-6066057D01*
X55494904Y-6066057D02*
X55542523Y-6161295D01*
X55542523Y-6161295D02*
X55542523Y-6256533D01*
X55542523Y-6256533D02*
X55494904Y-6399390D01*
X55494904Y-6399390D02*
X54923476Y-6970819D01*
X54923476Y-6970819D02*
X55542523Y-6970819D01*
X56494904Y-6970819D02*
X55923476Y-6970819D01*
X56209190Y-6970819D02*
X56209190Y-5970819D01*
X56209190Y-5970819D02*
X56113952Y-6113676D01*
X56113952Y-6113676D02*
X56018714Y-6208914D01*
X56018714Y-6208914D02*
X55923476Y-6256533D01*
X-1996990Y-14588952D02*
X-1949371Y-14446095D01*
X-1949371Y-14446095D02*
X-1901752Y-14398476D01*
X-1901752Y-14398476D02*
X-1806514Y-14350857D01*
X-1806514Y-14350857D02*
X-1663657Y-14350857D01*
X-1663657Y-14350857D02*
X-1568419Y-14398476D01*
X-1568419Y-14398476D02*
X-1520800Y-14446095D01*
X-1520800Y-14446095D02*
X-1473180Y-14541333D01*
X-1473180Y-14541333D02*
X-1473180Y-14922285D01*
X-1473180Y-14922285D02*
X-2473180Y-14922285D01*
X-2473180Y-14922285D02*
X-2473180Y-14588952D01*
X-2473180Y-14588952D02*
X-2425561Y-14493714D01*
X-2425561Y-14493714D02*
X-2377942Y-14446095D01*
X-2377942Y-14446095D02*
X-2282704Y-14398476D01*
X-2282704Y-14398476D02*
X-2187466Y-14398476D01*
X-2187466Y-14398476D02*
X-2092228Y-14446095D01*
X-2092228Y-14446095D02*
X-2044609Y-14493714D01*
X-2044609Y-14493714D02*
X-1996990Y-14588952D01*
X-1996990Y-14588952D02*
X-1996990Y-14922285D01*
X-1473180Y-13922285D02*
X-2473180Y-13922285D01*
X-2473180Y-13922285D02*
X-2473180Y-13541333D01*
X-2473180Y-13541333D02*
X-2425561Y-13446095D01*
X-2425561Y-13446095D02*
X-2377942Y-13398476D01*
X-2377942Y-13398476D02*
X-2282704Y-13350857D01*
X-2282704Y-13350857D02*
X-2139847Y-13350857D01*
X-2139847Y-13350857D02*
X-2044609Y-13398476D01*
X-2044609Y-13398476D02*
X-1996990Y-13446095D01*
X-1996990Y-13446095D02*
X-1949371Y-13541333D01*
X-1949371Y-13541333D02*
X-1949371Y-13922285D01*
X-1473180Y-12398476D02*
X-1473180Y-12969904D01*
X-1473180Y-12684190D02*
X-2473180Y-12684190D01*
X-2473180Y-12684190D02*
X-2330323Y-12779428D01*
X-2330323Y-12779428D02*
X-2235085Y-12874666D01*
X-2235085Y-12874666D02*
X-2187466Y-12969904D01*
X-2473180Y-12065142D02*
X-2473180Y-11446095D01*
X-2473180Y-11446095D02*
X-2092228Y-11779428D01*
X-2092228Y-11779428D02*
X-2092228Y-11636571D01*
X-2092228Y-11636571D02*
X-2044609Y-11541333D01*
X-2044609Y-11541333D02*
X-1996990Y-11493714D01*
X-1996990Y-11493714D02*
X-1901752Y-11446095D01*
X-1901752Y-11446095D02*
X-1663657Y-11446095D01*
X-1663657Y-11446095D02*
X-1568419Y-11493714D01*
X-1568419Y-11493714D02*
X-1520800Y-11541333D01*
X-1520800Y-11541333D02*
X-1473180Y-11636571D01*
X-1473180Y-11636571D02*
X-1473180Y-11922285D01*
X-1473180Y-11922285D02*
X-1520800Y-12017523D01*
X-1520800Y-12017523D02*
X-1568419Y-12065142D01*
X17150819Y-41879904D02*
X17960342Y-41879904D01*
X17960342Y-41879904D02*
X18055580Y-41832285D01*
X18055580Y-41832285D02*
X18103200Y-41784666D01*
X18103200Y-41784666D02*
X18150819Y-41689428D01*
X18150819Y-41689428D02*
X18150819Y-41498952D01*
X18150819Y-41498952D02*
X18103200Y-41403714D01*
X18103200Y-41403714D02*
X18055580Y-41356095D01*
X18055580Y-41356095D02*
X17960342Y-41308476D01*
X17960342Y-41308476D02*
X17150819Y-41308476D01*
X17484152Y-40403714D02*
X18150819Y-40403714D01*
X17103200Y-40641809D02*
X17817485Y-40879904D01*
X17817485Y-40879904D02*
X17817485Y-40260857D01*
X68071047Y-33563009D02*
X68213904Y-33610628D01*
X68213904Y-33610628D02*
X68261523Y-33658247D01*
X68261523Y-33658247D02*
X68309142Y-33753485D01*
X68309142Y-33753485D02*
X68309142Y-33896342D01*
X68309142Y-33896342D02*
X68261523Y-33991580D01*
X68261523Y-33991580D02*
X68213904Y-34039200D01*
X68213904Y-34039200D02*
X68118666Y-34086819D01*
X68118666Y-34086819D02*
X67737714Y-34086819D01*
X67737714Y-34086819D02*
X67737714Y-33086819D01*
X67737714Y-33086819D02*
X68071047Y-33086819D01*
X68071047Y-33086819D02*
X68166285Y-33134438D01*
X68166285Y-33134438D02*
X68213904Y-33182057D01*
X68213904Y-33182057D02*
X68261523Y-33277295D01*
X68261523Y-33277295D02*
X68261523Y-33372533D01*
X68261523Y-33372533D02*
X68213904Y-33467771D01*
X68213904Y-33467771D02*
X68166285Y-33515390D01*
X68166285Y-33515390D02*
X68071047Y-33563009D01*
X68071047Y-33563009D02*
X67737714Y-33563009D01*
X68737714Y-34086819D02*
X68737714Y-33086819D01*
X68737714Y-33086819D02*
X69118666Y-33086819D01*
X69118666Y-33086819D02*
X69213904Y-33134438D01*
X69213904Y-33134438D02*
X69261523Y-33182057D01*
X69261523Y-33182057D02*
X69309142Y-33277295D01*
X69309142Y-33277295D02*
X69309142Y-33420152D01*
X69309142Y-33420152D02*
X69261523Y-33515390D01*
X69261523Y-33515390D02*
X69213904Y-33563009D01*
X69213904Y-33563009D02*
X69118666Y-33610628D01*
X69118666Y-33610628D02*
X68737714Y-33610628D01*
X69690095Y-33182057D02*
X69737714Y-33134438D01*
X69737714Y-33134438D02*
X69832952Y-33086819D01*
X69832952Y-33086819D02*
X70071047Y-33086819D01*
X70071047Y-33086819D02*
X70166285Y-33134438D01*
X70166285Y-33134438D02*
X70213904Y-33182057D01*
X70213904Y-33182057D02*
X70261523Y-33277295D01*
X70261523Y-33277295D02*
X70261523Y-33372533D01*
X70261523Y-33372533D02*
X70213904Y-33515390D01*
X70213904Y-33515390D02*
X69642476Y-34086819D01*
X69642476Y-34086819D02*
X70261523Y-34086819D01*
X70642476Y-33182057D02*
X70690095Y-33134438D01*
X70690095Y-33134438D02*
X70785333Y-33086819D01*
X70785333Y-33086819D02*
X71023428Y-33086819D01*
X71023428Y-33086819D02*
X71118666Y-33134438D01*
X71118666Y-33134438D02*
X71166285Y-33182057D01*
X71166285Y-33182057D02*
X71213904Y-33277295D01*
X71213904Y-33277295D02*
X71213904Y-33372533D01*
X71213904Y-33372533D02*
X71166285Y-33515390D01*
X71166285Y-33515390D02*
X70594857Y-34086819D01*
X70594857Y-34086819D02*
X71213904Y-34086819D01*
X8353009Y-14588952D02*
X8400628Y-14446095D01*
X8400628Y-14446095D02*
X8448247Y-14398476D01*
X8448247Y-14398476D02*
X8543485Y-14350857D01*
X8543485Y-14350857D02*
X8686342Y-14350857D01*
X8686342Y-14350857D02*
X8781580Y-14398476D01*
X8781580Y-14398476D02*
X8829200Y-14446095D01*
X8829200Y-14446095D02*
X8876819Y-14541333D01*
X8876819Y-14541333D02*
X8876819Y-14922285D01*
X8876819Y-14922285D02*
X7876819Y-14922285D01*
X7876819Y-14922285D02*
X7876819Y-14588952D01*
X7876819Y-14588952D02*
X7924438Y-14493714D01*
X7924438Y-14493714D02*
X7972057Y-14446095D01*
X7972057Y-14446095D02*
X8067295Y-14398476D01*
X8067295Y-14398476D02*
X8162533Y-14398476D01*
X8162533Y-14398476D02*
X8257771Y-14446095D01*
X8257771Y-14446095D02*
X8305390Y-14493714D01*
X8305390Y-14493714D02*
X8353009Y-14588952D01*
X8353009Y-14588952D02*
X8353009Y-14922285D01*
X8876819Y-13922285D02*
X7876819Y-13922285D01*
X7876819Y-13922285D02*
X7876819Y-13541333D01*
X7876819Y-13541333D02*
X7924438Y-13446095D01*
X7924438Y-13446095D02*
X7972057Y-13398476D01*
X7972057Y-13398476D02*
X8067295Y-13350857D01*
X8067295Y-13350857D02*
X8210152Y-13350857D01*
X8210152Y-13350857D02*
X8305390Y-13398476D01*
X8305390Y-13398476D02*
X8353009Y-13446095D01*
X8353009Y-13446095D02*
X8400628Y-13541333D01*
X8400628Y-13541333D02*
X8400628Y-13922285D01*
X8876819Y-12398476D02*
X8876819Y-12969904D01*
X8876819Y-12684190D02*
X7876819Y-12684190D01*
X7876819Y-12684190D02*
X8019676Y-12779428D01*
X8019676Y-12779428D02*
X8114914Y-12874666D01*
X8114914Y-12874666D02*
X8162533Y-12969904D01*
X8210152Y-11541333D02*
X8876819Y-11541333D01*
X7829200Y-11779428D02*
X8543485Y-12017523D01*
X8543485Y-12017523D02*
X8543485Y-11398476D01*
X4845238Y-133431009D02*
X4988095Y-133478628D01*
X4988095Y-133478628D02*
X5035714Y-133526247D01*
X5035714Y-133526247D02*
X5083333Y-133621485D01*
X5083333Y-133621485D02*
X5083333Y-133764342D01*
X5083333Y-133764342D02*
X5035714Y-133859580D01*
X5035714Y-133859580D02*
X4988095Y-133907200D01*
X4988095Y-133907200D02*
X4892857Y-133954819D01*
X4892857Y-133954819D02*
X4511905Y-133954819D01*
X4511905Y-133954819D02*
X4511905Y-132954819D01*
X4511905Y-132954819D02*
X4845238Y-132954819D01*
X4845238Y-132954819D02*
X4940476Y-133002438D01*
X4940476Y-133002438D02*
X4988095Y-133050057D01*
X4988095Y-133050057D02*
X5035714Y-133145295D01*
X5035714Y-133145295D02*
X5035714Y-133240533D01*
X5035714Y-133240533D02*
X4988095Y-133335771D01*
X4988095Y-133335771D02*
X4940476Y-133383390D01*
X4940476Y-133383390D02*
X4845238Y-133431009D01*
X4845238Y-133431009D02*
X4511905Y-133431009D01*
X5511905Y-133954819D02*
X5511905Y-132954819D01*
X5511905Y-132954819D02*
X5892857Y-132954819D01*
X5892857Y-132954819D02*
X5988095Y-133002438D01*
X5988095Y-133002438D02*
X6035714Y-133050057D01*
X6035714Y-133050057D02*
X6083333Y-133145295D01*
X6083333Y-133145295D02*
X6083333Y-133288152D01*
X6083333Y-133288152D02*
X6035714Y-133383390D01*
X6035714Y-133383390D02*
X5988095Y-133431009D01*
X5988095Y-133431009D02*
X5892857Y-133478628D01*
X5892857Y-133478628D02*
X5511905Y-133478628D01*
X7035714Y-133954819D02*
X6464286Y-133954819D01*
X6750000Y-133954819D02*
X6750000Y-132954819D01*
X6750000Y-132954819D02*
X6654762Y-133097676D01*
X6654762Y-133097676D02*
X6559524Y-133192914D01*
X6559524Y-133192914D02*
X6464286Y-133240533D01*
X111594819Y-108338857D02*
X111118628Y-108672190D01*
X111594819Y-108910285D02*
X110594819Y-108910285D01*
X110594819Y-108910285D02*
X110594819Y-108529333D01*
X110594819Y-108529333D02*
X110642438Y-108434095D01*
X110642438Y-108434095D02*
X110690057Y-108386476D01*
X110690057Y-108386476D02*
X110785295Y-108338857D01*
X110785295Y-108338857D02*
X110928152Y-108338857D01*
X110928152Y-108338857D02*
X111023390Y-108386476D01*
X111023390Y-108386476D02*
X111071009Y-108434095D01*
X111071009Y-108434095D02*
X111118628Y-108529333D01*
X111118628Y-108529333D02*
X111118628Y-108910285D01*
X111594819Y-107386476D02*
X111594819Y-107957904D01*
X111594819Y-107672190D02*
X110594819Y-107672190D01*
X110594819Y-107672190D02*
X110737676Y-107767428D01*
X110737676Y-107767428D02*
X110832914Y-107862666D01*
X110832914Y-107862666D02*
X110880533Y-107957904D01*
X110594819Y-107053142D02*
X110594819Y-106434095D01*
X110594819Y-106434095D02*
X110975771Y-106767428D01*
X110975771Y-106767428D02*
X110975771Y-106624571D01*
X110975771Y-106624571D02*
X111023390Y-106529333D01*
X111023390Y-106529333D02*
X111071009Y-106481714D01*
X111071009Y-106481714D02*
X111166247Y-106434095D01*
X111166247Y-106434095D02*
X111404342Y-106434095D01*
X111404342Y-106434095D02*
X111499580Y-106481714D01*
X111499580Y-106481714D02*
X111547200Y-106529333D01*
X111547200Y-106529333D02*
X111594819Y-106624571D01*
X111594819Y-106624571D02*
X111594819Y-106910285D01*
X111594819Y-106910285D02*
X111547200Y-107005523D01*
X111547200Y-107005523D02*
X111499580Y-107053142D01*
X67563047Y-20863009D02*
X67705904Y-20910628D01*
X67705904Y-20910628D02*
X67753523Y-20958247D01*
X67753523Y-20958247D02*
X67801142Y-21053485D01*
X67801142Y-21053485D02*
X67801142Y-21196342D01*
X67801142Y-21196342D02*
X67753523Y-21291580D01*
X67753523Y-21291580D02*
X67705904Y-21339200D01*
X67705904Y-21339200D02*
X67610666Y-21386819D01*
X67610666Y-21386819D02*
X67229714Y-21386819D01*
X67229714Y-21386819D02*
X67229714Y-20386819D01*
X67229714Y-20386819D02*
X67563047Y-20386819D01*
X67563047Y-20386819D02*
X67658285Y-20434438D01*
X67658285Y-20434438D02*
X67705904Y-20482057D01*
X67705904Y-20482057D02*
X67753523Y-20577295D01*
X67753523Y-20577295D02*
X67753523Y-20672533D01*
X67753523Y-20672533D02*
X67705904Y-20767771D01*
X67705904Y-20767771D02*
X67658285Y-20815390D01*
X67658285Y-20815390D02*
X67563047Y-20863009D01*
X67563047Y-20863009D02*
X67229714Y-20863009D01*
X68229714Y-21386819D02*
X68229714Y-20386819D01*
X68229714Y-20386819D02*
X68610666Y-20386819D01*
X68610666Y-20386819D02*
X68705904Y-20434438D01*
X68705904Y-20434438D02*
X68753523Y-20482057D01*
X68753523Y-20482057D02*
X68801142Y-20577295D01*
X68801142Y-20577295D02*
X68801142Y-20720152D01*
X68801142Y-20720152D02*
X68753523Y-20815390D01*
X68753523Y-20815390D02*
X68705904Y-20863009D01*
X68705904Y-20863009D02*
X68610666Y-20910628D01*
X68610666Y-20910628D02*
X68229714Y-20910628D01*
X69182095Y-20482057D02*
X69229714Y-20434438D01*
X69229714Y-20434438D02*
X69324952Y-20386819D01*
X69324952Y-20386819D02*
X69563047Y-20386819D01*
X69563047Y-20386819D02*
X69658285Y-20434438D01*
X69658285Y-20434438D02*
X69705904Y-20482057D01*
X69705904Y-20482057D02*
X69753523Y-20577295D01*
X69753523Y-20577295D02*
X69753523Y-20672533D01*
X69753523Y-20672533D02*
X69705904Y-20815390D01*
X69705904Y-20815390D02*
X69134476Y-21386819D01*
X69134476Y-21386819D02*
X69753523Y-21386819D01*
X70705904Y-21386819D02*
X70134476Y-21386819D01*
X70420190Y-21386819D02*
X70420190Y-20386819D01*
X70420190Y-20386819D02*
X70324952Y-20529676D01*
X70324952Y-20529676D02*
X70229714Y-20624914D01*
X70229714Y-20624914D02*
X70134476Y-20672533D01*
X1943714Y-7478819D02*
X1943714Y-6478819D01*
X1943714Y-6478819D02*
X2181809Y-6478819D01*
X2181809Y-6478819D02*
X2324666Y-6526438D01*
X2324666Y-6526438D02*
X2419904Y-6621676D01*
X2419904Y-6621676D02*
X2467523Y-6716914D01*
X2467523Y-6716914D02*
X2515142Y-6907390D01*
X2515142Y-6907390D02*
X2515142Y-7050247D01*
X2515142Y-7050247D02*
X2467523Y-7240723D01*
X2467523Y-7240723D02*
X2419904Y-7335961D01*
X2419904Y-7335961D02*
X2324666Y-7431200D01*
X2324666Y-7431200D02*
X2181809Y-7478819D01*
X2181809Y-7478819D02*
X1943714Y-7478819D01*
X3467523Y-7478819D02*
X2896095Y-7478819D01*
X3181809Y-7478819D02*
X3181809Y-6478819D01*
X3181809Y-6478819D02*
X3086571Y-6621676D01*
X3086571Y-6621676D02*
X2991333Y-6716914D01*
X2991333Y-6716914D02*
X2896095Y-6764533D01*
X4324666Y-6478819D02*
X4134190Y-6478819D01*
X4134190Y-6478819D02*
X4038952Y-6526438D01*
X4038952Y-6526438D02*
X3991333Y-6574057D01*
X3991333Y-6574057D02*
X3896095Y-6716914D01*
X3896095Y-6716914D02*
X3848476Y-6907390D01*
X3848476Y-6907390D02*
X3848476Y-7288342D01*
X3848476Y-7288342D02*
X3896095Y-7383580D01*
X3896095Y-7383580D02*
X3943714Y-7431200D01*
X3943714Y-7431200D02*
X4038952Y-7478819D01*
X4038952Y-7478819D02*
X4229428Y-7478819D01*
X4229428Y-7478819D02*
X4324666Y-7431200D01*
X4324666Y-7431200D02*
X4372285Y-7383580D01*
X4372285Y-7383580D02*
X4419904Y-7288342D01*
X4419904Y-7288342D02*
X4419904Y-7050247D01*
X4419904Y-7050247D02*
X4372285Y-6955009D01*
X4372285Y-6955009D02*
X4324666Y-6907390D01*
X4324666Y-6907390D02*
X4229428Y-6859771D01*
X4229428Y-6859771D02*
X4038952Y-6859771D01*
X4038952Y-6859771D02*
X3943714Y-6907390D01*
X3943714Y-6907390D02*
X3896095Y-6955009D01*
X3896095Y-6955009D02*
X3848476Y-7050247D01*
X66890819Y-107655666D02*
X66414628Y-107988999D01*
X66890819Y-108227094D02*
X65890819Y-108227094D01*
X65890819Y-108227094D02*
X65890819Y-107846142D01*
X65890819Y-107846142D02*
X65938438Y-107750904D01*
X65938438Y-107750904D02*
X65986057Y-107703285D01*
X65986057Y-107703285D02*
X66081295Y-107655666D01*
X66081295Y-107655666D02*
X66224152Y-107655666D01*
X66224152Y-107655666D02*
X66319390Y-107703285D01*
X66319390Y-107703285D02*
X66367009Y-107750904D01*
X66367009Y-107750904D02*
X66414628Y-107846142D01*
X66414628Y-107846142D02*
X66414628Y-108227094D01*
X66890819Y-107179475D02*
X66890819Y-106988999D01*
X66890819Y-106988999D02*
X66843200Y-106893761D01*
X66843200Y-106893761D02*
X66795580Y-106846142D01*
X66795580Y-106846142D02*
X66652723Y-106750904D01*
X66652723Y-106750904D02*
X66462247Y-106703285D01*
X66462247Y-106703285D02*
X66081295Y-106703285D01*
X66081295Y-106703285D02*
X65986057Y-106750904D01*
X65986057Y-106750904D02*
X65938438Y-106798523D01*
X65938438Y-106798523D02*
X65890819Y-106893761D01*
X65890819Y-106893761D02*
X65890819Y-107084237D01*
X65890819Y-107084237D02*
X65938438Y-107179475D01*
X65938438Y-107179475D02*
X65986057Y-107227094D01*
X65986057Y-107227094D02*
X66081295Y-107274713D01*
X66081295Y-107274713D02*
X66319390Y-107274713D01*
X66319390Y-107274713D02*
X66414628Y-107227094D01*
X66414628Y-107227094D02*
X66462247Y-107179475D01*
X66462247Y-107179475D02*
X66509866Y-107084237D01*
X66509866Y-107084237D02*
X66509866Y-106893761D01*
X66509866Y-106893761D02*
X66462247Y-106798523D01*
X66462247Y-106798523D02*
X66414628Y-106750904D01*
X66414628Y-106750904D02*
X66319390Y-106703285D01*
X38139238Y-133431009D02*
X38282095Y-133478628D01*
X38282095Y-133478628D02*
X38329714Y-133526247D01*
X38329714Y-133526247D02*
X38377333Y-133621485D01*
X38377333Y-133621485D02*
X38377333Y-133764342D01*
X38377333Y-133764342D02*
X38329714Y-133859580D01*
X38329714Y-133859580D02*
X38282095Y-133907200D01*
X38282095Y-133907200D02*
X38186857Y-133954819D01*
X38186857Y-133954819D02*
X37805905Y-133954819D01*
X37805905Y-133954819D02*
X37805905Y-132954819D01*
X37805905Y-132954819D02*
X38139238Y-132954819D01*
X38139238Y-132954819D02*
X38234476Y-133002438D01*
X38234476Y-133002438D02*
X38282095Y-133050057D01*
X38282095Y-133050057D02*
X38329714Y-133145295D01*
X38329714Y-133145295D02*
X38329714Y-133240533D01*
X38329714Y-133240533D02*
X38282095Y-133335771D01*
X38282095Y-133335771D02*
X38234476Y-133383390D01*
X38234476Y-133383390D02*
X38139238Y-133431009D01*
X38139238Y-133431009D02*
X37805905Y-133431009D01*
X38805905Y-133954819D02*
X38805905Y-132954819D01*
X38805905Y-132954819D02*
X39186857Y-132954819D01*
X39186857Y-132954819D02*
X39282095Y-133002438D01*
X39282095Y-133002438D02*
X39329714Y-133050057D01*
X39329714Y-133050057D02*
X39377333Y-133145295D01*
X39377333Y-133145295D02*
X39377333Y-133288152D01*
X39377333Y-133288152D02*
X39329714Y-133383390D01*
X39329714Y-133383390D02*
X39282095Y-133431009D01*
X39282095Y-133431009D02*
X39186857Y-133478628D01*
X39186857Y-133478628D02*
X38805905Y-133478628D01*
X40234476Y-133288152D02*
X40234476Y-133954819D01*
X39996381Y-132907200D02*
X39758286Y-133621485D01*
X39758286Y-133621485D02*
X40377333Y-133621485D01*
X33362819Y-107759166D02*
X32886628Y-108092499D01*
X33362819Y-108330594D02*
X32362819Y-108330594D01*
X32362819Y-108330594D02*
X32362819Y-107949642D01*
X32362819Y-107949642D02*
X32410438Y-107854404D01*
X32410438Y-107854404D02*
X32458057Y-107806785D01*
X32458057Y-107806785D02*
X32553295Y-107759166D01*
X32553295Y-107759166D02*
X32696152Y-107759166D01*
X32696152Y-107759166D02*
X32791390Y-107806785D01*
X32791390Y-107806785D02*
X32839009Y-107854404D01*
X32839009Y-107854404D02*
X32886628Y-107949642D01*
X32886628Y-107949642D02*
X32886628Y-108330594D01*
X32362819Y-106902023D02*
X32362819Y-107092499D01*
X32362819Y-107092499D02*
X32410438Y-107187737D01*
X32410438Y-107187737D02*
X32458057Y-107235356D01*
X32458057Y-107235356D02*
X32600914Y-107330594D01*
X32600914Y-107330594D02*
X32791390Y-107378213D01*
X32791390Y-107378213D02*
X33172342Y-107378213D01*
X33172342Y-107378213D02*
X33267580Y-107330594D01*
X33267580Y-107330594D02*
X33315200Y-107282975D01*
X33315200Y-107282975D02*
X33362819Y-107187737D01*
X33362819Y-107187737D02*
X33362819Y-106997261D01*
X33362819Y-106997261D02*
X33315200Y-106902023D01*
X33315200Y-106902023D02*
X33267580Y-106854404D01*
X33267580Y-106854404D02*
X33172342Y-106806785D01*
X33172342Y-106806785D02*
X32934247Y-106806785D01*
X32934247Y-106806785D02*
X32839009Y-106854404D01*
X32839009Y-106854404D02*
X32791390Y-106902023D01*
X32791390Y-106902023D02*
X32743771Y-106997261D01*
X32743771Y-106997261D02*
X32743771Y-107187737D01*
X32743771Y-107187737D02*
X32791390Y-107282975D01*
X32791390Y-107282975D02*
X32839009Y-107330594D01*
X32839009Y-107330594D02*
X32934247Y-107378213D01*
X75095714Y-6970819D02*
X75095714Y-5970819D01*
X75095714Y-5970819D02*
X75333809Y-5970819D01*
X75333809Y-5970819D02*
X75476666Y-6018438D01*
X75476666Y-6018438D02*
X75571904Y-6113676D01*
X75571904Y-6113676D02*
X75619523Y-6208914D01*
X75619523Y-6208914D02*
X75667142Y-6399390D01*
X75667142Y-6399390D02*
X75667142Y-6542247D01*
X75667142Y-6542247D02*
X75619523Y-6732723D01*
X75619523Y-6732723D02*
X75571904Y-6827961D01*
X75571904Y-6827961D02*
X75476666Y-6923200D01*
X75476666Y-6923200D02*
X75333809Y-6970819D01*
X75333809Y-6970819D02*
X75095714Y-6970819D01*
X76048095Y-6066057D02*
X76095714Y-6018438D01*
X76095714Y-6018438D02*
X76190952Y-5970819D01*
X76190952Y-5970819D02*
X76429047Y-5970819D01*
X76429047Y-5970819D02*
X76524285Y-6018438D01*
X76524285Y-6018438D02*
X76571904Y-6066057D01*
X76571904Y-6066057D02*
X76619523Y-6161295D01*
X76619523Y-6161295D02*
X76619523Y-6256533D01*
X76619523Y-6256533D02*
X76571904Y-6399390D01*
X76571904Y-6399390D02*
X76000476Y-6970819D01*
X76000476Y-6970819D02*
X76619523Y-6970819D01*
X76952857Y-5970819D02*
X77571904Y-5970819D01*
X77571904Y-5970819D02*
X77238571Y-6351771D01*
X77238571Y-6351771D02*
X77381428Y-6351771D01*
X77381428Y-6351771D02*
X77476666Y-6399390D01*
X77476666Y-6399390D02*
X77524285Y-6447009D01*
X77524285Y-6447009D02*
X77571904Y-6542247D01*
X77571904Y-6542247D02*
X77571904Y-6780342D01*
X77571904Y-6780342D02*
X77524285Y-6875580D01*
X77524285Y-6875580D02*
X77476666Y-6923200D01*
X77476666Y-6923200D02*
X77381428Y-6970819D01*
X77381428Y-6970819D02*
X77095714Y-6970819D01*
X77095714Y-6970819D02*
X77000476Y-6923200D01*
X77000476Y-6923200D02*
X76952857Y-6875580D01*
X17330819Y-5515857D02*
X16854628Y-5849190D01*
X17330819Y-6087285D02*
X16330819Y-6087285D01*
X16330819Y-6087285D02*
X16330819Y-5706333D01*
X16330819Y-5706333D02*
X16378438Y-5611095D01*
X16378438Y-5611095D02*
X16426057Y-5563476D01*
X16426057Y-5563476D02*
X16521295Y-5515857D01*
X16521295Y-5515857D02*
X16664152Y-5515857D01*
X16664152Y-5515857D02*
X16759390Y-5563476D01*
X16759390Y-5563476D02*
X16807009Y-5611095D01*
X16807009Y-5611095D02*
X16854628Y-5706333D01*
X16854628Y-5706333D02*
X16854628Y-6087285D01*
X17330819Y-4563476D02*
X17330819Y-5134904D01*
X17330819Y-4849190D02*
X16330819Y-4849190D01*
X16330819Y-4849190D02*
X16473676Y-4944428D01*
X16473676Y-4944428D02*
X16568914Y-5039666D01*
X16568914Y-5039666D02*
X16616533Y-5134904D01*
X16330819Y-4230142D02*
X16330819Y-3563476D01*
X16330819Y-3563476D02*
X17330819Y-3992047D01*
X55206819Y-107655666D02*
X54730628Y-107988999D01*
X55206819Y-108227094D02*
X54206819Y-108227094D01*
X54206819Y-108227094D02*
X54206819Y-107846142D01*
X54206819Y-107846142D02*
X54254438Y-107750904D01*
X54254438Y-107750904D02*
X54302057Y-107703285D01*
X54302057Y-107703285D02*
X54397295Y-107655666D01*
X54397295Y-107655666D02*
X54540152Y-107655666D01*
X54540152Y-107655666D02*
X54635390Y-107703285D01*
X54635390Y-107703285D02*
X54683009Y-107750904D01*
X54683009Y-107750904D02*
X54730628Y-107846142D01*
X54730628Y-107846142D02*
X54730628Y-108227094D01*
X54635390Y-107084237D02*
X54587771Y-107179475D01*
X54587771Y-107179475D02*
X54540152Y-107227094D01*
X54540152Y-107227094D02*
X54444914Y-107274713D01*
X54444914Y-107274713D02*
X54397295Y-107274713D01*
X54397295Y-107274713D02*
X54302057Y-107227094D01*
X54302057Y-107227094D02*
X54254438Y-107179475D01*
X54254438Y-107179475D02*
X54206819Y-107084237D01*
X54206819Y-107084237D02*
X54206819Y-106893761D01*
X54206819Y-106893761D02*
X54254438Y-106798523D01*
X54254438Y-106798523D02*
X54302057Y-106750904D01*
X54302057Y-106750904D02*
X54397295Y-106703285D01*
X54397295Y-106703285D02*
X54444914Y-106703285D01*
X54444914Y-106703285D02*
X54540152Y-106750904D01*
X54540152Y-106750904D02*
X54587771Y-106798523D01*
X54587771Y-106798523D02*
X54635390Y-106893761D01*
X54635390Y-106893761D02*
X54635390Y-107084237D01*
X54635390Y-107084237D02*
X54683009Y-107179475D01*
X54683009Y-107179475D02*
X54730628Y-107227094D01*
X54730628Y-107227094D02*
X54825866Y-107274713D01*
X54825866Y-107274713D02*
X55016342Y-107274713D01*
X55016342Y-107274713D02*
X55111580Y-107227094D01*
X55111580Y-107227094D02*
X55159200Y-107179475D01*
X55159200Y-107179475D02*
X55206819Y-107084237D01*
X55206819Y-107084237D02*
X55206819Y-106893761D01*
X55206819Y-106893761D02*
X55159200Y-106798523D01*
X55159200Y-106798523D02*
X55111580Y-106750904D01*
X55111580Y-106750904D02*
X55016342Y-106703285D01*
X55016342Y-106703285D02*
X54825866Y-106703285D01*
X54825866Y-106703285D02*
X54730628Y-106750904D01*
X54730628Y-106750904D02*
X54683009Y-106798523D01*
X54683009Y-106798523D02*
X54635390Y-106893761D01*
X9023905Y-91474819D02*
X9023905Y-90474819D01*
X9023905Y-90474819D02*
X9262000Y-90474819D01*
X9262000Y-90474819D02*
X9404857Y-90522438D01*
X9404857Y-90522438D02*
X9500095Y-90617676D01*
X9500095Y-90617676D02*
X9547714Y-90712914D01*
X9547714Y-90712914D02*
X9595333Y-90903390D01*
X9595333Y-90903390D02*
X9595333Y-91046247D01*
X9595333Y-91046247D02*
X9547714Y-91236723D01*
X9547714Y-91236723D02*
X9500095Y-91331961D01*
X9500095Y-91331961D02*
X9404857Y-91427200D01*
X9404857Y-91427200D02*
X9262000Y-91474819D01*
X9262000Y-91474819D02*
X9023905Y-91474819D01*
X9928667Y-90474819D02*
X10547714Y-90474819D01*
X10547714Y-90474819D02*
X10214381Y-90855771D01*
X10214381Y-90855771D02*
X10357238Y-90855771D01*
X10357238Y-90855771D02*
X10452476Y-90903390D01*
X10452476Y-90903390D02*
X10500095Y-90951009D01*
X10500095Y-90951009D02*
X10547714Y-91046247D01*
X10547714Y-91046247D02*
X10547714Y-91284342D01*
X10547714Y-91284342D02*
X10500095Y-91379580D01*
X10500095Y-91379580D02*
X10452476Y-91427200D01*
X10452476Y-91427200D02*
X10357238Y-91474819D01*
X10357238Y-91474819D02*
X10071524Y-91474819D01*
X10071524Y-91474819D02*
X9976286Y-91427200D01*
X9976286Y-91427200D02*
X9928667Y-91379580D01*
X47880905Y-105698819D02*
X47880905Y-104698819D01*
X47880905Y-104698819D02*
X48119000Y-104698819D01*
X48119000Y-104698819D02*
X48261857Y-104746438D01*
X48261857Y-104746438D02*
X48357095Y-104841676D01*
X48357095Y-104841676D02*
X48404714Y-104936914D01*
X48404714Y-104936914D02*
X48452333Y-105127390D01*
X48452333Y-105127390D02*
X48452333Y-105270247D01*
X48452333Y-105270247D02*
X48404714Y-105460723D01*
X48404714Y-105460723D02*
X48357095Y-105555961D01*
X48357095Y-105555961D02*
X48261857Y-105651200D01*
X48261857Y-105651200D02*
X48119000Y-105698819D01*
X48119000Y-105698819D02*
X47880905Y-105698819D01*
X49023762Y-105127390D02*
X48928524Y-105079771D01*
X48928524Y-105079771D02*
X48880905Y-105032152D01*
X48880905Y-105032152D02*
X48833286Y-104936914D01*
X48833286Y-104936914D02*
X48833286Y-104889295D01*
X48833286Y-104889295D02*
X48880905Y-104794057D01*
X48880905Y-104794057D02*
X48928524Y-104746438D01*
X48928524Y-104746438D02*
X49023762Y-104698819D01*
X49023762Y-104698819D02*
X49214238Y-104698819D01*
X49214238Y-104698819D02*
X49309476Y-104746438D01*
X49309476Y-104746438D02*
X49357095Y-104794057D01*
X49357095Y-104794057D02*
X49404714Y-104889295D01*
X49404714Y-104889295D02*
X49404714Y-104936914D01*
X49404714Y-104936914D02*
X49357095Y-105032152D01*
X49357095Y-105032152D02*
X49309476Y-105079771D01*
X49309476Y-105079771D02*
X49214238Y-105127390D01*
X49214238Y-105127390D02*
X49023762Y-105127390D01*
X49023762Y-105127390D02*
X48928524Y-105175009D01*
X48928524Y-105175009D02*
X48880905Y-105222628D01*
X48880905Y-105222628D02*
X48833286Y-105317866D01*
X48833286Y-105317866D02*
X48833286Y-105508342D01*
X48833286Y-105508342D02*
X48880905Y-105603580D01*
X48880905Y-105603580D02*
X48928524Y-105651200D01*
X48928524Y-105651200D02*
X49023762Y-105698819D01*
X49023762Y-105698819D02*
X49214238Y-105698819D01*
X49214238Y-105698819D02*
X49309476Y-105651200D01*
X49309476Y-105651200D02*
X49357095Y-105603580D01*
X49357095Y-105603580D02*
X49404714Y-105508342D01*
X49404714Y-105508342D02*
X49404714Y-105317866D01*
X49404714Y-105317866D02*
X49357095Y-105222628D01*
X49357095Y-105222628D02*
X49309476Y-105175009D01*
X49309476Y-105175009D02*
X49214238Y-105127390D01*
X60218819Y-42896285D02*
X59218819Y-42896285D01*
X59218819Y-42896285D02*
X59218819Y-42658190D01*
X59218819Y-42658190D02*
X59266438Y-42515333D01*
X59266438Y-42515333D02*
X59361676Y-42420095D01*
X59361676Y-42420095D02*
X59456914Y-42372476D01*
X59456914Y-42372476D02*
X59647390Y-42324857D01*
X59647390Y-42324857D02*
X59790247Y-42324857D01*
X59790247Y-42324857D02*
X59980723Y-42372476D01*
X59980723Y-42372476D02*
X60075961Y-42420095D01*
X60075961Y-42420095D02*
X60171200Y-42515333D01*
X60171200Y-42515333D02*
X60218819Y-42658190D01*
X60218819Y-42658190D02*
X60218819Y-42896285D01*
X59314057Y-41943904D02*
X59266438Y-41896285D01*
X59266438Y-41896285D02*
X59218819Y-41801047D01*
X59218819Y-41801047D02*
X59218819Y-41562952D01*
X59218819Y-41562952D02*
X59266438Y-41467714D01*
X59266438Y-41467714D02*
X59314057Y-41420095D01*
X59314057Y-41420095D02*
X59409295Y-41372476D01*
X59409295Y-41372476D02*
X59504533Y-41372476D01*
X59504533Y-41372476D02*
X59647390Y-41420095D01*
X59647390Y-41420095D02*
X60218819Y-41991523D01*
X60218819Y-41991523D02*
X60218819Y-41372476D01*
X59218819Y-40467714D02*
X59218819Y-40943904D01*
X59218819Y-40943904D02*
X59695009Y-40991523D01*
X59695009Y-40991523D02*
X59647390Y-40943904D01*
X59647390Y-40943904D02*
X59599771Y-40848666D01*
X59599771Y-40848666D02*
X59599771Y-40610571D01*
X59599771Y-40610571D02*
X59647390Y-40515333D01*
X59647390Y-40515333D02*
X59695009Y-40467714D01*
X59695009Y-40467714D02*
X59790247Y-40420095D01*
X59790247Y-40420095D02*
X60028342Y-40420095D01*
X60028342Y-40420095D02*
X60123580Y-40467714D01*
X60123580Y-40467714D02*
X60171200Y-40515333D01*
X60171200Y-40515333D02*
X60218819Y-40610571D01*
X60218819Y-40610571D02*
X60218819Y-40848666D01*
X60218819Y-40848666D02*
X60171200Y-40943904D01*
X60171200Y-40943904D02*
X60123580Y-40991523D01*
X44538819Y-107655666D02*
X44062628Y-107988999D01*
X44538819Y-108227094D02*
X43538819Y-108227094D01*
X43538819Y-108227094D02*
X43538819Y-107846142D01*
X43538819Y-107846142D02*
X43586438Y-107750904D01*
X43586438Y-107750904D02*
X43634057Y-107703285D01*
X43634057Y-107703285D02*
X43729295Y-107655666D01*
X43729295Y-107655666D02*
X43872152Y-107655666D01*
X43872152Y-107655666D02*
X43967390Y-107703285D01*
X43967390Y-107703285D02*
X44015009Y-107750904D01*
X44015009Y-107750904D02*
X44062628Y-107846142D01*
X44062628Y-107846142D02*
X44062628Y-108227094D01*
X43538819Y-107322332D02*
X43538819Y-106655666D01*
X43538819Y-106655666D02*
X44538819Y-107084237D01*
X4571047Y-45547009D02*
X4713904Y-45594628D01*
X4713904Y-45594628D02*
X4761523Y-45642247D01*
X4761523Y-45642247D02*
X4809142Y-45737485D01*
X4809142Y-45737485D02*
X4809142Y-45880342D01*
X4809142Y-45880342D02*
X4761523Y-45975580D01*
X4761523Y-45975580D02*
X4713904Y-46023200D01*
X4713904Y-46023200D02*
X4618666Y-46070819D01*
X4618666Y-46070819D02*
X4237714Y-46070819D01*
X4237714Y-46070819D02*
X4237714Y-45070819D01*
X4237714Y-45070819D02*
X4571047Y-45070819D01*
X4571047Y-45070819D02*
X4666285Y-45118438D01*
X4666285Y-45118438D02*
X4713904Y-45166057D01*
X4713904Y-45166057D02*
X4761523Y-45261295D01*
X4761523Y-45261295D02*
X4761523Y-45356533D01*
X4761523Y-45356533D02*
X4713904Y-45451771D01*
X4713904Y-45451771D02*
X4666285Y-45499390D01*
X4666285Y-45499390D02*
X4571047Y-45547009D01*
X4571047Y-45547009D02*
X4237714Y-45547009D01*
X5237714Y-46070819D02*
X5237714Y-45070819D01*
X5237714Y-45070819D02*
X5618666Y-45070819D01*
X5618666Y-45070819D02*
X5713904Y-45118438D01*
X5713904Y-45118438D02*
X5761523Y-45166057D01*
X5761523Y-45166057D02*
X5809142Y-45261295D01*
X5809142Y-45261295D02*
X5809142Y-45404152D01*
X5809142Y-45404152D02*
X5761523Y-45499390D01*
X5761523Y-45499390D02*
X5713904Y-45547009D01*
X5713904Y-45547009D02*
X5618666Y-45594628D01*
X5618666Y-45594628D02*
X5237714Y-45594628D01*
X6190095Y-45166057D02*
X6237714Y-45118438D01*
X6237714Y-45118438D02*
X6332952Y-45070819D01*
X6332952Y-45070819D02*
X6571047Y-45070819D01*
X6571047Y-45070819D02*
X6666285Y-45118438D01*
X6666285Y-45118438D02*
X6713904Y-45166057D01*
X6713904Y-45166057D02*
X6761523Y-45261295D01*
X6761523Y-45261295D02*
X6761523Y-45356533D01*
X6761523Y-45356533D02*
X6713904Y-45499390D01*
X6713904Y-45499390D02*
X6142476Y-46070819D01*
X6142476Y-46070819D02*
X6761523Y-46070819D01*
X7618666Y-45070819D02*
X7428190Y-45070819D01*
X7428190Y-45070819D02*
X7332952Y-45118438D01*
X7332952Y-45118438D02*
X7285333Y-45166057D01*
X7285333Y-45166057D02*
X7190095Y-45308914D01*
X7190095Y-45308914D02*
X7142476Y-45499390D01*
X7142476Y-45499390D02*
X7142476Y-45880342D01*
X7142476Y-45880342D02*
X7190095Y-45975580D01*
X7190095Y-45975580D02*
X7237714Y-46023200D01*
X7237714Y-46023200D02*
X7332952Y-46070819D01*
X7332952Y-46070819D02*
X7523428Y-46070819D01*
X7523428Y-46070819D02*
X7618666Y-46023200D01*
X7618666Y-46023200D02*
X7666285Y-45975580D01*
X7666285Y-45975580D02*
X7713904Y-45880342D01*
X7713904Y-45880342D02*
X7713904Y-45642247D01*
X7713904Y-45642247D02*
X7666285Y-45547009D01*
X7666285Y-45547009D02*
X7618666Y-45499390D01*
X7618666Y-45499390D02*
X7523428Y-45451771D01*
X7523428Y-45451771D02*
X7332952Y-45451771D01*
X7332952Y-45451771D02*
X7237714Y-45499390D01*
X7237714Y-45499390D02*
X7190095Y-45547009D01*
X7190095Y-45547009D02*
X7142476Y-45642247D01*
X33190714Y-6970819D02*
X33190714Y-5970819D01*
X33190714Y-5970819D02*
X33428809Y-5970819D01*
X33428809Y-5970819D02*
X33571666Y-6018438D01*
X33571666Y-6018438D02*
X33666904Y-6113676D01*
X33666904Y-6113676D02*
X33714523Y-6208914D01*
X33714523Y-6208914D02*
X33762142Y-6399390D01*
X33762142Y-6399390D02*
X33762142Y-6542247D01*
X33762142Y-6542247D02*
X33714523Y-6732723D01*
X33714523Y-6732723D02*
X33666904Y-6827961D01*
X33666904Y-6827961D02*
X33571666Y-6923200D01*
X33571666Y-6923200D02*
X33428809Y-6970819D01*
X33428809Y-6970819D02*
X33190714Y-6970819D01*
X34714523Y-6970819D02*
X34143095Y-6970819D01*
X34428809Y-6970819D02*
X34428809Y-5970819D01*
X34428809Y-5970819D02*
X34333571Y-6113676D01*
X34333571Y-6113676D02*
X34238333Y-6208914D01*
X34238333Y-6208914D02*
X34143095Y-6256533D01*
X35190714Y-6970819D02*
X35381190Y-6970819D01*
X35381190Y-6970819D02*
X35476428Y-6923200D01*
X35476428Y-6923200D02*
X35524047Y-6875580D01*
X35524047Y-6875580D02*
X35619285Y-6732723D01*
X35619285Y-6732723D02*
X35666904Y-6542247D01*
X35666904Y-6542247D02*
X35666904Y-6161295D01*
X35666904Y-6161295D02*
X35619285Y-6066057D01*
X35619285Y-6066057D02*
X35571666Y-6018438D01*
X35571666Y-6018438D02*
X35476428Y-5970819D01*
X35476428Y-5970819D02*
X35285952Y-5970819D01*
X35285952Y-5970819D02*
X35190714Y-6018438D01*
X35190714Y-6018438D02*
X35143095Y-6066057D01*
X35143095Y-6066057D02*
X35095476Y-6161295D01*
X35095476Y-6161295D02*
X35095476Y-6399390D01*
X35095476Y-6399390D02*
X35143095Y-6494628D01*
X35143095Y-6494628D02*
X35190714Y-6542247D01*
X35190714Y-6542247D02*
X35285952Y-6589866D01*
X35285952Y-6589866D02*
X35476428Y-6589866D01*
X35476428Y-6589866D02*
X35571666Y-6542247D01*
X35571666Y-6542247D02*
X35619285Y-6494628D01*
X35619285Y-6494628D02*
X35666904Y-6399390D01*
X26995238Y-133431009D02*
X27138095Y-133478628D01*
X27138095Y-133478628D02*
X27185714Y-133526247D01*
X27185714Y-133526247D02*
X27233333Y-133621485D01*
X27233333Y-133621485D02*
X27233333Y-133764342D01*
X27233333Y-133764342D02*
X27185714Y-133859580D01*
X27185714Y-133859580D02*
X27138095Y-133907200D01*
X27138095Y-133907200D02*
X27042857Y-133954819D01*
X27042857Y-133954819D02*
X26661905Y-133954819D01*
X26661905Y-133954819D02*
X26661905Y-132954819D01*
X26661905Y-132954819D02*
X26995238Y-132954819D01*
X26995238Y-132954819D02*
X27090476Y-133002438D01*
X27090476Y-133002438D02*
X27138095Y-133050057D01*
X27138095Y-133050057D02*
X27185714Y-133145295D01*
X27185714Y-133145295D02*
X27185714Y-133240533D01*
X27185714Y-133240533D02*
X27138095Y-133335771D01*
X27138095Y-133335771D02*
X27090476Y-133383390D01*
X27090476Y-133383390D02*
X26995238Y-133431009D01*
X26995238Y-133431009D02*
X26661905Y-133431009D01*
X27661905Y-133954819D02*
X27661905Y-132954819D01*
X27661905Y-132954819D02*
X28042857Y-132954819D01*
X28042857Y-132954819D02*
X28138095Y-133002438D01*
X28138095Y-133002438D02*
X28185714Y-133050057D01*
X28185714Y-133050057D02*
X28233333Y-133145295D01*
X28233333Y-133145295D02*
X28233333Y-133288152D01*
X28233333Y-133288152D02*
X28185714Y-133383390D01*
X28185714Y-133383390D02*
X28138095Y-133431009D01*
X28138095Y-133431009D02*
X28042857Y-133478628D01*
X28042857Y-133478628D02*
X27661905Y-133478628D01*
X28566667Y-132954819D02*
X29185714Y-132954819D01*
X29185714Y-132954819D02*
X28852381Y-133335771D01*
X28852381Y-133335771D02*
X28995238Y-133335771D01*
X28995238Y-133335771D02*
X29090476Y-133383390D01*
X29090476Y-133383390D02*
X29138095Y-133431009D01*
X29138095Y-133431009D02*
X29185714Y-133526247D01*
X29185714Y-133526247D02*
X29185714Y-133764342D01*
X29185714Y-133764342D02*
X29138095Y-133859580D01*
X29138095Y-133859580D02*
X29090476Y-133907200D01*
X29090476Y-133907200D02*
X28995238Y-133954819D01*
X28995238Y-133954819D02*
X28709524Y-133954819D01*
X28709524Y-133954819D02*
X28614286Y-133907200D01*
X28614286Y-133907200D02*
X28566667Y-133859580D01*
X16954047Y-77908009D02*
X17096904Y-77955628D01*
X17096904Y-77955628D02*
X17144523Y-78003247D01*
X17144523Y-78003247D02*
X17192142Y-78098485D01*
X17192142Y-78098485D02*
X17192142Y-78241342D01*
X17192142Y-78241342D02*
X17144523Y-78336580D01*
X17144523Y-78336580D02*
X17096904Y-78384200D01*
X17096904Y-78384200D02*
X17001666Y-78431819D01*
X17001666Y-78431819D02*
X16620714Y-78431819D01*
X16620714Y-78431819D02*
X16620714Y-77431819D01*
X16620714Y-77431819D02*
X16954047Y-77431819D01*
X16954047Y-77431819D02*
X17049285Y-77479438D01*
X17049285Y-77479438D02*
X17096904Y-77527057D01*
X17096904Y-77527057D02*
X17144523Y-77622295D01*
X17144523Y-77622295D02*
X17144523Y-77717533D01*
X17144523Y-77717533D02*
X17096904Y-77812771D01*
X17096904Y-77812771D02*
X17049285Y-77860390D01*
X17049285Y-77860390D02*
X16954047Y-77908009D01*
X16954047Y-77908009D02*
X16620714Y-77908009D01*
X17620714Y-78431819D02*
X17620714Y-77431819D01*
X17620714Y-77431819D02*
X18001666Y-77431819D01*
X18001666Y-77431819D02*
X18096904Y-77479438D01*
X18096904Y-77479438D02*
X18144523Y-77527057D01*
X18144523Y-77527057D02*
X18192142Y-77622295D01*
X18192142Y-77622295D02*
X18192142Y-77765152D01*
X18192142Y-77765152D02*
X18144523Y-77860390D01*
X18144523Y-77860390D02*
X18096904Y-77908009D01*
X18096904Y-77908009D02*
X18001666Y-77955628D01*
X18001666Y-77955628D02*
X17620714Y-77955628D01*
X18573095Y-77527057D02*
X18620714Y-77479438D01*
X18620714Y-77479438D02*
X18715952Y-77431819D01*
X18715952Y-77431819D02*
X18954047Y-77431819D01*
X18954047Y-77431819D02*
X19049285Y-77479438D01*
X19049285Y-77479438D02*
X19096904Y-77527057D01*
X19096904Y-77527057D02*
X19144523Y-77622295D01*
X19144523Y-77622295D02*
X19144523Y-77717533D01*
X19144523Y-77717533D02*
X19096904Y-77860390D01*
X19096904Y-77860390D02*
X18525476Y-78431819D01*
X18525476Y-78431819D02*
X19144523Y-78431819D01*
X19620714Y-78431819D02*
X19811190Y-78431819D01*
X19811190Y-78431819D02*
X19906428Y-78384200D01*
X19906428Y-78384200D02*
X19954047Y-78336580D01*
X19954047Y-78336580D02*
X20049285Y-78193723D01*
X20049285Y-78193723D02*
X20096904Y-78003247D01*
X20096904Y-78003247D02*
X20096904Y-77622295D01*
X20096904Y-77622295D02*
X20049285Y-77527057D01*
X20049285Y-77527057D02*
X20001666Y-77479438D01*
X20001666Y-77479438D02*
X19906428Y-77431819D01*
X19906428Y-77431819D02*
X19715952Y-77431819D01*
X19715952Y-77431819D02*
X19620714Y-77479438D01*
X19620714Y-77479438D02*
X19573095Y-77527057D01*
X19573095Y-77527057D02*
X19525476Y-77622295D01*
X19525476Y-77622295D02*
X19525476Y-77860390D01*
X19525476Y-77860390D02*
X19573095Y-77955628D01*
X19573095Y-77955628D02*
X19620714Y-78003247D01*
X19620714Y-78003247D02*
X19715952Y-78050866D01*
X19715952Y-78050866D02*
X19906428Y-78050866D01*
X19906428Y-78050866D02*
X20001666Y-78003247D01*
X20001666Y-78003247D02*
X20049285Y-77955628D01*
X20049285Y-77955628D02*
X20096904Y-77860390D01*
X64858819Y-34170857D02*
X64382628Y-34504190D01*
X64858819Y-34742285D02*
X63858819Y-34742285D01*
X63858819Y-34742285D02*
X63858819Y-34361333D01*
X63858819Y-34361333D02*
X63906438Y-34266095D01*
X63906438Y-34266095D02*
X63954057Y-34218476D01*
X63954057Y-34218476D02*
X64049295Y-34170857D01*
X64049295Y-34170857D02*
X64192152Y-34170857D01*
X64192152Y-34170857D02*
X64287390Y-34218476D01*
X64287390Y-34218476D02*
X64335009Y-34266095D01*
X64335009Y-34266095D02*
X64382628Y-34361333D01*
X64382628Y-34361333D02*
X64382628Y-34742285D01*
X63954057Y-33789904D02*
X63906438Y-33742285D01*
X63906438Y-33742285D02*
X63858819Y-33647047D01*
X63858819Y-33647047D02*
X63858819Y-33408952D01*
X63858819Y-33408952D02*
X63906438Y-33313714D01*
X63906438Y-33313714D02*
X63954057Y-33266095D01*
X63954057Y-33266095D02*
X64049295Y-33218476D01*
X64049295Y-33218476D02*
X64144533Y-33218476D01*
X64144533Y-33218476D02*
X64287390Y-33266095D01*
X64287390Y-33266095D02*
X64858819Y-33837523D01*
X64858819Y-33837523D02*
X64858819Y-33218476D01*
X64192152Y-32361333D02*
X64858819Y-32361333D01*
X63811200Y-32599428D02*
X64525485Y-32837523D01*
X64525485Y-32837523D02*
X64525485Y-32218476D01*
X69756714Y-105698819D02*
X69756714Y-104698819D01*
X69756714Y-104698819D02*
X69994809Y-104698819D01*
X69994809Y-104698819D02*
X70137666Y-104746438D01*
X70137666Y-104746438D02*
X70232904Y-104841676D01*
X70232904Y-104841676D02*
X70280523Y-104936914D01*
X70280523Y-104936914D02*
X70328142Y-105127390D01*
X70328142Y-105127390D02*
X70328142Y-105270247D01*
X70328142Y-105270247D02*
X70280523Y-105460723D01*
X70280523Y-105460723D02*
X70232904Y-105555961D01*
X70232904Y-105555961D02*
X70137666Y-105651200D01*
X70137666Y-105651200D02*
X69994809Y-105698819D01*
X69994809Y-105698819D02*
X69756714Y-105698819D01*
X71280523Y-105698819D02*
X70709095Y-105698819D01*
X70994809Y-105698819D02*
X70994809Y-104698819D01*
X70994809Y-104698819D02*
X70899571Y-104841676D01*
X70899571Y-104841676D02*
X70804333Y-104936914D01*
X70804333Y-104936914D02*
X70709095Y-104984533D01*
X71899571Y-104698819D02*
X71994809Y-104698819D01*
X71994809Y-104698819D02*
X72090047Y-104746438D01*
X72090047Y-104746438D02*
X72137666Y-104794057D01*
X72137666Y-104794057D02*
X72185285Y-104889295D01*
X72185285Y-104889295D02*
X72232904Y-105079771D01*
X72232904Y-105079771D02*
X72232904Y-105317866D01*
X72232904Y-105317866D02*
X72185285Y-105508342D01*
X72185285Y-105508342D02*
X72137666Y-105603580D01*
X72137666Y-105603580D02*
X72090047Y-105651200D01*
X72090047Y-105651200D02*
X71994809Y-105698819D01*
X71994809Y-105698819D02*
X71899571Y-105698819D01*
X71899571Y-105698819D02*
X71804333Y-105651200D01*
X71804333Y-105651200D02*
X71756714Y-105603580D01*
X71756714Y-105603580D02*
X71709095Y-105508342D01*
X71709095Y-105508342D02*
X71661476Y-105317866D01*
X71661476Y-105317866D02*
X71661476Y-105079771D01*
X71661476Y-105079771D02*
X71709095Y-104889295D01*
X71709095Y-104889295D02*
X71756714Y-104794057D01*
X71756714Y-104794057D02*
X71804333Y-104746438D01*
X71804333Y-104746438D02*
X71899571Y-104698819D01*
X16954047Y-68470009D02*
X17096904Y-68517628D01*
X17096904Y-68517628D02*
X17144523Y-68565247D01*
X17144523Y-68565247D02*
X17192142Y-68660485D01*
X17192142Y-68660485D02*
X17192142Y-68803342D01*
X17192142Y-68803342D02*
X17144523Y-68898580D01*
X17144523Y-68898580D02*
X17096904Y-68946200D01*
X17096904Y-68946200D02*
X17001666Y-68993819D01*
X17001666Y-68993819D02*
X16620714Y-68993819D01*
X16620714Y-68993819D02*
X16620714Y-67993819D01*
X16620714Y-67993819D02*
X16954047Y-67993819D01*
X16954047Y-67993819D02*
X17049285Y-68041438D01*
X17049285Y-68041438D02*
X17096904Y-68089057D01*
X17096904Y-68089057D02*
X17144523Y-68184295D01*
X17144523Y-68184295D02*
X17144523Y-68279533D01*
X17144523Y-68279533D02*
X17096904Y-68374771D01*
X17096904Y-68374771D02*
X17049285Y-68422390D01*
X17049285Y-68422390D02*
X16954047Y-68470009D01*
X16954047Y-68470009D02*
X16620714Y-68470009D01*
X17620714Y-68993819D02*
X17620714Y-67993819D01*
X17620714Y-67993819D02*
X18001666Y-67993819D01*
X18001666Y-67993819D02*
X18096904Y-68041438D01*
X18096904Y-68041438D02*
X18144523Y-68089057D01*
X18144523Y-68089057D02*
X18192142Y-68184295D01*
X18192142Y-68184295D02*
X18192142Y-68327152D01*
X18192142Y-68327152D02*
X18144523Y-68422390D01*
X18144523Y-68422390D02*
X18096904Y-68470009D01*
X18096904Y-68470009D02*
X18001666Y-68517628D01*
X18001666Y-68517628D02*
X17620714Y-68517628D01*
X18573095Y-68089057D02*
X18620714Y-68041438D01*
X18620714Y-68041438D02*
X18715952Y-67993819D01*
X18715952Y-67993819D02*
X18954047Y-67993819D01*
X18954047Y-67993819D02*
X19049285Y-68041438D01*
X19049285Y-68041438D02*
X19096904Y-68089057D01*
X19096904Y-68089057D02*
X19144523Y-68184295D01*
X19144523Y-68184295D02*
X19144523Y-68279533D01*
X19144523Y-68279533D02*
X19096904Y-68422390D01*
X19096904Y-68422390D02*
X18525476Y-68993819D01*
X18525476Y-68993819D02*
X19144523Y-68993819D01*
X19715952Y-68422390D02*
X19620714Y-68374771D01*
X19620714Y-68374771D02*
X19573095Y-68327152D01*
X19573095Y-68327152D02*
X19525476Y-68231914D01*
X19525476Y-68231914D02*
X19525476Y-68184295D01*
X19525476Y-68184295D02*
X19573095Y-68089057D01*
X19573095Y-68089057D02*
X19620714Y-68041438D01*
X19620714Y-68041438D02*
X19715952Y-67993819D01*
X19715952Y-67993819D02*
X19906428Y-67993819D01*
X19906428Y-67993819D02*
X20001666Y-68041438D01*
X20001666Y-68041438D02*
X20049285Y-68089057D01*
X20049285Y-68089057D02*
X20096904Y-68184295D01*
X20096904Y-68184295D02*
X20096904Y-68231914D01*
X20096904Y-68231914D02*
X20049285Y-68327152D01*
X20049285Y-68327152D02*
X20001666Y-68374771D01*
X20001666Y-68374771D02*
X19906428Y-68422390D01*
X19906428Y-68422390D02*
X19715952Y-68422390D01*
X19715952Y-68422390D02*
X19620714Y-68470009D01*
X19620714Y-68470009D02*
X19573095Y-68517628D01*
X19573095Y-68517628D02*
X19525476Y-68612866D01*
X19525476Y-68612866D02*
X19525476Y-68803342D01*
X19525476Y-68803342D02*
X19573095Y-68898580D01*
X19573095Y-68898580D02*
X19620714Y-68946200D01*
X19620714Y-68946200D02*
X19715952Y-68993819D01*
X19715952Y-68993819D02*
X19906428Y-68993819D01*
X19906428Y-68993819D02*
X20001666Y-68946200D01*
X20001666Y-68946200D02*
X20049285Y-68898580D01*
X20049285Y-68898580D02*
X20096904Y-68803342D01*
X20096904Y-68803342D02*
X20096904Y-68612866D01*
X20096904Y-68612866D02*
X20049285Y-68517628D01*
X20049285Y-68517628D02*
X20001666Y-68470009D01*
X20001666Y-68470009D02*
X19906428Y-68422390D01*
X59288819Y-33283904D02*
X60098342Y-33283904D01*
X60098342Y-33283904D02*
X60193580Y-33236285D01*
X60193580Y-33236285D02*
X60241200Y-33188666D01*
X60241200Y-33188666D02*
X60288819Y-33093428D01*
X60288819Y-33093428D02*
X60288819Y-32902952D01*
X60288819Y-32902952D02*
X60241200Y-32807714D01*
X60241200Y-32807714D02*
X60193580Y-32760095D01*
X60193580Y-32760095D02*
X60098342Y-32712476D01*
X60098342Y-32712476D02*
X59288819Y-32712476D01*
X59384057Y-32283904D02*
X59336438Y-32236285D01*
X59336438Y-32236285D02*
X59288819Y-32141047D01*
X59288819Y-32141047D02*
X59288819Y-31902952D01*
X59288819Y-31902952D02*
X59336438Y-31807714D01*
X59336438Y-31807714D02*
X59384057Y-31760095D01*
X59384057Y-31760095D02*
X59479295Y-31712476D01*
X59479295Y-31712476D02*
X59574533Y-31712476D01*
X59574533Y-31712476D02*
X59717390Y-31760095D01*
X59717390Y-31760095D02*
X60288819Y-32331523D01*
X60288819Y-32331523D02*
X60288819Y-31712476D01*
X41998819Y-40774857D02*
X41522628Y-41108190D01*
X41998819Y-41346285D02*
X40998819Y-41346285D01*
X40998819Y-41346285D02*
X40998819Y-40965333D01*
X40998819Y-40965333D02*
X41046438Y-40870095D01*
X41046438Y-40870095D02*
X41094057Y-40822476D01*
X41094057Y-40822476D02*
X41189295Y-40774857D01*
X41189295Y-40774857D02*
X41332152Y-40774857D01*
X41332152Y-40774857D02*
X41427390Y-40822476D01*
X41427390Y-40822476D02*
X41475009Y-40870095D01*
X41475009Y-40870095D02*
X41522628Y-40965333D01*
X41522628Y-40965333D02*
X41522628Y-41346285D01*
X41998819Y-39822476D02*
X41998819Y-40393904D01*
X41998819Y-40108190D02*
X40998819Y-40108190D01*
X40998819Y-40108190D02*
X41141676Y-40203428D01*
X41141676Y-40203428D02*
X41236914Y-40298666D01*
X41236914Y-40298666D02*
X41284533Y-40393904D01*
X41332152Y-38965333D02*
X41998819Y-38965333D01*
X40951200Y-39203428D02*
X41665485Y-39441523D01*
X41665485Y-39441523D02*
X41665485Y-38822476D01*
X94647238Y-133431009D02*
X94790095Y-133478628D01*
X94790095Y-133478628D02*
X94837714Y-133526247D01*
X94837714Y-133526247D02*
X94885333Y-133621485D01*
X94885333Y-133621485D02*
X94885333Y-133764342D01*
X94885333Y-133764342D02*
X94837714Y-133859580D01*
X94837714Y-133859580D02*
X94790095Y-133907200D01*
X94790095Y-133907200D02*
X94694857Y-133954819D01*
X94694857Y-133954819D02*
X94313905Y-133954819D01*
X94313905Y-133954819D02*
X94313905Y-132954819D01*
X94313905Y-132954819D02*
X94647238Y-132954819D01*
X94647238Y-132954819D02*
X94742476Y-133002438D01*
X94742476Y-133002438D02*
X94790095Y-133050057D01*
X94790095Y-133050057D02*
X94837714Y-133145295D01*
X94837714Y-133145295D02*
X94837714Y-133240533D01*
X94837714Y-133240533D02*
X94790095Y-133335771D01*
X94790095Y-133335771D02*
X94742476Y-133383390D01*
X94742476Y-133383390D02*
X94647238Y-133431009D01*
X94647238Y-133431009D02*
X94313905Y-133431009D01*
X95313905Y-133954819D02*
X95313905Y-132954819D01*
X95313905Y-132954819D02*
X95694857Y-132954819D01*
X95694857Y-132954819D02*
X95790095Y-133002438D01*
X95790095Y-133002438D02*
X95837714Y-133050057D01*
X95837714Y-133050057D02*
X95885333Y-133145295D01*
X95885333Y-133145295D02*
X95885333Y-133288152D01*
X95885333Y-133288152D02*
X95837714Y-133383390D01*
X95837714Y-133383390D02*
X95790095Y-133431009D01*
X95790095Y-133431009D02*
X95694857Y-133478628D01*
X95694857Y-133478628D02*
X95313905Y-133478628D01*
X96361524Y-133954819D02*
X96552000Y-133954819D01*
X96552000Y-133954819D02*
X96647238Y-133907200D01*
X96647238Y-133907200D02*
X96694857Y-133859580D01*
X96694857Y-133859580D02*
X96790095Y-133716723D01*
X96790095Y-133716723D02*
X96837714Y-133526247D01*
X96837714Y-133526247D02*
X96837714Y-133145295D01*
X96837714Y-133145295D02*
X96790095Y-133050057D01*
X96790095Y-133050057D02*
X96742476Y-133002438D01*
X96742476Y-133002438D02*
X96647238Y-132954819D01*
X96647238Y-132954819D02*
X96456762Y-132954819D01*
X96456762Y-132954819D02*
X96361524Y-133002438D01*
X96361524Y-133002438D02*
X96313905Y-133050057D01*
X96313905Y-133050057D02*
X96266286Y-133145295D01*
X96266286Y-133145295D02*
X96266286Y-133383390D01*
X96266286Y-133383390D02*
X96313905Y-133478628D01*
X96313905Y-133478628D02*
X96361524Y-133526247D01*
X96361524Y-133526247D02*
X96456762Y-133573866D01*
X96456762Y-133573866D02*
X96647238Y-133573866D01*
X96647238Y-133573866D02*
X96742476Y-133526247D01*
X96742476Y-133526247D02*
X96790095Y-133478628D01*
X96790095Y-133478628D02*
X96837714Y-133383390D01*
X28991009Y-14588952D02*
X29038628Y-14446095D01*
X29038628Y-14446095D02*
X29086247Y-14398476D01*
X29086247Y-14398476D02*
X29181485Y-14350857D01*
X29181485Y-14350857D02*
X29324342Y-14350857D01*
X29324342Y-14350857D02*
X29419580Y-14398476D01*
X29419580Y-14398476D02*
X29467200Y-14446095D01*
X29467200Y-14446095D02*
X29514819Y-14541333D01*
X29514819Y-14541333D02*
X29514819Y-14922285D01*
X29514819Y-14922285D02*
X28514819Y-14922285D01*
X28514819Y-14922285D02*
X28514819Y-14588952D01*
X28514819Y-14588952D02*
X28562438Y-14493714D01*
X28562438Y-14493714D02*
X28610057Y-14446095D01*
X28610057Y-14446095D02*
X28705295Y-14398476D01*
X28705295Y-14398476D02*
X28800533Y-14398476D01*
X28800533Y-14398476D02*
X28895771Y-14446095D01*
X28895771Y-14446095D02*
X28943390Y-14493714D01*
X28943390Y-14493714D02*
X28991009Y-14588952D01*
X28991009Y-14588952D02*
X28991009Y-14922285D01*
X29514819Y-13922285D02*
X28514819Y-13922285D01*
X28514819Y-13922285D02*
X28514819Y-13541333D01*
X28514819Y-13541333D02*
X28562438Y-13446095D01*
X28562438Y-13446095D02*
X28610057Y-13398476D01*
X28610057Y-13398476D02*
X28705295Y-13350857D01*
X28705295Y-13350857D02*
X28848152Y-13350857D01*
X28848152Y-13350857D02*
X28943390Y-13398476D01*
X28943390Y-13398476D02*
X28991009Y-13446095D01*
X28991009Y-13446095D02*
X29038628Y-13541333D01*
X29038628Y-13541333D02*
X29038628Y-13922285D01*
X29514819Y-12398476D02*
X29514819Y-12969904D01*
X29514819Y-12684190D02*
X28514819Y-12684190D01*
X28514819Y-12684190D02*
X28657676Y-12779428D01*
X28657676Y-12779428D02*
X28752914Y-12874666D01*
X28752914Y-12874666D02*
X28800533Y-12969904D01*
X28514819Y-11541333D02*
X28514819Y-11731809D01*
X28514819Y-11731809D02*
X28562438Y-11827047D01*
X28562438Y-11827047D02*
X28610057Y-11874666D01*
X28610057Y-11874666D02*
X28752914Y-11969904D01*
X28752914Y-11969904D02*
X28943390Y-12017523D01*
X28943390Y-12017523D02*
X29324342Y-12017523D01*
X29324342Y-12017523D02*
X29419580Y-11969904D01*
X29419580Y-11969904D02*
X29467200Y-11922285D01*
X29467200Y-11922285D02*
X29514819Y-11827047D01*
X29514819Y-11827047D02*
X29514819Y-11636571D01*
X29514819Y-11636571D02*
X29467200Y-11541333D01*
X29467200Y-11541333D02*
X29419580Y-11493714D01*
X29419580Y-11493714D02*
X29324342Y-11446095D01*
X29324342Y-11446095D02*
X29086247Y-11446095D01*
X29086247Y-11446095D02*
X28991009Y-11493714D01*
X28991009Y-11493714D02*
X28943390Y-11541333D01*
X28943390Y-11541333D02*
X28895771Y-11636571D01*
X28895771Y-11636571D02*
X28895771Y-11827047D01*
X28895771Y-11827047D02*
X28943390Y-11922285D01*
X28943390Y-11922285D02*
X28991009Y-11969904D01*
X28991009Y-11969904D02*
X29086247Y-12017523D01*
X45077142Y-41206819D02*
X44743809Y-40730628D01*
X44505714Y-41206819D02*
X44505714Y-40206819D01*
X44505714Y-40206819D02*
X44886666Y-40206819D01*
X44886666Y-40206819D02*
X44981904Y-40254438D01*
X44981904Y-40254438D02*
X45029523Y-40302057D01*
X45029523Y-40302057D02*
X45077142Y-40397295D01*
X45077142Y-40397295D02*
X45077142Y-40540152D01*
X45077142Y-40540152D02*
X45029523Y-40635390D01*
X45029523Y-40635390D02*
X44981904Y-40683009D01*
X44981904Y-40683009D02*
X44886666Y-40730628D01*
X44886666Y-40730628D02*
X44505714Y-40730628D01*
X45458095Y-40302057D02*
X45505714Y-40254438D01*
X45505714Y-40254438D02*
X45600952Y-40206819D01*
X45600952Y-40206819D02*
X45839047Y-40206819D01*
X45839047Y-40206819D02*
X45934285Y-40254438D01*
X45934285Y-40254438D02*
X45981904Y-40302057D01*
X45981904Y-40302057D02*
X46029523Y-40397295D01*
X46029523Y-40397295D02*
X46029523Y-40492533D01*
X46029523Y-40492533D02*
X45981904Y-40635390D01*
X45981904Y-40635390D02*
X45410476Y-41206819D01*
X45410476Y-41206819D02*
X46029523Y-41206819D01*
X46886666Y-40206819D02*
X46696190Y-40206819D01*
X46696190Y-40206819D02*
X46600952Y-40254438D01*
X46600952Y-40254438D02*
X46553333Y-40302057D01*
X46553333Y-40302057D02*
X46458095Y-40444914D01*
X46458095Y-40444914D02*
X46410476Y-40635390D01*
X46410476Y-40635390D02*
X46410476Y-41016342D01*
X46410476Y-41016342D02*
X46458095Y-41111580D01*
X46458095Y-41111580D02*
X46505714Y-41159200D01*
X46505714Y-41159200D02*
X46600952Y-41206819D01*
X46600952Y-41206819D02*
X46791428Y-41206819D01*
X46791428Y-41206819D02*
X46886666Y-41159200D01*
X46886666Y-41159200D02*
X46934285Y-41111580D01*
X46934285Y-41111580D02*
X46981904Y-41016342D01*
X46981904Y-41016342D02*
X46981904Y-40778247D01*
X46981904Y-40778247D02*
X46934285Y-40683009D01*
X46934285Y-40683009D02*
X46886666Y-40635390D01*
X46886666Y-40635390D02*
X46791428Y-40587771D01*
X46791428Y-40587771D02*
X46600952Y-40587771D01*
X46600952Y-40587771D02*
X46505714Y-40635390D01*
X46505714Y-40635390D02*
X46458095Y-40683009D01*
X46458095Y-40683009D02*
X46410476Y-40778247D01*
X78066819Y-108235357D02*
X77590628Y-108568690D01*
X78066819Y-108806785D02*
X77066819Y-108806785D01*
X77066819Y-108806785D02*
X77066819Y-108425833D01*
X77066819Y-108425833D02*
X77114438Y-108330595D01*
X77114438Y-108330595D02*
X77162057Y-108282976D01*
X77162057Y-108282976D02*
X77257295Y-108235357D01*
X77257295Y-108235357D02*
X77400152Y-108235357D01*
X77400152Y-108235357D02*
X77495390Y-108282976D01*
X77495390Y-108282976D02*
X77543009Y-108330595D01*
X77543009Y-108330595D02*
X77590628Y-108425833D01*
X77590628Y-108425833D02*
X77590628Y-108806785D01*
X78066819Y-107282976D02*
X78066819Y-107854404D01*
X78066819Y-107568690D02*
X77066819Y-107568690D01*
X77066819Y-107568690D02*
X77209676Y-107663928D01*
X77209676Y-107663928D02*
X77304914Y-107759166D01*
X77304914Y-107759166D02*
X77352533Y-107854404D01*
X77066819Y-106663928D02*
X77066819Y-106568690D01*
X77066819Y-106568690D02*
X77114438Y-106473452D01*
X77114438Y-106473452D02*
X77162057Y-106425833D01*
X77162057Y-106425833D02*
X77257295Y-106378214D01*
X77257295Y-106378214D02*
X77447771Y-106330595D01*
X77447771Y-106330595D02*
X77685866Y-106330595D01*
X77685866Y-106330595D02*
X77876342Y-106378214D01*
X77876342Y-106378214D02*
X77971580Y-106425833D01*
X77971580Y-106425833D02*
X78019200Y-106473452D01*
X78019200Y-106473452D02*
X78066819Y-106568690D01*
X78066819Y-106568690D02*
X78066819Y-106663928D01*
X78066819Y-106663928D02*
X78019200Y-106759166D01*
X78019200Y-106759166D02*
X77971580Y-106806785D01*
X77971580Y-106806785D02*
X77876342Y-106854404D01*
X77876342Y-106854404D02*
X77685866Y-106902023D01*
X77685866Y-106902023D02*
X77447771Y-106902023D01*
X77447771Y-106902023D02*
X77257295Y-106854404D01*
X77257295Y-106854404D02*
X77162057Y-106806785D01*
X77162057Y-106806785D02*
X77114438Y-106759166D01*
X77114438Y-106759166D02*
X77066819Y-106663928D01*
X88283009Y-7984952D02*
X88330628Y-7842095D01*
X88330628Y-7842095D02*
X88378247Y-7794476D01*
X88378247Y-7794476D02*
X88473485Y-7746857D01*
X88473485Y-7746857D02*
X88616342Y-7746857D01*
X88616342Y-7746857D02*
X88711580Y-7794476D01*
X88711580Y-7794476D02*
X88759200Y-7842095D01*
X88759200Y-7842095D02*
X88806819Y-7937333D01*
X88806819Y-7937333D02*
X88806819Y-8318285D01*
X88806819Y-8318285D02*
X87806819Y-8318285D01*
X87806819Y-8318285D02*
X87806819Y-7984952D01*
X87806819Y-7984952D02*
X87854438Y-7889714D01*
X87854438Y-7889714D02*
X87902057Y-7842095D01*
X87902057Y-7842095D02*
X87997295Y-7794476D01*
X87997295Y-7794476D02*
X88092533Y-7794476D01*
X88092533Y-7794476D02*
X88187771Y-7842095D01*
X88187771Y-7842095D02*
X88235390Y-7889714D01*
X88235390Y-7889714D02*
X88283009Y-7984952D01*
X88283009Y-7984952D02*
X88283009Y-8318285D01*
X88806819Y-7318285D02*
X87806819Y-7318285D01*
X87806819Y-7318285D02*
X87806819Y-6937333D01*
X87806819Y-6937333D02*
X87854438Y-6842095D01*
X87854438Y-6842095D02*
X87902057Y-6794476D01*
X87902057Y-6794476D02*
X87997295Y-6746857D01*
X87997295Y-6746857D02*
X88140152Y-6746857D01*
X88140152Y-6746857D02*
X88235390Y-6794476D01*
X88235390Y-6794476D02*
X88283009Y-6842095D01*
X88283009Y-6842095D02*
X88330628Y-6937333D01*
X88330628Y-6937333D02*
X88330628Y-7318285D01*
X88806819Y-5794476D02*
X88806819Y-6365904D01*
X88806819Y-6080190D02*
X87806819Y-6080190D01*
X87806819Y-6080190D02*
X87949676Y-6175428D01*
X87949676Y-6175428D02*
X88044914Y-6270666D01*
X88044914Y-6270666D02*
X88092533Y-6365904D01*
X88806819Y-4842095D02*
X88806819Y-5413523D01*
X88806819Y-5127809D02*
X87806819Y-5127809D01*
X87806819Y-5127809D02*
X87949676Y-5223047D01*
X87949676Y-5223047D02*
X88044914Y-5318285D01*
X88044914Y-5318285D02*
X88092533Y-5413523D01*
X59315905Y-105698819D02*
X59315905Y-104698819D01*
X59315905Y-104698819D02*
X59554000Y-104698819D01*
X59554000Y-104698819D02*
X59696857Y-104746438D01*
X59696857Y-104746438D02*
X59792095Y-104841676D01*
X59792095Y-104841676D02*
X59839714Y-104936914D01*
X59839714Y-104936914D02*
X59887333Y-105127390D01*
X59887333Y-105127390D02*
X59887333Y-105270247D01*
X59887333Y-105270247D02*
X59839714Y-105460723D01*
X59839714Y-105460723D02*
X59792095Y-105555961D01*
X59792095Y-105555961D02*
X59696857Y-105651200D01*
X59696857Y-105651200D02*
X59554000Y-105698819D01*
X59554000Y-105698819D02*
X59315905Y-105698819D01*
X60363524Y-105698819D02*
X60554000Y-105698819D01*
X60554000Y-105698819D02*
X60649238Y-105651200D01*
X60649238Y-105651200D02*
X60696857Y-105603580D01*
X60696857Y-105603580D02*
X60792095Y-105460723D01*
X60792095Y-105460723D02*
X60839714Y-105270247D01*
X60839714Y-105270247D02*
X60839714Y-104889295D01*
X60839714Y-104889295D02*
X60792095Y-104794057D01*
X60792095Y-104794057D02*
X60744476Y-104746438D01*
X60744476Y-104746438D02*
X60649238Y-104698819D01*
X60649238Y-104698819D02*
X60458762Y-104698819D01*
X60458762Y-104698819D02*
X60363524Y-104746438D01*
X60363524Y-104746438D02*
X60315905Y-104794057D01*
X60315905Y-104794057D02*
X60268286Y-104889295D01*
X60268286Y-104889295D02*
X60268286Y-105127390D01*
X60268286Y-105127390D02*
X60315905Y-105222628D01*
X60315905Y-105222628D02*
X60363524Y-105270247D01*
X60363524Y-105270247D02*
X60458762Y-105317866D01*
X60458762Y-105317866D02*
X60649238Y-105317866D01*
X60649238Y-105317866D02*
X60744476Y-105270247D01*
X60744476Y-105270247D02*
X60792095Y-105222628D01*
X60792095Y-105222628D02*
X60839714Y-105127390D01*
X38607047Y-21879009D02*
X38749904Y-21926628D01*
X38749904Y-21926628D02*
X38797523Y-21974247D01*
X38797523Y-21974247D02*
X38845142Y-22069485D01*
X38845142Y-22069485D02*
X38845142Y-22212342D01*
X38845142Y-22212342D02*
X38797523Y-22307580D01*
X38797523Y-22307580D02*
X38749904Y-22355200D01*
X38749904Y-22355200D02*
X38654666Y-22402819D01*
X38654666Y-22402819D02*
X38273714Y-22402819D01*
X38273714Y-22402819D02*
X38273714Y-21402819D01*
X38273714Y-21402819D02*
X38607047Y-21402819D01*
X38607047Y-21402819D02*
X38702285Y-21450438D01*
X38702285Y-21450438D02*
X38749904Y-21498057D01*
X38749904Y-21498057D02*
X38797523Y-21593295D01*
X38797523Y-21593295D02*
X38797523Y-21688533D01*
X38797523Y-21688533D02*
X38749904Y-21783771D01*
X38749904Y-21783771D02*
X38702285Y-21831390D01*
X38702285Y-21831390D02*
X38607047Y-21879009D01*
X38607047Y-21879009D02*
X38273714Y-21879009D01*
X39273714Y-22402819D02*
X39273714Y-21402819D01*
X39273714Y-21402819D02*
X39654666Y-21402819D01*
X39654666Y-21402819D02*
X39749904Y-21450438D01*
X39749904Y-21450438D02*
X39797523Y-21498057D01*
X39797523Y-21498057D02*
X39845142Y-21593295D01*
X39845142Y-21593295D02*
X39845142Y-21736152D01*
X39845142Y-21736152D02*
X39797523Y-21831390D01*
X39797523Y-21831390D02*
X39749904Y-21879009D01*
X39749904Y-21879009D02*
X39654666Y-21926628D01*
X39654666Y-21926628D02*
X39273714Y-21926628D01*
X40226095Y-21498057D02*
X40273714Y-21450438D01*
X40273714Y-21450438D02*
X40368952Y-21402819D01*
X40368952Y-21402819D02*
X40607047Y-21402819D01*
X40607047Y-21402819D02*
X40702285Y-21450438D01*
X40702285Y-21450438D02*
X40749904Y-21498057D01*
X40749904Y-21498057D02*
X40797523Y-21593295D01*
X40797523Y-21593295D02*
X40797523Y-21688533D01*
X40797523Y-21688533D02*
X40749904Y-21831390D01*
X40749904Y-21831390D02*
X40178476Y-22402819D01*
X40178476Y-22402819D02*
X40797523Y-22402819D01*
X41130857Y-21402819D02*
X41749904Y-21402819D01*
X41749904Y-21402819D02*
X41416571Y-21783771D01*
X41416571Y-21783771D02*
X41559428Y-21783771D01*
X41559428Y-21783771D02*
X41654666Y-21831390D01*
X41654666Y-21831390D02*
X41702285Y-21879009D01*
X41702285Y-21879009D02*
X41749904Y-21974247D01*
X41749904Y-21974247D02*
X41749904Y-22212342D01*
X41749904Y-22212342D02*
X41702285Y-22307580D01*
X41702285Y-22307580D02*
X41654666Y-22355200D01*
X41654666Y-22355200D02*
X41559428Y-22402819D01*
X41559428Y-22402819D02*
X41273714Y-22402819D01*
X41273714Y-22402819D02*
X41178476Y-22355200D01*
X41178476Y-22355200D02*
X41130857Y-22307580D01*
X82939238Y-133431009D02*
X83082095Y-133478628D01*
X83082095Y-133478628D02*
X83129714Y-133526247D01*
X83129714Y-133526247D02*
X83177333Y-133621485D01*
X83177333Y-133621485D02*
X83177333Y-133764342D01*
X83177333Y-133764342D02*
X83129714Y-133859580D01*
X83129714Y-133859580D02*
X83082095Y-133907200D01*
X83082095Y-133907200D02*
X82986857Y-133954819D01*
X82986857Y-133954819D02*
X82605905Y-133954819D01*
X82605905Y-133954819D02*
X82605905Y-132954819D01*
X82605905Y-132954819D02*
X82939238Y-132954819D01*
X82939238Y-132954819D02*
X83034476Y-133002438D01*
X83034476Y-133002438D02*
X83082095Y-133050057D01*
X83082095Y-133050057D02*
X83129714Y-133145295D01*
X83129714Y-133145295D02*
X83129714Y-133240533D01*
X83129714Y-133240533D02*
X83082095Y-133335771D01*
X83082095Y-133335771D02*
X83034476Y-133383390D01*
X83034476Y-133383390D02*
X82939238Y-133431009D01*
X82939238Y-133431009D02*
X82605905Y-133431009D01*
X83605905Y-133954819D02*
X83605905Y-132954819D01*
X83605905Y-132954819D02*
X83986857Y-132954819D01*
X83986857Y-132954819D02*
X84082095Y-133002438D01*
X84082095Y-133002438D02*
X84129714Y-133050057D01*
X84129714Y-133050057D02*
X84177333Y-133145295D01*
X84177333Y-133145295D02*
X84177333Y-133288152D01*
X84177333Y-133288152D02*
X84129714Y-133383390D01*
X84129714Y-133383390D02*
X84082095Y-133431009D01*
X84082095Y-133431009D02*
X83986857Y-133478628D01*
X83986857Y-133478628D02*
X83605905Y-133478628D01*
X84748762Y-133383390D02*
X84653524Y-133335771D01*
X84653524Y-133335771D02*
X84605905Y-133288152D01*
X84605905Y-133288152D02*
X84558286Y-133192914D01*
X84558286Y-133192914D02*
X84558286Y-133145295D01*
X84558286Y-133145295D02*
X84605905Y-133050057D01*
X84605905Y-133050057D02*
X84653524Y-133002438D01*
X84653524Y-133002438D02*
X84748762Y-132954819D01*
X84748762Y-132954819D02*
X84939238Y-132954819D01*
X84939238Y-132954819D02*
X85034476Y-133002438D01*
X85034476Y-133002438D02*
X85082095Y-133050057D01*
X85082095Y-133050057D02*
X85129714Y-133145295D01*
X85129714Y-133145295D02*
X85129714Y-133192914D01*
X85129714Y-133192914D02*
X85082095Y-133288152D01*
X85082095Y-133288152D02*
X85034476Y-133335771D01*
X85034476Y-133335771D02*
X84939238Y-133383390D01*
X84939238Y-133383390D02*
X84748762Y-133383390D01*
X84748762Y-133383390D02*
X84653524Y-133431009D01*
X84653524Y-133431009D02*
X84605905Y-133478628D01*
X84605905Y-133478628D02*
X84558286Y-133573866D01*
X84558286Y-133573866D02*
X84558286Y-133764342D01*
X84558286Y-133764342D02*
X84605905Y-133859580D01*
X84605905Y-133859580D02*
X84653524Y-133907200D01*
X84653524Y-133907200D02*
X84748762Y-133954819D01*
X84748762Y-133954819D02*
X84939238Y-133954819D01*
X84939238Y-133954819D02*
X85034476Y-133907200D01*
X85034476Y-133907200D02*
X85082095Y-133859580D01*
X85082095Y-133859580D02*
X85129714Y-133764342D01*
X85129714Y-133764342D02*
X85129714Y-133573866D01*
X85129714Y-133573866D02*
X85082095Y-133478628D01*
X85082095Y-133478628D02*
X85034476Y-133431009D01*
X85034476Y-133431009D02*
X84939238Y-133383390D01*
X9485333Y-100926819D02*
X9152000Y-100450628D01*
X8913905Y-100926819D02*
X8913905Y-99926819D01*
X8913905Y-99926819D02*
X9294857Y-99926819D01*
X9294857Y-99926819D02*
X9390095Y-99974438D01*
X9390095Y-99974438D02*
X9437714Y-100022057D01*
X9437714Y-100022057D02*
X9485333Y-100117295D01*
X9485333Y-100117295D02*
X9485333Y-100260152D01*
X9485333Y-100260152D02*
X9437714Y-100355390D01*
X9437714Y-100355390D02*
X9390095Y-100403009D01*
X9390095Y-100403009D02*
X9294857Y-100450628D01*
X9294857Y-100450628D02*
X8913905Y-100450628D01*
X9818667Y-99926819D02*
X10437714Y-99926819D01*
X10437714Y-99926819D02*
X10104381Y-100307771D01*
X10104381Y-100307771D02*
X10247238Y-100307771D01*
X10247238Y-100307771D02*
X10342476Y-100355390D01*
X10342476Y-100355390D02*
X10390095Y-100403009D01*
X10390095Y-100403009D02*
X10437714Y-100498247D01*
X10437714Y-100498247D02*
X10437714Y-100736342D01*
X10437714Y-100736342D02*
X10390095Y-100831580D01*
X10390095Y-100831580D02*
X10342476Y-100879200D01*
X10342476Y-100879200D02*
X10247238Y-100926819D01*
X10247238Y-100926819D02*
X9961524Y-100926819D01*
X9961524Y-100926819D02*
X9866286Y-100879200D01*
X9866286Y-100879200D02*
X9818667Y-100831580D01*
X58478819Y-5007857D02*
X58002628Y-5341190D01*
X58478819Y-5579285D02*
X57478819Y-5579285D01*
X57478819Y-5579285D02*
X57478819Y-5198333D01*
X57478819Y-5198333D02*
X57526438Y-5103095D01*
X57526438Y-5103095D02*
X57574057Y-5055476D01*
X57574057Y-5055476D02*
X57669295Y-5007857D01*
X57669295Y-5007857D02*
X57812152Y-5007857D01*
X57812152Y-5007857D02*
X57907390Y-5055476D01*
X57907390Y-5055476D02*
X57955009Y-5103095D01*
X57955009Y-5103095D02*
X58002628Y-5198333D01*
X58002628Y-5198333D02*
X58002628Y-5579285D01*
X57574057Y-4626904D02*
X57526438Y-4579285D01*
X57526438Y-4579285D02*
X57478819Y-4484047D01*
X57478819Y-4484047D02*
X57478819Y-4245952D01*
X57478819Y-4245952D02*
X57526438Y-4150714D01*
X57526438Y-4150714D02*
X57574057Y-4103095D01*
X57574057Y-4103095D02*
X57669295Y-4055476D01*
X57669295Y-4055476D02*
X57764533Y-4055476D01*
X57764533Y-4055476D02*
X57907390Y-4103095D01*
X57907390Y-4103095D02*
X58478819Y-4674523D01*
X58478819Y-4674523D02*
X58478819Y-4055476D01*
X58478819Y-3103095D02*
X58478819Y-3674523D01*
X58478819Y-3388809D02*
X57478819Y-3388809D01*
X57478819Y-3388809D02*
X57621676Y-3484047D01*
X57621676Y-3484047D02*
X57716914Y-3579285D01*
X57716914Y-3579285D02*
X57764533Y-3674523D01*
X9023905Y-69122819D02*
X9023905Y-68122819D01*
X9023905Y-68122819D02*
X9262000Y-68122819D01*
X9262000Y-68122819D02*
X9404857Y-68170438D01*
X9404857Y-68170438D02*
X9500095Y-68265676D01*
X9500095Y-68265676D02*
X9547714Y-68360914D01*
X9547714Y-68360914D02*
X9595333Y-68551390D01*
X9595333Y-68551390D02*
X9595333Y-68694247D01*
X9595333Y-68694247D02*
X9547714Y-68884723D01*
X9547714Y-68884723D02*
X9500095Y-68979961D01*
X9500095Y-68979961D02*
X9404857Y-69075200D01*
X9404857Y-69075200D02*
X9262000Y-69122819D01*
X9262000Y-69122819D02*
X9023905Y-69122819D01*
X10547714Y-69122819D02*
X9976286Y-69122819D01*
X10262000Y-69122819D02*
X10262000Y-68122819D01*
X10262000Y-68122819D02*
X10166762Y-68265676D01*
X10166762Y-68265676D02*
X10071524Y-68360914D01*
X10071524Y-68360914D02*
X9976286Y-68408533D01*
X8977333Y-89242819D02*
X8644000Y-88766628D01*
X8405905Y-89242819D02*
X8405905Y-88242819D01*
X8405905Y-88242819D02*
X8786857Y-88242819D01*
X8786857Y-88242819D02*
X8882095Y-88290438D01*
X8882095Y-88290438D02*
X8929714Y-88338057D01*
X8929714Y-88338057D02*
X8977333Y-88433295D01*
X8977333Y-88433295D02*
X8977333Y-88576152D01*
X8977333Y-88576152D02*
X8929714Y-88671390D01*
X8929714Y-88671390D02*
X8882095Y-88719009D01*
X8882095Y-88719009D02*
X8786857Y-88766628D01*
X8786857Y-88766628D02*
X8405905Y-88766628D01*
X9358286Y-88338057D02*
X9405905Y-88290438D01*
X9405905Y-88290438D02*
X9501143Y-88242819D01*
X9501143Y-88242819D02*
X9739238Y-88242819D01*
X9739238Y-88242819D02*
X9834476Y-88290438D01*
X9834476Y-88290438D02*
X9882095Y-88338057D01*
X9882095Y-88338057D02*
X9929714Y-88433295D01*
X9929714Y-88433295D02*
X9929714Y-88528533D01*
X9929714Y-88528533D02*
X9882095Y-88671390D01*
X9882095Y-88671390D02*
X9310667Y-89242819D01*
X9310667Y-89242819D02*
X9929714Y-89242819D01*
X38158819Y-5722857D02*
X37682628Y-6056190D01*
X38158819Y-6294285D02*
X37158819Y-6294285D01*
X37158819Y-6294285D02*
X37158819Y-5913333D01*
X37158819Y-5913333D02*
X37206438Y-5818095D01*
X37206438Y-5818095D02*
X37254057Y-5770476D01*
X37254057Y-5770476D02*
X37349295Y-5722857D01*
X37349295Y-5722857D02*
X37492152Y-5722857D01*
X37492152Y-5722857D02*
X37587390Y-5770476D01*
X37587390Y-5770476D02*
X37635009Y-5818095D01*
X37635009Y-5818095D02*
X37682628Y-5913333D01*
X37682628Y-5913333D02*
X37682628Y-6294285D01*
X38158819Y-4770476D02*
X38158819Y-5341904D01*
X38158819Y-5056190D02*
X37158819Y-5056190D01*
X37158819Y-5056190D02*
X37301676Y-5151428D01*
X37301676Y-5151428D02*
X37396914Y-5246666D01*
X37396914Y-5246666D02*
X37444533Y-5341904D01*
X38158819Y-4294285D02*
X38158819Y-4103809D01*
X38158819Y-4103809D02*
X38111200Y-4008571D01*
X38111200Y-4008571D02*
X38063580Y-3960952D01*
X38063580Y-3960952D02*
X37920723Y-3865714D01*
X37920723Y-3865714D02*
X37730247Y-3818095D01*
X37730247Y-3818095D02*
X37349295Y-3818095D01*
X37349295Y-3818095D02*
X37254057Y-3865714D01*
X37254057Y-3865714D02*
X37206438Y-3913333D01*
X37206438Y-3913333D02*
X37158819Y-4008571D01*
X37158819Y-4008571D02*
X37158819Y-4199047D01*
X37158819Y-4199047D02*
X37206438Y-4294285D01*
X37206438Y-4294285D02*
X37254057Y-4341904D01*
X37254057Y-4341904D02*
X37349295Y-4389523D01*
X37349295Y-4389523D02*
X37587390Y-4389523D01*
X37587390Y-4389523D02*
X37682628Y-4341904D01*
X37682628Y-4341904D02*
X37730247Y-4294285D01*
X37730247Y-4294285D02*
X37777866Y-4199047D01*
X37777866Y-4199047D02*
X37777866Y-4008571D01*
X37777866Y-4008571D02*
X37730247Y-3913333D01*
X37730247Y-3913333D02*
X37682628Y-3865714D01*
X37682628Y-3865714D02*
X37587390Y-3818095D01*
X36963905Y-105698819D02*
X36963905Y-104698819D01*
X36963905Y-104698819D02*
X37202000Y-104698819D01*
X37202000Y-104698819D02*
X37344857Y-104746438D01*
X37344857Y-104746438D02*
X37440095Y-104841676D01*
X37440095Y-104841676D02*
X37487714Y-104936914D01*
X37487714Y-104936914D02*
X37535333Y-105127390D01*
X37535333Y-105127390D02*
X37535333Y-105270247D01*
X37535333Y-105270247D02*
X37487714Y-105460723D01*
X37487714Y-105460723D02*
X37440095Y-105555961D01*
X37440095Y-105555961D02*
X37344857Y-105651200D01*
X37344857Y-105651200D02*
X37202000Y-105698819D01*
X37202000Y-105698819D02*
X36963905Y-105698819D01*
X37868667Y-104698819D02*
X38535333Y-104698819D01*
X38535333Y-104698819D02*
X38106762Y-105698819D01*
X12141714Y-6970819D02*
X12141714Y-5970819D01*
X12141714Y-5970819D02*
X12379809Y-5970819D01*
X12379809Y-5970819D02*
X12522666Y-6018438D01*
X12522666Y-6018438D02*
X12617904Y-6113676D01*
X12617904Y-6113676D02*
X12665523Y-6208914D01*
X12665523Y-6208914D02*
X12713142Y-6399390D01*
X12713142Y-6399390D02*
X12713142Y-6542247D01*
X12713142Y-6542247D02*
X12665523Y-6732723D01*
X12665523Y-6732723D02*
X12617904Y-6827961D01*
X12617904Y-6827961D02*
X12522666Y-6923200D01*
X12522666Y-6923200D02*
X12379809Y-6970819D01*
X12379809Y-6970819D02*
X12141714Y-6970819D01*
X13665523Y-6970819D02*
X13094095Y-6970819D01*
X13379809Y-6970819D02*
X13379809Y-5970819D01*
X13379809Y-5970819D02*
X13284571Y-6113676D01*
X13284571Y-6113676D02*
X13189333Y-6208914D01*
X13189333Y-6208914D02*
X13094095Y-6256533D01*
X13998857Y-5970819D02*
X14665523Y-5970819D01*
X14665523Y-5970819D02*
X14236952Y-6970819D01*
X71739238Y-133431009D02*
X71882095Y-133478628D01*
X71882095Y-133478628D02*
X71929714Y-133526247D01*
X71929714Y-133526247D02*
X71977333Y-133621485D01*
X71977333Y-133621485D02*
X71977333Y-133764342D01*
X71977333Y-133764342D02*
X71929714Y-133859580D01*
X71929714Y-133859580D02*
X71882095Y-133907200D01*
X71882095Y-133907200D02*
X71786857Y-133954819D01*
X71786857Y-133954819D02*
X71405905Y-133954819D01*
X71405905Y-133954819D02*
X71405905Y-132954819D01*
X71405905Y-132954819D02*
X71739238Y-132954819D01*
X71739238Y-132954819D02*
X71834476Y-133002438D01*
X71834476Y-133002438D02*
X71882095Y-133050057D01*
X71882095Y-133050057D02*
X71929714Y-133145295D01*
X71929714Y-133145295D02*
X71929714Y-133240533D01*
X71929714Y-133240533D02*
X71882095Y-133335771D01*
X71882095Y-133335771D02*
X71834476Y-133383390D01*
X71834476Y-133383390D02*
X71739238Y-133431009D01*
X71739238Y-133431009D02*
X71405905Y-133431009D01*
X72405905Y-133954819D02*
X72405905Y-132954819D01*
X72405905Y-132954819D02*
X72786857Y-132954819D01*
X72786857Y-132954819D02*
X72882095Y-133002438D01*
X72882095Y-133002438D02*
X72929714Y-133050057D01*
X72929714Y-133050057D02*
X72977333Y-133145295D01*
X72977333Y-133145295D02*
X72977333Y-133288152D01*
X72977333Y-133288152D02*
X72929714Y-133383390D01*
X72929714Y-133383390D02*
X72882095Y-133431009D01*
X72882095Y-133431009D02*
X72786857Y-133478628D01*
X72786857Y-133478628D02*
X72405905Y-133478628D01*
X73310667Y-132954819D02*
X73977333Y-132954819D01*
X73977333Y-132954819D02*
X73548762Y-133954819D01*
X4571047Y-35197009D02*
X4713904Y-35244628D01*
X4713904Y-35244628D02*
X4761523Y-35292247D01*
X4761523Y-35292247D02*
X4809142Y-35387485D01*
X4809142Y-35387485D02*
X4809142Y-35530342D01*
X4809142Y-35530342D02*
X4761523Y-35625580D01*
X4761523Y-35625580D02*
X4713904Y-35673200D01*
X4713904Y-35673200D02*
X4618666Y-35720819D01*
X4618666Y-35720819D02*
X4237714Y-35720819D01*
X4237714Y-35720819D02*
X4237714Y-34720819D01*
X4237714Y-34720819D02*
X4571047Y-34720819D01*
X4571047Y-34720819D02*
X4666285Y-34768438D01*
X4666285Y-34768438D02*
X4713904Y-34816057D01*
X4713904Y-34816057D02*
X4761523Y-34911295D01*
X4761523Y-34911295D02*
X4761523Y-35006533D01*
X4761523Y-35006533D02*
X4713904Y-35101771D01*
X4713904Y-35101771D02*
X4666285Y-35149390D01*
X4666285Y-35149390D02*
X4571047Y-35197009D01*
X4571047Y-35197009D02*
X4237714Y-35197009D01*
X5237714Y-35720819D02*
X5237714Y-34720819D01*
X5237714Y-34720819D02*
X5618666Y-34720819D01*
X5618666Y-34720819D02*
X5713904Y-34768438D01*
X5713904Y-34768438D02*
X5761523Y-34816057D01*
X5761523Y-34816057D02*
X5809142Y-34911295D01*
X5809142Y-34911295D02*
X5809142Y-35054152D01*
X5809142Y-35054152D02*
X5761523Y-35149390D01*
X5761523Y-35149390D02*
X5713904Y-35197009D01*
X5713904Y-35197009D02*
X5618666Y-35244628D01*
X5618666Y-35244628D02*
X5237714Y-35244628D01*
X6190095Y-34816057D02*
X6237714Y-34768438D01*
X6237714Y-34768438D02*
X6332952Y-34720819D01*
X6332952Y-34720819D02*
X6571047Y-34720819D01*
X6571047Y-34720819D02*
X6666285Y-34768438D01*
X6666285Y-34768438D02*
X6713904Y-34816057D01*
X6713904Y-34816057D02*
X6761523Y-34911295D01*
X6761523Y-34911295D02*
X6761523Y-35006533D01*
X6761523Y-35006533D02*
X6713904Y-35149390D01*
X6713904Y-35149390D02*
X6142476Y-35720819D01*
X6142476Y-35720819D02*
X6761523Y-35720819D01*
X7094857Y-34720819D02*
X7761523Y-34720819D01*
X7761523Y-34720819D02*
X7332952Y-35720819D01*
X25787905Y-105698819D02*
X25787905Y-104698819D01*
X25787905Y-104698819D02*
X26026000Y-104698819D01*
X26026000Y-104698819D02*
X26168857Y-104746438D01*
X26168857Y-104746438D02*
X26264095Y-104841676D01*
X26264095Y-104841676D02*
X26311714Y-104936914D01*
X26311714Y-104936914D02*
X26359333Y-105127390D01*
X26359333Y-105127390D02*
X26359333Y-105270247D01*
X26359333Y-105270247D02*
X26311714Y-105460723D01*
X26311714Y-105460723D02*
X26264095Y-105555961D01*
X26264095Y-105555961D02*
X26168857Y-105651200D01*
X26168857Y-105651200D02*
X26026000Y-105698819D01*
X26026000Y-105698819D02*
X25787905Y-105698819D01*
X27216476Y-104698819D02*
X27026000Y-104698819D01*
X27026000Y-104698819D02*
X26930762Y-104746438D01*
X26930762Y-104746438D02*
X26883143Y-104794057D01*
X26883143Y-104794057D02*
X26787905Y-104936914D01*
X26787905Y-104936914D02*
X26740286Y-105127390D01*
X26740286Y-105127390D02*
X26740286Y-105508342D01*
X26740286Y-105508342D02*
X26787905Y-105603580D01*
X26787905Y-105603580D02*
X26835524Y-105651200D01*
X26835524Y-105651200D02*
X26930762Y-105698819D01*
X26930762Y-105698819D02*
X27121238Y-105698819D01*
X27121238Y-105698819D02*
X27216476Y-105651200D01*
X27216476Y-105651200D02*
X27264095Y-105603580D01*
X27264095Y-105603580D02*
X27311714Y-105508342D01*
X27311714Y-105508342D02*
X27311714Y-105270247D01*
X27311714Y-105270247D02*
X27264095Y-105175009D01*
X27264095Y-105175009D02*
X27216476Y-105127390D01*
X27216476Y-105127390D02*
X27121238Y-105079771D01*
X27121238Y-105079771D02*
X26930762Y-105079771D01*
X26930762Y-105079771D02*
X26835524Y-105127390D01*
X26835524Y-105127390D02*
X26787905Y-105175009D01*
X26787905Y-105175009D02*
X26740286Y-105270247D01*
X80932714Y-105698819D02*
X80932714Y-104698819D01*
X80932714Y-104698819D02*
X81170809Y-104698819D01*
X81170809Y-104698819D02*
X81313666Y-104746438D01*
X81313666Y-104746438D02*
X81408904Y-104841676D01*
X81408904Y-104841676D02*
X81456523Y-104936914D01*
X81456523Y-104936914D02*
X81504142Y-105127390D01*
X81504142Y-105127390D02*
X81504142Y-105270247D01*
X81504142Y-105270247D02*
X81456523Y-105460723D01*
X81456523Y-105460723D02*
X81408904Y-105555961D01*
X81408904Y-105555961D02*
X81313666Y-105651200D01*
X81313666Y-105651200D02*
X81170809Y-105698819D01*
X81170809Y-105698819D02*
X80932714Y-105698819D01*
X82456523Y-105698819D02*
X81885095Y-105698819D01*
X82170809Y-105698819D02*
X82170809Y-104698819D01*
X82170809Y-104698819D02*
X82075571Y-104841676D01*
X82075571Y-104841676D02*
X81980333Y-104936914D01*
X81980333Y-104936914D02*
X81885095Y-104984533D01*
X83408904Y-105698819D02*
X82837476Y-105698819D01*
X83123190Y-105698819D02*
X83123190Y-104698819D01*
X83123190Y-104698819D02*
X83027952Y-104841676D01*
X83027952Y-104841676D02*
X82932714Y-104936914D01*
X82932714Y-104936914D02*
X82837476Y-104984533D01*
X80322819Y-5214857D02*
X79846628Y-5548190D01*
X80322819Y-5786285D02*
X79322819Y-5786285D01*
X79322819Y-5786285D02*
X79322819Y-5405333D01*
X79322819Y-5405333D02*
X79370438Y-5310095D01*
X79370438Y-5310095D02*
X79418057Y-5262476D01*
X79418057Y-5262476D02*
X79513295Y-5214857D01*
X79513295Y-5214857D02*
X79656152Y-5214857D01*
X79656152Y-5214857D02*
X79751390Y-5262476D01*
X79751390Y-5262476D02*
X79799009Y-5310095D01*
X79799009Y-5310095D02*
X79846628Y-5405333D01*
X79846628Y-5405333D02*
X79846628Y-5786285D01*
X79418057Y-4833904D02*
X79370438Y-4786285D01*
X79370438Y-4786285D02*
X79322819Y-4691047D01*
X79322819Y-4691047D02*
X79322819Y-4452952D01*
X79322819Y-4452952D02*
X79370438Y-4357714D01*
X79370438Y-4357714D02*
X79418057Y-4310095D01*
X79418057Y-4310095D02*
X79513295Y-4262476D01*
X79513295Y-4262476D02*
X79608533Y-4262476D01*
X79608533Y-4262476D02*
X79751390Y-4310095D01*
X79751390Y-4310095D02*
X80322819Y-4881523D01*
X80322819Y-4881523D02*
X80322819Y-4262476D01*
X79322819Y-3929142D02*
X79322819Y-3310095D01*
X79322819Y-3310095D02*
X79703771Y-3643428D01*
X79703771Y-3643428D02*
X79703771Y-3500571D01*
X79703771Y-3500571D02*
X79751390Y-3405333D01*
X79751390Y-3405333D02*
X79799009Y-3357714D01*
X79799009Y-3357714D02*
X79894247Y-3310095D01*
X79894247Y-3310095D02*
X80132342Y-3310095D01*
X80132342Y-3310095D02*
X80227580Y-3357714D01*
X80227580Y-3357714D02*
X80275200Y-3405333D01*
X80275200Y-3405333D02*
X80322819Y-3500571D01*
X80322819Y-3500571D02*
X80322819Y-3786285D01*
X80322819Y-3786285D02*
X80275200Y-3881523D01*
X80275200Y-3881523D02*
X80227580Y-3929142D01*
X24494095Y-43860819D02*
X24494095Y-44670342D01*
X24494095Y-44670342D02*
X24541714Y-44765580D01*
X24541714Y-44765580D02*
X24589333Y-44813200D01*
X24589333Y-44813200D02*
X24684571Y-44860819D01*
X24684571Y-44860819D02*
X24875047Y-44860819D01*
X24875047Y-44860819D02*
X24970285Y-44813200D01*
X24970285Y-44813200D02*
X25017904Y-44765580D01*
X25017904Y-44765580D02*
X25065523Y-44670342D01*
X25065523Y-44670342D02*
X25065523Y-43860819D01*
X25446476Y-43860819D02*
X26065523Y-43860819D01*
X26065523Y-43860819D02*
X25732190Y-44241771D01*
X25732190Y-44241771D02*
X25875047Y-44241771D01*
X25875047Y-44241771D02*
X25970285Y-44289390D01*
X25970285Y-44289390D02*
X26017904Y-44337009D01*
X26017904Y-44337009D02*
X26065523Y-44432247D01*
X26065523Y-44432247D02*
X26065523Y-44670342D01*
X26065523Y-44670342D02*
X26017904Y-44765580D01*
X26017904Y-44765580D02*
X25970285Y-44813200D01*
X25970285Y-44813200D02*
X25875047Y-44860819D01*
X25875047Y-44860819D02*
X25589333Y-44860819D01*
X25589333Y-44860819D02*
X25494095Y-44813200D01*
X25494095Y-44813200D02*
X25446476Y-44765580D01*
X103543714Y-105698819D02*
X103543714Y-104698819D01*
X103543714Y-104698819D02*
X103781809Y-104698819D01*
X103781809Y-104698819D02*
X103924666Y-104746438D01*
X103924666Y-104746438D02*
X104019904Y-104841676D01*
X104019904Y-104841676D02*
X104067523Y-104936914D01*
X104067523Y-104936914D02*
X104115142Y-105127390D01*
X104115142Y-105127390D02*
X104115142Y-105270247D01*
X104115142Y-105270247D02*
X104067523Y-105460723D01*
X104067523Y-105460723D02*
X104019904Y-105555961D01*
X104019904Y-105555961D02*
X103924666Y-105651200D01*
X103924666Y-105651200D02*
X103781809Y-105698819D01*
X103781809Y-105698819D02*
X103543714Y-105698819D01*
X105067523Y-105698819D02*
X104496095Y-105698819D01*
X104781809Y-105698819D02*
X104781809Y-104698819D01*
X104781809Y-104698819D02*
X104686571Y-104841676D01*
X104686571Y-104841676D02*
X104591333Y-104936914D01*
X104591333Y-104936914D02*
X104496095Y-104984533D01*
X105400857Y-104698819D02*
X106019904Y-104698819D01*
X106019904Y-104698819D02*
X105686571Y-105079771D01*
X105686571Y-105079771D02*
X105829428Y-105079771D01*
X105829428Y-105079771D02*
X105924666Y-105127390D01*
X105924666Y-105127390D02*
X105972285Y-105175009D01*
X105972285Y-105175009D02*
X106019904Y-105270247D01*
X106019904Y-105270247D02*
X106019904Y-105508342D01*
X106019904Y-105508342D02*
X105972285Y-105603580D01*
X105972285Y-105603580D02*
X105924666Y-105651200D01*
X105924666Y-105651200D02*
X105829428Y-105698819D01*
X105829428Y-105698819D02*
X105543714Y-105698819D01*
X105543714Y-105698819D02*
X105448476Y-105651200D01*
X105448476Y-105651200D02*
X105400857Y-105603580D01*
X69654819Y-5214857D02*
X69178628Y-5548190D01*
X69654819Y-5786285D02*
X68654819Y-5786285D01*
X68654819Y-5786285D02*
X68654819Y-5405333D01*
X68654819Y-5405333D02*
X68702438Y-5310095D01*
X68702438Y-5310095D02*
X68750057Y-5262476D01*
X68750057Y-5262476D02*
X68845295Y-5214857D01*
X68845295Y-5214857D02*
X68988152Y-5214857D01*
X68988152Y-5214857D02*
X69083390Y-5262476D01*
X69083390Y-5262476D02*
X69131009Y-5310095D01*
X69131009Y-5310095D02*
X69178628Y-5405333D01*
X69178628Y-5405333D02*
X69178628Y-5786285D01*
X68750057Y-4833904D02*
X68702438Y-4786285D01*
X68702438Y-4786285D02*
X68654819Y-4691047D01*
X68654819Y-4691047D02*
X68654819Y-4452952D01*
X68654819Y-4452952D02*
X68702438Y-4357714D01*
X68702438Y-4357714D02*
X68750057Y-4310095D01*
X68750057Y-4310095D02*
X68845295Y-4262476D01*
X68845295Y-4262476D02*
X68940533Y-4262476D01*
X68940533Y-4262476D02*
X69083390Y-4310095D01*
X69083390Y-4310095D02*
X69654819Y-4881523D01*
X69654819Y-4881523D02*
X69654819Y-4262476D01*
X68750057Y-3881523D02*
X68702438Y-3833904D01*
X68702438Y-3833904D02*
X68654819Y-3738666D01*
X68654819Y-3738666D02*
X68654819Y-3500571D01*
X68654819Y-3500571D02*
X68702438Y-3405333D01*
X68702438Y-3405333D02*
X68750057Y-3357714D01*
X68750057Y-3357714D02*
X68845295Y-3310095D01*
X68845295Y-3310095D02*
X68940533Y-3310095D01*
X68940533Y-3310095D02*
X69083390Y-3357714D01*
X69083390Y-3357714D02*
X69654819Y-3929142D01*
X69654819Y-3929142D02*
X69654819Y-3310095D01*
X10502819Y-108267166D02*
X10026628Y-108600499D01*
X10502819Y-108838594D02*
X9502819Y-108838594D01*
X9502819Y-108838594D02*
X9502819Y-108457642D01*
X9502819Y-108457642D02*
X9550438Y-108362404D01*
X9550438Y-108362404D02*
X9598057Y-108314785D01*
X9598057Y-108314785D02*
X9693295Y-108267166D01*
X9693295Y-108267166D02*
X9836152Y-108267166D01*
X9836152Y-108267166D02*
X9931390Y-108314785D01*
X9931390Y-108314785D02*
X9979009Y-108362404D01*
X9979009Y-108362404D02*
X10026628Y-108457642D01*
X10026628Y-108457642D02*
X10026628Y-108838594D01*
X9836152Y-107410023D02*
X10502819Y-107410023D01*
X9455200Y-107648118D02*
X10169485Y-107886213D01*
X10169485Y-107886213D02*
X10169485Y-107267166D01*
X2419905Y-105698819D02*
X2419905Y-104698819D01*
X2419905Y-104698819D02*
X2658000Y-104698819D01*
X2658000Y-104698819D02*
X2800857Y-104746438D01*
X2800857Y-104746438D02*
X2896095Y-104841676D01*
X2896095Y-104841676D02*
X2943714Y-104936914D01*
X2943714Y-104936914D02*
X2991333Y-105127390D01*
X2991333Y-105127390D02*
X2991333Y-105270247D01*
X2991333Y-105270247D02*
X2943714Y-105460723D01*
X2943714Y-105460723D02*
X2896095Y-105555961D01*
X2896095Y-105555961D02*
X2800857Y-105651200D01*
X2800857Y-105651200D02*
X2658000Y-105698819D01*
X2658000Y-105698819D02*
X2419905Y-105698819D01*
X3848476Y-105032152D02*
X3848476Y-105698819D01*
X3610381Y-104651200D02*
X3372286Y-105365485D01*
X3372286Y-105365485D02*
X3991333Y-105365485D01*
X89242819Y-108338857D02*
X88766628Y-108672190D01*
X89242819Y-108910285D02*
X88242819Y-108910285D01*
X88242819Y-108910285D02*
X88242819Y-108529333D01*
X88242819Y-108529333D02*
X88290438Y-108434095D01*
X88290438Y-108434095D02*
X88338057Y-108386476D01*
X88338057Y-108386476D02*
X88433295Y-108338857D01*
X88433295Y-108338857D02*
X88576152Y-108338857D01*
X88576152Y-108338857D02*
X88671390Y-108386476D01*
X88671390Y-108386476D02*
X88719009Y-108434095D01*
X88719009Y-108434095D02*
X88766628Y-108529333D01*
X88766628Y-108529333D02*
X88766628Y-108910285D01*
X89242819Y-107386476D02*
X89242819Y-107957904D01*
X89242819Y-107672190D02*
X88242819Y-107672190D01*
X88242819Y-107672190D02*
X88385676Y-107767428D01*
X88385676Y-107767428D02*
X88480914Y-107862666D01*
X88480914Y-107862666D02*
X88528533Y-107957904D01*
X89242819Y-106434095D02*
X89242819Y-107005523D01*
X89242819Y-106719809D02*
X88242819Y-106719809D01*
X88242819Y-106719809D02*
X88385676Y-106815047D01*
X88385676Y-106815047D02*
X88480914Y-106910285D01*
X88480914Y-106910285D02*
X88528533Y-107005523D01*
X27998819Y-5722857D02*
X27522628Y-6056190D01*
X27998819Y-6294285D02*
X26998819Y-6294285D01*
X26998819Y-6294285D02*
X26998819Y-5913333D01*
X26998819Y-5913333D02*
X27046438Y-5818095D01*
X27046438Y-5818095D02*
X27094057Y-5770476D01*
X27094057Y-5770476D02*
X27189295Y-5722857D01*
X27189295Y-5722857D02*
X27332152Y-5722857D01*
X27332152Y-5722857D02*
X27427390Y-5770476D01*
X27427390Y-5770476D02*
X27475009Y-5818095D01*
X27475009Y-5818095D02*
X27522628Y-5913333D01*
X27522628Y-5913333D02*
X27522628Y-6294285D01*
X27998819Y-4770476D02*
X27998819Y-5341904D01*
X27998819Y-5056190D02*
X26998819Y-5056190D01*
X26998819Y-5056190D02*
X27141676Y-5151428D01*
X27141676Y-5151428D02*
X27236914Y-5246666D01*
X27236914Y-5246666D02*
X27284533Y-5341904D01*
X27427390Y-4199047D02*
X27379771Y-4294285D01*
X27379771Y-4294285D02*
X27332152Y-4341904D01*
X27332152Y-4341904D02*
X27236914Y-4389523D01*
X27236914Y-4389523D02*
X27189295Y-4389523D01*
X27189295Y-4389523D02*
X27094057Y-4341904D01*
X27094057Y-4341904D02*
X27046438Y-4294285D01*
X27046438Y-4294285D02*
X26998819Y-4199047D01*
X26998819Y-4199047D02*
X26998819Y-4008571D01*
X26998819Y-4008571D02*
X27046438Y-3913333D01*
X27046438Y-3913333D02*
X27094057Y-3865714D01*
X27094057Y-3865714D02*
X27189295Y-3818095D01*
X27189295Y-3818095D02*
X27236914Y-3818095D01*
X27236914Y-3818095D02*
X27332152Y-3865714D01*
X27332152Y-3865714D02*
X27379771Y-3913333D01*
X27379771Y-3913333D02*
X27427390Y-4008571D01*
X27427390Y-4008571D02*
X27427390Y-4199047D01*
X27427390Y-4199047D02*
X27475009Y-4294285D01*
X27475009Y-4294285D02*
X27522628Y-4341904D01*
X27522628Y-4341904D02*
X27617866Y-4389523D01*
X27617866Y-4389523D02*
X27808342Y-4389523D01*
X27808342Y-4389523D02*
X27903580Y-4341904D01*
X27903580Y-4341904D02*
X27951200Y-4294285D01*
X27951200Y-4294285D02*
X27998819Y-4199047D01*
X27998819Y-4199047D02*
X27998819Y-4008571D01*
X27998819Y-4008571D02*
X27951200Y-3913333D01*
X27951200Y-3913333D02*
X27903580Y-3865714D01*
X27903580Y-3865714D02*
X27808342Y-3818095D01*
X27808342Y-3818095D02*
X27617866Y-3818095D01*
X27617866Y-3818095D02*
X27522628Y-3865714D01*
X27522628Y-3865714D02*
X27475009Y-3913333D01*
X27475009Y-3913333D02*
X27427390Y-4008571D01*
X51681142Y-23934819D02*
X51347809Y-23458628D01*
X51109714Y-23934819D02*
X51109714Y-22934819D01*
X51109714Y-22934819D02*
X51490666Y-22934819D01*
X51490666Y-22934819D02*
X51585904Y-22982438D01*
X51585904Y-22982438D02*
X51633523Y-23030057D01*
X51633523Y-23030057D02*
X51681142Y-23125295D01*
X51681142Y-23125295D02*
X51681142Y-23268152D01*
X51681142Y-23268152D02*
X51633523Y-23363390D01*
X51633523Y-23363390D02*
X51585904Y-23411009D01*
X51585904Y-23411009D02*
X51490666Y-23458628D01*
X51490666Y-23458628D02*
X51109714Y-23458628D01*
X52062095Y-23030057D02*
X52109714Y-22982438D01*
X52109714Y-22982438D02*
X52204952Y-22934819D01*
X52204952Y-22934819D02*
X52443047Y-22934819D01*
X52443047Y-22934819D02*
X52538285Y-22982438D01*
X52538285Y-22982438D02*
X52585904Y-23030057D01*
X52585904Y-23030057D02*
X52633523Y-23125295D01*
X52633523Y-23125295D02*
X52633523Y-23220533D01*
X52633523Y-23220533D02*
X52585904Y-23363390D01*
X52585904Y-23363390D02*
X52014476Y-23934819D01*
X52014476Y-23934819D02*
X52633523Y-23934819D01*
X53538285Y-22934819D02*
X53062095Y-22934819D01*
X53062095Y-22934819D02*
X53014476Y-23411009D01*
X53014476Y-23411009D02*
X53062095Y-23363390D01*
X53062095Y-23363390D02*
X53157333Y-23315771D01*
X53157333Y-23315771D02*
X53395428Y-23315771D01*
X53395428Y-23315771D02*
X53490666Y-23363390D01*
X53490666Y-23363390D02*
X53538285Y-23411009D01*
X53538285Y-23411009D02*
X53585904Y-23506247D01*
X53585904Y-23506247D02*
X53585904Y-23744342D01*
X53585904Y-23744342D02*
X53538285Y-23839580D01*
X53538285Y-23839580D02*
X53490666Y-23887200D01*
X53490666Y-23887200D02*
X53395428Y-23934819D01*
X53395428Y-23934819D02*
X53157333Y-23934819D01*
X53157333Y-23934819D02*
X53062095Y-23887200D01*
X53062095Y-23887200D02*
X53014476Y-23839580D01*
X6662819Y-5214857D02*
X6186628Y-5548190D01*
X6662819Y-5786285D02*
X5662819Y-5786285D01*
X5662819Y-5786285D02*
X5662819Y-5405333D01*
X5662819Y-5405333D02*
X5710438Y-5310095D01*
X5710438Y-5310095D02*
X5758057Y-5262476D01*
X5758057Y-5262476D02*
X5853295Y-5214857D01*
X5853295Y-5214857D02*
X5996152Y-5214857D01*
X5996152Y-5214857D02*
X6091390Y-5262476D01*
X6091390Y-5262476D02*
X6139009Y-5310095D01*
X6139009Y-5310095D02*
X6186628Y-5405333D01*
X6186628Y-5405333D02*
X6186628Y-5786285D01*
X6662819Y-4262476D02*
X6662819Y-4833904D01*
X6662819Y-4548190D02*
X5662819Y-4548190D01*
X5662819Y-4548190D02*
X5805676Y-4643428D01*
X5805676Y-4643428D02*
X5900914Y-4738666D01*
X5900914Y-4738666D02*
X5948533Y-4833904D01*
X5662819Y-3405333D02*
X5662819Y-3595809D01*
X5662819Y-3595809D02*
X5710438Y-3691047D01*
X5710438Y-3691047D02*
X5758057Y-3738666D01*
X5758057Y-3738666D02*
X5900914Y-3833904D01*
X5900914Y-3833904D02*
X6091390Y-3881523D01*
X6091390Y-3881523D02*
X6472342Y-3881523D01*
X6472342Y-3881523D02*
X6567580Y-3833904D01*
X6567580Y-3833904D02*
X6615200Y-3786285D01*
X6615200Y-3786285D02*
X6662819Y-3691047D01*
X6662819Y-3691047D02*
X6662819Y-3500571D01*
X6662819Y-3500571D02*
X6615200Y-3405333D01*
X6615200Y-3405333D02*
X6567580Y-3357714D01*
X6567580Y-3357714D02*
X6472342Y-3310095D01*
X6472342Y-3310095D02*
X6234247Y-3310095D01*
X6234247Y-3310095D02*
X6139009Y-3357714D01*
X6139009Y-3357714D02*
X6091390Y-3405333D01*
X6091390Y-3405333D02*
X6043771Y-3500571D01*
X6043771Y-3500571D02*
X6043771Y-3691047D01*
X6043771Y-3691047D02*
X6091390Y-3786285D01*
X6091390Y-3786285D02*
X6139009Y-3833904D01*
X6139009Y-3833904D02*
X6234247Y-3881523D01*
X14103905Y-105698819D02*
X14103905Y-104698819D01*
X14103905Y-104698819D02*
X14342000Y-104698819D01*
X14342000Y-104698819D02*
X14484857Y-104746438D01*
X14484857Y-104746438D02*
X14580095Y-104841676D01*
X14580095Y-104841676D02*
X14627714Y-104936914D01*
X14627714Y-104936914D02*
X14675333Y-105127390D01*
X14675333Y-105127390D02*
X14675333Y-105270247D01*
X14675333Y-105270247D02*
X14627714Y-105460723D01*
X14627714Y-105460723D02*
X14580095Y-105555961D01*
X14580095Y-105555961D02*
X14484857Y-105651200D01*
X14484857Y-105651200D02*
X14342000Y-105698819D01*
X14342000Y-105698819D02*
X14103905Y-105698819D01*
X15580095Y-104698819D02*
X15103905Y-104698819D01*
X15103905Y-104698819D02*
X15056286Y-105175009D01*
X15056286Y-105175009D02*
X15103905Y-105127390D01*
X15103905Y-105127390D02*
X15199143Y-105079771D01*
X15199143Y-105079771D02*
X15437238Y-105079771D01*
X15437238Y-105079771D02*
X15532476Y-105127390D01*
X15532476Y-105127390D02*
X15580095Y-105175009D01*
X15580095Y-105175009D02*
X15627714Y-105270247D01*
X15627714Y-105270247D02*
X15627714Y-105508342D01*
X15627714Y-105508342D02*
X15580095Y-105603580D01*
X15580095Y-105603580D02*
X15532476Y-105651200D01*
X15532476Y-105651200D02*
X15437238Y-105698819D01*
X15437238Y-105698819D02*
X15199143Y-105698819D01*
X15199143Y-105698819D02*
X15103905Y-105651200D01*
X15103905Y-105651200D02*
X15056286Y-105603580D01*
X49691009Y-14588952D02*
X49738628Y-14446095D01*
X49738628Y-14446095D02*
X49786247Y-14398476D01*
X49786247Y-14398476D02*
X49881485Y-14350857D01*
X49881485Y-14350857D02*
X50024342Y-14350857D01*
X50024342Y-14350857D02*
X50119580Y-14398476D01*
X50119580Y-14398476D02*
X50167200Y-14446095D01*
X50167200Y-14446095D02*
X50214819Y-14541333D01*
X50214819Y-14541333D02*
X50214819Y-14922285D01*
X50214819Y-14922285D02*
X49214819Y-14922285D01*
X49214819Y-14922285D02*
X49214819Y-14588952D01*
X49214819Y-14588952D02*
X49262438Y-14493714D01*
X49262438Y-14493714D02*
X49310057Y-14446095D01*
X49310057Y-14446095D02*
X49405295Y-14398476D01*
X49405295Y-14398476D02*
X49500533Y-14398476D01*
X49500533Y-14398476D02*
X49595771Y-14446095D01*
X49595771Y-14446095D02*
X49643390Y-14493714D01*
X49643390Y-14493714D02*
X49691009Y-14588952D01*
X49691009Y-14588952D02*
X49691009Y-14922285D01*
X50214819Y-13922285D02*
X49214819Y-13922285D01*
X49214819Y-13922285D02*
X49214819Y-13541333D01*
X49214819Y-13541333D02*
X49262438Y-13446095D01*
X49262438Y-13446095D02*
X49310057Y-13398476D01*
X49310057Y-13398476D02*
X49405295Y-13350857D01*
X49405295Y-13350857D02*
X49548152Y-13350857D01*
X49548152Y-13350857D02*
X49643390Y-13398476D01*
X49643390Y-13398476D02*
X49691009Y-13446095D01*
X49691009Y-13446095D02*
X49738628Y-13541333D01*
X49738628Y-13541333D02*
X49738628Y-13922285D01*
X50214819Y-12398476D02*
X50214819Y-12969904D01*
X50214819Y-12684190D02*
X49214819Y-12684190D01*
X49214819Y-12684190D02*
X49357676Y-12779428D01*
X49357676Y-12779428D02*
X49452914Y-12874666D01*
X49452914Y-12874666D02*
X49500533Y-12969904D01*
X49643390Y-11827047D02*
X49595771Y-11922285D01*
X49595771Y-11922285D02*
X49548152Y-11969904D01*
X49548152Y-11969904D02*
X49452914Y-12017523D01*
X49452914Y-12017523D02*
X49405295Y-12017523D01*
X49405295Y-12017523D02*
X49310057Y-11969904D01*
X49310057Y-11969904D02*
X49262438Y-11922285D01*
X49262438Y-11922285D02*
X49214819Y-11827047D01*
X49214819Y-11827047D02*
X49214819Y-11636571D01*
X49214819Y-11636571D02*
X49262438Y-11541333D01*
X49262438Y-11541333D02*
X49310057Y-11493714D01*
X49310057Y-11493714D02*
X49405295Y-11446095D01*
X49405295Y-11446095D02*
X49452914Y-11446095D01*
X49452914Y-11446095D02*
X49548152Y-11493714D01*
X49548152Y-11493714D02*
X49595771Y-11541333D01*
X49595771Y-11541333D02*
X49643390Y-11636571D01*
X49643390Y-11636571D02*
X49643390Y-11827047D01*
X49643390Y-11827047D02*
X49691009Y-11922285D01*
X49691009Y-11922285D02*
X49738628Y-11969904D01*
X49738628Y-11969904D02*
X49833866Y-12017523D01*
X49833866Y-12017523D02*
X50024342Y-12017523D01*
X50024342Y-12017523D02*
X50119580Y-11969904D01*
X50119580Y-11969904D02*
X50167200Y-11922285D01*
X50167200Y-11922285D02*
X50214819Y-11827047D01*
X50214819Y-11827047D02*
X50214819Y-11636571D01*
X50214819Y-11636571D02*
X50167200Y-11541333D01*
X50167200Y-11541333D02*
X50119580Y-11493714D01*
X50119580Y-11493714D02*
X50024342Y-11446095D01*
X50024342Y-11446095D02*
X49833866Y-11446095D01*
X49833866Y-11446095D02*
X49738628Y-11493714D01*
X49738628Y-11493714D02*
X49691009Y-11541333D01*
X49691009Y-11541333D02*
X49643390Y-11636571D01*
X88283009Y-19160952D02*
X88330628Y-19018095D01*
X88330628Y-19018095D02*
X88378247Y-18970476D01*
X88378247Y-18970476D02*
X88473485Y-18922857D01*
X88473485Y-18922857D02*
X88616342Y-18922857D01*
X88616342Y-18922857D02*
X88711580Y-18970476D01*
X88711580Y-18970476D02*
X88759200Y-19018095D01*
X88759200Y-19018095D02*
X88806819Y-19113333D01*
X88806819Y-19113333D02*
X88806819Y-19494285D01*
X88806819Y-19494285D02*
X87806819Y-19494285D01*
X87806819Y-19494285D02*
X87806819Y-19160952D01*
X87806819Y-19160952D02*
X87854438Y-19065714D01*
X87854438Y-19065714D02*
X87902057Y-19018095D01*
X87902057Y-19018095D02*
X87997295Y-18970476D01*
X87997295Y-18970476D02*
X88092533Y-18970476D01*
X88092533Y-18970476D02*
X88187771Y-19018095D01*
X88187771Y-19018095D02*
X88235390Y-19065714D01*
X88235390Y-19065714D02*
X88283009Y-19160952D01*
X88283009Y-19160952D02*
X88283009Y-19494285D01*
X88806819Y-18494285D02*
X87806819Y-18494285D01*
X87806819Y-18494285D02*
X87806819Y-18113333D01*
X87806819Y-18113333D02*
X87854438Y-18018095D01*
X87854438Y-18018095D02*
X87902057Y-17970476D01*
X87902057Y-17970476D02*
X87997295Y-17922857D01*
X87997295Y-17922857D02*
X88140152Y-17922857D01*
X88140152Y-17922857D02*
X88235390Y-17970476D01*
X88235390Y-17970476D02*
X88283009Y-18018095D01*
X88283009Y-18018095D02*
X88330628Y-18113333D01*
X88330628Y-18113333D02*
X88330628Y-18494285D01*
X88806819Y-16970476D02*
X88806819Y-17541904D01*
X88806819Y-17256190D02*
X87806819Y-17256190D01*
X87806819Y-17256190D02*
X87949676Y-17351428D01*
X87949676Y-17351428D02*
X88044914Y-17446666D01*
X88044914Y-17446666D02*
X88092533Y-17541904D01*
X87902057Y-16589523D02*
X87854438Y-16541904D01*
X87854438Y-16541904D02*
X87806819Y-16446666D01*
X87806819Y-16446666D02*
X87806819Y-16208571D01*
X87806819Y-16208571D02*
X87854438Y-16113333D01*
X87854438Y-16113333D02*
X87902057Y-16065714D01*
X87902057Y-16065714D02*
X87997295Y-16018095D01*
X87997295Y-16018095D02*
X88092533Y-16018095D01*
X88092533Y-16018095D02*
X88235390Y-16065714D01*
X88235390Y-16065714D02*
X88806819Y-16637142D01*
X88806819Y-16637142D02*
X88806819Y-16018095D01*
X100274819Y-108338857D02*
X99798628Y-108672190D01*
X100274819Y-108910285D02*
X99274819Y-108910285D01*
X99274819Y-108910285D02*
X99274819Y-108529333D01*
X99274819Y-108529333D02*
X99322438Y-108434095D01*
X99322438Y-108434095D02*
X99370057Y-108386476D01*
X99370057Y-108386476D02*
X99465295Y-108338857D01*
X99465295Y-108338857D02*
X99608152Y-108338857D01*
X99608152Y-108338857D02*
X99703390Y-108386476D01*
X99703390Y-108386476D02*
X99751009Y-108434095D01*
X99751009Y-108434095D02*
X99798628Y-108529333D01*
X99798628Y-108529333D02*
X99798628Y-108910285D01*
X100274819Y-107386476D02*
X100274819Y-107957904D01*
X100274819Y-107672190D02*
X99274819Y-107672190D01*
X99274819Y-107672190D02*
X99417676Y-107767428D01*
X99417676Y-107767428D02*
X99512914Y-107862666D01*
X99512914Y-107862666D02*
X99560533Y-107957904D01*
X99370057Y-107005523D02*
X99322438Y-106957904D01*
X99322438Y-106957904D02*
X99274819Y-106862666D01*
X99274819Y-106862666D02*
X99274819Y-106624571D01*
X99274819Y-106624571D02*
X99322438Y-106529333D01*
X99322438Y-106529333D02*
X99370057Y-106481714D01*
X99370057Y-106481714D02*
X99465295Y-106434095D01*
X99465295Y-106434095D02*
X99560533Y-106434095D01*
X99560533Y-106434095D02*
X99703390Y-106481714D01*
X99703390Y-106481714D02*
X100274819Y-107053142D01*
X100274819Y-107053142D02*
X100274819Y-106434095D01*
X4571047Y-55707009D02*
X4713904Y-55754628D01*
X4713904Y-55754628D02*
X4761523Y-55802247D01*
X4761523Y-55802247D02*
X4809142Y-55897485D01*
X4809142Y-55897485D02*
X4809142Y-56040342D01*
X4809142Y-56040342D02*
X4761523Y-56135580D01*
X4761523Y-56135580D02*
X4713904Y-56183200D01*
X4713904Y-56183200D02*
X4618666Y-56230819D01*
X4618666Y-56230819D02*
X4237714Y-56230819D01*
X4237714Y-56230819D02*
X4237714Y-55230819D01*
X4237714Y-55230819D02*
X4571047Y-55230819D01*
X4571047Y-55230819D02*
X4666285Y-55278438D01*
X4666285Y-55278438D02*
X4713904Y-55326057D01*
X4713904Y-55326057D02*
X4761523Y-55421295D01*
X4761523Y-55421295D02*
X4761523Y-55516533D01*
X4761523Y-55516533D02*
X4713904Y-55611771D01*
X4713904Y-55611771D02*
X4666285Y-55659390D01*
X4666285Y-55659390D02*
X4571047Y-55707009D01*
X4571047Y-55707009D02*
X4237714Y-55707009D01*
X5237714Y-56230819D02*
X5237714Y-55230819D01*
X5237714Y-55230819D02*
X5618666Y-55230819D01*
X5618666Y-55230819D02*
X5713904Y-55278438D01*
X5713904Y-55278438D02*
X5761523Y-55326057D01*
X5761523Y-55326057D02*
X5809142Y-55421295D01*
X5809142Y-55421295D02*
X5809142Y-55564152D01*
X5809142Y-55564152D02*
X5761523Y-55659390D01*
X5761523Y-55659390D02*
X5713904Y-55707009D01*
X5713904Y-55707009D02*
X5618666Y-55754628D01*
X5618666Y-55754628D02*
X5237714Y-55754628D01*
X6190095Y-55326057D02*
X6237714Y-55278438D01*
X6237714Y-55278438D02*
X6332952Y-55230819D01*
X6332952Y-55230819D02*
X6571047Y-55230819D01*
X6571047Y-55230819D02*
X6666285Y-55278438D01*
X6666285Y-55278438D02*
X6713904Y-55326057D01*
X6713904Y-55326057D02*
X6761523Y-55421295D01*
X6761523Y-55421295D02*
X6761523Y-55516533D01*
X6761523Y-55516533D02*
X6713904Y-55659390D01*
X6713904Y-55659390D02*
X6142476Y-56230819D01*
X6142476Y-56230819D02*
X6761523Y-56230819D01*
X7666285Y-55230819D02*
X7190095Y-55230819D01*
X7190095Y-55230819D02*
X7142476Y-55707009D01*
X7142476Y-55707009D02*
X7190095Y-55659390D01*
X7190095Y-55659390D02*
X7285333Y-55611771D01*
X7285333Y-55611771D02*
X7523428Y-55611771D01*
X7523428Y-55611771D02*
X7618666Y-55659390D01*
X7618666Y-55659390D02*
X7666285Y-55707009D01*
X7666285Y-55707009D02*
X7713904Y-55802247D01*
X7713904Y-55802247D02*
X7713904Y-56040342D01*
X7713904Y-56040342D02*
X7666285Y-56135580D01*
X7666285Y-56135580D02*
X7618666Y-56183200D01*
X7618666Y-56183200D02*
X7523428Y-56230819D01*
X7523428Y-56230819D02*
X7285333Y-56230819D01*
X7285333Y-56230819D02*
X7190095Y-56183200D01*
X7190095Y-56183200D02*
X7142476Y-56135580D01*
X83233714Y-27798819D02*
X83233714Y-26798819D01*
X83233714Y-26798819D02*
X83471809Y-26798819D01*
X83471809Y-26798819D02*
X83614666Y-26846438D01*
X83614666Y-26846438D02*
X83709904Y-26941676D01*
X83709904Y-26941676D02*
X83757523Y-27036914D01*
X83757523Y-27036914D02*
X83805142Y-27227390D01*
X83805142Y-27227390D02*
X83805142Y-27370247D01*
X83805142Y-27370247D02*
X83757523Y-27560723D01*
X83757523Y-27560723D02*
X83709904Y-27655961D01*
X83709904Y-27655961D02*
X83614666Y-27751200D01*
X83614666Y-27751200D02*
X83471809Y-27798819D01*
X83471809Y-27798819D02*
X83233714Y-27798819D01*
X84186095Y-26894057D02*
X84233714Y-26846438D01*
X84233714Y-26846438D02*
X84328952Y-26798819D01*
X84328952Y-26798819D02*
X84567047Y-26798819D01*
X84567047Y-26798819D02*
X84662285Y-26846438D01*
X84662285Y-26846438D02*
X84709904Y-26894057D01*
X84709904Y-26894057D02*
X84757523Y-26989295D01*
X84757523Y-26989295D02*
X84757523Y-27084533D01*
X84757523Y-27084533D02*
X84709904Y-27227390D01*
X84709904Y-27227390D02*
X84138476Y-27798819D01*
X84138476Y-27798819D02*
X84757523Y-27798819D01*
X85614666Y-27132152D02*
X85614666Y-27798819D01*
X85376571Y-26751200D02*
X85138476Y-27465485D01*
X85138476Y-27465485D02*
X85757523Y-27465485D01*
X80257048Y-32077866D02*
X81018953Y-32077866D01*
X80638000Y-32458819D02*
X80638000Y-31696914D01*
X48318819Y-5619357D02*
X47842628Y-5952690D01*
X48318819Y-6190785D02*
X47318819Y-6190785D01*
X47318819Y-6190785D02*
X47318819Y-5809833D01*
X47318819Y-5809833D02*
X47366438Y-5714595D01*
X47366438Y-5714595D02*
X47414057Y-5666976D01*
X47414057Y-5666976D02*
X47509295Y-5619357D01*
X47509295Y-5619357D02*
X47652152Y-5619357D01*
X47652152Y-5619357D02*
X47747390Y-5666976D01*
X47747390Y-5666976D02*
X47795009Y-5714595D01*
X47795009Y-5714595D02*
X47842628Y-5809833D01*
X47842628Y-5809833D02*
X47842628Y-6190785D01*
X47414057Y-5238404D02*
X47366438Y-5190785D01*
X47366438Y-5190785D02*
X47318819Y-5095547D01*
X47318819Y-5095547D02*
X47318819Y-4857452D01*
X47318819Y-4857452D02*
X47366438Y-4762214D01*
X47366438Y-4762214D02*
X47414057Y-4714595D01*
X47414057Y-4714595D02*
X47509295Y-4666976D01*
X47509295Y-4666976D02*
X47604533Y-4666976D01*
X47604533Y-4666976D02*
X47747390Y-4714595D01*
X47747390Y-4714595D02*
X48318819Y-5286023D01*
X48318819Y-5286023D02*
X48318819Y-4666976D01*
X47318819Y-4047928D02*
X47318819Y-3952690D01*
X47318819Y-3952690D02*
X47366438Y-3857452D01*
X47366438Y-3857452D02*
X47414057Y-3809833D01*
X47414057Y-3809833D02*
X47509295Y-3762214D01*
X47509295Y-3762214D02*
X47699771Y-3714595D01*
X47699771Y-3714595D02*
X47937866Y-3714595D01*
X47937866Y-3714595D02*
X48128342Y-3762214D01*
X48128342Y-3762214D02*
X48223580Y-3809833D01*
X48223580Y-3809833D02*
X48271200Y-3857452D01*
X48271200Y-3857452D02*
X48318819Y-3952690D01*
X48318819Y-3952690D02*
X48318819Y-4047928D01*
X48318819Y-4047928D02*
X48271200Y-4143166D01*
X48271200Y-4143166D02*
X48223580Y-4190785D01*
X48223580Y-4190785D02*
X48128342Y-4238404D01*
X48128342Y-4238404D02*
X47937866Y-4286023D01*
X47937866Y-4286023D02*
X47699771Y-4286023D01*
X47699771Y-4286023D02*
X47509295Y-4238404D01*
X47509295Y-4238404D02*
X47414057Y-4190785D01*
X47414057Y-4190785D02*
X47366438Y-4143166D01*
X47366438Y-4143166D02*
X47318819Y-4047928D01*
X8977333Y-78574819D02*
X8644000Y-78098628D01*
X8405905Y-78574819D02*
X8405905Y-77574819D01*
X8405905Y-77574819D02*
X8786857Y-77574819D01*
X8786857Y-77574819D02*
X8882095Y-77622438D01*
X8882095Y-77622438D02*
X8929714Y-77670057D01*
X8929714Y-77670057D02*
X8977333Y-77765295D01*
X8977333Y-77765295D02*
X8977333Y-77908152D01*
X8977333Y-77908152D02*
X8929714Y-78003390D01*
X8929714Y-78003390D02*
X8882095Y-78051009D01*
X8882095Y-78051009D02*
X8786857Y-78098628D01*
X8786857Y-78098628D02*
X8405905Y-78098628D01*
X9929714Y-78574819D02*
X9358286Y-78574819D01*
X9644000Y-78574819D02*
X9644000Y-77574819D01*
X9644000Y-77574819D02*
X9548762Y-77717676D01*
X9548762Y-77717676D02*
X9453524Y-77812914D01*
X9453524Y-77812914D02*
X9358286Y-77860533D01*
X43350714Y-6970819D02*
X43350714Y-5970819D01*
X43350714Y-5970819D02*
X43588809Y-5970819D01*
X43588809Y-5970819D02*
X43731666Y-6018438D01*
X43731666Y-6018438D02*
X43826904Y-6113676D01*
X43826904Y-6113676D02*
X43874523Y-6208914D01*
X43874523Y-6208914D02*
X43922142Y-6399390D01*
X43922142Y-6399390D02*
X43922142Y-6542247D01*
X43922142Y-6542247D02*
X43874523Y-6732723D01*
X43874523Y-6732723D02*
X43826904Y-6827961D01*
X43826904Y-6827961D02*
X43731666Y-6923200D01*
X43731666Y-6923200D02*
X43588809Y-6970819D01*
X43588809Y-6970819D02*
X43350714Y-6970819D01*
X44303095Y-6066057D02*
X44350714Y-6018438D01*
X44350714Y-6018438D02*
X44445952Y-5970819D01*
X44445952Y-5970819D02*
X44684047Y-5970819D01*
X44684047Y-5970819D02*
X44779285Y-6018438D01*
X44779285Y-6018438D02*
X44826904Y-6066057D01*
X44826904Y-6066057D02*
X44874523Y-6161295D01*
X44874523Y-6161295D02*
X44874523Y-6256533D01*
X44874523Y-6256533D02*
X44826904Y-6399390D01*
X44826904Y-6399390D02*
X44255476Y-6970819D01*
X44255476Y-6970819D02*
X44874523Y-6970819D01*
X45493571Y-5970819D02*
X45588809Y-5970819D01*
X45588809Y-5970819D02*
X45684047Y-6018438D01*
X45684047Y-6018438D02*
X45731666Y-6066057D01*
X45731666Y-6066057D02*
X45779285Y-6161295D01*
X45779285Y-6161295D02*
X45826904Y-6351771D01*
X45826904Y-6351771D02*
X45826904Y-6589866D01*
X45826904Y-6589866D02*
X45779285Y-6780342D01*
X45779285Y-6780342D02*
X45731666Y-6875580D01*
X45731666Y-6875580D02*
X45684047Y-6923200D01*
X45684047Y-6923200D02*
X45588809Y-6970819D01*
X45588809Y-6970819D02*
X45493571Y-6970819D01*
X45493571Y-6970819D02*
X45398333Y-6923200D01*
X45398333Y-6923200D02*
X45350714Y-6875580D01*
X45350714Y-6875580D02*
X45303095Y-6780342D01*
X45303095Y-6780342D02*
X45255476Y-6589866D01*
X45255476Y-6589866D02*
X45255476Y-6351771D01*
X45255476Y-6351771D02*
X45303095Y-6161295D01*
X45303095Y-6161295D02*
X45350714Y-6066057D01*
X45350714Y-6066057D02*
X45398333Y-6018438D01*
X45398333Y-6018438D02*
X45493571Y-5970819D01*
X70391009Y-14588952D02*
X70438628Y-14446095D01*
X70438628Y-14446095D02*
X70486247Y-14398476D01*
X70486247Y-14398476D02*
X70581485Y-14350857D01*
X70581485Y-14350857D02*
X70724342Y-14350857D01*
X70724342Y-14350857D02*
X70819580Y-14398476D01*
X70819580Y-14398476D02*
X70867200Y-14446095D01*
X70867200Y-14446095D02*
X70914819Y-14541333D01*
X70914819Y-14541333D02*
X70914819Y-14922285D01*
X70914819Y-14922285D02*
X69914819Y-14922285D01*
X69914819Y-14922285D02*
X69914819Y-14588952D01*
X69914819Y-14588952D02*
X69962438Y-14493714D01*
X69962438Y-14493714D02*
X70010057Y-14446095D01*
X70010057Y-14446095D02*
X70105295Y-14398476D01*
X70105295Y-14398476D02*
X70200533Y-14398476D01*
X70200533Y-14398476D02*
X70295771Y-14446095D01*
X70295771Y-14446095D02*
X70343390Y-14493714D01*
X70343390Y-14493714D02*
X70391009Y-14588952D01*
X70391009Y-14588952D02*
X70391009Y-14922285D01*
X70914819Y-13922285D02*
X69914819Y-13922285D01*
X69914819Y-13922285D02*
X69914819Y-13541333D01*
X69914819Y-13541333D02*
X69962438Y-13446095D01*
X69962438Y-13446095D02*
X70010057Y-13398476D01*
X70010057Y-13398476D02*
X70105295Y-13350857D01*
X70105295Y-13350857D02*
X70248152Y-13350857D01*
X70248152Y-13350857D02*
X70343390Y-13398476D01*
X70343390Y-13398476D02*
X70391009Y-13446095D01*
X70391009Y-13446095D02*
X70438628Y-13541333D01*
X70438628Y-13541333D02*
X70438628Y-13922285D01*
X70010057Y-12969904D02*
X69962438Y-12922285D01*
X69962438Y-12922285D02*
X69914819Y-12827047D01*
X69914819Y-12827047D02*
X69914819Y-12588952D01*
X69914819Y-12588952D02*
X69962438Y-12493714D01*
X69962438Y-12493714D02*
X70010057Y-12446095D01*
X70010057Y-12446095D02*
X70105295Y-12398476D01*
X70105295Y-12398476D02*
X70200533Y-12398476D01*
X70200533Y-12398476D02*
X70343390Y-12446095D01*
X70343390Y-12446095D02*
X70914819Y-13017523D01*
X70914819Y-13017523D02*
X70914819Y-12398476D01*
X69914819Y-11779428D02*
X69914819Y-11684190D01*
X69914819Y-11684190D02*
X69962438Y-11588952D01*
X69962438Y-11588952D02*
X70010057Y-11541333D01*
X70010057Y-11541333D02*
X70105295Y-11493714D01*
X70105295Y-11493714D02*
X70295771Y-11446095D01*
X70295771Y-11446095D02*
X70533866Y-11446095D01*
X70533866Y-11446095D02*
X70724342Y-11493714D01*
X70724342Y-11493714D02*
X70819580Y-11541333D01*
X70819580Y-11541333D02*
X70867200Y-11588952D01*
X70867200Y-11588952D02*
X70914819Y-11684190D01*
X70914819Y-11684190D02*
X70914819Y-11779428D01*
X70914819Y-11779428D02*
X70867200Y-11874666D01*
X70867200Y-11874666D02*
X70819580Y-11922285D01*
X70819580Y-11922285D02*
X70724342Y-11969904D01*
X70724342Y-11969904D02*
X70533866Y-12017523D01*
X70533866Y-12017523D02*
X70295771Y-12017523D01*
X70295771Y-12017523D02*
X70105295Y-11969904D01*
X70105295Y-11969904D02*
X70010057Y-11922285D01*
X70010057Y-11922285D02*
X69962438Y-11874666D01*
X69962438Y-11874666D02*
X69914819Y-11779428D01*
X9023905Y-79790819D02*
X9023905Y-78790819D01*
X9023905Y-78790819D02*
X9262000Y-78790819D01*
X9262000Y-78790819D02*
X9404857Y-78838438D01*
X9404857Y-78838438D02*
X9500095Y-78933676D01*
X9500095Y-78933676D02*
X9547714Y-79028914D01*
X9547714Y-79028914D02*
X9595333Y-79219390D01*
X9595333Y-79219390D02*
X9595333Y-79362247D01*
X9595333Y-79362247D02*
X9547714Y-79552723D01*
X9547714Y-79552723D02*
X9500095Y-79647961D01*
X9500095Y-79647961D02*
X9404857Y-79743200D01*
X9404857Y-79743200D02*
X9262000Y-79790819D01*
X9262000Y-79790819D02*
X9023905Y-79790819D01*
X9976286Y-78886057D02*
X10023905Y-78838438D01*
X10023905Y-78838438D02*
X10119143Y-78790819D01*
X10119143Y-78790819D02*
X10357238Y-78790819D01*
X10357238Y-78790819D02*
X10452476Y-78838438D01*
X10452476Y-78838438D02*
X10500095Y-78886057D01*
X10500095Y-78886057D02*
X10547714Y-78981295D01*
X10547714Y-78981295D02*
X10547714Y-79076533D01*
X10547714Y-79076533D02*
X10500095Y-79219390D01*
X10500095Y-79219390D02*
X9928667Y-79790819D01*
X9928667Y-79790819D02*
X10547714Y-79790819D01*
X105371047Y-133431009D02*
X105513904Y-133478628D01*
X105513904Y-133478628D02*
X105561523Y-133526247D01*
X105561523Y-133526247D02*
X105609142Y-133621485D01*
X105609142Y-133621485D02*
X105609142Y-133764342D01*
X105609142Y-133764342D02*
X105561523Y-133859580D01*
X105561523Y-133859580D02*
X105513904Y-133907200D01*
X105513904Y-133907200D02*
X105418666Y-133954819D01*
X105418666Y-133954819D02*
X105037714Y-133954819D01*
X105037714Y-133954819D02*
X105037714Y-132954819D01*
X105037714Y-132954819D02*
X105371047Y-132954819D01*
X105371047Y-132954819D02*
X105466285Y-133002438D01*
X105466285Y-133002438D02*
X105513904Y-133050057D01*
X105513904Y-133050057D02*
X105561523Y-133145295D01*
X105561523Y-133145295D02*
X105561523Y-133240533D01*
X105561523Y-133240533D02*
X105513904Y-133335771D01*
X105513904Y-133335771D02*
X105466285Y-133383390D01*
X105466285Y-133383390D02*
X105371047Y-133431009D01*
X105371047Y-133431009D02*
X105037714Y-133431009D01*
X106037714Y-133954819D02*
X106037714Y-132954819D01*
X106037714Y-132954819D02*
X106418666Y-132954819D01*
X106418666Y-132954819D02*
X106513904Y-133002438D01*
X106513904Y-133002438D02*
X106561523Y-133050057D01*
X106561523Y-133050057D02*
X106609142Y-133145295D01*
X106609142Y-133145295D02*
X106609142Y-133288152D01*
X106609142Y-133288152D02*
X106561523Y-133383390D01*
X106561523Y-133383390D02*
X106513904Y-133431009D01*
X106513904Y-133431009D02*
X106418666Y-133478628D01*
X106418666Y-133478628D02*
X106037714Y-133478628D01*
X107561523Y-133954819D02*
X106990095Y-133954819D01*
X107275809Y-133954819D02*
X107275809Y-132954819D01*
X107275809Y-132954819D02*
X107180571Y-133097676D01*
X107180571Y-133097676D02*
X107085333Y-133192914D01*
X107085333Y-133192914D02*
X106990095Y-133240533D01*
X108180571Y-132954819D02*
X108275809Y-132954819D01*
X108275809Y-132954819D02*
X108371047Y-133002438D01*
X108371047Y-133002438D02*
X108418666Y-133050057D01*
X108418666Y-133050057D02*
X108466285Y-133145295D01*
X108466285Y-133145295D02*
X108513904Y-133335771D01*
X108513904Y-133335771D02*
X108513904Y-133573866D01*
X108513904Y-133573866D02*
X108466285Y-133764342D01*
X108466285Y-133764342D02*
X108418666Y-133859580D01*
X108418666Y-133859580D02*
X108371047Y-133907200D01*
X108371047Y-133907200D02*
X108275809Y-133954819D01*
X108275809Y-133954819D02*
X108180571Y-133954819D01*
X108180571Y-133954819D02*
X108085333Y-133907200D01*
X108085333Y-133907200D02*
X108037714Y-133859580D01*
X108037714Y-133859580D02*
X107990095Y-133764342D01*
X107990095Y-133764342D02*
X107942476Y-133573866D01*
X107942476Y-133573866D02*
X107942476Y-133335771D01*
X107942476Y-133335771D02*
X107990095Y-133145295D01*
X107990095Y-133145295D02*
X108037714Y-133050057D01*
X108037714Y-133050057D02*
X108085333Y-133002438D01*
X108085333Y-133002438D02*
X108180571Y-132954819D01*
X39341009Y-14588952D02*
X39388628Y-14446095D01*
X39388628Y-14446095D02*
X39436247Y-14398476D01*
X39436247Y-14398476D02*
X39531485Y-14350857D01*
X39531485Y-14350857D02*
X39674342Y-14350857D01*
X39674342Y-14350857D02*
X39769580Y-14398476D01*
X39769580Y-14398476D02*
X39817200Y-14446095D01*
X39817200Y-14446095D02*
X39864819Y-14541333D01*
X39864819Y-14541333D02*
X39864819Y-14922285D01*
X39864819Y-14922285D02*
X38864819Y-14922285D01*
X38864819Y-14922285D02*
X38864819Y-14588952D01*
X38864819Y-14588952D02*
X38912438Y-14493714D01*
X38912438Y-14493714D02*
X38960057Y-14446095D01*
X38960057Y-14446095D02*
X39055295Y-14398476D01*
X39055295Y-14398476D02*
X39150533Y-14398476D01*
X39150533Y-14398476D02*
X39245771Y-14446095D01*
X39245771Y-14446095D02*
X39293390Y-14493714D01*
X39293390Y-14493714D02*
X39341009Y-14588952D01*
X39341009Y-14588952D02*
X39341009Y-14922285D01*
X39864819Y-13922285D02*
X38864819Y-13922285D01*
X38864819Y-13922285D02*
X38864819Y-13541333D01*
X38864819Y-13541333D02*
X38912438Y-13446095D01*
X38912438Y-13446095D02*
X38960057Y-13398476D01*
X38960057Y-13398476D02*
X39055295Y-13350857D01*
X39055295Y-13350857D02*
X39198152Y-13350857D01*
X39198152Y-13350857D02*
X39293390Y-13398476D01*
X39293390Y-13398476D02*
X39341009Y-13446095D01*
X39341009Y-13446095D02*
X39388628Y-13541333D01*
X39388628Y-13541333D02*
X39388628Y-13922285D01*
X39864819Y-12398476D02*
X39864819Y-12969904D01*
X39864819Y-12684190D02*
X38864819Y-12684190D01*
X38864819Y-12684190D02*
X39007676Y-12779428D01*
X39007676Y-12779428D02*
X39102914Y-12874666D01*
X39102914Y-12874666D02*
X39150533Y-12969904D01*
X38864819Y-12065142D02*
X38864819Y-11398476D01*
X38864819Y-11398476D02*
X39864819Y-11827047D01*
X16954047Y-88258009D02*
X17096904Y-88305628D01*
X17096904Y-88305628D02*
X17144523Y-88353247D01*
X17144523Y-88353247D02*
X17192142Y-88448485D01*
X17192142Y-88448485D02*
X17192142Y-88591342D01*
X17192142Y-88591342D02*
X17144523Y-88686580D01*
X17144523Y-88686580D02*
X17096904Y-88734200D01*
X17096904Y-88734200D02*
X17001666Y-88781819D01*
X17001666Y-88781819D02*
X16620714Y-88781819D01*
X16620714Y-88781819D02*
X16620714Y-87781819D01*
X16620714Y-87781819D02*
X16954047Y-87781819D01*
X16954047Y-87781819D02*
X17049285Y-87829438D01*
X17049285Y-87829438D02*
X17096904Y-87877057D01*
X17096904Y-87877057D02*
X17144523Y-87972295D01*
X17144523Y-87972295D02*
X17144523Y-88067533D01*
X17144523Y-88067533D02*
X17096904Y-88162771D01*
X17096904Y-88162771D02*
X17049285Y-88210390D01*
X17049285Y-88210390D02*
X16954047Y-88258009D01*
X16954047Y-88258009D02*
X16620714Y-88258009D01*
X17620714Y-88781819D02*
X17620714Y-87781819D01*
X17620714Y-87781819D02*
X18001666Y-87781819D01*
X18001666Y-87781819D02*
X18096904Y-87829438D01*
X18096904Y-87829438D02*
X18144523Y-87877057D01*
X18144523Y-87877057D02*
X18192142Y-87972295D01*
X18192142Y-87972295D02*
X18192142Y-88115152D01*
X18192142Y-88115152D02*
X18144523Y-88210390D01*
X18144523Y-88210390D02*
X18096904Y-88258009D01*
X18096904Y-88258009D02*
X18001666Y-88305628D01*
X18001666Y-88305628D02*
X17620714Y-88305628D01*
X18525476Y-87781819D02*
X19144523Y-87781819D01*
X19144523Y-87781819D02*
X18811190Y-88162771D01*
X18811190Y-88162771D02*
X18954047Y-88162771D01*
X18954047Y-88162771D02*
X19049285Y-88210390D01*
X19049285Y-88210390D02*
X19096904Y-88258009D01*
X19096904Y-88258009D02*
X19144523Y-88353247D01*
X19144523Y-88353247D02*
X19144523Y-88591342D01*
X19144523Y-88591342D02*
X19096904Y-88686580D01*
X19096904Y-88686580D02*
X19049285Y-88734200D01*
X19049285Y-88734200D02*
X18954047Y-88781819D01*
X18954047Y-88781819D02*
X18668333Y-88781819D01*
X18668333Y-88781819D02*
X18573095Y-88734200D01*
X18573095Y-88734200D02*
X18525476Y-88686580D01*
X19763571Y-87781819D02*
X19858809Y-87781819D01*
X19858809Y-87781819D02*
X19954047Y-87829438D01*
X19954047Y-87829438D02*
X20001666Y-87877057D01*
X20001666Y-87877057D02*
X20049285Y-87972295D01*
X20049285Y-87972295D02*
X20096904Y-88162771D01*
X20096904Y-88162771D02*
X20096904Y-88400866D01*
X20096904Y-88400866D02*
X20049285Y-88591342D01*
X20049285Y-88591342D02*
X20001666Y-88686580D01*
X20001666Y-88686580D02*
X19954047Y-88734200D01*
X19954047Y-88734200D02*
X19858809Y-88781819D01*
X19858809Y-88781819D02*
X19763571Y-88781819D01*
X19763571Y-88781819D02*
X19668333Y-88734200D01*
X19668333Y-88734200D02*
X19620714Y-88686580D01*
X19620714Y-88686580D02*
X19573095Y-88591342D01*
X19573095Y-88591342D02*
X19525476Y-88400866D01*
X19525476Y-88400866D02*
X19525476Y-88162771D01*
X19525476Y-88162771D02*
X19573095Y-87972295D01*
X19573095Y-87972295D02*
X19620714Y-87877057D01*
X19620714Y-87877057D02*
X19668333Y-87829438D01*
X19668333Y-87829438D02*
X19763571Y-87781819D01*
X60539238Y-133431009D02*
X60682095Y-133478628D01*
X60682095Y-133478628D02*
X60729714Y-133526247D01*
X60729714Y-133526247D02*
X60777333Y-133621485D01*
X60777333Y-133621485D02*
X60777333Y-133764342D01*
X60777333Y-133764342D02*
X60729714Y-133859580D01*
X60729714Y-133859580D02*
X60682095Y-133907200D01*
X60682095Y-133907200D02*
X60586857Y-133954819D01*
X60586857Y-133954819D02*
X60205905Y-133954819D01*
X60205905Y-133954819D02*
X60205905Y-132954819D01*
X60205905Y-132954819D02*
X60539238Y-132954819D01*
X60539238Y-132954819D02*
X60634476Y-133002438D01*
X60634476Y-133002438D02*
X60682095Y-133050057D01*
X60682095Y-133050057D02*
X60729714Y-133145295D01*
X60729714Y-133145295D02*
X60729714Y-133240533D01*
X60729714Y-133240533D02*
X60682095Y-133335771D01*
X60682095Y-133335771D02*
X60634476Y-133383390D01*
X60634476Y-133383390D02*
X60539238Y-133431009D01*
X60539238Y-133431009D02*
X60205905Y-133431009D01*
X61205905Y-133954819D02*
X61205905Y-132954819D01*
X61205905Y-132954819D02*
X61586857Y-132954819D01*
X61586857Y-132954819D02*
X61682095Y-133002438D01*
X61682095Y-133002438D02*
X61729714Y-133050057D01*
X61729714Y-133050057D02*
X61777333Y-133145295D01*
X61777333Y-133145295D02*
X61777333Y-133288152D01*
X61777333Y-133288152D02*
X61729714Y-133383390D01*
X61729714Y-133383390D02*
X61682095Y-133431009D01*
X61682095Y-133431009D02*
X61586857Y-133478628D01*
X61586857Y-133478628D02*
X61205905Y-133478628D01*
X62634476Y-132954819D02*
X62444000Y-132954819D01*
X62444000Y-132954819D02*
X62348762Y-133002438D01*
X62348762Y-133002438D02*
X62301143Y-133050057D01*
X62301143Y-133050057D02*
X62205905Y-133192914D01*
X62205905Y-133192914D02*
X62158286Y-133383390D01*
X62158286Y-133383390D02*
X62158286Y-133764342D01*
X62158286Y-133764342D02*
X62205905Y-133859580D01*
X62205905Y-133859580D02*
X62253524Y-133907200D01*
X62253524Y-133907200D02*
X62348762Y-133954819D01*
X62348762Y-133954819D02*
X62539238Y-133954819D01*
X62539238Y-133954819D02*
X62634476Y-133907200D01*
X62634476Y-133907200D02*
X62682095Y-133859580D01*
X62682095Y-133859580D02*
X62729714Y-133764342D01*
X62729714Y-133764342D02*
X62729714Y-133526247D01*
X62729714Y-133526247D02*
X62682095Y-133431009D01*
X62682095Y-133431009D02*
X62634476Y-133383390D01*
X62634476Y-133383390D02*
X62539238Y-133335771D01*
X62539238Y-133335771D02*
X62348762Y-133335771D01*
X62348762Y-133335771D02*
X62253524Y-133383390D01*
X62253524Y-133383390D02*
X62205905Y-133431009D01*
X62205905Y-133431009D02*
X62158286Y-133526247D01*
X18703009Y-14588952D02*
X18750628Y-14446095D01*
X18750628Y-14446095D02*
X18798247Y-14398476D01*
X18798247Y-14398476D02*
X18893485Y-14350857D01*
X18893485Y-14350857D02*
X19036342Y-14350857D01*
X19036342Y-14350857D02*
X19131580Y-14398476D01*
X19131580Y-14398476D02*
X19179200Y-14446095D01*
X19179200Y-14446095D02*
X19226819Y-14541333D01*
X19226819Y-14541333D02*
X19226819Y-14922285D01*
X19226819Y-14922285D02*
X18226819Y-14922285D01*
X18226819Y-14922285D02*
X18226819Y-14588952D01*
X18226819Y-14588952D02*
X18274438Y-14493714D01*
X18274438Y-14493714D02*
X18322057Y-14446095D01*
X18322057Y-14446095D02*
X18417295Y-14398476D01*
X18417295Y-14398476D02*
X18512533Y-14398476D01*
X18512533Y-14398476D02*
X18607771Y-14446095D01*
X18607771Y-14446095D02*
X18655390Y-14493714D01*
X18655390Y-14493714D02*
X18703009Y-14588952D01*
X18703009Y-14588952D02*
X18703009Y-14922285D01*
X19226819Y-13922285D02*
X18226819Y-13922285D01*
X18226819Y-13922285D02*
X18226819Y-13541333D01*
X18226819Y-13541333D02*
X18274438Y-13446095D01*
X18274438Y-13446095D02*
X18322057Y-13398476D01*
X18322057Y-13398476D02*
X18417295Y-13350857D01*
X18417295Y-13350857D02*
X18560152Y-13350857D01*
X18560152Y-13350857D02*
X18655390Y-13398476D01*
X18655390Y-13398476D02*
X18703009Y-13446095D01*
X18703009Y-13446095D02*
X18750628Y-13541333D01*
X18750628Y-13541333D02*
X18750628Y-13922285D01*
X19226819Y-12398476D02*
X19226819Y-12969904D01*
X19226819Y-12684190D02*
X18226819Y-12684190D01*
X18226819Y-12684190D02*
X18369676Y-12779428D01*
X18369676Y-12779428D02*
X18464914Y-12874666D01*
X18464914Y-12874666D02*
X18512533Y-12969904D01*
X18226819Y-11493714D02*
X18226819Y-11969904D01*
X18226819Y-11969904D02*
X18703009Y-12017523D01*
X18703009Y-12017523D02*
X18655390Y-11969904D01*
X18655390Y-11969904D02*
X18607771Y-11874666D01*
X18607771Y-11874666D02*
X18607771Y-11636571D01*
X18607771Y-11636571D02*
X18655390Y-11541333D01*
X18655390Y-11541333D02*
X18703009Y-11493714D01*
X18703009Y-11493714D02*
X18798247Y-11446095D01*
X18798247Y-11446095D02*
X19036342Y-11446095D01*
X19036342Y-11446095D02*
X19131580Y-11493714D01*
X19131580Y-11493714D02*
X19179200Y-11541333D01*
X19179200Y-11541333D02*
X19226819Y-11636571D01*
X19226819Y-11636571D02*
X19226819Y-11874666D01*
X19226819Y-11874666D02*
X19179200Y-11969904D01*
X19179200Y-11969904D02*
X19131580Y-12017523D01*
D12*
%TO.C,A1*%
X108571000Y-68070000D02*
X108571000Y-56390000D01*
X108571000Y-56390000D02*
X102221000Y-56390000D01*
X104121000Y-97280000D02*
X104121000Y-88140000D01*
X104121000Y-88140000D02*
X102221000Y-88140000D01*
X102221000Y-100460000D02*
X102221000Y-97280000D01*
X102221000Y-97280000D02*
X104121000Y-97280000D01*
X102221000Y-88140000D02*
X102221000Y-68070000D01*
X102221000Y-68070000D02*
X108571000Y-68070000D01*
X102221000Y-56390000D02*
X102221000Y-46860000D01*
X102221000Y-46860000D02*
X37571000Y-46860000D01*
X37571000Y-46860000D02*
X35921000Y-48510000D01*
X35921000Y-100460000D02*
X102221000Y-100460000D01*
X35921000Y-97790000D02*
X35921000Y-100460000D01*
X35921000Y-59940000D02*
X33381000Y-62480000D01*
X35921000Y-48510000D02*
X35921000Y-59940000D01*
X33381000Y-95250000D02*
X35921000Y-97790000D01*
X33381000Y-62480000D02*
X33381000Y-95250000D01*
%TO.C,D18*%
X25546000Y-4792000D02*
X25546000Y-4636000D01*
X25546000Y-2476000D02*
X25546000Y-2320000D01*
X22313666Y-4634608D02*
G75*
G03*
X25545999Y-4791515I1672334J1078608D01*
G01*
X22944871Y-4635836D02*
G75*
G03*
X25026960Y-4635999I1041129J1079836D01*
G01*
X25026960Y-2476001D02*
G75*
G03*
X22944871Y-2476164I-1040960J-1079999D01*
G01*
X25545999Y-2320485D02*
G75*
G03*
X22313666Y-2477392I-1559999J-1235515D01*
G01*
%TO.C,R5*%
X20770000Y-106220000D02*
X20770000Y-110060000D01*
X18930000Y-106220000D02*
X18930000Y-110060000D01*
%TO.C,D22*%
X67202000Y-4792000D02*
X67202000Y-4636000D01*
X67202000Y-2476000D02*
X67202000Y-2320000D01*
X63969666Y-4634608D02*
G75*
G03*
X67201999Y-4791515I1672334J1078608D01*
G01*
X64600871Y-4635836D02*
G75*
G03*
X66682960Y-4635999I1041129J1079836D01*
G01*
X66682960Y-2476001D02*
G75*
G03*
X64600871Y-2476164I-1040960J-1079999D01*
G01*
X67201999Y-2320485D02*
G75*
G03*
X63969666Y-2477392I-1559999J-1235515D01*
G01*
%TO.C,D12*%
X92022000Y-106968000D02*
X92022000Y-107124000D01*
X92022000Y-109284000D02*
X92022000Y-109440000D01*
X95254334Y-107125392D02*
G75*
G03*
X92022001Y-106968485I-1672334J-1078608D01*
G01*
X94623129Y-107124164D02*
G75*
G03*
X92541040Y-107124001I-1041129J-1079836D01*
G01*
X92541040Y-109283999D02*
G75*
G03*
X94623129Y-109283836I1040960J1079999D01*
G01*
X92022001Y-109439515D02*
G75*
G03*
X95254334Y-109282608I1559999J1235515D01*
G01*
%TO.C,D21*%
X56793000Y-4792000D02*
X56793000Y-4636000D01*
X56793000Y-2476000D02*
X56793000Y-2320000D01*
X53560666Y-4634608D02*
G75*
G03*
X56792999Y-4791515I1672334J1078608D01*
G01*
X54191871Y-4635836D02*
G75*
G03*
X56273960Y-4635999I1041129J1079836D01*
G01*
X56273960Y-2476001D02*
G75*
G03*
X54191871Y-2476164I-1040960J-1079999D01*
G01*
X56792999Y-2320485D02*
G75*
G03*
X53560666Y-2477392I-1559999J-1235515D01*
G01*
%TO.C,U4*%
X19376000Y-43488000D02*
X20986000Y-43488000D01*
X18896000Y-43138000D02*
X31616000Y-43138000D01*
X23513200Y-38404200D02*
X27196200Y-38404200D01*
X23335400Y-33502000D02*
X23335400Y-38404200D01*
X27374000Y-33502000D02*
X27374000Y-38404200D01*
X23513200Y-33400400D02*
X27196200Y-33400400D01*
X23335400Y-27964800D02*
X23335400Y-33324200D01*
X27374000Y-27964800D02*
X27374000Y-33324200D01*
X23513200Y-27939400D02*
X27196200Y-27939400D01*
X18896000Y-23918000D02*
X18896000Y-43138000D01*
X18896000Y-23918000D02*
X31616000Y-23918000D01*
X31616000Y-23918000D02*
X31616000Y-43138000D01*
X28718467Y-38590467D02*
G75*
G03*
X28718467Y-38590467I-472467J0D01*
G01*
%TO.C,R13*%
X110140000Y-105776000D02*
X110140000Y-109616000D01*
X108300000Y-105776000D02*
X108300000Y-109616000D01*
%TO.C,D16*%
X4718000Y-5300000D02*
X4718000Y-5144000D01*
X4718000Y-2984000D02*
X4718000Y-2828000D01*
X1485666Y-5142608D02*
G75*
G03*
X4717999Y-5299515I1672334J1078608D01*
G01*
X2116871Y-5143836D02*
G75*
G03*
X4198960Y-5143999I1041129J1079836D01*
G01*
X4198960Y-2984001D02*
G75*
G03*
X2116871Y-2984164I-1040960J-1079999D01*
G01*
X4717999Y-2828485D02*
G75*
G03*
X1485666Y-2985392I-1559999J-1235515D01*
G01*
%TO.C,R9*%
X65436000Y-105569000D02*
X65436000Y-109409000D01*
X63596000Y-105569000D02*
X63596000Y-109409000D01*
%TO.C,R6*%
X31908000Y-105672500D02*
X31908000Y-109512500D01*
X30068000Y-105672500D02*
X30068000Y-109512500D01*
%TO.C,D23*%
X77870000Y-4792000D02*
X77870000Y-4636000D01*
X77870000Y-2476000D02*
X77870000Y-2320000D01*
X74637666Y-4634608D02*
G75*
G03*
X77869999Y-4791515I1672334J1078608D01*
G01*
X75268871Y-4635836D02*
G75*
G03*
X77350960Y-4635999I1041129J1079836D01*
G01*
X77350960Y-2476001D02*
G75*
G03*
X75268871Y-2476164I-1040960J-1079999D01*
G01*
X77869999Y-2320485D02*
G75*
G03*
X74637666Y-2477392I-1559999J-1235515D01*
G01*
%TO.C,R17*%
X17876000Y-6793000D02*
X17876000Y-2953000D01*
X19716000Y-6793000D02*
X19716000Y-2953000D01*
%TO.C,R8*%
X53752000Y-105569000D02*
X53752000Y-109409000D01*
X51912000Y-105569000D02*
X51912000Y-109409000D01*
%TO.C,D3*%
X8202000Y-92744000D02*
X8202000Y-92900000D01*
X8202000Y-95060000D02*
X8202000Y-95216000D01*
X11434334Y-92901392D02*
G75*
G03*
X8202001Y-92744485I-1672334J-1078608D01*
G01*
X10803129Y-92900164D02*
G75*
G03*
X8721040Y-92900001I-1041129J-1079836D01*
G01*
X8721040Y-95059999D02*
G75*
G03*
X10803129Y-95059836I1040960J1079999D01*
G01*
X8202001Y-95215515D02*
G75*
G03*
X11434334Y-95058608I1559999J1235515D01*
G01*
%TO.C,D8*%
X47059000Y-106968000D02*
X47059000Y-107124000D01*
X47059000Y-109284000D02*
X47059000Y-109440000D01*
X50291334Y-107125392D02*
G75*
G03*
X47059001Y-106968485I-1672334J-1078608D01*
G01*
X49660129Y-107124164D02*
G75*
G03*
X47578040Y-107124001I-1041129J-1079836D01*
G01*
X47578040Y-109283999D02*
G75*
G03*
X49660129Y-109283836I1040960J1079999D01*
G01*
X47059001Y-109439515D02*
G75*
G03*
X50291334Y-109282608I1559999J1235515D01*
G01*
%TO.C,D25*%
X57349000Y-39122000D02*
X54259000Y-39122000D01*
X55803538Y-44671999D02*
G75*
G03*
X57348830Y-39122001I462J2989999D01*
G01*
X54259170Y-39122000D02*
G75*
G03*
X55804462Y-44672000I1544830J-2560000D01*
G01*
X58304000Y-41682000D02*
G75*
G03*
X58304000Y-41682000I-2500000J0D01*
G01*
%TO.C,R7*%
X43084000Y-105569000D02*
X43084000Y-109409000D01*
X41244000Y-105569000D02*
X41244000Y-109409000D01*
%TO.C,D19*%
X35965000Y-4792000D02*
X35965000Y-4636000D01*
X35965000Y-2476000D02*
X35965000Y-2320000D01*
X32732666Y-4634608D02*
G75*
G03*
X35964999Y-4791515I1672334J1078608D01*
G01*
X33363871Y-4635836D02*
G75*
G03*
X35445960Y-4635999I1041129J1079836D01*
G01*
X35445960Y-2476001D02*
G75*
G03*
X33363871Y-2476164I-1040960J-1079999D01*
G01*
X35964999Y-2320485D02*
G75*
G03*
X32732666Y-2477392I-1559999J-1235515D01*
G01*
%TO.C,R24*%
X63404000Y-31608000D02*
X63404000Y-35448000D01*
X61564000Y-31608000D02*
X61564000Y-35448000D01*
%TO.C,D10*%
X69411000Y-106968000D02*
X69411000Y-107124000D01*
X69411000Y-109284000D02*
X69411000Y-109440000D01*
X72643334Y-107125392D02*
G75*
G03*
X69411001Y-106968485I-1672334J-1078608D01*
G01*
X72012129Y-107124164D02*
G75*
G03*
X69930040Y-107124001I-1041129J-1079836D01*
G01*
X69930040Y-109283999D02*
G75*
G03*
X72012129Y-109283836I1040960J1079999D01*
G01*
X69411001Y-109439515D02*
G75*
G03*
X72643334Y-109282608I1559999J1235515D01*
G01*
%TO.C,U2*%
X58834000Y-29872000D02*
X48554000Y-29872000D01*
X48554000Y-29872000D02*
X48554000Y-35172000D01*
X58834000Y-31522000D02*
X58834000Y-29872000D01*
X58834000Y-35172000D02*
X58834000Y-33522000D01*
X48554000Y-35172000D02*
X58834000Y-35172000D01*
X58834000Y-31522000D02*
G75*
G03*
X58834000Y-33522000I0J-1000000D01*
G01*
%TO.C,R14*%
X40544000Y-38212000D02*
X40544000Y-42052000D01*
X38704000Y-38212000D02*
X38704000Y-42052000D01*
%TO.C,R26*%
X43800000Y-41752000D02*
X47640000Y-41752000D01*
X43800000Y-43592000D02*
X47640000Y-43592000D01*
%TO.C,R10*%
X76612000Y-105672500D02*
X76612000Y-109512500D01*
X74772000Y-105672500D02*
X74772000Y-109512500D01*
%TO.C,D9*%
X58494000Y-106968000D02*
X58494000Y-107124000D01*
X58494000Y-109284000D02*
X58494000Y-109440000D01*
X61726334Y-107125392D02*
G75*
G03*
X58494001Y-106968485I-1672334J-1078608D01*
G01*
X61095129Y-107124164D02*
G75*
G03*
X59013040Y-107124001I-1041129J-1079836D01*
G01*
X59013040Y-109283999D02*
G75*
G03*
X61095129Y-109283836I1040960J1079999D01*
G01*
X58494001Y-109439515D02*
G75*
G03*
X61726334Y-109282608I1559999J1235515D01*
G01*
%TO.C,R3*%
X11572000Y-99472000D02*
X7732000Y-99472000D01*
X11572000Y-97632000D02*
X7732000Y-97632000D01*
%TO.C,R21*%
X59024000Y-6285000D02*
X59024000Y-2445000D01*
X60864000Y-6285000D02*
X60864000Y-2445000D01*
%TO.C,D1*%
X8202000Y-70392000D02*
X8202000Y-70548000D01*
X8202000Y-72708000D02*
X8202000Y-72864000D01*
X11434334Y-70549392D02*
G75*
G03*
X8202001Y-70392485I-1672334J-1078608D01*
G01*
X10803129Y-70548164D02*
G75*
G03*
X8721040Y-70548001I-1041129J-1079836D01*
G01*
X8721040Y-72707999D02*
G75*
G03*
X10803129Y-72707836I1040960J1079999D01*
G01*
X8202001Y-72863515D02*
G75*
G03*
X11434334Y-72706608I1559999J1235515D01*
G01*
%TO.C,R2*%
X11064000Y-87788000D02*
X7224000Y-87788000D01*
X11064000Y-85948000D02*
X7224000Y-85948000D01*
%TO.C,R19*%
X38704000Y-7000000D02*
X38704000Y-3160000D01*
X40544000Y-7000000D02*
X40544000Y-3160000D01*
%TO.C,D7*%
X36142000Y-106968000D02*
X36142000Y-107124000D01*
X36142000Y-109284000D02*
X36142000Y-109440000D01*
X39374334Y-107125392D02*
G75*
G03*
X36142001Y-106968485I-1672334J-1078608D01*
G01*
X38743129Y-107124164D02*
G75*
G03*
X36661040Y-107124001I-1041129J-1079836D01*
G01*
X36661040Y-109283999D02*
G75*
G03*
X38743129Y-109283836I1040960J1079999D01*
G01*
X36142001Y-109439515D02*
G75*
G03*
X39374334Y-109282608I1559999J1235515D01*
G01*
%TO.C,D17*%
X14916000Y-4792000D02*
X14916000Y-4636000D01*
X14916000Y-2476000D02*
X14916000Y-2320000D01*
X11683666Y-4634608D02*
G75*
G03*
X14915999Y-4791515I1672334J1078608D01*
G01*
X12314871Y-4635836D02*
G75*
G03*
X14396960Y-4635999I1041129J1079836D01*
G01*
X14396960Y-2476001D02*
G75*
G03*
X12314871Y-2476164I-1040960J-1079999D01*
G01*
X14915999Y-2320485D02*
G75*
G03*
X11683666Y-2477392I-1559999J-1235515D01*
G01*
%TO.C,D6*%
X24966000Y-106968000D02*
X24966000Y-107124000D01*
X24966000Y-109284000D02*
X24966000Y-109440000D01*
X28198334Y-107125392D02*
G75*
G03*
X24966001Y-106968485I-1672334J-1078608D01*
G01*
X27567129Y-107124164D02*
G75*
G03*
X25485040Y-107124001I-1041129J-1079836D01*
G01*
X25485040Y-109283999D02*
G75*
G03*
X27567129Y-109283836I1040960J1079999D01*
G01*
X24966001Y-109439515D02*
G75*
G03*
X28198334Y-109282608I1559999J1235515D01*
G01*
%TO.C,D11*%
X80587000Y-106968000D02*
X80587000Y-107124000D01*
X80587000Y-109284000D02*
X80587000Y-109440000D01*
X83819334Y-107125392D02*
G75*
G03*
X80587001Y-106968485I-1672334J-1078608D01*
G01*
X83188129Y-107124164D02*
G75*
G03*
X81106040Y-107124001I-1041129J-1079836D01*
G01*
X81106040Y-109283999D02*
G75*
G03*
X83188129Y-109283836I1040960J1079999D01*
G01*
X80587001Y-109439515D02*
G75*
G03*
X83819334Y-109282608I1559999J1235515D01*
G01*
%TO.C,R23*%
X80868000Y-6492000D02*
X80868000Y-2652000D01*
X82708000Y-6492000D02*
X82708000Y-2652000D01*
%TO.C,U3*%
X22021000Y-45406000D02*
X22021000Y-65846000D01*
X22021000Y-65846000D02*
X28491000Y-65846000D01*
X24256000Y-45406000D02*
X22021000Y-45406000D01*
X28491000Y-45406000D02*
X26256000Y-45406000D01*
X28491000Y-65846000D02*
X28491000Y-45406000D01*
X24256000Y-45406000D02*
G75*
G03*
X26256000Y-45406000I1000000J0D01*
G01*
%TO.C,D13*%
X103198001Y-109439515D02*
G75*
G03*
X106430334Y-109282608I1559999J1235515D01*
G01*
X103717040Y-109283999D02*
G75*
G03*
X105799129Y-109283836I1040960J1079999D01*
G01*
X105799129Y-107124164D02*
G75*
G03*
X103717040Y-107124001I-1041129J-1079836D01*
G01*
X106430334Y-107125392D02*
G75*
G03*
X103198001Y-106968485I-1672334J-1078608D01*
G01*
X103198000Y-109284000D02*
X103198000Y-109440000D01*
X103198000Y-106968000D02*
X103198000Y-107124000D01*
%TO.C,R22*%
X70200000Y-6492000D02*
X70200000Y-2652000D01*
X72040000Y-6492000D02*
X72040000Y-2652000D01*
%TO.C,R4*%
X9048000Y-106180500D02*
X9048000Y-110020500D01*
X7208000Y-106180500D02*
X7208000Y-110020500D01*
%TO.C,D4*%
X1598000Y-106968000D02*
X1598000Y-107124000D01*
X1598000Y-109284000D02*
X1598000Y-109440000D01*
X4830334Y-107125392D02*
G75*
G03*
X1598001Y-106968485I-1672334J-1078608D01*
G01*
X4199129Y-107124164D02*
G75*
G03*
X2117040Y-107124001I-1041129J-1079836D01*
G01*
X2117040Y-109283999D02*
G75*
G03*
X4199129Y-109283836I1040960J1079999D01*
G01*
X1598001Y-109439515D02*
G75*
G03*
X4830334Y-109282608I1559999J1235515D01*
G01*
%TO.C,R11*%
X87788000Y-105776000D02*
X87788000Y-109616000D01*
X85948000Y-105776000D02*
X85948000Y-109616000D01*
%TO.C,R18*%
X28544000Y-7000000D02*
X28544000Y-3160000D01*
X30384000Y-7000000D02*
X30384000Y-3160000D01*
%TO.C,R25*%
X50404000Y-24480000D02*
X54244000Y-24480000D01*
X50404000Y-26320000D02*
X54244000Y-26320000D01*
%TO.C,R16*%
X7208000Y-6492000D02*
X7208000Y-2652000D01*
X9048000Y-6492000D02*
X9048000Y-2652000D01*
%TO.C,D5*%
X13282000Y-106968000D02*
X13282000Y-107124000D01*
X13282000Y-109284000D02*
X13282000Y-109440000D01*
X16514334Y-107125392D02*
G75*
G03*
X13282001Y-106968485I-1672334J-1078608D01*
G01*
X15883129Y-107124164D02*
G75*
G03*
X13801040Y-107124001I-1041129J-1079836D01*
G01*
X13801040Y-109283999D02*
G75*
G03*
X15883129Y-109283836I1040960J1079999D01*
G01*
X13282001Y-109439515D02*
G75*
G03*
X16514334Y-109282608I1559999J1235515D01*
G01*
%TO.C,R12*%
X98820000Y-105776000D02*
X98820000Y-109616000D01*
X96980000Y-105776000D02*
X96980000Y-109616000D01*
%TO.C,D24*%
X90548000Y-34544000D02*
G75*
G03*
X90548000Y-34544000I-6100000J0D01*
G01*
%TO.C,R20*%
X48864000Y-6896500D02*
X48864000Y-3056500D01*
X50704000Y-6896500D02*
X50704000Y-3056500D01*
%TO.C,R1*%
X11064000Y-77120000D02*
X7224000Y-77120000D01*
X11064000Y-75280000D02*
X7224000Y-75280000D01*
%TO.C,D20*%
X46125000Y-4792000D02*
X46125000Y-4636000D01*
X46125000Y-2476000D02*
X46125000Y-2320000D01*
X42892666Y-4634608D02*
G75*
G03*
X46124999Y-4791515I1672334J1078608D01*
G01*
X43523871Y-4635836D02*
G75*
G03*
X45605960Y-4635999I1041129J1079836D01*
G01*
X45605960Y-2476001D02*
G75*
G03*
X43523871Y-2476164I-1040960J-1079999D01*
G01*
X46124999Y-2320485D02*
G75*
G03*
X42892666Y-2477392I-1559999J-1235515D01*
G01*
%TO.C,D2*%
X8202000Y-81060000D02*
X8202000Y-81216000D01*
X8202000Y-83376000D02*
X8202000Y-83532000D01*
X11434334Y-81217392D02*
G75*
G03*
X8202001Y-81060485I-1672334J-1078608D01*
G01*
X10803129Y-81216164D02*
G75*
G03*
X8721040Y-81216001I-1041129J-1079836D01*
G01*
X8721040Y-83375999D02*
G75*
G03*
X10803129Y-83375836I1040960J1079999D01*
G01*
X8202001Y-83531515D02*
G75*
G03*
X11434334Y-83374608I1559999J1235515D01*
G01*
%TD*%
M02*
