%TF.GenerationSoftware,KiCad,Pcbnew,7.0.6*%
%TF.CreationDate,2023-07-11T14:03:09+05:30*%
%TF.ProjectId,trainer kit arduino proto,74726169-6e65-4722-906b-697420617264,rev?*%
%TF.SameCoordinates,Original*%
%TF.FileFunction,Drillmap*%
%TF.FilePolarity,Positive*%
%FSLAX45Y45*%
G04 Gerber Fmt 4.5, Leading zero omitted, Abs format (unit mm)*
G04 Created by KiCad (PCBNEW 7.0.6) date 2023-07-11 14:03:09*
%MOMM*%
%LPD*%
G01*
G04 APERTURE LIST*
%ADD10C,0.100000*%
%ADD11C,0.200000*%
%ADD12C,0.080000*%
G04 APERTURE END LIST*
D10*
X0Y0D02*
X11226800Y0D01*
X11226800Y-13512800D01*
X0Y-13512800D01*
X0Y0D01*
D11*
D12*
X250400Y-11344000D02*
X330400Y-11424000D01*
X330400Y-11344000D02*
X250400Y-11424000D01*
X504400Y-11344000D02*
X584400Y-11424000D01*
X584400Y-11344000D02*
X504400Y-11424000D01*
X758400Y-11344000D02*
X838400Y-11424000D01*
X838400Y-11344000D02*
X758400Y-11424000D01*
X1370400Y-11344000D02*
X1450400Y-11424000D01*
X1450400Y-11344000D02*
X1370400Y-11424000D01*
X1624400Y-11344000D02*
X1704400Y-11424000D01*
X1704400Y-11344000D02*
X1624400Y-11424000D01*
X1878400Y-11344000D02*
X1958400Y-11424000D01*
X1958400Y-11344000D02*
X1878400Y-11424000D01*
X2490400Y-11344000D02*
X2570400Y-11424000D01*
X2570400Y-11344000D02*
X2490400Y-11424000D01*
X2744400Y-11344000D02*
X2824400Y-11424000D01*
X2824400Y-11344000D02*
X2744400Y-11424000D01*
X2998400Y-11344000D02*
X3078400Y-11424000D01*
X3078400Y-11344000D02*
X2998400Y-11424000D01*
X3610400Y-11344000D02*
X3690400Y-11424000D01*
X3690400Y-11344000D02*
X3610400Y-11424000D01*
X3864400Y-11344000D02*
X3944400Y-11424000D01*
X3944400Y-11344000D02*
X3864400Y-11424000D01*
X4118400Y-11344000D02*
X4198400Y-11424000D01*
X4198400Y-11344000D02*
X4118400Y-11424000D01*
X4730400Y-11344000D02*
X4810400Y-11424000D01*
X4810400Y-11344000D02*
X4730400Y-11424000D01*
X4984400Y-11344000D02*
X5064400Y-11424000D01*
X5064400Y-11344000D02*
X4984400Y-11424000D01*
X5238400Y-11344000D02*
X5318400Y-11424000D01*
X5318400Y-11344000D02*
X5238400Y-11424000D01*
X5850400Y-11344000D02*
X5930400Y-11424000D01*
X5930400Y-11344000D02*
X5850400Y-11424000D01*
X6104400Y-11344000D02*
X6184400Y-11424000D01*
X6184400Y-11344000D02*
X6104400Y-11424000D01*
X6358400Y-11344000D02*
X6438400Y-11424000D01*
X6438400Y-11344000D02*
X6358400Y-11424000D01*
X6970400Y-11344000D02*
X7050400Y-11424000D01*
X7050400Y-11344000D02*
X6970400Y-11424000D01*
X7224400Y-11344000D02*
X7304400Y-11424000D01*
X7304400Y-11344000D02*
X7224400Y-11424000D01*
X7478400Y-11344000D02*
X7558400Y-11424000D01*
X7558400Y-11344000D02*
X7478400Y-11424000D01*
X8090400Y-11344000D02*
X8170400Y-11424000D01*
X8170400Y-11344000D02*
X8090400Y-11424000D01*
X8344400Y-11344000D02*
X8424400Y-11424000D01*
X8424400Y-11344000D02*
X8344400Y-11424000D01*
X8598400Y-11344000D02*
X8678400Y-11424000D01*
X8678400Y-11344000D02*
X8598400Y-11424000D01*
X9210400Y-11344000D02*
X9290400Y-11424000D01*
X9290400Y-11344000D02*
X9210400Y-11424000D01*
X9464400Y-11344000D02*
X9544400Y-11424000D01*
X9544400Y-11344000D02*
X9464400Y-11424000D01*
X9718400Y-11344000D02*
X9798400Y-11424000D01*
X9798400Y-11344000D02*
X9718400Y-11424000D01*
X10330400Y-11344000D02*
X10410400Y-11424000D01*
X10410400Y-11344000D02*
X10330400Y-11424000D01*
X10584400Y-11344000D02*
X10664400Y-11424000D01*
X10664400Y-11344000D02*
X10584400Y-11424000D01*
X10838400Y-11344000D02*
X10918400Y-11424000D01*
X10918400Y-11344000D02*
X10838400Y-11424000D01*
D11*
X255777Y-13829284D02*
X255777Y-13629284D01*
X255777Y-13629284D02*
X303396Y-13629284D01*
X303396Y-13629284D02*
X331967Y-13638808D01*
X331967Y-13638808D02*
X351015Y-13657855D01*
X351015Y-13657855D02*
X360539Y-13676903D01*
X360539Y-13676903D02*
X370062Y-13714998D01*
X370062Y-13714998D02*
X370062Y-13743569D01*
X370062Y-13743569D02*
X360539Y-13781665D01*
X360539Y-13781665D02*
X351015Y-13800712D01*
X351015Y-13800712D02*
X331967Y-13819760D01*
X331967Y-13819760D02*
X303396Y-13829284D01*
X303396Y-13829284D02*
X255777Y-13829284D01*
X455777Y-13829284D02*
X455777Y-13695950D01*
X455777Y-13734046D02*
X465301Y-13714998D01*
X465301Y-13714998D02*
X474824Y-13705474D01*
X474824Y-13705474D02*
X493872Y-13695950D01*
X493872Y-13695950D02*
X512920Y-13695950D01*
X579586Y-13829284D02*
X579586Y-13695950D01*
X579586Y-13629284D02*
X570063Y-13638808D01*
X570063Y-13638808D02*
X579586Y-13648331D01*
X579586Y-13648331D02*
X589110Y-13638808D01*
X589110Y-13638808D02*
X579586Y-13629284D01*
X579586Y-13629284D02*
X579586Y-13648331D01*
X703396Y-13829284D02*
X684348Y-13819760D01*
X684348Y-13819760D02*
X674824Y-13800712D01*
X674824Y-13800712D02*
X674824Y-13629284D01*
X808158Y-13829284D02*
X789110Y-13819760D01*
X789110Y-13819760D02*
X779586Y-13800712D01*
X779586Y-13800712D02*
X779586Y-13629284D01*
X1036729Y-13829284D02*
X1036729Y-13629284D01*
X1036729Y-13629284D02*
X1103396Y-13772141D01*
X1103396Y-13772141D02*
X1170063Y-13629284D01*
X1170063Y-13629284D02*
X1170063Y-13829284D01*
X1351015Y-13829284D02*
X1351015Y-13724522D01*
X1351015Y-13724522D02*
X1341491Y-13705474D01*
X1341491Y-13705474D02*
X1322444Y-13695950D01*
X1322444Y-13695950D02*
X1284348Y-13695950D01*
X1284348Y-13695950D02*
X1265301Y-13705474D01*
X1351015Y-13819760D02*
X1331967Y-13829284D01*
X1331967Y-13829284D02*
X1284348Y-13829284D01*
X1284348Y-13829284D02*
X1265301Y-13819760D01*
X1265301Y-13819760D02*
X1255777Y-13800712D01*
X1255777Y-13800712D02*
X1255777Y-13781665D01*
X1255777Y-13781665D02*
X1265301Y-13762617D01*
X1265301Y-13762617D02*
X1284348Y-13753093D01*
X1284348Y-13753093D02*
X1331967Y-13753093D01*
X1331967Y-13753093D02*
X1351015Y-13743569D01*
X1446253Y-13695950D02*
X1446253Y-13895950D01*
X1446253Y-13705474D02*
X1465301Y-13695950D01*
X1465301Y-13695950D02*
X1503396Y-13695950D01*
X1503396Y-13695950D02*
X1522443Y-13705474D01*
X1522443Y-13705474D02*
X1531967Y-13714998D01*
X1531967Y-13714998D02*
X1541491Y-13734046D01*
X1541491Y-13734046D02*
X1541491Y-13791188D01*
X1541491Y-13791188D02*
X1531967Y-13810236D01*
X1531967Y-13810236D02*
X1522443Y-13819760D01*
X1522443Y-13819760D02*
X1503396Y-13829284D01*
X1503396Y-13829284D02*
X1465301Y-13829284D01*
X1465301Y-13829284D02*
X1446253Y-13819760D01*
X1627205Y-13810236D02*
X1636729Y-13819760D01*
X1636729Y-13819760D02*
X1627205Y-13829284D01*
X1627205Y-13829284D02*
X1617682Y-13819760D01*
X1617682Y-13819760D02*
X1627205Y-13810236D01*
X1627205Y-13810236D02*
X1627205Y-13829284D01*
X1627205Y-13705474D02*
X1636729Y-13714998D01*
X1636729Y-13714998D02*
X1627205Y-13724522D01*
X1627205Y-13724522D02*
X1617682Y-13714998D01*
X1617682Y-13714998D02*
X1627205Y-13705474D01*
X1627205Y-13705474D02*
X1627205Y-13724522D01*
D12*
X-85000Y-14117800D02*
X-5000Y-14197800D01*
X-5000Y-14117800D02*
X-85000Y-14197800D01*
D11*
X293872Y-14049284D02*
X312920Y-14049284D01*
X312920Y-14049284D02*
X331967Y-14058808D01*
X331967Y-14058808D02*
X341491Y-14068331D01*
X341491Y-14068331D02*
X351015Y-14087379D01*
X351015Y-14087379D02*
X360539Y-14125474D01*
X360539Y-14125474D02*
X360539Y-14173093D01*
X360539Y-14173093D02*
X351015Y-14211188D01*
X351015Y-14211188D02*
X341491Y-14230236D01*
X341491Y-14230236D02*
X331967Y-14239760D01*
X331967Y-14239760D02*
X312920Y-14249284D01*
X312920Y-14249284D02*
X293872Y-14249284D01*
X293872Y-14249284D02*
X274824Y-14239760D01*
X274824Y-14239760D02*
X265301Y-14230236D01*
X265301Y-14230236D02*
X255777Y-14211188D01*
X255777Y-14211188D02*
X246253Y-14173093D01*
X246253Y-14173093D02*
X246253Y-14125474D01*
X246253Y-14125474D02*
X255777Y-14087379D01*
X255777Y-14087379D02*
X265301Y-14068331D01*
X265301Y-14068331D02*
X274824Y-14058808D01*
X274824Y-14058808D02*
X293872Y-14049284D01*
X446253Y-14230236D02*
X455777Y-14239760D01*
X455777Y-14239760D02*
X446253Y-14249284D01*
X446253Y-14249284D02*
X436729Y-14239760D01*
X436729Y-14239760D02*
X446253Y-14230236D01*
X446253Y-14230236D02*
X446253Y-14249284D01*
X570063Y-14134998D02*
X551015Y-14125474D01*
X551015Y-14125474D02*
X541491Y-14115950D01*
X541491Y-14115950D02*
X531967Y-14096903D01*
X531967Y-14096903D02*
X531967Y-14087379D01*
X531967Y-14087379D02*
X541491Y-14068331D01*
X541491Y-14068331D02*
X551015Y-14058808D01*
X551015Y-14058808D02*
X570063Y-14049284D01*
X570063Y-14049284D02*
X608158Y-14049284D01*
X608158Y-14049284D02*
X627205Y-14058808D01*
X627205Y-14058808D02*
X636729Y-14068331D01*
X636729Y-14068331D02*
X646253Y-14087379D01*
X646253Y-14087379D02*
X646253Y-14096903D01*
X646253Y-14096903D02*
X636729Y-14115950D01*
X636729Y-14115950D02*
X627205Y-14125474D01*
X627205Y-14125474D02*
X608158Y-14134998D01*
X608158Y-14134998D02*
X570063Y-14134998D01*
X570063Y-14134998D02*
X551015Y-14144522D01*
X551015Y-14144522D02*
X541491Y-14154046D01*
X541491Y-14154046D02*
X531967Y-14173093D01*
X531967Y-14173093D02*
X531967Y-14211188D01*
X531967Y-14211188D02*
X541491Y-14230236D01*
X541491Y-14230236D02*
X551015Y-14239760D01*
X551015Y-14239760D02*
X570063Y-14249284D01*
X570063Y-14249284D02*
X608158Y-14249284D01*
X608158Y-14249284D02*
X627205Y-14239760D01*
X627205Y-14239760D02*
X636729Y-14230236D01*
X636729Y-14230236D02*
X646253Y-14211188D01*
X646253Y-14211188D02*
X646253Y-14173093D01*
X646253Y-14173093D02*
X636729Y-14154046D01*
X636729Y-14154046D02*
X627205Y-14144522D01*
X627205Y-14144522D02*
X608158Y-14134998D01*
X770062Y-14049284D02*
X789110Y-14049284D01*
X789110Y-14049284D02*
X808158Y-14058808D01*
X808158Y-14058808D02*
X817682Y-14068331D01*
X817682Y-14068331D02*
X827205Y-14087379D01*
X827205Y-14087379D02*
X836729Y-14125474D01*
X836729Y-14125474D02*
X836729Y-14173093D01*
X836729Y-14173093D02*
X827205Y-14211188D01*
X827205Y-14211188D02*
X817682Y-14230236D01*
X817682Y-14230236D02*
X808158Y-14239760D01*
X808158Y-14239760D02*
X789110Y-14249284D01*
X789110Y-14249284D02*
X770062Y-14249284D01*
X770062Y-14249284D02*
X751015Y-14239760D01*
X751015Y-14239760D02*
X741491Y-14230236D01*
X741491Y-14230236D02*
X731967Y-14211188D01*
X731967Y-14211188D02*
X722443Y-14173093D01*
X722443Y-14173093D02*
X722443Y-14125474D01*
X722443Y-14125474D02*
X731967Y-14087379D01*
X731967Y-14087379D02*
X741491Y-14068331D01*
X741491Y-14068331D02*
X751015Y-14058808D01*
X751015Y-14058808D02*
X770062Y-14049284D01*
X960539Y-14049284D02*
X979586Y-14049284D01*
X979586Y-14049284D02*
X998634Y-14058808D01*
X998634Y-14058808D02*
X1008158Y-14068331D01*
X1008158Y-14068331D02*
X1017682Y-14087379D01*
X1017682Y-14087379D02*
X1027205Y-14125474D01*
X1027205Y-14125474D02*
X1027205Y-14173093D01*
X1027205Y-14173093D02*
X1017682Y-14211188D01*
X1017682Y-14211188D02*
X1008158Y-14230236D01*
X1008158Y-14230236D02*
X998634Y-14239760D01*
X998634Y-14239760D02*
X979586Y-14249284D01*
X979586Y-14249284D02*
X960539Y-14249284D01*
X960539Y-14249284D02*
X941491Y-14239760D01*
X941491Y-14239760D02*
X931967Y-14230236D01*
X931967Y-14230236D02*
X922443Y-14211188D01*
X922443Y-14211188D02*
X912920Y-14173093D01*
X912920Y-14173093D02*
X912920Y-14125474D01*
X912920Y-14125474D02*
X922443Y-14087379D01*
X922443Y-14087379D02*
X931967Y-14068331D01*
X931967Y-14068331D02*
X941491Y-14058808D01*
X941491Y-14058808D02*
X960539Y-14049284D01*
X1112920Y-14249284D02*
X1112920Y-14115950D01*
X1112920Y-14134998D02*
X1122444Y-14125474D01*
X1122444Y-14125474D02*
X1141491Y-14115950D01*
X1141491Y-14115950D02*
X1170063Y-14115950D01*
X1170063Y-14115950D02*
X1189110Y-14125474D01*
X1189110Y-14125474D02*
X1198634Y-14144522D01*
X1198634Y-14144522D02*
X1198634Y-14249284D01*
X1198634Y-14144522D02*
X1208158Y-14125474D01*
X1208158Y-14125474D02*
X1227205Y-14115950D01*
X1227205Y-14115950D02*
X1255777Y-14115950D01*
X1255777Y-14115950D02*
X1274825Y-14125474D01*
X1274825Y-14125474D02*
X1284348Y-14144522D01*
X1284348Y-14144522D02*
X1284348Y-14249284D01*
X1379586Y-14249284D02*
X1379586Y-14115950D01*
X1379586Y-14134998D02*
X1389110Y-14125474D01*
X1389110Y-14125474D02*
X1408158Y-14115950D01*
X1408158Y-14115950D02*
X1436729Y-14115950D01*
X1436729Y-14115950D02*
X1455777Y-14125474D01*
X1455777Y-14125474D02*
X1465301Y-14144522D01*
X1465301Y-14144522D02*
X1465301Y-14249284D01*
X1465301Y-14144522D02*
X1474824Y-14125474D01*
X1474824Y-14125474D02*
X1493872Y-14115950D01*
X1493872Y-14115950D02*
X1522443Y-14115950D01*
X1522443Y-14115950D02*
X1541491Y-14125474D01*
X1541491Y-14125474D02*
X1551015Y-14144522D01*
X1551015Y-14144522D02*
X1551015Y-14249284D01*
X1941491Y-14039760D02*
X1770063Y-14296903D01*
X2198634Y-14049284D02*
X2217682Y-14049284D01*
X2217682Y-14049284D02*
X2236729Y-14058808D01*
X2236729Y-14058808D02*
X2246253Y-14068331D01*
X2246253Y-14068331D02*
X2255777Y-14087379D01*
X2255777Y-14087379D02*
X2265301Y-14125474D01*
X2265301Y-14125474D02*
X2265301Y-14173093D01*
X2265301Y-14173093D02*
X2255777Y-14211188D01*
X2255777Y-14211188D02*
X2246253Y-14230236D01*
X2246253Y-14230236D02*
X2236729Y-14239760D01*
X2236729Y-14239760D02*
X2217682Y-14249284D01*
X2217682Y-14249284D02*
X2198634Y-14249284D01*
X2198634Y-14249284D02*
X2179587Y-14239760D01*
X2179587Y-14239760D02*
X2170063Y-14230236D01*
X2170063Y-14230236D02*
X2160539Y-14211188D01*
X2160539Y-14211188D02*
X2151015Y-14173093D01*
X2151015Y-14173093D02*
X2151015Y-14125474D01*
X2151015Y-14125474D02*
X2160539Y-14087379D01*
X2160539Y-14087379D02*
X2170063Y-14068331D01*
X2170063Y-14068331D02*
X2179587Y-14058808D01*
X2179587Y-14058808D02*
X2198634Y-14049284D01*
X2351015Y-14230236D02*
X2360539Y-14239760D01*
X2360539Y-14239760D02*
X2351015Y-14249284D01*
X2351015Y-14249284D02*
X2341491Y-14239760D01*
X2341491Y-14239760D02*
X2351015Y-14230236D01*
X2351015Y-14230236D02*
X2351015Y-14249284D01*
X2484348Y-14049284D02*
X2503396Y-14049284D01*
X2503396Y-14049284D02*
X2522444Y-14058808D01*
X2522444Y-14058808D02*
X2531968Y-14068331D01*
X2531968Y-14068331D02*
X2541491Y-14087379D01*
X2541491Y-14087379D02*
X2551015Y-14125474D01*
X2551015Y-14125474D02*
X2551015Y-14173093D01*
X2551015Y-14173093D02*
X2541491Y-14211188D01*
X2541491Y-14211188D02*
X2531968Y-14230236D01*
X2531968Y-14230236D02*
X2522444Y-14239760D01*
X2522444Y-14239760D02*
X2503396Y-14249284D01*
X2503396Y-14249284D02*
X2484348Y-14249284D01*
X2484348Y-14249284D02*
X2465301Y-14239760D01*
X2465301Y-14239760D02*
X2455777Y-14230236D01*
X2455777Y-14230236D02*
X2446253Y-14211188D01*
X2446253Y-14211188D02*
X2436729Y-14173093D01*
X2436729Y-14173093D02*
X2436729Y-14125474D01*
X2436729Y-14125474D02*
X2446253Y-14087379D01*
X2446253Y-14087379D02*
X2455777Y-14068331D01*
X2455777Y-14068331D02*
X2465301Y-14058808D01*
X2465301Y-14058808D02*
X2484348Y-14049284D01*
X2617682Y-14049284D02*
X2741491Y-14049284D01*
X2741491Y-14049284D02*
X2674825Y-14125474D01*
X2674825Y-14125474D02*
X2703396Y-14125474D01*
X2703396Y-14125474D02*
X2722444Y-14134998D01*
X2722444Y-14134998D02*
X2731968Y-14144522D01*
X2731968Y-14144522D02*
X2741491Y-14163569D01*
X2741491Y-14163569D02*
X2741491Y-14211188D01*
X2741491Y-14211188D02*
X2731968Y-14230236D01*
X2731968Y-14230236D02*
X2722444Y-14239760D01*
X2722444Y-14239760D02*
X2703396Y-14249284D01*
X2703396Y-14249284D02*
X2646253Y-14249284D01*
X2646253Y-14249284D02*
X2627206Y-14239760D01*
X2627206Y-14239760D02*
X2617682Y-14230236D01*
X2931967Y-14249284D02*
X2817682Y-14249284D01*
X2874825Y-14249284D02*
X2874825Y-14049284D01*
X2874825Y-14049284D02*
X2855777Y-14077855D01*
X2855777Y-14077855D02*
X2836729Y-14096903D01*
X2836729Y-14096903D02*
X2817682Y-14106427D01*
X3112920Y-14049284D02*
X3017682Y-14049284D01*
X3017682Y-14049284D02*
X3008158Y-14144522D01*
X3008158Y-14144522D02*
X3017682Y-14134998D01*
X3017682Y-14134998D02*
X3036729Y-14125474D01*
X3036729Y-14125474D02*
X3084348Y-14125474D01*
X3084348Y-14125474D02*
X3103396Y-14134998D01*
X3103396Y-14134998D02*
X3112920Y-14144522D01*
X3112920Y-14144522D02*
X3122444Y-14163569D01*
X3122444Y-14163569D02*
X3122444Y-14211188D01*
X3122444Y-14211188D02*
X3112920Y-14230236D01*
X3112920Y-14230236D02*
X3103396Y-14239760D01*
X3103396Y-14239760D02*
X3084348Y-14249284D01*
X3084348Y-14249284D02*
X3036729Y-14249284D01*
X3036729Y-14249284D02*
X3017682Y-14239760D01*
X3017682Y-14239760D02*
X3008158Y-14230236D01*
X3198634Y-14049284D02*
X3198634Y-14087379D01*
X3274825Y-14049284D02*
X3274825Y-14087379D01*
X3570063Y-14325474D02*
X3560539Y-14315950D01*
X3560539Y-14315950D02*
X3541491Y-14287379D01*
X3541491Y-14287379D02*
X3531968Y-14268331D01*
X3531968Y-14268331D02*
X3522444Y-14239760D01*
X3522444Y-14239760D02*
X3512920Y-14192141D01*
X3512920Y-14192141D02*
X3512920Y-14154046D01*
X3512920Y-14154046D02*
X3522444Y-14106427D01*
X3522444Y-14106427D02*
X3531968Y-14077855D01*
X3531968Y-14077855D02*
X3541491Y-14058808D01*
X3541491Y-14058808D02*
X3560539Y-14030236D01*
X3560539Y-14030236D02*
X3570063Y-14020712D01*
X3627206Y-14049284D02*
X3751015Y-14049284D01*
X3751015Y-14049284D02*
X3684348Y-14125474D01*
X3684348Y-14125474D02*
X3712920Y-14125474D01*
X3712920Y-14125474D02*
X3731968Y-14134998D01*
X3731968Y-14134998D02*
X3741491Y-14144522D01*
X3741491Y-14144522D02*
X3751015Y-14163569D01*
X3751015Y-14163569D02*
X3751015Y-14211188D01*
X3751015Y-14211188D02*
X3741491Y-14230236D01*
X3741491Y-14230236D02*
X3731968Y-14239760D01*
X3731968Y-14239760D02*
X3712920Y-14249284D01*
X3712920Y-14249284D02*
X3655777Y-14249284D01*
X3655777Y-14249284D02*
X3636729Y-14239760D01*
X3636729Y-14239760D02*
X3627206Y-14230236D01*
X3874825Y-14049284D02*
X3893872Y-14049284D01*
X3893872Y-14049284D02*
X3912920Y-14058808D01*
X3912920Y-14058808D02*
X3922444Y-14068331D01*
X3922444Y-14068331D02*
X3931968Y-14087379D01*
X3931968Y-14087379D02*
X3941491Y-14125474D01*
X3941491Y-14125474D02*
X3941491Y-14173093D01*
X3941491Y-14173093D02*
X3931968Y-14211188D01*
X3931968Y-14211188D02*
X3922444Y-14230236D01*
X3922444Y-14230236D02*
X3912920Y-14239760D01*
X3912920Y-14239760D02*
X3893872Y-14249284D01*
X3893872Y-14249284D02*
X3874825Y-14249284D01*
X3874825Y-14249284D02*
X3855777Y-14239760D01*
X3855777Y-14239760D02*
X3846253Y-14230236D01*
X3846253Y-14230236D02*
X3836729Y-14211188D01*
X3836729Y-14211188D02*
X3827206Y-14173093D01*
X3827206Y-14173093D02*
X3827206Y-14125474D01*
X3827206Y-14125474D02*
X3836729Y-14087379D01*
X3836729Y-14087379D02*
X3846253Y-14068331D01*
X3846253Y-14068331D02*
X3855777Y-14058808D01*
X3855777Y-14058808D02*
X3874825Y-14049284D01*
X4179587Y-14249284D02*
X4179587Y-14049284D01*
X4265301Y-14249284D02*
X4265301Y-14144522D01*
X4265301Y-14144522D02*
X4255777Y-14125474D01*
X4255777Y-14125474D02*
X4236730Y-14115950D01*
X4236730Y-14115950D02*
X4208158Y-14115950D01*
X4208158Y-14115950D02*
X4189110Y-14125474D01*
X4189110Y-14125474D02*
X4179587Y-14134998D01*
X4389111Y-14249284D02*
X4370063Y-14239760D01*
X4370063Y-14239760D02*
X4360539Y-14230236D01*
X4360539Y-14230236D02*
X4351015Y-14211188D01*
X4351015Y-14211188D02*
X4351015Y-14154046D01*
X4351015Y-14154046D02*
X4360539Y-14134998D01*
X4360539Y-14134998D02*
X4370063Y-14125474D01*
X4370063Y-14125474D02*
X4389111Y-14115950D01*
X4389111Y-14115950D02*
X4417682Y-14115950D01*
X4417682Y-14115950D02*
X4436730Y-14125474D01*
X4436730Y-14125474D02*
X4446253Y-14134998D01*
X4446253Y-14134998D02*
X4455777Y-14154046D01*
X4455777Y-14154046D02*
X4455777Y-14211188D01*
X4455777Y-14211188D02*
X4446253Y-14230236D01*
X4446253Y-14230236D02*
X4436730Y-14239760D01*
X4436730Y-14239760D02*
X4417682Y-14249284D01*
X4417682Y-14249284D02*
X4389111Y-14249284D01*
X4570063Y-14249284D02*
X4551015Y-14239760D01*
X4551015Y-14239760D02*
X4541492Y-14220712D01*
X4541492Y-14220712D02*
X4541492Y-14049284D01*
X4722444Y-14239760D02*
X4703396Y-14249284D01*
X4703396Y-14249284D02*
X4665301Y-14249284D01*
X4665301Y-14249284D02*
X4646253Y-14239760D01*
X4646253Y-14239760D02*
X4636730Y-14220712D01*
X4636730Y-14220712D02*
X4636730Y-14144522D01*
X4636730Y-14144522D02*
X4646253Y-14125474D01*
X4646253Y-14125474D02*
X4665301Y-14115950D01*
X4665301Y-14115950D02*
X4703396Y-14115950D01*
X4703396Y-14115950D02*
X4722444Y-14125474D01*
X4722444Y-14125474D02*
X4731968Y-14144522D01*
X4731968Y-14144522D02*
X4731968Y-14163569D01*
X4731968Y-14163569D02*
X4636730Y-14182617D01*
X4808158Y-14239760D02*
X4827206Y-14249284D01*
X4827206Y-14249284D02*
X4865301Y-14249284D01*
X4865301Y-14249284D02*
X4884349Y-14239760D01*
X4884349Y-14239760D02*
X4893873Y-14220712D01*
X4893873Y-14220712D02*
X4893873Y-14211188D01*
X4893873Y-14211188D02*
X4884349Y-14192141D01*
X4884349Y-14192141D02*
X4865301Y-14182617D01*
X4865301Y-14182617D02*
X4836730Y-14182617D01*
X4836730Y-14182617D02*
X4817682Y-14173093D01*
X4817682Y-14173093D02*
X4808158Y-14154046D01*
X4808158Y-14154046D02*
X4808158Y-14144522D01*
X4808158Y-14144522D02*
X4817682Y-14125474D01*
X4817682Y-14125474D02*
X4836730Y-14115950D01*
X4836730Y-14115950D02*
X4865301Y-14115950D01*
X4865301Y-14115950D02*
X4884349Y-14125474D01*
X4960539Y-14325474D02*
X4970063Y-14315950D01*
X4970063Y-14315950D02*
X4989111Y-14287379D01*
X4989111Y-14287379D02*
X4998634Y-14268331D01*
X4998634Y-14268331D02*
X5008158Y-14239760D01*
X5008158Y-14239760D02*
X5017682Y-14192141D01*
X5017682Y-14192141D02*
X5017682Y-14154046D01*
X5017682Y-14154046D02*
X5008158Y-14106427D01*
X5008158Y-14106427D02*
X4998634Y-14077855D01*
X4998634Y-14077855D02*
X4989111Y-14058808D01*
X4989111Y-14058808D02*
X4970063Y-14030236D01*
X4970063Y-14030236D02*
X4960539Y-14020712D01*
X5322444Y-14325474D02*
X5312920Y-14315950D01*
X5312920Y-14315950D02*
X5293873Y-14287379D01*
X5293873Y-14287379D02*
X5284349Y-14268331D01*
X5284349Y-14268331D02*
X5274825Y-14239760D01*
X5274825Y-14239760D02*
X5265301Y-14192141D01*
X5265301Y-14192141D02*
X5265301Y-14154046D01*
X5265301Y-14154046D02*
X5274825Y-14106427D01*
X5274825Y-14106427D02*
X5284349Y-14077855D01*
X5284349Y-14077855D02*
X5293873Y-14058808D01*
X5293873Y-14058808D02*
X5312920Y-14030236D01*
X5312920Y-14030236D02*
X5322444Y-14020712D01*
X5398634Y-14115950D02*
X5398634Y-14249284D01*
X5398634Y-14134998D02*
X5408158Y-14125474D01*
X5408158Y-14125474D02*
X5427206Y-14115950D01*
X5427206Y-14115950D02*
X5455777Y-14115950D01*
X5455777Y-14115950D02*
X5474825Y-14125474D01*
X5474825Y-14125474D02*
X5484349Y-14144522D01*
X5484349Y-14144522D02*
X5484349Y-14249284D01*
X5608158Y-14249284D02*
X5589111Y-14239760D01*
X5589111Y-14239760D02*
X5579587Y-14230236D01*
X5579587Y-14230236D02*
X5570063Y-14211188D01*
X5570063Y-14211188D02*
X5570063Y-14154046D01*
X5570063Y-14154046D02*
X5579587Y-14134998D01*
X5579587Y-14134998D02*
X5589111Y-14125474D01*
X5589111Y-14125474D02*
X5608158Y-14115950D01*
X5608158Y-14115950D02*
X5636730Y-14115950D01*
X5636730Y-14115950D02*
X5655777Y-14125474D01*
X5655777Y-14125474D02*
X5665301Y-14134998D01*
X5665301Y-14134998D02*
X5674825Y-14154046D01*
X5674825Y-14154046D02*
X5674825Y-14211188D01*
X5674825Y-14211188D02*
X5665301Y-14230236D01*
X5665301Y-14230236D02*
X5655777Y-14239760D01*
X5655777Y-14239760D02*
X5636730Y-14249284D01*
X5636730Y-14249284D02*
X5608158Y-14249284D01*
X5731968Y-14115950D02*
X5808158Y-14115950D01*
X5760539Y-14049284D02*
X5760539Y-14220712D01*
X5760539Y-14220712D02*
X5770063Y-14239760D01*
X5770063Y-14239760D02*
X5789111Y-14249284D01*
X5789111Y-14249284D02*
X5808158Y-14249284D01*
X6027206Y-14115950D02*
X6027206Y-14315950D01*
X6027206Y-14125474D02*
X6046253Y-14115950D01*
X6046253Y-14115950D02*
X6084349Y-14115950D01*
X6084349Y-14115950D02*
X6103396Y-14125474D01*
X6103396Y-14125474D02*
X6112920Y-14134998D01*
X6112920Y-14134998D02*
X6122444Y-14154046D01*
X6122444Y-14154046D02*
X6122444Y-14211188D01*
X6122444Y-14211188D02*
X6112920Y-14230236D01*
X6112920Y-14230236D02*
X6103396Y-14239760D01*
X6103396Y-14239760D02*
X6084349Y-14249284D01*
X6084349Y-14249284D02*
X6046253Y-14249284D01*
X6046253Y-14249284D02*
X6027206Y-14239760D01*
X6236730Y-14249284D02*
X6217682Y-14239760D01*
X6217682Y-14239760D02*
X6208158Y-14220712D01*
X6208158Y-14220712D02*
X6208158Y-14049284D01*
X6398634Y-14249284D02*
X6398634Y-14144522D01*
X6398634Y-14144522D02*
X6389111Y-14125474D01*
X6389111Y-14125474D02*
X6370063Y-14115950D01*
X6370063Y-14115950D02*
X6331968Y-14115950D01*
X6331968Y-14115950D02*
X6312920Y-14125474D01*
X6398634Y-14239760D02*
X6379587Y-14249284D01*
X6379587Y-14249284D02*
X6331968Y-14249284D01*
X6331968Y-14249284D02*
X6312920Y-14239760D01*
X6312920Y-14239760D02*
X6303396Y-14220712D01*
X6303396Y-14220712D02*
X6303396Y-14201665D01*
X6303396Y-14201665D02*
X6312920Y-14182617D01*
X6312920Y-14182617D02*
X6331968Y-14173093D01*
X6331968Y-14173093D02*
X6379587Y-14173093D01*
X6379587Y-14173093D02*
X6398634Y-14163569D01*
X6465301Y-14115950D02*
X6541492Y-14115950D01*
X6493873Y-14049284D02*
X6493873Y-14220712D01*
X6493873Y-14220712D02*
X6503396Y-14239760D01*
X6503396Y-14239760D02*
X6522444Y-14249284D01*
X6522444Y-14249284D02*
X6541492Y-14249284D01*
X6684349Y-14239760D02*
X6665301Y-14249284D01*
X6665301Y-14249284D02*
X6627206Y-14249284D01*
X6627206Y-14249284D02*
X6608158Y-14239760D01*
X6608158Y-14239760D02*
X6598634Y-14220712D01*
X6598634Y-14220712D02*
X6598634Y-14144522D01*
X6598634Y-14144522D02*
X6608158Y-14125474D01*
X6608158Y-14125474D02*
X6627206Y-14115950D01*
X6627206Y-14115950D02*
X6665301Y-14115950D01*
X6665301Y-14115950D02*
X6684349Y-14125474D01*
X6684349Y-14125474D02*
X6693873Y-14144522D01*
X6693873Y-14144522D02*
X6693873Y-14163569D01*
X6693873Y-14163569D02*
X6598634Y-14182617D01*
X6865301Y-14249284D02*
X6865301Y-14049284D01*
X6865301Y-14239760D02*
X6846254Y-14249284D01*
X6846254Y-14249284D02*
X6808158Y-14249284D01*
X6808158Y-14249284D02*
X6789111Y-14239760D01*
X6789111Y-14239760D02*
X6779587Y-14230236D01*
X6779587Y-14230236D02*
X6770063Y-14211188D01*
X6770063Y-14211188D02*
X6770063Y-14154046D01*
X6770063Y-14154046D02*
X6779587Y-14134998D01*
X6779587Y-14134998D02*
X6789111Y-14125474D01*
X6789111Y-14125474D02*
X6808158Y-14115950D01*
X6808158Y-14115950D02*
X6846254Y-14115950D01*
X6846254Y-14115950D02*
X6865301Y-14125474D01*
X6941492Y-14325474D02*
X6951015Y-14315950D01*
X6951015Y-14315950D02*
X6970063Y-14287379D01*
X6970063Y-14287379D02*
X6979587Y-14268331D01*
X6979587Y-14268331D02*
X6989111Y-14239760D01*
X6989111Y-14239760D02*
X6998634Y-14192141D01*
X6998634Y-14192141D02*
X6998634Y-14154046D01*
X6998634Y-14154046D02*
X6989111Y-14106427D01*
X6989111Y-14106427D02*
X6979587Y-14077855D01*
X6979587Y-14077855D02*
X6970063Y-14058808D01*
X6970063Y-14058808D02*
X6951015Y-14030236D01*
X6951015Y-14030236D02*
X6941492Y-14020712D01*
M02*
