M48
; DRILL file {KiCad 7.0.6} date Tue 11 Jul 2023 01:44:21 PM IST
; FORMAT={-:-/ absolute / inch / decimal}
; #@! TF.CreationDate,2023-07-11T13:44:21+05:30
; #@! TF.GenerationSoftware,Kicad,Pcbnew,7.0.6
; #@! TF.FileFunction,Plated,1,2,PTH
FMAT,2
INCH
; #@! TA.AperFunction,Plated,PTH,ComponentDrill
T1C0.0276
; #@! TA.AperFunction,Plated,PTH,ComponentDrill
T2C0.0315
; #@! TA.AperFunction,Plated,PTH,ComponentDrill
T3C0.0354
; #@! TA.AperFunction,Plated,PTH,ComponentDrill
T4C0.0394
; #@! TA.AperFunction,Plated,PTH,ComponentDrill
T5C0.2165
%
G90
G05
T1
X0.26Y-3.0
X0.26Y-3.42
X0.28Y-3.88
X0.32Y-0.08
X0.32Y-0.28
X0.32Y-4.1559
X0.32Y-4.3559
X0.46Y-3.0
X0.46Y-3.42
X0.48Y-3.88
X0.74Y-0.0919
X0.74Y-0.2919
X0.76Y-4.1559
X0.76Y-4.3559
X1.16Y-0.1
X1.16Y-0.3
X1.22Y-4.1359
X1.22Y-4.3359
X1.56Y-0.1
X1.56Y-0.3
X1.56Y-1.48
X1.56Y-1.68
X1.66Y-4.1319
X1.66Y-4.3319
X1.7Y-1.68
X1.9Y-1.68
X1.96Y-0.0959
X1.96Y-0.2959
X1.96Y-1.0
X2.08Y-4.1319
X2.08Y-4.3319
X2.16Y-1.0
X2.36Y-0.0719
X2.36Y-0.2719
X2.46Y-1.22
X2.46Y-1.42
X2.54Y-4.1319
X2.54Y-4.3319
X2.8Y-0.08
X2.8Y-0.28
X2.98Y-4.1359
X2.98Y-4.3359
X3.22Y-0.08
X3.22Y-0.28
X3.42Y-4.14
X3.42Y-4.34
X3.8543Y-4.14
X3.8543Y-4.34
X4.3Y-4.14
X4.3Y-4.34
T2
X0.1143Y-4.7181
X0.2143Y-4.7181
X0.3143Y-4.7181
X0.5553Y-4.7181
X0.6553Y-4.7181
X0.7553Y-4.7181
X0.7943Y-1.02
X0.7943Y-1.62
X0.7943Y-1.84
X0.7943Y-1.94
X0.7943Y-2.04
X0.7943Y-2.14
X0.7943Y-2.24
X0.7943Y-2.34
X0.7943Y-2.44
X0.7943Y-2.54
X0.8943Y-1.02
X0.8943Y-1.62
X0.9943Y-1.02
X0.9943Y-1.62
X0.9962Y-4.7181
X1.0943Y-1.02
X1.0943Y-1.62
X1.0962Y-4.7181
X1.1943Y-1.02
X1.1943Y-1.62
X1.1943Y-1.84
X1.1943Y-1.94
X1.1943Y-2.04
X1.1943Y-2.14
X1.1943Y-2.24
X1.1943Y-2.34
X1.1943Y-2.44
X1.1943Y-2.54
X1.1962Y-4.7181
X1.4372Y-4.7181
X1.5372Y-4.7181
X1.6372Y-4.7181
X1.8781Y-4.7181
X1.9639Y-1.1304
X1.9639Y-1.4304
X1.9781Y-4.7181
X2.0639Y-1.1304
X2.0639Y-1.4304
X2.0781Y-4.7181
X2.1639Y-1.1304
X2.1639Y-1.4304
X2.2639Y-1.1304
X2.2639Y-1.4304
X2.3191Y-4.7181
X2.4191Y-4.7181
X2.5191Y-4.7181
X2.76Y-4.7181
X2.86Y-4.7181
X2.96Y-4.7181
X3.2009Y-4.7181
X3.3009Y-4.7181
X3.4009Y-4.7181
X3.6419Y-4.7181
X3.7419Y-4.7181
X3.8419Y-4.7181
X4.0828Y-4.7181
X4.1828Y-4.7181
X4.2828Y-4.7181
T3
X0.0743Y-0.16
X0.0743Y-4.26
X0.1743Y-0.16
X0.1743Y-4.26
X0.3343Y-2.82
X0.3343Y-3.24
X0.3343Y-3.7
X0.4343Y-2.82
X0.4343Y-3.24
X0.4343Y-3.7
X0.4758Y-0.14
X0.5343Y-4.26
X0.5758Y-0.14
X0.6343Y-4.26
X0.8943Y-0.14
X0.9943Y-0.14
X0.9943Y-4.26
X1.0943Y-4.26
X1.3045Y-0.14
X1.4045Y-0.14
X1.4343Y-4.26
X1.5343Y-4.26
X1.7045Y-0.14
X1.8045Y-0.14
X1.8641Y-4.26
X1.9641Y-4.26
X2.1245Y-0.14
X2.197Y-1.591
X2.197Y-1.691
X2.2245Y-0.14
X2.3143Y-4.26
X2.4143Y-4.26
X2.5343Y-0.14
X2.6343Y-0.14
X2.7441Y-4.26
X2.8441Y-4.26
X2.9543Y-0.14
X3.0543Y-0.14
X3.1841Y-4.26
X3.2841Y-4.26
X3.6343Y-4.26
X3.7343Y-4.26
X4.0743Y-4.26
X4.1743Y-4.26
T4
X1.5193Y-1.95
X1.5193Y-3.85
X1.6193Y-1.95
X1.6193Y-3.85
X1.7193Y-1.95
X1.7193Y-3.85
X1.8193Y-1.95
X1.8193Y-3.85
X1.9193Y-1.95
X1.9193Y-3.85
X2.0193Y-1.95
X2.0193Y-3.85
X2.1193Y-1.95
X2.2193Y-1.95
X2.2193Y-3.85
X2.3193Y-3.85
X2.3792Y-1.95
X2.4193Y-3.85
X2.4792Y-1.95
X2.5193Y-3.85
X2.5792Y-1.95
X2.6193Y-3.85
X2.6792Y-1.95
X2.7193Y-3.85
X2.7792Y-1.95
X2.8193Y-3.85
X2.8792Y-1.95
X2.9193Y-3.85
X2.9792Y-1.95
X3.0792Y-1.95
X3.1751Y-1.36
X3.1792Y-1.95
X3.2792Y-1.95
X3.4743Y-1.36
T5
X0.18Y-0.52
X0.2143Y-5.08
X0.2343Y-1.1325
X0.2343Y-1.54
X0.2343Y-1.94
X0.2343Y-2.3475
X0.5875Y-0.52
X0.6576Y-5.08
X0.7219Y-2.9184
X0.7219Y-3.3259
X0.7219Y-3.7333
X0.995Y-0.52
X1.0962Y-5.08
X1.4Y-0.52
X1.5372Y-5.08
X1.5743Y-1.12
X1.8075Y-0.52
X1.9781Y-5.08
X2.215Y-0.52
X2.4191Y-5.08
X2.6224Y-0.52
X2.7143Y-1.08
X2.7343Y-1.58
X2.86Y-5.08
X3.0299Y-0.52
X3.3009Y-5.08
X3.7343Y-0.26
X3.7343Y-0.7
X3.7419Y-5.08
X4.1828Y-5.08
T0
M30
